<?xml version="1.0" encoding="UTF-8"?><svg id="Layer_2" xmlns="http://www.w3.org/2000/svg" viewBox="0 0 257 91"><defs><style>.cls-1{fill-rule:evenodd;}.cls-1,.cls-2,.cls-3{stroke-width:0px;}.cls-1,.cls-3{fill:#fff;}.cls-2{fill:rgba(15,3,42,.24);}.cls-4{fill:none;stroke:rgba(255,255,255,.2);}</style></defs><g id="Layer_1-2"><path class="cls-2" d="M45.5.5h166c24.85,0,45,20.15,45,45h0c0,24.85-20.15,45-45,45H45.5C20.65,90.5.5,70.35.5,45.5h0C.5,20.65,20.65.5,45.5.5Z"/><path class="cls-4" d="M45.5.5h166c24.85,0,45,20.15,45,45h0c0,24.85-20.15,45-45,45H45.5C20.65,90.5.5,70.35.5,45.5h0C.5,20.65,20.65.5,45.5.5Z"/><path class="cls-3" d="M139.19,27.59l4.44,10.63h-1.37l-1.49-3.56h-4.51l-1.46,3.56h-1.37l4.39-10.63h1.37ZM136.68,33.66h3.68l-1.85-4.68-1.82,4.68Z"/><path class="cls-3" d="M150.01,30.99v-4.16h1.29v11.39h-.91l-.18-.56c-.61.47-1.4.79-2.2.79-1.9,0-3.37-1.94-3.37-4.28,0-1.91,1.03-3.77,3.24-3.77.85,0,1.58.27,2.14.59ZM150.01,36.7v-4.63c-.49-.29-1.18-.58-2.04-.58-1.2,0-2.05.91-2.05,2.55s.91,3.24,2.28,3.24c.61,0,1.34-.26,1.81-.58Z"/><path class="cls-3" d="M157.92,33.44v-.58c0-.91-.27-1.29-1.29-1.29-.44,0-1.11.06-1.67.12l-1.02.12v-1.18c.41-.03.82-.06,1.22-.11.67-.06,1.46-.12,1.99-.12,1.6,0,2.08,1.14,2.08,2.01v5.82h-.96l-.21-.74h-.05c-.71.49-1.63.9-2.54.9-1.67,0-2.4-1.4-2.4-2.55,0-1.29.97-2.39,2.83-2.39h2.02ZM157.91,36.63h.02v-2.17h-2.02c-1.17,0-1.5.65-1.5,1.37,0,.62.29,1.53,1.34,1.53.7,0,1.64-.36,2.17-.73Z"/><path class="cls-3" d="M161.91,30.63l.2.43c.65-.32,1.52-.65,2.43-.65,2.2,0,3.24,2.07,3.24,3.98,0,2.19-1.12,4.07-3.37,4.07-.74,0-1.46-.2-2.05-.5v4.07h-1.26v-11.39h.82ZM166.49,34.24c0-1.66-.9-2.81-2.07-2.81-.77,0-1.53.26-2.08.49v5.06c.47.24,1.23.38,1.84.38,1.82,0,2.31-1.55,2.31-3.11Z"/><path class="cls-3" d="M169.41,30.63h1.29v-2.2h1.29v2.2h1.88v1.17h-1.88v4.19c0,.67.09,1.06.94,1.06h.79v1.17h-1.37c-.97,0-1.66-.55-1.66-1.46v-4.97h-1.29v-1.17Z"/><path class="cls-3" d="M175.91,27.59h1.29v1.17h-1.29v-1.17ZM177.2,30.63v7.6h-1.29v-7.6h1.29Z"/><path class="cls-3" d="M186.49,30.63l-2.98,7.6h-1.46l-2.96-7.6h1.37l2.32,6.26,2.34-6.26h1.37Z"/><path class="cls-3" d="M190.71,30.4c2.61,0,3.18,2.37,3.18,4.48h-5.45c.08,1.02.7,2.42,2.57,2.42.59,0,1.72-.12,2.51-.49v1.2c-.99.38-1.81.44-2.34.44-2.87,0-4-1.88-4-4.06,0-2.45,1.43-4,3.54-4ZM192.58,33.88c-.12-1.2-.62-2.32-1.9-2.32-1.15,0-2.04.93-2.2,2.32h4.1Z"/><path class="cls-3" d="M137.46,40.78c2.67,0,3.33,1.61,3.33,2.66,0,.65-.23,1.4-1,1.93,1.14.53,1.72,1.46,1.72,2.69,0,1.9-1.4,3.36-3.93,3.36h-3.75v-10.63h3.65ZM135.18,44.94h2.02c1.73,0,2.22-.44,2.22-1.5s-.49-1.66-2.22-1.66c-.23.02-.47.02-.71.02h-1.31v3.15ZM135.18,45.96v4.45h2.13c1.9,0,2.83-.84,2.83-2.35s-.88-2.05-2.69-2.1h-2.26Z"/><path class="cls-3" d="M146.52,43.59c2.61,0,3.18,2.37,3.18,4.48h-5.45c.08,1.02.7,2.42,2.57,2.42.59,0,1.72-.12,2.51-.49v1.2c-.99.38-1.81.44-2.34.44-2.87,0-4-1.88-4-4.06,0-2.45,1.43-4,3.54-4ZM148.39,47.07c-.12-1.2-.62-2.32-1.9-2.32-1.15,0-2.04.93-2.2,2.32h4.1Z"/><path class="cls-3" d="M152.85,40.02v4.33c.73-.44,1.55-.76,2.46-.76,1.5,0,2.67.91,2.67,2.45v5.38h-1.29v-5.38c0-.93-.68-1.25-1.53-1.25s-1.58.33-2.31.82v5.8h-1.26v-11.39h1.26Z"/><path class="cls-3" d="M164.84,46.62v-.58c0-.91-.27-1.29-1.29-1.29-.44,0-1.11.06-1.67.12l-1.02.12v-1.18c.41-.03.82-.06,1.22-.11.67-.06,1.46-.12,1.99-.12,1.6,0,2.08,1.14,2.08,2.01v5.82h-.96l-.21-.74h-.05c-.71.49-1.63.9-2.54.9-1.67,0-2.4-1.4-2.4-2.55,0-1.29.97-2.38,2.83-2.38h2.02ZM164.82,49.82h.02v-2.17h-2.02c-1.17,0-1.5.65-1.5,1.37,0,.62.29,1.53,1.34,1.53.7,0,1.64-.36,2.17-.73Z"/><path class="cls-3" d="M174.59,43.81l-2.98,7.6h-1.46l-2.96-7.6h1.37l2.32,6.26,2.34-6.26h1.37Z"/><path class="cls-3" d="M176.51,40.78h1.29v1.17h-1.29v-1.17ZM177.8,43.81v7.6h-1.29v-7.6h1.29Z"/><path class="cls-3" d="M183.83,43.59c2.37,0,4.03,1.81,4.03,4.03s-1.66,4.03-4.03,4.03-4.01-1.81-4.01-4.03,1.61-4.03,4.01-4.03ZM183.83,50.48c1.7,0,2.78-1.29,2.78-2.87s-1.08-2.87-2.78-2.87-2.78,1.29-2.78,2.87,1.06,2.87,2.78,2.87Z"/><path class="cls-3" d="M190.5,43.81l.18.53c.53-.41,1.11-.74,1.73-.74.53,0,1.2.2,1.52.36l-.5,1.02c-.35-.12-.77-.23-1.2-.23-.61,0-1.03.24-1.38.56v6.09h-1.26v-7.6h.91Z"/><path class="cls-3" d="M199.62,46.62v-.58c0-.91-.27-1.29-1.29-1.29-.44,0-1.11.06-1.67.12l-1.02.12v-1.18c.41-.03.82-.06,1.22-.11.67-.06,1.46-.12,1.99-.12,1.6,0,2.08,1.14,2.08,2.01v5.82h-.96l-.21-.74h-.05c-.71.49-1.63.9-2.54.9-1.67,0-2.4-1.4-2.4-2.55,0-1.29.97-2.38,2.83-2.38h2.02ZM199.6,49.82h.02v-2.17h-2.02c-1.17,0-1.5.65-1.5,1.37,0,.62.29,1.53,1.34,1.53.7,0,1.64-.36,2.17-.73Z"/><path class="cls-3" d="M204.53,40.02v11.39h-1.29v-11.39h1.29Z"/><path class="cls-3" d="M134.18,61.69c.27.24.55.46.84.64.49.32,1.11.64,1.67.64,1.14,0,2.13-.74,2.13-1.84,0-2.6-5.17-2.58-5.17-5.44,0-1.64,1.69-2.66,3.34-2.66.85,0,1.53.24,2.02.47.29.14.53.3.76.47l-.52,1.12c-.21-.17-.44-.32-.7-.46-.43-.23-1-.46-1.57-.46-.93,0-1.97.49-1.97,1.5s1.25,1.49,1.97,1.9c1.72.99,3.19,1.52,3.19,3.54,0,1.75-1.73,2.99-3.49,2.99-.91,0-1.67-.32-2.2-.64-.32-.18-.59-.39-.84-.65l.53-1.14Z"/><path class="cls-3" d="M145.36,56.07c2.61,0,3.18,2.37,3.18,4.48h-5.45c.08,1.02.7,2.42,2.57,2.42.59,0,1.72-.12,2.51-.49v1.2c-.99.38-1.81.44-2.34.44-2.87,0-4-1.88-4-4.06,0-2.45,1.43-4,3.54-4ZM147.23,59.54c-.12-1.2-.62-2.32-1.9-2.32-1.15,0-2.04.93-2.2,2.32h4.1Z"/><path class="cls-3" d="M151.15,56.29l.18.53c.53-.41,1.11-.74,1.73-.74.53,0,1.2.2,1.52.36l-.5,1.02c-.35-.12-.77-.23-1.2-.23-.61,0-1.03.24-1.38.56v6.09h-1.26v-7.6h.91Z"/><path class="cls-3" d="M163.26,56.29l-2.98,7.6h-1.46l-2.96-7.6h1.37l2.32,6.26,2.34-6.26h1.37Z"/><path class="cls-3" d="M165.17,53.25h1.29v1.17h-1.29v-1.17ZM166.46,56.29v7.6h-1.29v-7.6h1.29Z"/><path class="cls-3" d="M172.48,62.96c.68,0,1.37-.08,2.05-.23v1.15c-.68.15-1.37.23-2.05.23-2.2,0-4-1.81-4-4.03s1.79-4.03,4-4.03c.68,0,1.37.08,2.05.23v1.15c-.68-.15-1.37-.23-2.05-.23-1.53,0-2.75,1.29-2.75,2.87s1.22,2.87,2.75,2.87Z"/><path class="cls-3" d="M179.65,56.07c2.61,0,3.18,2.37,3.18,4.48h-5.45c.08,1.02.7,2.42,2.57,2.42.59,0,1.72-.12,2.51-.49v1.2c-.99.38-1.81.44-2.34.44-2.87,0-4-1.88-4-4.06,0-2.45,1.43-4,3.54-4ZM181.52,59.54c-.12-1.2-.62-2.32-1.9-2.32-1.15,0-2.04.93-2.2,2.32h4.1Z"/><path class="cls-3" d="M185.24,62.04c.23.18.49.33.74.47.44.23.99.46,1.52.46.61,0,1.66-.35,1.66-1.19,0-.74-.84-1.11-2.29-1.64-1.03-.36-2.19-.79-2.19-1.94,0-1.34,1.5-2.13,2.87-2.13.67,0,1.29.2,1.76.4.26.11.52.24.74.39l-.77.93c-.17-.11-.35-.2-.53-.27-.32-.14-.73-.29-1.2-.29-.77,0-1.61.36-1.61.97,0,.38.82.67,1.5.91,1.84.7,2.98,1.15,2.98,2.67,0,1.66-1.84,2.34-2.92,2.34-.77,0-1.52-.3-2.11-.61-.33-.18-.65-.38-.97-.61l.82-.87Z"/><rect class="cls-3" x="129.98" y="22.2" width=".91" height="46.59"/><path class="cls-3" d="M72.87,48.87h-4.76l-.66,2.24h-4.28l5.1-13.57h4.57l5.1,13.57h-4.39l-.68-2.24ZM72,45.94l-1.5-4.88-1.48,4.88h2.98Z"/><path class="cls-3" d="M79.28,37.55h7.85c1.31,0,2.31.32,3.01.97.7.65,1.05,1.45,1.05,2.41,0,.8-.25,1.49-.75,2.06-.33.38-.82.68-1.46.91.98.23,1.69.64,2.15,1.21.46.57.69,1.29.69,2.15,0,.7-.16,1.34-.49,1.9-.33.56-.77,1.01-1.34,1.33-.35.2-.88.35-1.59.44-.94.12-1.57.19-1.88.19h-7.24v-13.57ZM83.51,42.87h1.82c.65,0,1.11-.11,1.37-.34.26-.23.38-.55.38-.98,0-.39-.13-.7-.38-.93-.26-.22-.7-.33-1.34-.33h-1.85v2.57ZM83.51,48.2h2.14c.72,0,1.23-.13,1.53-.38.3-.26.44-.6.44-1.03,0-.4-.15-.72-.44-.97-.29-.24-.81-.37-1.54-.37h-2.13v2.75Z"/><path class="cls-3" d="M93.28,46.63l3.99-.25c.09.65.26,1.14.53,1.48.43.55,1.05.82,1.85.82.6,0,1.06-.14,1.38-.42.32-.28.49-.61.49-.98s-.15-.67-.46-.94c-.31-.28-1.02-.54-2.15-.79-1.84-.41-3.15-.96-3.93-1.65-.79-.69-1.18-1.56-1.18-2.62,0-.7.2-1.36.61-1.98.4-.62,1.01-1.11,1.82-1.46.81-.35,1.92-.53,3.34-.53,1.73,0,3.06.32,3.97.97.91.64,1.45,1.67,1.62,3.08l-3.95.23c-.1-.61-.33-1.06-.66-1.33-.34-.28-.8-.42-1.39-.42-.49,0-.85.1-1.1.31-.25.21-.37.46-.37.75,0,.22.1.41.31.58.2.18.67.35,1.41.5,1.83.39,3.15.79,3.94,1.2.79.4,1.37.91,1.73,1.5.36.6.54,1.27.54,2.01,0,.87-.24,1.67-.72,2.41-.48.73-1.15,1.29-2.02,1.67-.86.38-1.95.57-3.27.57-2.31,0-3.91-.44-4.79-1.33-.89-.89-1.39-2.02-1.51-3.39Z"/><path class="cls-3" d="M82.5,28c10.85,0,20.97,2.15,28.5,6.04,6.39,3.31,10.06,7.51,10.06,11.51s-3.67,8.2-10.06,11.51c-7.53,3.9-17.65,6.04-28.5,6.04s-20.97-2.15-28.5-6.04c-6.39-3.31-10.06-7.51-10.06-11.51s3.67-8.2,10.06-11.51c7.53-3.9,17.65-6.04,28.5-6.04M82.5,23.01c-24.05,0-43.55,10.09-43.55,22.55s19.5,22.55,43.55,22.55,43.55-10.09,43.55-22.55-19.5-22.55-43.55-22.55h0Z"/><path class="cls-3" d="M192.93,62.65l-.59,2.25h-.68l.29-2.25h.98Z"/><path class="cls-3" d="M195.36,63.69h-.88v-6.84h.88v6.84Z"/><path class="cls-3" d="M202.13,63.69h-.88l-3.43-5.38v5.38h-.88v-6.84h.88l3.43,5.38v-5.38h.88v6.84Z"/><path class="cls-3" d="M206.85,63.1c.6,0,1.14-.21,1.6-.56l.57.57c-.62.46-1.35.73-2.17.73-1.95,0-3.57-1.61-3.57-3.57s1.61-3.57,3.57-3.57c.82,0,1.55.27,2.17.74l-.57.57c-.46-.35-1.01-.57-1.6-.57-1.49,0-2.69,1.27-2.69,2.82s1.2,2.82,2.69,2.82Z"/><path class="cls-3" d="M211.03,62.65v1.05h-.98v-1.05h.98Z"/><path class="cls-1" d="M214.01,55.18v.55h-1.14c-.1.95-.01,2.09-.04,3.11-.13.07-.5.07-.63,0v-3.11h-1.18v-.55h2.99Z"/><path class="cls-1" d="M214.43,55.18h.92c.27.99.63,1.89.88,2.9.37-.9.62-1.93.92-2.9h.88v3.7h-.55v-3.03c-.36.97-.62,2.04-.97,3.03h-.5c-.36-.97-.67-2-.97-3.03-.1.91-.01,2-.04,2.99-.12.07-.47.07-.59,0v-3.66Z"/></g></svg>