<?xml version="1.0" encoding="UTF-8"?><svg id="Layer_2" xmlns="http://www.w3.org/2000/svg" viewBox="0 0 257 91"><defs><style>.cls-1{fill:rgba(15,3,42,.24);}.cls-1,.cls-2{stroke-width:0px;}.cls-2{fill:#fff;}.cls-3{fill:none;stroke:rgba(255,255,255,.2);}</style></defs><g id="Layer_1-2"><path class="cls-1" d="M45.5.5h166c24.85,0,45,20.15,45,45h0c0,24.85-20.15,45-45,45H45.5C20.65,90.5.5,70.35.5,45.5h0C.5,20.65,20.65.5,45.5.5Z"/><path class="cls-3" d="M45.5.5h166c24.85,0,45,20.15,45,45h0c0,24.85-20.15,45-45,45H45.5C20.65,90.5.5,70.35.5,45.5h0C.5,20.65,20.65.5,45.5.5Z"/><path class="cls-2" d="M126.6,5.35c.53.14,1.08.09,1.63.14,6.18.6,11.6,2.95,16.17,7.15,3.7,3.4,6.17,7.56,7.19,12.51.57,2.74.56,5.48-.02,8.22-.05.24-.14.4-.4.43.54.74.14,1.71-.9,1.68.12.23.03.43-.05.64-1.2,3.13-3.01,5.89-5.29,8.33-3.27,3.51-7.12,6.16-11.66,7.76-2.8.99-5.68,1.43-8.65,1.18-1.81-.15-3.51-.74-5.15-1.48-7.16-3.25-11.64-8.79-13.62-16.32-1.62-6.19-1.16-12.31,1.43-18.17,2.81-6.37,7.7-10.25,14.54-11.65,1.09-.22,2.2-.34,3.31-.37.11,0,.24.05.34-.06h1.13ZM150.02,35.41c-.1-.08-.16-.13-.22-.19-.33-.31-.42-.74-.24-1.14.18-.39.58-.65,1.02-.55.33.08.36-.07.41-.31.83-4.03.41-7.95-1.15-11.74-2.12-5.15-5.69-9.04-10.49-11.8-5.24-3.01-10.86-4.35-16.88-3.36-6.59,1.08-11.35,4.72-14.31,10.7-1.56,3.15-2.29,6.53-2.49,10.03-.29,4.86.58,9.49,2.88,13.78,3.22,6.01,8.1,10.01,14.75,11.7,2.34.6,4.72.35,7.06-.15,3.5-.74,6.66-2.26,9.55-4.34,4.42-3.18,7.83-7.17,9.8-12.3.06-.14.12-.27.32-.34Z"/><path class="cls-2" d="M80.8,77.39c.19-.15.22-.39.31-.59,2.21-5.18,4.41-10.37,6.62-15.55.07-.16.06-.42.29-.44.3-.03.62-.02.92.01.12.01.13.19.18.29,1.74,4.1,3.47,8.21,5.21,12.31.53,1.26,1.06,2.52,1.6,3.77.11.25.1.34-.21.34-.94,0-.94.01-1.31-.86-1.91-4.63-3.82-9.25-5.74-13.88-.05-.13-.12-.26-.22-.47-.1.23-.17.4-.24.56-1.98,4.76-3.96,9.52-5.92,14.28-.12.28-.25.4-.56.37-.31-.02-.62,0-.92,0,0-.05,0-.11,0-.16Z"/><path class="cls-2" d="M163.54,63.14c0,.26,0,.41,0,.55,0,4.45,0,8.91,0,13.36,0,.37-.07.52-.48.5-.77-.03-.77,0-.77-.76,0-5.14,0-10.27,0-15.41,0-.19-.13-.45.13-.57.29-.13.84.02,1.02.24.82,1.03,1.64,2.06,2.46,3.08,2.94,3.69,5.88,7.38,8.82,11.07.05.06.1.12.17.21.1-.16.06-.31.06-.44,0-4.57,0-9.15,0-13.72,0-.38.11-.47.47-.46.76.03.76,0,.76.75,0,5.18,0,10.35.01,15.53,0,.4-.11.47-.49.48-.48.02-.77-.14-1.07-.52-3.57-4.51-7.17-9-10.76-13.49-.09-.11-.19-.22-.35-.4Z"/><path class="cls-2" d="M110.77,77.51c-.1.02-.12.02-.13.03q-1.21.05-1.94-.9c-1.92-2.48-3.85-4.96-5.76-7.45-.21-.27-.32-.24-.53-.02-.97,1.02-1.96,2.03-2.95,3.03-.15.16-.17.32-.17.51,0,1.48,0,2.95,0,4.43,0,.34-.1.43-.43.42-.81-.02-.81,0-.81-.83,0-5.14,0-10.27,0-15.41,0-.39.06-.54.5-.52.75.04.75.01.75.74,0,2.95,0,5.9,0,8.85,0,.14-.04.29-.06.33.7-.64,1.43-1.24,2.09-1.92,2.51-2.59,5-5.2,7.49-7.8.1-.11.2-.2.37-.19.37.01.75,0,1.23,0-.36.39-.67.72-.97,1.04-1.91,2.01-3.82,4.03-5.74,6.03-.21.22-.18.34-.01.56,2.22,2.84,4.43,5.69,6.64,8.54.13.17.26.33.42.54Z"/><path class="cls-2" d="M125.33,77.54c-.39,0-.76-.01-1.12,0-.24.01-.33-.16-.44-.3-2.04-2.63-4.07-5.26-6.11-7.89-.05-.06-.11-.12-.15-.19-.14-.24-.25-.27-.46-.04-.96,1.01-1.93,2.01-2.92,3-.18.19-.26.37-.26.63.01,1.46,0,2.92.01,4.39,0,.31-.07.41-.4.41-.82-.02-.82,0-.82-.82,0-5.16,0-10.33,0-15.49,0-.35.07-.46.43-.45.78.03.78,0,.78.78v8.81c0,.15,0,.29,0,.46.51-.5,1.02-.96,1.49-1.45,2.56-2.65,5.14-5.29,7.64-8,.6-.65,1.22-.61,2.01-.57-.65.69-1.26,1.33-1.86,1.96-1.61,1.7-3.22,3.41-4.85,5.1-.2.21-.16.33,0,.53,2.26,2.9,4.51,5.8,6.77,8.7.09.11.21.21.25.42Z"/><path class="cls-2" d="M140.93,65.71c0,1.45.04,2.9-.01,4.34-.05,1.55-.35,3.06-1.12,4.44-1.08,1.93-2.75,2.96-4.94,3.13-1.39.11-2.77.04-4.05-.59-2.09-1.03-3.11-2.82-3.56-5.02-.19-.92-.27-1.85-.27-2.8,0-2.67,0-5.34,0-8.01,0-.34.09-.43.42-.42.81.02.81,0,.81.83,0,2.66-.02,5.31,0,7.97.02,1.58.24,3.13,1.1,4.51.93,1.5,2.28,2.3,4.04,2.41,1.28.08,2.52-.03,3.64-.74,1.46-.93,2.14-2.35,2.48-3.97.19-.89.25-1.8.25-2.72-.01-2.63,0-5.26-.01-7.89,0-.32.09-.4.4-.4.83.02.83,0,.83.81v4.1s0,0-.01,0Z"/><path class="cls-2" d="M158.48,65.74c0,1.48.05,2.95-.01,4.43-.06,1.51-.36,2.98-1.11,4.32-.99,1.76-2.48,2.82-4.5,3.08-1.62.21-3.22.15-4.7-.64-1.98-1.06-2.93-2.83-3.36-4.94-.19-.92-.26-1.86-.26-2.8,0-2.66,0-5.31,0-7.97,0-.33.08-.43.42-.42.81.02.81,0,.81.83,0,2.63-.02,5.26,0,7.89.01,1.52.21,3.03.98,4.39.94,1.66,2.38,2.53,4.29,2.63,1.5.07,2.91-.15,4.1-1.18,1.09-.94,1.61-2.18,1.89-3.55.2-.94.26-1.88.26-2.84,0-2.56,0-5.12,0-7.69,0-.35.07-.49.46-.47.76.03.76,0,.76.76v4.19s0,0-.01,0Z"/><path class="cls-2" d="M141.13,83.1c0,.65,0,1.3,0,1.95,0,.11,0,.21,0,.32,0,.12,0,.25-.18.24-.17-.01-.14-.14-.14-.24,0-.5,0-.99,0-1.49,0-.43,0-.86,0-1.29,0-.13-.09-.31.11-.38.21-.06.28.1.36.24.44.77.89,1.53,1.33,2.29.07.12.15.24.26.42.52-.9,1.02-1.75,1.52-2.6.05-.09.11-.19.16-.28.07-.11.19-.09.29-.07.1.02.1.11.1.19,0,.99,0,1.99,0,2.98,0,.11,0,.21-.16.22-.18,0-.19-.11-.19-.24,0-.63,0-1.26,0-1.89,0-.13.05-.26-.08-.42-.43.74-.86,1.46-1.28,2.19-.3.52-.42.52-.72.01-.42-.73-.85-1.46-1.27-2.18-.04,0-.07,0-.11.01Z"/><path class="cls-2" d="M133.97,58.96c-.51,0-1.02-.01-1.52,0-.24,0-.32-.05-.33-.31-.02-.92-.03-.92.88-.92.84,0,1.69,0,2.53,0,.22,0,.3.06.31.29.04.94.04.93-.9.93-.32,0-.64,0-.96,0Z"/><path class="cls-2" d="M133.11,83.34c0-.29,0-.59,0-.88,0-.12-.01-.25.18-.24.2,0,.16.15.16.26,0,.51,0,1.02,0,1.53,0,.76.48,1.27,1.19,1.29.72.01,1.22-.46,1.26-1.22.03-.52,0-1.04.01-1.57,0-.12-.05-.29.18-.28.19.01.14.17.14.27,0,.55.02,1.1,0,1.65-.04.89-.68,1.49-1.57,1.48-.87,0-1.49-.6-1.53-1.48-.01-.27,0-.54,0-.8,0,0,0,0,0,0Z"/><path class="cls-2" d="M122.48,83.4c-.02.3.04.66-.04,1.02-.18.79-.82,1.25-1.67,1.19-.76-.05-1.36-.64-1.4-1.41-.03-.58,0-1.15,0-1.73,0-.12-.03-.26.16-.26.2,0,.16.15.16.26,0,.51,0,1.02,0,1.53.01.76.5,1.27,1.2,1.29.72.02,1.24-.5,1.26-1.27.01-.51,0-1.02,0-1.53,0-.11-.06-.26.14-.27.22,0,.18.15.18.28,0,.28,0,.56,0,.9Z"/><path class="cls-2" d="M113.64,82.21c.4,0,.8,0,1.21,0,.12,0,.33-.09.32.17-.01.26-.21.14-.33.15-.23.02-.46.03-.68,0-.32-.04-.37.1-.37.39.02.78.01,1.55,0,2.33,0,.13.1.36-.18.35-.24,0-.16-.21-.16-.34,0-.8-.01-1.61,0-2.41,0-.24-.07-.34-.32-.32-.28.02-.56,0-.84,0-.13,0-.25,0-.24-.18,0-.16.12-.15.23-.15.46,0,.91,0,1.37,0Z"/><path class="cls-2" d="M127.07,83.9c0-.48,0-.96,0-1.45,0-.1-.03-.23.13-.24.18,0,.19.11.18.24,0,.83.01,1.66,0,2.49,0,.28.08.37.36.36.37-.02.75,0,1.12,0,.12,0,.26-.02.26.16,0,.2-.15.16-.26.16-.51,0-1.02,0-1.53,0-.21,0-.28-.06-.28-.28.01-.48,0-.96,0-1.45Z"/><path class="cls-2" d="M126.28,9.58c-2.9,0-5.67.57-8.31,1.75-1.86.83-3.26,2.23-4.43,3.87-1.77,2.46-2.84,5.24-3.67,8.13-.09.32-.17.65-.25.97-.06.21-.19.34-.41.28-.2-.05-.26-.22-.21-.42.98-3.75,2.32-7.33,4.84-10.36,1.74-2.1,3.99-3.33,6.58-4.02,7.4-1.97,14.03-.38,19.97,4.33,2.59,2.05,4.63,4.57,6.23,7.45,1,1.81,1.45,3.78,1.43,5.83-.04,5.95-2.21,11.08-6.19,15.45-2.53,2.79-5.57,4.85-9.14,6.09-2.53.88-5.14,1.24-7.8.82-1.81-.29-3.5-.99-5.1-1.89-3.86-2.17-6.52-5.42-8.35-9.4-1.52-3.3-2.28-6.79-2.46-10.42-.02-.39-.03-.78-.04-1.17,0-.23-.01-.5.31-.51.32,0,.32.25.32.49.02,3.03.49,5.98,1.46,8.85,1.19,3.54,3.02,6.68,5.79,9.23,2.23,2.04,4.81,3.43,7.76,4.11,1.79.41,3.6.3,5.39-.05,4.45-.87,8.11-3.15,11.2-6.38,3.16-3.31,5.1-7.25,5.95-11.74.51-2.68.4-5.34-.59-7.92-.67-1.75-1.76-3.25-2.93-4.69-3.13-3.89-7.05-6.62-11.89-7.97-1.79-.5-3.58-.74-5.48-.74Z"/><path class="cls-2" d="M111.59,28.85c0-6.85,4-12.46,10.36-14.8,4.06-1.49,8.17-1.73,12.36-.58,1.07.29,1.99.84,2.84,1.54,3.3,2.68,5.78,5.94,6.9,10.08,1.59,5.83.34,11.08-3.47,15.74-1.34,1.63-2.9,2.97-4.93,3.68-.56.2-1.13.32-1.71.43-.35.07-.68.19-.94.42-1.99,1.72-4.26,2.09-6.7,1.27-3.63-1.21-7.02-2.88-9.76-5.64-2.71-2.73-4.28-6.02-4.76-9.83-.11-.85-.19-1.71-.19-2.31ZM143.96,29.95c-.02-1-.06-1.77-.16-2.54-.55-3.96-2.3-7.3-5.17-10.07-2.3-2.22-5.01-3.63-8.21-3.93-2.89-.27-5.7.15-8.42,1.13-3.91,1.41-6.88,3.88-8.61,7.73-1.33,2.97-1.55,6.07-.99,9.25.13.76.23,1.56.58,2.25.47.92.95,1.83,1.41,2.75,1.71,3.35,4.14,5.97,7.54,7.65,2.52,1.24,5.2,1.91,7.96,2.3.31.04.6-.05.89-.2,1.24-.66,2.5-1.3,3.74-1.95,1.98-1.03,3.89-2.18,5.41-3.85,2.77-3.04,3.97-6.68,4.04-10.52Z"/><path class="cls-2" d="M108.77,25.47c.03-.3.17-.49.48-.49.31,0,.47.18.47.48,0,.28-.18.46-.46.47-.3.01-.46-.17-.5-.46Z"/><path class="cls-2" d="M126.68,15.43c4.41.06,8.25,1.36,11.35,4.45,2.42,2.41,3.74,5.35,4.12,8.73.2,1.8.14,3.56-.58,5.25-.22.51-.49.98-.81,1.43-.24.35-.36.73-.4,1.16-.17,1.9-1.1,3.37-2.75,4.29-2.66,1.5-5.51,2.52-8.58,2.75-3.76.28-7.11-.78-10.09-3.09-2.66-2.06-4.44-4.66-5.1-7.98-.61-3.1-.08-6.04,1.32-8.85,1.48-2.97,3.62-5.31,6.45-7.05,1.1-.68,2.3-.92,3.55-1.01.53-.04,1.07-.06,1.5-.08ZM113.91,30.11c.02.29.02.71.07,1.12.04.39.1.77.19,1.15.74,3.41,2.71,5.98,5.52,7.97.56.39,1.11.83,1.76,1.03.82.26,1.64.51,2.45.77,2.61.83,5.24,1.07,7.92.39,2.76-.7,5.15-2.1,7.37-3.81.23-.18.35-.43.43-.71.25-.85.51-1.69.78-2.53.54-1.71,1.08-3.43,1.16-5.24.16-3.93-1.33-7.23-4.07-9.97-2.33-2.33-5.15-3.71-8.45-4.1-2.43-.28-4.79-.06-7.04.96-2.08.94-3.65,2.47-4.98,4.27-1.89,2.55-3.08,5.35-3.11,8.7Z"/><path class="cls-2" d="M118.06,29.66c0-2.75.76-5.21,2.8-7.16,1.54-1.48,3.43-2.25,5.52-2.58,1.6-.25,3.2-.34,4.77.19,2.62.9,4.49,2.69,5.76,5.09,1.66,3.13,2,6.38.38,9.61-1.85,3.68-4.94,5.57-9.06,5.72-2.62.1-4.94-.71-6.87-2.52-1.67-1.55-2.6-3.51-3.05-5.72-.17-.87-.26-1.75-.26-2.64ZM122.08,36.53c-.94-.46-1.4-.92-1.83-1.94-1.14-2.69-1.09-5.41-.12-8.12.67-1.9,1.97-3.26,3.81-4.1,1.29-.59,2.65-.93,4.04-1.15,2.13-.34,3.96.24,5.36,1.94.72.88,1.37,1.82,1.91,2.83,1.55,2.94,1.66,5.95.32,8.98-.86,1.94-2.31,3.26-4.37,3.86-.13.04-.3.07-.28.23.02.21.21.1.32.1.23,0,.46-.01.68-.05,1.3-.23,2.34-.93,3.2-1.88,1.95-2.16,2.72-4.71,2.46-7.6-.5-5.59-5.02-9.44-10.13-9.26-3.52.12-6.23,1.63-7.91,4.78-1.1,2.08-1.3,4.31-.9,6.61.73,4.24,3.8,7.57,8.06,8.08.8.1,1.61.1,2.41-.07-2.01-.36-4.1-.45-5.61-2.11.06-.04.1,0,.14.03,1.22.77,2.54,1.21,3.98,1.24,3,.07,5.46-1.02,7.03-3.63,1.74-2.91,1.7-5.94.18-8.94-.63-1.25-1.34-2.45-2.54-3.27-1.69-1.15-3.57-1.49-5.56-1.22-1.69.23-3.24.86-4.38,2.17-2.35,2.7-2.99,5.83-2.05,9.27.33,1.21.98,2.25,1.78,3.21Z"/><path class="cls-2" d="M115.59,29.53c0-6.13,4.42-11.22,10.25-12.04,2.65-.37,5.18,0,7.6,1.14.07.03.15.07.22.1.19.1.3.25.19.46-.11.22-.29.19-.48.1-.9-.45-1.85-.78-2.83-1.01-6.28-1.5-12.62,2.25-14,8.43-.96,4.28.25,8.07,3.21,11.27,1.78,1.92,4,3.09,6.61,3.44,3.05.41,5.82-.35,8.25-2.19,3.37-2.56,5.11-6,5.02-10.24-.07-3.37-1.54-6.13-4.12-8.31-.2-.17-.53-.32-.3-.63.24-.32.47-.03.67.13,4.07,3.29,5.51,8.76,3.51,13.74-1.71,4.27-4.8,7.07-9.36,7.99-3.85.78-7.26-.29-10.15-2.92-2.83-2.59-4.16-5.88-4.28-9.46Z"/><path class="cls-2" d="M134.85,19.66c-.03.28-.18.44-.47.43-.27-.01-.43-.18-.43-.43,0-.28.17-.45.45-.45.29,0,.43.18.45.46Z"/><path class="cls-2" d="M127.68,38.01c-2.71-.15-4.79-1.56-6.15-3.99-1.8-3.23-1.05-6.46,1.58-9.02,1.1-1.07,2.39-1.82,3.91-2.09,2.02-.36,3.74.31,5.21,1.65,1.97,1.8,2.99,4.05,2.99,6.73,0,1.65-.73,3-1.83,4.16-1.51,1.59-3.37,2.48-5.72,2.56ZM134.6,31.16c-.07-2.6-.95-4.75-2.99-6.33-1.33-1.04-2.84-1.63-4.57-1.36-1.54.24-2.79,1.05-3.86,2.16-4.33,4.49-1.26,10.16,2.48,11.56,2.35.88,4.43.27,6.32-1.21,1.57-1.23,2.64-2.77,2.62-4.81Z"/><path class="cls-2" d="M122.32,31.36c0-3.12,2.19-5.75,4.83-6.36,1.34-.31,2.55-.06,3.62.81.5.4.93.85,1.28,1.38,1.31,1.99,1.6,4.09.47,6.23-1.64,3.11-5.94,3.72-8.49,1.26-1.1-1.06-1.7-2.35-1.71-3.32ZM132.58,31.08c0-1.59-.35-2.74-1.08-3.77-1.21-1.71-3.11-2.28-5.03-1.48-1.42.59-2.51,1.58-3.26,2.92-.31.55-.53,1.14-.54,1.79-.03,1.61.66,2.89,1.88,3.86,1.61,1.29,3.42,1.67,5.34.78,1.85-.86,2.65-2.44,2.7-4.1Z"/><path class="cls-2" d="M127.4,34.66c-.96,0-1.75-.2-2.37-.84-.09-.09-.17-.2-.07-.31.1-.1.2-.01.28.06.86.86,1.92.87,3,.67,1.89-.34,3.03-1.67,3.03-3.49,0-1.56-1.3-3.02-2.96-3.34-2.44-.47-4.52,1.66-4,4.09.01.05.03.1.03.16,0,.12.1.3-.09.33-.16.03-.19-.15-.23-.28-.41-1.51.21-3.16,1.52-4.06,1.31-.9,3.1-.84,4.44.15,1.29.95,1.85,2.43,1.49,3.92-.38,1.55-1.56,2.59-3.27,2.86-.3.05-.61.1-.82.08Z"/><path class="cls-2" d="M125.09,32.57c-.02.3-.15.48-.47.49-.29,0-.46-.16-.48-.43-.02-.3.16-.5.45-.51.29-.02.47.15.5.46Z"/></g></svg>