<?xml version="1.0" encoding="UTF-8"?><svg id="Layer_2" xmlns="http://www.w3.org/2000/svg" viewBox="0 0 257 91"><defs><style>.cls-1{fill:rgba(15,3,42,.24);}.cls-1,.cls-2{stroke-width:0px;}.cls-2{fill:#fff;}.cls-3{fill:none;stroke:rgba(255,255,255,.2);}</style></defs><g id="Layer_1-2"><path class="cls-1" d="M45.5.5h166c24.85,0,45,20.15,45,45h0c0,24.85-20.15,45-45,45H45.5C20.65,90.5.5,70.35.5,45.5h0C.5,20.65,20.65.5,45.5.5Z"/><path class="cls-3" d="M45.5.5h166c24.85,0,45,20.15,45,45h0c0,24.85-20.15,45-45,45H45.5C20.65,90.5.5,70.35.5,45.5h0C.5,20.65,20.65.5,45.5.5Z"/><path class="cls-2" d="M139.63,47.08v5.98c0,.47.07.79.21.96.16.21.47.32.92.32h1.31c1.5,0,2.57-.45,3.2-1.34l.21-.3s.06-.03.08-.03l.06.02c.05,0,.08.04.09.09l-.92,2.04-7.69.02-.09-.11.06-.11c.51-.06.85-.23,1.04-.52.15-.23.23-.62.23-1.16v-5.86c0-.54-.05-.91-.15-1.11-.15-.31-.46-.49-.92-.56l-.04-.11.08-.11h3.62l.09.11-.06.11c-.53.06-.88.22-1.06.47-.18.25-.27.65-.27,1.21Z"/><path class="cls-2" d="M148.98,52.94c0,.52.06.89.17,1.11.15.3.46.49.92.56l.04.11-.08.11h-3.34l-.08-.11.05-.11c.45-.07.74-.26.88-.56.1-.21.15-.59.15-1.11v-5.86c0-.52-.06-.89-.17-1.11-.15-.31-.46-.49-.92-.56l-.05-.11.08-.11h3.34l.08.11-.05.11c-.45.07-.74.26-.88.56-.1.21-.15.58-.15,1.11v5.86Z"/><path class="cls-2" d="M158.86,52.17c0,.95-.43,1.69-1.3,2.21-.73.46-1.6.69-2.59.69s-2.1-.25-3.25-.75l-.17.09h-.14l.06-2.03s.09-.03.14-.03c.06,0,.11.02.14.06.12.71.51,1.28,1.18,1.69.6.38,1.28.56,2.04.56.69,0,1.29-.15,1.78-.46.58-.37.87-.88.87-1.53,0-.98-.86-1.74-2.58-2.3-2.26-.73-3.39-1.7-3.39-2.9,0-.85.39-1.51,1.17-1.97.65-.39,1.43-.58,2.33-.58.95,0,1.91.21,2.85.64l.15-.08h.14l-.08,1.69s-.07.06-.11.08c-.03,0-.07-.03-.11-.08-.17-.6-.58-1.08-1.21-1.43-.56-.32-1.18-.48-1.85-.48-.58,0-1.06.14-1.45.41-.43.31-.64.74-.64,1.3,0,.91.97,1.67,2.9,2.28,2.05.64,3.08,1.61,3.08,2.89Z"/><path class="cls-2" d="M165.55,52.94c0,.58.1.99.3,1.23.21.24.6.39,1.18.45l.06.11-.11.11h-4.15l-.11-.11.06-.11c.58-.06.97-.21,1.17-.45.2-.24.3-.65.3-1.23v-6.99c-.49-.18-1.1-.27-1.85-.27-1.12,0-1.85.52-2.18,1.56l-.24.02.37-2.18h.17c.02.09.1.14.24.14h8.25c.14,0,.22-.05.24-.14h.17l.37,2.18-.21.02c-.37-1.06-1.1-1.59-2.21-1.59-.73,0-1.34.09-1.83.27v6.99Z"/><path class="cls-2" d="M155.08,57.15c-.24-.04-.57.07-.66.32l-1.45,4.08h-.19l-1.28-3.45-1.14,3.45h-.2l-1.53-4.15c-.05-.14-.19-.27-.35-.26h-.04s0-.12,0-.12h1.39v.12c-.14-.01-.37,0-.37.19,0,.11,1.12,3.01,1.18,3.17l1.2-3.49h.09l1.34,3.61c.11-.31,1.11-3.11,1.11-3.23,0-.22-.22-.26-.4-.26-.03,0-.07,0-.11,0v-.12h1.4v.12Z"/><path class="cls-2" d="M158.37,58.76c0,.14-.13.26-.28.26-.16,0-.28-.12-.28-.28,0-.1.05-.18.13-.24,0-.1-.14-.22-.3-.25-.4-.07-.82.61-.89.88v2.07c.03.2.34.22.42.22h.02v.12h-1.39v-.12h.02c.09,0,.42-.02.42-.25h0v-2.73c0-.23-.34-.25-.43-.25h-.02v-.12h.95v.55c.06-.1.4-.62.89-.62.59,0,.78.53.72.75Z"/><path class="cls-2" d="M160.27,61.57h-1.39v-.12c.14,0,.38-.03.45-.18v-2.83c0-.16-.34-.22-.45-.22v-.12h.96v3.13c0,.18.31.23.44.22v.12ZM159.57,57.31c-.15,0-.28-.12-.28-.28s.12-.28.28-.28.28.12.28.28-.12.28-.28.28Z"/><path class="cls-2" d="M162.25,60.99c0,.42.21.42.21.42.27,0,.27-.19.38-.12,0,0,.04.03.01.16,0,.2-.64.18-.64.18,0,0-.53-.02-.47-.64v-2.7h-.61v-.22h.61v-.28l.51-.41v.69h.61v.22h-.61v2.7Z"/><path class="cls-2" d="M166.28,59.49h-2.29c0,.1-.01.2-.01.32,0,1.43.61,1.58.91,1.61.3.02.8-.18,1-.65h.23c-.25.53-.7.88-1.23.88-.79,0-1.43-.81-1.43-1.81s.64-1.81,1.43-1.81c0,0,1.4,0,1.4,1.47ZM164.03,59.27h1.72c-.06-.43-.22-1.04-.8-1.04s-.86.62-.93,1.04Z"/><path class="cls-2" d="M169.57,58.76c0,.14-.13.26-.28.26-.16,0-.28-.12-.28-.28,0-.1.05-.18.13-.24,0-.1-.14-.22-.3-.25-.4-.07-.82.61-.89.88v2.07c.03.2.34.22.42.22h.02v.12h-1.39v-.12h.02c.09,0,.42-.02.42-.25h0v-2.73c0-.23-.34-.25-.43-.25h-.02v-.12h.96v.55c.06-.1.4-.62.89-.62.59,0,.78.53.72.75Z"/><path class="cls-2" d="M134.94,51.5h-6.91v-2.05h6.91v2.05Z"/><path class="cls-2" d="M96.84,48.58h-.14c-.01-.26-.15-.91-.52-.91h-.77v4.26c0,.21.27.27.43.27v.13h-1.51v-.13c.18.01.44-.06.44-.28v-4.26h-.76c-.05,0-.14.04-.18.06-.29.17-.36.54-.36.84h-.14v-1.16h3.51v1.16Z"/><path class="cls-2" d="M102.57,52.34h-1.51v-.13c.13-.01.46-.08.46-.27v-2h-2.6v2c0,.19.33.26.46.27v.13h-1.51v-.13c.14-.01.44-.09.44-.27v-4.11c0-.19-.3-.26-.44-.28v-.14h1.51v.14c-.13.01-.46.08-.46.28v1.88h2.6v-1.88c0-.19-.33-.26-.46-.28h.23-.23v-.14h1.51v.14c-.07,0-.44.06-.44.18v4.11c0,.23.24.34.44.36v.13Z"/><path class="cls-2" d="M107.29,52.34h-3.63v-.13c.14-.02.44-.09.44-.29v-4.08c0-.19-.29-.27-.44-.29v-.14h3.42v1.16h-.14c0-.54-.34-.97-.89-.97h-1.31v2.12h.98c.36,0,.46-.35.45-.65h.13v1.51h-.13c0-.3-.09-.63-.45-.63h-.98v2.2h1.59c.51,0,.83-.47.82-.95v-.05h.14v1.19Z"/><path class="cls-2" d="M128.88,5.79c-.65,5.34-1.27,10.46-1.86,15.37-.59,4.91-1.07,9.61-1.44,14.12-.42,4.54-.79,9.03-1.11,13.48-.32,4.45-.59,8.85-.8,13.21.72-.58,1.35-1.2,1.88-1.83.54-.64,1.02-1.29,1.45-1.96.43-.67.81-1.42,1.14-2.25.33-.83.62-1.75.87-2.74l1.38.33c-.17,1.14-.44,2.21-.83,3.23-.39,1.02-.87,1.99-1.46,2.93-.58.94-1.27,1.78-2.05,2.53-.78.74-1.65,1.41-2.61,2.01l-.27,3.65-4.08,2.27.25-4.01c-.94.4-1.93.72-2.97.96-1.04.24-2.04.42-3.02.53-1.01.07-2.05.07-3.14,0-1.08-.07-2.2-.19-3.33-.36-.93,2.42-1.86,4.58-2.79,6.49-.94,1.91-1.81,3.51-2.62,4.82-.88,1.29-1.82,2.41-2.82,3.37-1,.96-2.02,1.72-3.05,2.3-.8.44-1.56.73-2.29.86-.73.13-1.43.14-2.11.02-.75-.13-1.39-.42-1.91-.87-.52-.45-.98-1.02-1.38-1.72-.37-.66-.59-1.34-.69-2.06-.09-.72-.02-1.48.21-2.28.12-.56.29-1.05.51-1.48.22-.43.48-.82.78-1.17.16-.15.32-.29.47-.4.15-.12.32-.22.51-.33.33-.18.67-.31,1.03-.39.36-.07.71-.09,1.04-.03.29.08.59.22.88.43.3.2.52.45.68.73.18.33.28.67.3,1.03.02.36,0,.71-.06,1.05-.1.37-.26.7-.46,1-.2.3-.47.54-.8.72-.14.08-.32.14-.53.2-.21.06-.43.12-.64.17-.24.01-.42.04-.55.08-.13.04-.22.07-.27.1-.23.13-.41.28-.54.44-.12.16-.19.34-.21.53-.06.22-.06.45.01.68.07.24.18.5.34.78.18.33.44.6.78.81.33.21.75.33,1.26.36.46.05.96.02,1.51-.1.55-.12,1.13-.35,1.74-.69.89-.5,1.79-1.23,2.7-2.19.91-.97,1.79-2.12,2.64-3.45.81-1.31,1.61-2.85,2.41-4.61.8-1.77,1.56-3.71,2.28-5.83-1.59-.53-3.09-1.17-4.52-1.91-1.43-.74-2.73-1.55-3.89-2.44-1.15-.96-2.2-1.96-3.14-3-.95-1.04-1.75-2.14-2.4-3.32-.84-1.5-1.4-3-1.68-4.5-.28-1.5-.3-2.96-.05-4.4.22-1.47.72-2.75,1.51-3.83.78-1.08,1.8-1.97,3.07-2.68,1.17-.65,2.45-1.04,3.82-1.16,1.38-.12,2.86.02,4.44.43,1.58.41,3.1,1.04,4.55,1.89,1.46.85,2.87,1.96,4.26,3.34,1.39-6,2.77-11.25,4.13-15.76,1.36-4.51,2.67-8.28,3.93-11.31,1.26-3.04,2.54-5.5,3.85-7.4,1.31-1.9,2.64-3.22,4-3.98.14-.08.32-.16.55-.26.23-.09.47-.18.73-.27.12,0,.23-.03.32-.09.09-.05.16-.09.21-.12l-.04-.07ZM110.68,47.09c-1.16-1.32-2.4-2.43-3.7-3.33-1.3-.9-2.65-1.55-4.03-1.95-1.41-.44-2.73-.63-3.95-.56-1.22.07-2.35.39-3.38.96-1.03.57-1.85,1.31-2.46,2.2-.61.89-.99,1.97-1.15,3.22-.16,1.26-.1,2.53.19,3.81.29,1.29.82,2.63,1.6,4.04.29.52.6,1.03.95,1.54.35.52.73.99,1.16,1.43.41.51.84.99,1.31,1.44.46.45.96.87,1.48,1.25,1.02.84,2.14,1.57,3.34,2.19,1.21.62,2.47,1.18,3.79,1.67.54-1.46,1.04-2.93,1.52-4.39.48-1.46.88-2.94,1.23-4.42.42-1.46.8-2.95,1.15-4.47.35-1.52.69-3.04,1-4.57l-.04-.07ZM112.06,48.9c-.12.56-.27,1.2-.46,1.91-.19.72-.4,1.57-.64,2.57-.72,2.8-1.37,5.19-1.95,7.17-.59,1.99-1.09,3.59-1.52,4.81,1,.24,1.98.42,2.96.52.98.1,1.95.13,2.91.09.98-.11,1.98-.27,3.01-.47,1.02-.2,2.03-.52,3.02-.95-.13-.79-.34-1.64-.64-2.55-.29-.91-.62-1.85-.97-2.82-.43-.99-.89-2.01-1.38-3.06-.49-1.05-1.04-2.11-1.64-3.19-.13-.23-.25-.45-.35-.63s-.21-.38-.31-.56c-.15-.16-.27-.32-.36-.49-.09-.16-.19-.34-.29-.53-.23-.3-.44-.6-.63-.89-.19-.29-.43-.58-.71-.85l-.04-.07ZM126.96,8.8c-1.14.94-2.3,2.4-3.5,4.39-1.2,1.99-2.4,4.55-3.61,7.68-1.21,3.13-2.4,6.84-3.58,11.12-1.18,4.28-2.36,9.12-3.54,14.51.08.14.18.29.29.44.11.15.22.32.33.51.2.26.4.52.58.79.18.27.35.54.5.82.28.4.53.76.75,1.1.22.34.43.7.64,1.07.47.85.9,1.65,1.3,2.41.39.77.75,1.49,1.07,2.17.32.68.61,1.37.87,2.05.26.69.47,1.35.65,1.99.33-3.93.72-7.92,1.18-11.95.46-4.03.99-8.16,1.59-12.36.53-4.23,1.17-8.57,1.93-13.01.75-4.44,1.61-8.99,2.58-13.65l-.04-.07Z"/></g></svg>