<svg xmlns="http://www.w3.org/2000/svg" id="Layer_2" viewBox="0 0 257 91"><defs><clipPath id="clippath"><path d="M156.96 73.96c-7.28 7.28-17.34 11.79-28.46 11.79s-21.18-4.5-28.46-11.79c-7.28-7.28-11.79-17.34-11.79-28.46s4.5-21.18 11.79-28.46c7.28-7.28 17.34-11.79 28.46-11.79s21.18 4.51 28.46 11.79 11.79 17.34 11.79 28.46-4.5 21.18-11.79 28.46M128.5 85.17c10.95 0 20.87-4.44 28.05-11.62s11.62-17.1 11.62-28.05-4.44-20.87-11.62-28.05-17.1-11.62-28.05-11.62-20.87 4.44-28.05 11.62-11.62 17.1-11.62 28.05 4.44 20.87 11.62 28.05 17.1 11.62 28.05 11.62" class="cls-4"/></clipPath><style>.cls-4{fill:#fff;stroke-width:0}</style></defs><g id="Layer_1-2"><path d="M45.5.5h166c24.85 0 45 20.15 45 45s-20.15 45-45 45h-166c-24.85 0-45-20.15-45-45s20.15-45 45-45" style="stroke-width:0;fill:rgba(15,3,42,.24)"/><path d="M45.5.5h166c24.85 0 45 20.15 45 45s-20.15 45-45 45h-166c-24.85 0-45-20.15-45-45s20.15-45 45-45Z" style="fill:none;stroke:rgba(255,255,255,.2)"/><path d="M156.96 73.96c-7.28 7.28-17.34 11.79-28.46 11.79s-21.18-4.5-28.46-11.79c-7.28-7.28-11.79-17.34-11.79-28.46s4.5-21.18 11.79-28.46c7.28-7.28 17.34-11.79 28.46-11.79s21.18 4.51 28.46 11.79 11.79 17.34 11.79 28.46-4.5 21.18-11.79 28.46M128.5 85.17c10.95 0 20.87-4.44 28.05-11.62s11.62-17.1 11.62-28.05-4.44-20.87-11.62-28.05-17.1-11.62-28.05-11.62-20.87 4.44-28.05 11.62-11.62 17.1-11.62 28.05 4.44 20.87 11.62 28.05 17.1 11.62 28.05 11.62" style="fill:#fff"/><path d="M88.26 5.26h80.49v80.49H88.26z" class="cls-4" style="clip-path:url(#clippath)"/><path d="M99.71 61.81c.29-.18.6-.31.93-.37.33-.07.66-.06.98 0 .32.07.63.21.91.42s.54.49.75.84c.22.36.36.71.42 1.06s.05.68-.04 1c-.08.32-.23.61-.43.88-.2.26-.46.49-.76.68s-.61.31-.93.38q-.48.105-.96 0c-.48-.105-.63-.2-.92-.41s-.55-.5-.77-.86c-.24-.39-.38-.76-.43-1.13s-.02-.71.08-1.03.26-.6.47-.85.44-.46.7-.62Zm.69.99c-.29.18-.57.38-.82.6-.26.22-.45.5-.58.84s-.09.69.14 1.06c.32.52.73.72 1.24.61q.765-.165 1.41-.57c.34-.21.64-.44.89-.68.26-.24.44-.52.53-.83.1-.31.04-.63-.16-.96-.23-.37-.52-.57-.87-.61-.35-.03-.68.01-.97.13-.3.12-.57.26-.81.41m3.72 5.64-.11-.12-1.19 1.1c-.14.13-.23.25-.26.36s-.03.2 0 .28c.04.08.1.17.19.27l-.07.06-1.61-1.75.07-.07c.18.2.34.28.48.26.14-.03.28-.1.43-.24l2.61-2.41c.18-.16.27-.32.28-.46 0-.14-.06-.29-.21-.45l.07-.07 1.78 1.94c.24.26.4.52.5.78.1.27.12.52.07.75a1.1 1.1 0 0 1-.36.61c-.15.14-.32.23-.49.28-.18.04-.35.05-.53 0-.18-.04-.35-.11-.51-.2.05.28.01.62-.12 1.04l-.35 1.14c-.06.2-.1.36-.11.49s0 .23.01.3.06.14.1.2l-.07.07-1.11-1.2c.1-.31.19-.56.26-.73.21-.56.34-.95.41-1.19.07-.23.09-.43.07-.59s-.1-.31-.24-.46Zm1.85-1.55-.19-.2-1.57 1.44.16.17c.27.29.54.45.81.46.27.02.54-.09.8-.33.16-.15.27-.31.32-.47s.05-.34 0-.52c-.06-.18-.17-.36-.34-.55Zm5.28 6.16-.08-.06c.11-.36.1-.72 0-1.08-.11-.36-.34-.67-.67-.92-.26-.2-.51-.3-.76-.32s-.5.02-.73.13-.45.26-.65.44-.39.39-.57.63c-.45.58-.67 1.12-.68 1.61 0 .49.19.89.58 1.19.28.22.49.31.63.28s.27-.13.39-.29l.36-.47c.07-.09.13-.18.17-.26s.05-.18.04-.28a.52.52 0 0 0-.2-.31l.06-.08 1.68 1.28-.06.08c-.27-.16-.51-.1-.71.17l-.75.98c-.58-.13-1.14-.41-1.69-.82-.22-.17-.41-.33-.56-.5s-.28-.33-.38-.49-.17-.31-.22-.44-.08-.27-.11-.42c-.03-.2-.04-.4-.02-.61s.07-.43.16-.67q.135-.345.39-.69c.23-.3.5-.54.8-.71q.45-.255.96-.3c.34-.03.68 0 1.01.1a2.97 2.97 0 0 1 1.31.82c.1.11.26.31.48.59.07.1.15.18.25.26.11.08.23.07.38-.05l.08.06-.88 1.15Zm4.03.55-.46 4.68c-.02.24 0 .43.08.56q.105.195.33.36l-.04.09-2.15-1.08.05-.09c.3.13.49.11.58-.06.01-.03.03-.07.04-.12.02-.05.03-.11.04-.17s.02-.1.02-.11l.11-1.15-1.35-.68-.79.76q-.15.135-.21.27c-.07.14-.08.25-.02.34q.09.135.24.24l-.05.09-1.36-.68.05-.09c.15.06.31.06.5 0 .18-.06.41-.21.69-.47l3.12-2.99.59.3Zm-2.5 1.98 1.13.57.19-1.82-1.31 1.25Zm6.54-.27 2.1 3.99.63-2.23c.08-.29.08-.51-.01-.65s-.25-.26-.49-.37l.03-.1 1.68.47-.03.1c-.19-.03-.34-.02-.46.03-.11.06-.2.13-.26.23s-.11.22-.15.37l-1.13 4.03-.12-.03-2.52-4.77-.77 2.75c-.06.23-.07.44-.02.63s.21.33.47.43l-.03.1-1.74-.49.03-.1q.75.15.93-.51l.91-3.23-.04-.06c-.01-.03-.04-.07-.07-.12-.03-.06-.07-.11-.09-.16-.22-.37-.43-.6-.64-.7l.03-.1 1.77.5Zm4.05 1.1v-.09l2.38.31v.1c-.27-.03-.45 0-.54.11s-.15.26-.18.46l-.46 3.53c-.01.11-.02.21 0 .3 0 .09.05.18.13.26s.21.14.39.16h.03l-.01.1-2.36-.31v-.1c.27.03.45 0 .54-.11s.15-.26.18-.46l.46-3.53c.03-.23 0-.41-.09-.52-.09-.12-.24-.19-.45-.22Zm7.36.32-3.32 4.79h1.92c.21 0 .39-.02.54-.05s.27-.09.38-.17c.1-.08.19-.17.26-.29s.14-.28.21-.48h.1l-.18 1.27h-4.79l3.31-4.79h-1.84c-.17 0-.33.02-.47.06s-.27.13-.4.29c-.13.15-.22.38-.29.69h-.1l.11-1.31h4.54Zm.3 0v-.09l2.35-.31v.1c-.25.03-.41.12-.47.25s-.08.29-.05.49l.46 3.53c.01.11.04.21.07.3s.1.16.19.22q.15.09.42.06h.03l.01.1-2.36.31v-.1c.25-.03.41-.11.47-.24s.08-.29.06-.49l-.46-3.53c-.03-.23-.1-.39-.22-.48s-.28-.12-.49-.09Zm6.05-1.25.31 1.09-.1.02c-.09-.17-.18-.31-.26-.42a.6.6 0 0 0-.3-.22.8.8 0 0 0-.43 0l-.99.24.51 2.07.79-.19c.24-.06.4-.15.48-.28s.11-.3.08-.51l.1-.02.35 1.45-.1.02c-.09-.21-.2-.34-.35-.38s-.31-.04-.49 0l-.79.19.35 1.42c.1.41.36.56.79.46l.3-.07c.2-.05.36-.12.48-.2.12-.09.2-.2.25-.35s.08-.35.09-.61l.1-.02.22 1.2-3.71.91-.02-.1c.26-.06.41-.16.46-.3s.05-.3 0-.49l-.84-3.45a.9.9 0 0 0-.22-.43c-.1-.11-.27-.13-.52-.07h-.03l-.02-.09 3.56-.87Zm.36-.02 2.55-1.1c.42-.18.82-.28 1.2-.29.39-.01.74.04 1.06.17s.6.32.83.56c.24.24.42.52.56.84.13.31.21.63.22.94a2.24 2.24 0 0 1-.74 1.75c-.27.25-.6.46-.99.64l-2.67 1.15-.04-.09c.24-.11.38-.23.4-.37s0-.3-.08-.48l-1.4-3.26c-.07-.17-.17-.31-.28-.4s-.29-.09-.53.01h-.03l-.04-.08Zm1.74-.38 1.47 3.41c.07.16.15.29.22.37s.18.12.3.12.28-.04.49-.13c.18-.08.34-.16.48-.25s.25-.19.35-.32c.14-.19.23-.41.28-.65q.06-.36 0-.75c-.04-.25-.12-.5-.22-.75a3 3 0 0 0-.43-.71c-.18-.22-.39-.41-.63-.55-.24-.15-.52-.23-.84-.25s-.66.05-1.04.21c-.13.06-.27.14-.43.25m7.02-4.36 2.55 3.54c.13.18.26.29.4.33s.3-.01.5-.15l.06.08-1.91 1.37-.06-.08c.21-.15.32-.3.31-.44 0-.14-.07-.29-.19-.46l-1.43-1.99a1.4 1.4 0 0 0-.22-.24.166.166 0 0 0-.21 0c-.08.06-.16.18-.23.38l-.11-.03.43-2.24.11-.08Zm4.08 3.43-.19-.21c.11-.1.21-.21.31-.32s.2-.25.3-.4c.09-.15.17-.32.23-.5.07-.21.1-.43.09-.67s-.06-.5-.15-.77-.25-.57-.47-.89h-.02c0 .51-.17.91-.49 1.2-.16.15-.37.26-.61.33s-.49.08-.74.02-.48-.19-.67-.41c-.19-.21-.31-.46-.37-.74-.05-.28-.03-.57.08-.86s.3-.57.58-.82c.31-.28.64-.44 1-.49q.525-.075 1.02.15c.495.225.61.36.86.63.17.19.33.42.46.67.13.26.23.53.29.83s.07.59.03.88c-.04.27-.1.51-.19.73s-.2.41-.31.58c-.12.17-.23.31-.34.42s-.22.22-.34.33c-.11.1-.22.2-.35.3Zm-.23-4.15c-.15-.17-.31-.33-.5-.48-.18-.15-.38-.25-.61-.3-.22-.05-.43 0-.62.18-.21.19-.28.4-.22.63s.19.46.38.67c.11.13.24.23.39.33.14.09.3.14.47.15.17 0 .33-.06.48-.2.13-.12.21-.26.25-.42s.03-.35-.03-.55Zm2.15-5.2.22.18c-.17.22-.31.43-.43.62s-.19.43-.23.69c-.13.73.15 1.48.84 2.24h.02q-.105-.765.33-1.26c.11-.12.24-.23.39-.32.16-.09.32-.15.51-.19a1.33 1.33 0 0 1 1.1.3c.22.18.37.41.46.68s.1.56.04.86c-.07.31-.22.6-.47.89-.27.32-.58.52-.92.62-.34.09-.69.09-1.03-.01-.35-.1-.66-.27-.94-.51q-.48-.405-.78-.99c-.2-.4-.31-.82-.31-1.26a3 3 0 0 1 .32-1.36c.09-.17.18-.33.28-.46s.19-.26.3-.38c.1-.11.2-.23.31-.34Zm.79 4.08c.28.25.59.45.93.58s.62.06.86-.21c.13-.15.19-.3.17-.46-.01-.16-.07-.3-.16-.44s-.21-.26-.34-.37c-.21-.18-.44-.3-.7-.35-.25-.06-.48.03-.67.26-.11.13-.18.28-.19.45-.02.17.02.35.1.54m1.74-3.07-.29-.19c.05-.07.11-.14.16-.21.04-.06.07-.1.09-.13s.05-.07.07-.11c.19-.29.25-.55.19-.78s-.24-.44-.52-.62c-.19-.12-.4-.21-.64-.25q-.36-.06-.6.3c-.06.09-.1.22-.13.37s0 .32.05.5.18.37.37.56l-.05.07-1.07-.7.05-.07c.07.02.13 0 .17-.02.04-.03.07-.05.08-.07a.3.3 0 0 0 .04-.1c0-.04.02-.07.02-.1a2.4 2.4 0 0 1 .33-.8c.18-.27.37-.47.59-.6q.33-.195.66-.18c.22 0 .42.07.6.19.19.12.33.29.41.51.09.22.1.48.03.8h.01c.21-.22.43-.37.66-.43q.345-.105.63-.03c.285.075.35.11.49.2.19.12.35.29.49.51.13.22.2.47.2.76s-.1.59-.31.9c-.18.28-.38.49-.61.63q-.345.21-.78.36l-.31-.2c.2-.07.37-.15.52-.23s.26-.16.36-.25c.09-.09.17-.18.23-.27q.255-.39.09-.72c-.11-.22-.27-.39-.48-.53-.6-.39-1.12-.23-1.57.47-.09.13-.17.29-.24.47Zm-55-38.95-.05.1c-.23-.08-.46-.12-.67-.12-.22 0-.41.04-.59.11s-.33.17-.47.3-.25.28-.34.46c-.12.24-.17.47-.16.7s.07.44.18.61c.14.22.31.41.53.58.21.17.46.32.73.46.49.25.92.37 1.3.36s.69-.11.92-.28.41-.37.53-.6c.28-.55.24-1.16-.11-1.85l.41.21c.09.21.16.43.21.64s.05.46.02.72c-.03.27-.13.55-.28.85-.18.36-.41.64-.68.86s-.56.36-.86.44c-.31.08-.62.09-.94.04a3 3 0 0 1-.92-.29c-.25-.13-.47-.28-.65-.45s-.33-.35-.44-.54-.2-.39-.27-.61c-.11-.36-.14-.7-.08-1.01.05-.31.16-.62.31-.92.16-.3.38-.61.66-.91.1-.11.16-.19.19-.25.06-.11.02-.23-.09-.36l.04-.09 1.61.83Zm1.25-4.79.94.64-.06.08c-.18-.08-.34-.13-.47-.16a.6.6 0 0 0-.36.02c-.11.04-.22.13-.32.27l-.58.79 1.72 1.26.46-.63c.14-.19.19-.36.17-.51s-.12-.29-.28-.43l.06-.08 1.2.88-.06.08c-.2-.11-.37-.13-.51-.07q-.21.09-.36.3l-.46.63 1.18.86c.34.25.64.2.88-.14l.17-.24c.12-.16.19-.31.22-.45s.02-.28-.04-.42c-.06-.15-.17-.32-.33-.52l.06-.08.94.78-2.16 2.97-.08-.06q.225-.315.15-.51c-.05-.13-.16-.25-.32-.37l-2.87-2.09a1 1 0 0 0-.44-.19c-.14-.02-.29.07-.43.27l-.02.03-.08-.06 2.07-2.84Zm2.24-2.5 4.41.28-1.62-1.67c-.21-.22-.4-.33-.56-.32-.16 0-.35.08-.55.22l-.07-.07 1.21-1.17.07.07c-.12.14-.18.28-.19.4 0 .12.02.23.08.33s.14.2.25.31l2.91 3-.09.09-5.28-.32 1.99 2.05c.17.17.34.28.53.34.19.05.38 0 .59-.17l.07.07-1.25 1.21-.07-.07c.32-.37.32-.72 0-1.04l-2.34-2.41h-.39c-.42 0-.72.05-.9.18l-.07-.07 1.27-1.23Zm4.39-3.86 2.84-1.88c.13-.09.23-.18.29-.27l.08-.05.68.98-.08.05q-.345-.39-.57-.42a.58.58 0 0 0-.43.12l-.76.5 2.21 3.33c.07.11.15.2.22.26q.12.09.27.09c.15 0 .23-.05.37-.14l.06.08-1.91 1.27-.06-.08c.21-.14.32-.28.31-.42 0-.14-.06-.29-.17-.46l-2.21-3.33-.76.5c-.13.09-.2.2-.23.34-.02.14.02.37.13.7l-.09.06-.64-1.01.08-.05c.11-.02.23-.08.36-.16Zm10.09.24-.38-.88h-.01c-.06.77-.41 1.29-1.06 1.56-.33.14-.65.19-.98.14s-.6-.17-.83-.36c-.24-.2-.48-.57-.71-1.13l-.84-1.96c-.08-.2-.19-.33-.31-.4q-.18-.105-.51.03l-.04-.09 2.11-.9.04.09c-.23.1-.36.22-.38.36s0 .3.08.48l.89 2.08c.13.31.27.53.42.68.11.11.22.19.36.24s.27.08.41.07q.21 0 .42-.09c.14-.06.26-.14.37-.25a1.15 1.15 0 0 0 .34-.8c0-.21-.09-.51-.25-.9l-.83-1.94q-.135-.33-.33-.42c-.12-.06-.29-.04-.49.04l-.04-.09 2.11-.9.04.09c-.23.1-.36.22-.38.35-.02.14 0 .3.08.49l1.4 3.27c.09.21.19.34.32.41.12.07.29.05.5-.04l.04.09-1.55.66Zm3.32-3.5-.15.03.34 1.59c.04.19.1.32.17.41s.15.13.24.14c.08 0 .19 0 .32-.02l.02.09-2.24.48-.02-.1c.25-.05.4-.15.44-.28.05-.13.05-.29 0-.49l-.74-3.48c-.05-.24-.13-.4-.25-.47-.11-.08-.27-.09-.48-.05l-.02-.1 2.47-.53c.33-.07.62-.08.89-.03q.405.075.66.33c.17.17.28.37.34.62q.06.3 0 .57c-.05.17-.13.33-.25.46s-.26.24-.41.33c.25.1.52.31.81.64l.78.89c.13.15.25.27.35.35s.19.13.26.14.14.02.22.02l.02.1-1.54.33c-.21-.25-.37-.45-.49-.6-.37-.46-.63-.79-.79-.96s-.31-.3-.45-.36a.83.83 0 0 0-.5-.03Zm-.39-2.38-.26.06.44 2.09.22-.05c.37-.08.63-.23.78-.46s.19-.51.11-.86c-.05-.22-.13-.39-.24-.52a.8.8 0 0 0-.44-.26c-.18-.04-.38-.04-.62 0Zm9.26-1.27v.1q-.36.03-.63.24c-.18.14-.37.36-.55.66l-.85 1.43.08 1.97c0 .22.06.39.15.49s.25.15.48.14v.1l-2.28.09v-.1c.25 0 .41-.08.48-.2q.105-.18.09-.48l-.07-1.69-1.53-1.94c-.17-.22-.3-.35-.4-.41a.63.63 0 0 0-.37-.08v-.1l2.39-.09v.1c-.12 0-.22.03-.29.06s-.11.09-.1.19c0 .08.07.22.2.39l.96 1.31.68-1.15c.12-.2.17-.38.17-.54 0-.08-.04-.15-.1-.21-.07-.06-.17-.09-.33-.09v-.1l1.82-.07Zm6.85 6.24-3.63-.8.02-.1c.25.05.42.03.52-.07s.17-.25.21-.44l.76-3.48q.075-.33-.03-.51c-.07-.13-.21-.21-.42-.26l.02-.1 2.25.5-.02.1c-.25-.05-.42-.03-.52.07s-.17.25-.22.44l-.73 3.31c-.04.2-.04.37.01.49s.19.21.41.26l.33.07c.22.05.45.04.67-.04s.46-.31.71-.71l.09.02-.45 1.25Zm2.26-4.49.03-.09 2.16.75-.03.09c-.24-.08-.41-.08-.52 0-.11.09-.2.23-.26.41l-1.17 3.36c-.04.11-.06.21-.07.3s.01.18.07.28.17.17.33.23h.03l-.03.1-2.16-.75.03-.09c.24.08.41.08.52 0 .11-.09.2-.23.26-.41l1.17-3.36c.08-.22.09-.4.03-.53s-.18-.23-.38-.3Zm8.9 3.96-.05.09c-.12-.05-.22-.09-.3-.11a.36.36 0 0 0-.26.05c-.09.05-.17.15-.23.31l-1.38 3.13c-.1.22-.15.39-.16.51s0 .22.04.28c.04.07.12.15.23.25l-.05.09-1.97-1.06.05-.09c.17.08.32.11.46.07s.27-.19.39-.46l1.32-2.96h-.01l-3.33 2.83-.1-.05.42-4.24h-.01l-1.53 2.38c-.15.23-.24.43-.25.59-.02.16 0 .28.07.37s.15.16.26.23l-.05.09-1.46-.78.05-.09q.285.135.54 0t.57-.6l1.81-2.67c-.02-.4-.17-.71-.46-.93l.05-.09 1.55.83-.34 3.61 2.73-2.32 1.4.75Zm1.14 1.02.06-.07 1.82 1.39-.06.08c-.2-.15-.37-.21-.5-.16s-.26.15-.38.31l-2.17 2.83c-.07.09-.12.18-.16.26s-.05.18-.02.29c.02.11.1.22.24.32l.02.02-.06.08-1.82-1.39.06-.08c.2.15.37.2.5.16.13-.05.26-.15.38-.31l2.17-2.83c.14-.19.21-.35.19-.49-.01-.14-.1-.28-.27-.4Zm3.14 2.38 2.42 2.4c.11.11.22.19.32.23l.07.07-.82.87-.07-.07c.21-.28.31-.5.29-.65a.67.67 0 0 0-.2-.4l-.65-.64-2.82 2.84q-.135.135-.21.27a.4.4 0 0 0-.04.28c.02.1.09.22.21.33l-.07.07-1.63-1.61.07-.07c.18.18.34.25.48.22s.28-.12.41-.26l2.82-2.84-.65-.64a.5.5 0 0 0-.38-.16q-.21 0-.66.27l-.07-.07.86-.83.07.07c.04.1.12.21.23.32Zm5.68 6.56-.89.71-.06-.08c.13-.15.22-.28.29-.4s.1-.24.09-.35c0-.12-.06-.25-.16-.39l-.58-.79-1.71 1.27.47.63c.14.19.28.29.43.31s.32-.02.5-.13l.06.08-1.2.89-.06-.08c.16-.16.23-.31.22-.46a.95.95 0 0 0-.18-.43l-.47-.63-1.17.87c-.34.25-.38.55-.14.88l.18.24c.12.16.24.28.36.35s.26.1.42.08c.16-.01.35-.07.59-.16l.06.08-1.02.67-2.18-2.95.08-.06c.15.21.3.3.44.29s.29-.08.45-.19l2.86-2.12a1 1 0 0 0 .32-.36c.06-.13.02-.3-.13-.5l-.02-.03.08-.06 2.09 2.83Zm.9 1.26 1.2 2.38c.2.39.31.77.34 1.14s0 .72-.12 1.03c-.11.32-.29.6-.51.85-.23.25-.5.45-.81.61-.3.15-.61.25-.92.28a2.21 2.21 0 0 1-1.77-.59c-.26-.24-.49-.54-.68-.91l-1.26-2.49.09-.05c.12.23.24.35.38.36q.21.015.48-.12l3.17-1.6c.17-.08.3-.19.38-.3.09-.12.07-.29-.04-.51l-.02-.03zm.46 1.66-3.32 1.68c-.16.08-.28.16-.35.24a.4.4 0 0 0-.11.3c0 .12.05.27.15.46.09.17.18.32.27.44s.2.23.33.31c.2.12.42.2.66.22s.49 0 .74-.06.49-.15.73-.27c.25-.12.47-.28.69-.47.21-.19.39-.4.52-.65s.2-.52.21-.83c0-.31-.08-.64-.26-.98-.06-.12-.15-.25-.26-.39m-22.03-1.61c-13.68-6.15-27.52 3.58-28.49 17.13-1.11 15 13.9 26.06 27.77 19.63 1.42-.64 3.17-1.76 3.94-2.41 12.06-9.44 9.71-28.34-3.23-34.36Zm-10.55 36.67c-13.85-1.6-19.96-16.36-13.64-27.43 7.05-12.42 25.14-12.7 31.78 1.02 5.84 12.62-3.92 27.6-18.13 26.41Z" class="cls-4"/><path d="m120.28 71.03.05-.23c-.53.1-1.09-.02-1.59-.27.82-.26 1.36-.61 1.86-.97l.34-1.54c-.16.02-.32.07-.46.13s-.27.14-.4.23c-.25.18-.46.43-.66.69-.39.53-.71 1.15-1.04 1.54a3.06 3.06 0 0 0 1.41.44c.16 0 .33 0 .49-.03Zm.33-1.48.34-1.54a2 2 0 0 1 .72.04c.27.05.56.14.9.3-.11.89-.44 1.85-1.33 2.36-.3.17-.62.27-.95.31l.05-.23c.28-.04.55-.13.79-.27.73-.42 1.07-1.21 1.19-2.01-.34.14-.63.31-.91.48-.27.17-.53.36-.8.55Zm1.09-4.96-.28 1.29c-.24-.43-.53-.93-.9-1.58 0 .11.02.24.01.36-.05.86-.06 1.98.39 2.51.05.06.12.12.18.17l-.06.27c-.14-.1-.25-.21-.34-.34s-.16-.27-.22-.42c-.11-.3-.16-.62-.18-.95-.03-.66.06-1.34.06-1.87.24.02.49.05.71.15q.165.075.33.18c.11.06.21.14.31.23Zm-.6 2.75-.06.27c.18.13.39.23.66.3q.39.09.93.06c.16-.88.11-1.91-.37-2.69-.16-.27-.35-.51-.55-.69l-.28 1.29c.2.36.37.68.53.97s.31.57.49.87c-.19.02-.43.01-.67-.05s-.47-.18-.67-.33Zm-4.02 2.55.08-.22c-.26 0-.53-.04-.79-.12-.26-.09-.5-.22-.73-.39.42-.06.76-.15 1.08-.27s.6-.26.86-.39l.52-1.45c-.32 0-.61.09-.88.23-.26.14-.5.34-.73.57-.45.45-.83 1-1.21 1.34.26.21.55.38.85.5s.63.18.96.19Zm.5-1.38.52-1.45c.22 0 .45.05.7.14.26.09.53.24.84.44a4 4 0 0 1-.54 1.24c-.26.37-.6.68-1.07.86-.15.06-.31.1-.47.13q-.24.03-.48.03l.08-.22c.27 0 .54-.04.79-.14.77-.3 1.2-1.01 1.42-1.77-.69.15-1.22.46-1.8.74Zm-3.5-.19.1-.2c-.51-.09-1.03-.32-1.43-.73.21 0 .4 0 .57-.02.18-.02.35-.05.51-.08.32-.07.61-.15.89-.24l.68-1.33c-1.24-.21-2.19 1.11-3.01 1.66.22.24.48.46.77.62s.6.27.91.33Zm.65-1.27.68-1.33c.21.04.44.1.68.24.12.07.24.15.37.24s.26.19.4.32c-.16.4-.39.79-.69 1.12s-.68.58-1.15.68c-.31.06-.63.08-.94.02l.1-.2c.26.04.53.03.78-.03.78-.16 1.3-.8 1.62-1.5-.36.04-.66.09-.96.17s-.59.19-.89.28Zm-3.4-.7.12-.18c-.25-.07-.49-.2-.71-.35-.22-.16-.43-.34-.6-.57.39.07.76.07 1.08.06.32-.02.61-.05.89-.1l.82-1.2c-1.17-.38-2.27.77-3.13 1.17.09.14.19.27.31.39.11.12.24.23.37.33.26.2.54.36.85.46Zm.79-1.15.82-1.2c.42.12.83.44 1.33 1-.42.72-1.08 1.42-2.03 1.47-.3.01-.61-.03-.9-.12l.12-.18q.375.105.75.09c.39-.02.74-.16 1.03-.39.3-.22.54-.52.74-.84-.7-.04-1.25.05-1.86.17m-3.24-1.17.14-.16c-.48-.21-.88-.61-1.17-1.09.77.24 1.36.26 1.93.24l.94-1.06c-.56-.25-1.11-.16-1.67.04-.55.2-1.08.52-1.52.64.14.3.34.57.57.81.11.12.24.23.36.33.13.09.27.18.42.25m.9-1.01.94-1.06c.2.09.39.23.58.42.2.19.4.44.59.76-.51.64-1.23 1.21-2.17 1.13-.3-.03-.58-.12-.85-.25l.14-.16c.23.1.46.17.7.2.78.07 1.42-.37 1.89-.93-.33-.08-.64-.11-.94-.12-.3-.02-.59 0-.89 0Zm-3.04-1.6.16-.14c-.22-.14-.42-.32-.59-.53s-.31-.46-.42-.72c.36.17.67.29.98.37s.59.12.86.16l1.04-.9a1.6 1.6 0 0 0-.8-.26c-.27-.02-.55 0-.83.07-.56.12-1.11.34-1.56.4.11.31.26.61.46.88.19.27.44.49.7.67m.99-.86 1.04-.9c.18.12.35.28.52.5.17.21.32.5.49.84-.29.28-.63.53-1.01.68s-.8.2-1.25.09c-.14-.03-.28-.08-.41-.14s-.25-.13-.37-.22l.16-.14c.2.13.42.23.65.29.75.18 1.42-.14 1.96-.62-.62-.26-1.19-.3-1.77-.39Zm-2.79-2.01.17-.11c-.19-.17-.37-.38-.51-.61-.07-.12-.14-.24-.19-.36-.05-.13-.1-.26-.13-.4.32.23.63.38.91.5.29.12.56.21.81.29l1.12-.73c-.44-.39-1-.45-1.56-.42-.55.03-1.11.16-1.56.15.12.65.47 1.26.93 1.69Zm1.07-.7 1.12-.73c.17.14.32.32.46.56.07.12.13.26.19.41.07.15.13.31.18.49-.32.23-.68.42-1.07.51-.2.05-.4.07-.61.06-.2-.01-.41-.06-.62-.15-.26-.11-.5-.26-.71-.45l.17-.11c.18.15.38.28.59.36.7.3 1.41.08 1.99-.31-.3-.16-.57-.29-.85-.39s-.55-.17-.84-.25m-2.48-2.36.18-.09c-.09-.1-.17-.2-.24-.31a3 3 0 0 1-.19-.36c-.11-.25-.19-.52-.22-.79.59.52 1.09.79 1.59 1.02l1.17-.56c-.1-.11-.21-.2-.32-.27-.11-.08-.23-.14-.35-.18-.25-.1-.52-.14-.79-.17-.55-.05-1.11 0-1.54-.08.01.33.1.65.22.96s.28.59.5.84Zm1.12-.54 1.17-.56c.15.16.27.36.37.62.11.25.2.56.26.94-.67.35-1.51.53-2.3.06-.23-.14-.44-.32-.62-.53l.18-.09c.15.17.33.32.52.44.64.39 1.37.28 1.98 0-.26-.21-.53-.36-.78-.5s-.51-.25-.78-.38m-2.15-2.67.18-.06a2.64 2.64 0 0 1-.45-1.53c.48.6.97.93 1.42 1.23l1.2-.38c-.65-.94-1.99-.85-2.83-1.11-.02.32.01.65.08.97.08.32.22.62.39.89Zm1.14-.36 1.2-.38c.06.09.11.19.16.3s.1.23.13.36c.08.26.11.59.13.97-.7.24-1.54.29-2.25-.28-.1-.08-.2-.18-.29-.27-.09-.1-.16-.21-.24-.32l.18-.06c.12.19.27.35.44.49.59.47 1.29.48 1.93.29-.45-.49-.93-.76-1.4-1.09ZM101.86 49l.19-.03c-.24-.47-.32-1.03-.26-1.57.42.65.83 1.05 1.23 1.4l1.21-.21c-.26-.5-.71-.78-1.21-.98s-1.02-.32-1.4-.51c-.07.31-.07.64-.03.96s.12.64.27.93Zm1.15-.21 1.21-.21c.21.39.28.91.22 1.66-.36.06-.74.08-1.12 0-.37-.09-.75-.27-1.04-.6-.17-.19-.32-.41-.43-.64l.19-.03c.1.19.22.37.37.53.49.55 1.2.66 1.85.57-.1-.14-.2-.26-.3-.37s-.2-.22-.3-.32c-.2-.2-.42-.38-.64-.57Zm-1.4-3.1h.18c-.09-.25-.14-.52-.15-.79-.02-.27.02-.54.09-.8.31.7.68 1.14 1.02 1.54l1.2-.05c-.39-1.04-1.65-1.33-2.36-1.8-.1.3-.15.62-.16.94 0 .32.06.65.16.95Zm1.15-.05 1.2-.05c.14.41.19.93 0 1.67-.71.02-1.5-.18-2.02-.91-.15-.21-.26-.43-.33-.67h.18c.07.19.16.38.28.55.43.61 1.09.82 1.73.82-.3-.59-.68-.98-1.04-1.41m-1.02-3.24.18.02c-.11-.51-.07-1.07.13-1.56.23.72.52 1.21.81 1.65l1.18.11c-.25-1.05-1.46-1.52-2.07-2.08-.07.14-.13.29-.17.44s-.07.31-.09.47c-.03.32-.04.64.03.96Zm1.12.11 1.18.11c.11.42.06.94-.19 1.65a2.7 2.7 0 0 1-1.04-.33c-.33-.19-.63-.46-.83-.86-.11-.22-.19-.45-.24-.68l.18.02q.075.3.21.57c.33.65.96.95 1.58 1.05a6 6 0 0 0-.39-.82c-.14-.25-.3-.47-.46-.71m-.61-3.32.17.04c-.06-.52.06-1.06.32-1.52.07.37.16.68.25.96.1.28.22.53.33.76l1.13.26c-.07-.53-.37-.94-.73-1.31s-.77-.68-1.03-1c-.32.51-.51 1.16-.44 1.8Zm1.07.25 1.13.26c.03.22 0 .45-.05.71-.06.26-.17.55-.35.88-.66-.18-1.35-.59-1.67-1.42-.08-.22-.12-.45-.14-.68l.17.04q.03.285.12.57c.25.69.82 1.07 1.41 1.26-.07-.32-.17-.59-.28-.85s-.23-.5-.35-.76Zm-.22-3.33.16.06c.02-.52.18-1.04.5-1.44.02.73.2 1.27.35 1.76l1.07.4c0-1.03-.99-1.79-1.43-2.48-.19.23-.36.49-.47.78s-.17.6-.19.92Zm1.02.38 1.07.4c0 .21-.03.45-.13.69-.09.25-.25.52-.45.82-.31-.14-.63-.33-.89-.6s-.46-.61-.56-1.03c-.05-.22-.08-.45-.06-.67l.16.06c0 .18.01.37.06.56.16.71.65 1.16 1.22 1.43-.06-.64-.24-1.13-.42-1.67Zm.17-3.31.15.08c.07-.51.31-.99.66-1.35-.05.72.03 1.26.13 1.77l.99.53c.11-.99-.76-1.88-1.09-2.6-.11.1-.21.2-.31.32-.09.12-.17.25-.24.38-.14.27-.26.56-.3.88Zm.95.51.99.53c-.04.43-.26.88-.75 1.41-.29-.18-.57-.41-.79-.71s-.39-.66-.42-1.09c-.02-.22-.01-.43.02-.64l.15.08c-.02.18-.03.36-.01.53.06.71.5 1.23 1.01 1.57 0-.64-.09-1.13-.2-1.69Zm.54-3.22.14.1c.12-.5.42-.93.81-1.23-.07.35-.1.66-.11.94 0 .28 0 .55.02.8l.91.64c.1-.48-.02-.96-.2-1.41s-.43-.89-.55-1.27c-.47.32-.86.82-1.02 1.43m.87.61.91.64c-.04.21-.14.41-.28.63q-.21.315-.63.66c-.52-.43-.97-1.07-.95-1.93 0-.21.04-.41.1-.6l.14.1c-.04.16-.07.33-.08.5-.02.7.34 1.27.79 1.68.05-.31.06-.59.05-.86 0-.27-.02-.53-.04-.81Zm.9-3.08.13.11c.19-.46.51-.87.94-1.09-.23.65-.26 1.19-.29 1.68l.81.73c.16-.44.08-.93-.04-1.4-.12-.46-.3-.92-.37-1.3-.25.12-.49.29-.69.5-.2.22-.36.47-.48.76Zm.77.7.81.73c-.07.19-.18.39-.35.58s-.41.37-.7.56c-.23-.25-.43-.55-.57-.89-.13-.34-.19-.72-.13-1.13.03-.2.08-.39.16-.56l.13.11c-.06.15-.1.3-.13.47-.1.68.16 1.28.56 1.75.17-.58.18-1.09.21-1.63Zm1.23-2.91.11.13c.23-.44.61-.77 1.05-.95-.29.62-.4 1.12-.49 1.6l.71.81c.19-.42.19-.88.12-1.36-.07-.47-.19-.93-.21-1.31-.27.08-.52.22-.74.4-.22.19-.42.4-.56.67Zm.67.78.71.81c-.18.38-.53.7-1.17.98-.19-.27-.35-.59-.44-.94s-.11-.74.01-1.12q.075-.27.21-.51l.11.13c-.07.13-.13.28-.17.42-.19.64.01 1.28.34 1.79.23-.56.31-1.03.4-1.56m1.53-2.7.09.14q.21-.3.51-.51c.2-.13.41-.23.64-.28-.18.28-.31.54-.41.78-.1.25-.18.49-.25.71l.6.88c.23-.38.27-.84.27-1.3s-.07-.93-.05-1.3c-.53.09-1.06.4-1.4.88m.58.84.6.88c-.22.34-.59.63-1.27.8-.3-.59-.47-1.33-.17-2.07.07-.16.16-.31.26-.45l.09.14c-.08.12-.15.24-.21.37-.26.61-.14 1.25.11 1.79.3-.5.42-.97.58-1.46Zm1.79-2.46.08.14c.33-.34.76-.58 1.22-.61-.41.48-.63.95-.83 1.36l.49.93c.27-.33.36-.77.41-1.22s.05-.9.11-1.26c-.54 0-1.08.25-1.49.67Zm.47.89.49.93c-.12.16-.29.3-.51.4-.11.05-.23.1-.37.13-.14.04-.29.07-.46.09-.23-.62-.31-1.38.09-2.05.08-.14.18-.28.29-.39l.08.14q-.135.15-.24.33c-.33.55-.3 1.19-.11 1.76.35-.45.53-.87.74-1.35Zm2.03-2.17.06.15c.35-.32.82-.46 1.27-.44-.46.42-.73.82-.97 1.21l.38.96c.29-.3.43-.71.53-1.13.1-.43.15-.87.26-1.21-.52-.06-1.1.08-1.54.47Zm.37.92.38.96c-.14.14-.32.25-.55.32-.23.08-.5.12-.85.11-.14-.62-.13-1.39.34-1.98.1-.12.2-.23.32-.33l.06.15c-.09.08-.18.17-.26.27-.39.49-.43 1.13-.32 1.7.2-.19.35-.39.49-.59s.27-.4.4-.61Zm2.23-1.89.04.15c.39-.24.86-.36 1.3-.25-.25.17-.45.35-.62.52-.17.18-.32.35-.46.52l.27.98c.32-.24.5-.62.64-1.03.14-.4.25-.82.39-1.13-.51-.15-1.08-.06-1.57.24Zm.26.94.27.98c-.16.12-.34.21-.57.26-.23.04-.52.03-.86-.02-.03-.32-.02-.66.06-.99.09-.32.25-.64.51-.9.1-.1.21-.2.33-.27l.04.15c-.1.06-.19.14-.27.22-.43.44-.56 1.03-.52 1.61.43-.32.7-.67 1.01-1.05Zm2.39-1.56.03.15c.41-.21.89-.23 1.31-.08-.26.14-.48.28-.67.42-.19.15-.35.3-.51.45l.16.98c.16-.1.3-.24.42-.4.12-.15.22-.33.32-.51.19-.37.34-.76.51-1.04-.48-.2-1.06-.22-1.57.03m.15.94.16.98c-.17.1-.36.16-.6.17-.23.02-.51-.02-.84-.13.02-.62.21-1.33.78-1.76.11-.08.22-.15.34-.2l.03.15c-.1.05-.19.1-.28.17-.48.35-.67.94-.7 1.5.23-.13.42-.27.6-.42s.34-.3.51-.46m-2.74 43.53-.43 1.21c-.19-.45-.41-.98-.7-1.66 0 .11-.01.24-.03.35-.15.84-.28 1.93.1 2.5.04.07.09.13.15.19l-.09.26c-.24-.23-.38-.51-.46-.8-.07-.3-.09-.63-.06-.96.04-.65.21-1.31.26-1.81.24.04.47.12.68.25.21.12.41.28.59.48Zm-.92 2.58-.09.26c.08.08.17.15.27.22.1.06.22.12.34.17.25.09.55.17.91.18.13-.42.21-.88.21-1.34s-.07-.93-.26-1.34a3.1 3.1 0 0 0-.46-.73l-.43 1.21c.15.38.29.7.41 1.01s.24.6.37.92c-.19 0-.42-.05-.65-.15-.11-.05-.23-.1-.33-.17s-.2-.15-.29-.25Zm-1.38-3.66-.57 1.12c-.07-.24-.14-.5-.23-.78s-.18-.59-.28-.94c-.02.11-.04.23-.07.34-.25.81-.48 1.84-.18 2.45.03.07.07.13.11.19l-.12.24c-.8-1.04-.06-2.54.15-3.51.47.16.88.44 1.17.9Zm-1.2 2.38-.12.24c.14.17.32.32.56.46q.18.105.39.18.225.075.48.12c.17-.39.3-.83.35-1.28s.03-.9-.11-1.34q-.135-.435-.36-.75l-.57 1.12c.11.38.21.71.29 1.04.08.32.16.63.27.94-.19-.02-.42-.1-.63-.23a2.1 2.1 0 0 1-.57-.49Zm-.94-3.77-.68 1.01c-.08-.47-.18-1.03-.31-1.74-.03.11-.06.22-.1.32-.32.75-.67 1.73-.44 2.37q.03.09.09.18l-.14.21c-.66-1.12.22-2.47.53-3.4.22.11.43.24.61.42.18.17.33.39.45.62Zm-1.45 2.14-.14.21c.12.19.28.37.49.53.22.16.5.29.83.41.42-.73.7-1.65.53-2.53-.05-.29-.14-.55-.26-.77l-.68 1.01c.07.39.12.73.17 1.05s.1.62.16.95c-.18-.05-.4-.15-.6-.3-.19-.15-.38-.35-.5-.57Zm-.49-3.82-.78.89c-.03-.47-.07-1.03-.12-1.75-.04.1-.08.21-.13.3-.2.35-.41.75-.55 1.15-.07.2-.13.4-.15.59s-.02.36.02.53c.01.06.03.12.06.17l-.17.19c-.26-.57-.13-1.18.11-1.73.24-.56.58-1.07.78-1.5.43.25.75.66.94 1.16Zm-1.66 1.88-.17.19c.17.41.56.79 1.2 1.11.49-.65.87-1.53.79-2.41-.03-.27-.08-.54-.17-.77l-.78.89c.04.79.06 1.34.1 2-.35-.15-.8-.53-.98-1Zm-.07-3.81-.86.75c.03-.48.03-1.02.07-1.73-.05.09-.1.19-.17.28-.23.32-.48.69-.66 1.06s-.28.74-.24 1.07c0 .05.02.11.03.16l-.18.16c-.36-1.19.75-2.26 1.22-3.03.2.15.36.34.5.56.14.21.24.45.3.71Zm-1.83 1.6-.18.16c.06.22.18.43.36.64s.4.42.71.61c.55-.58 1-1.38 1.03-2.25 0-.27-.03-.52-.08-.76l-.86.75c-.02.39-.04.72-.06 1.03s-.05.62-.05.93c-.17-.09-.35-.25-.51-.45s-.3-.42-.35-.67Zm.35-3.74-.93.62c.03-.23.08-.48.11-.76.04-.28.07-.58.13-.92-.06.09-.12.18-.19.25-.51.56-1.11 1.31-1.1 1.97 0 .05 0 .1.02.15l-.2.13c-.2-1.2.96-2.1 1.51-2.8.09.09.17.19.24.29s.14.21.2.32c.11.23.18.48.22.75Zm-1.96 1.3-.2.13c.09.43.35.91.92 1.37.6-.5 1.13-1.22 1.24-2.07.04-.26.04-.5 0-.73l-.93.62c-.1.74-.23 1.28-.31 1.9-.32-.22-.65-.72-.73-1.21Zm.76-3.63-.97.47c.11-.44.24-.95.41-1.61-.06.08-.14.16-.21.22-.56.48-1.25 1.16-1.28 1.79v.13l-.21.1c-.04-.59.26-1.07.63-1.48.38-.41.83-.74 1.12-1.05.33.39.49.89.51 1.42Zm-2.06 1.01-.21.1c.02.22.07.46.19.7.13.24.31.5.56.76.64-.42 1.24-1.06 1.43-1.87.06-.24.09-.48.08-.7l-.97.47c-.2.72-.35 1.22-.5 1.82-.28-.26-.58-.79-.58-1.29Zm1.14-3.46-1 .33c.08-.21.17-.44.26-.69.04-.13.09-.26.14-.4s.11-.29.17-.44c-.07.07-.15.14-.23.19-.61.41-1.32.98-1.44 1.6 0 .04-.01.07-.02.11l-.21.07c.04-.58.37-1.01.78-1.36s.89-.62 1.21-.88c.14.22.22.45.29.7.06.25.08.51.05.78Zm-2.11.69-.21.07c-.02.22.03.46.12.72s.24.54.47.83c.66-.33 1.31-.88 1.59-1.65.08-.22.12-.44.15-.66l-1 .33c-.25.67-.47 1.15-.68 1.71-.25-.29-.48-.86-.44-1.35m1.5-3.25-1.01.19c.19-.39.43-.85.71-1.43-.08.06-.16.12-.24.16-.31.16-.66.36-.95.6-.29.23-.54.5-.61.8 0 .03-.02.06-.02.09l-.22.04c.08-.55.48-.93.9-1.22.43-.29.91-.5 1.25-.71.11.23.19.48.22.73.01.13.02.26.01.39 0 .13-.02.26-.04.39Zm-2.13.4-.22.04c-.04.22-.03.46.03.73s.19.56.38.88c.69-.24 1.38-.7 1.73-1.42.1-.2.17-.41.21-.61l-1.01.19c-.16.31-.3.58-.44.84-.13.25-.26.49-.39.75a1.9 1.9 0 0 1-.27-.63c-.05-.25-.07-.52-.02-.75Zm1.82-3-1 .05c.12-.18.25-.38.38-.59.13-.22.28-.46.46-.73-.08.05-.17.1-.26.13-.66.25-1.43.62-1.67 1.18l-.03.07h-.21c.16-.51.56-.83 1-1.07.45-.23.95-.38 1.3-.55.09.24.13.5.14.75.01.26-.03.51-.11.77Zm-2.12.1h-.21c-.07.22-.08.46-.05.73.04.27.11.58.28.91.35-.08.7-.21 1.02-.4s.61-.45.82-.78c.11-.18.19-.37.26-.56l-1 .05c-.37.58-.66.97-.98 1.46-.18-.34-.29-.95-.14-1.4Zm2.11-2.73-.98-.08c.25-.32.57-.71.94-1.2-.08.04-.17.08-.26.1-.33.08-.69.19-1.01.35-.32.15-.6.36-.73.62l-.02.05-.21-.02c.19-.48.64-.75 1.09-.92.46-.17.94-.26 1.31-.39.05.25.09.51.07.76s-.09.5-.19.74Zm-2.06-.18-.21-.02c-.08.2-.13.43-.13.7s.07.59.19.94c.7-.07 1.44-.35 1.91-.95.13-.16.23-.33.3-.5l-.98-.08c-.21.26-.4.48-.58.69-.17.21-.34.4-.51.62-.07-.18-.13-.42-.14-.68 0-.25.04-.51.14-.73Zm2.34-2.41-.94-.21c.29-.29.62-.63 1.05-1.07-.08.03-.18.05-.27.07-.33.04-.7.11-1.03.22-.32.12-.61.28-.77.52l-.02.03-.2-.04c.5-.88 1.75-.82 2.46-.99a2.25 2.25 0 0 1-.27 1.47Zm-1.98-.44-.2-.04c-.05.09-.1.19-.14.31-.03.11-.05.24-.06.37-.02.27 0 .59.09.95.68 0 1.45-.17 1.96-.71.13-.14.24-.28.34-.44l-.94-.21c-.48.46-.81.78-1.2 1.15-.05-.19-.07-.43-.05-.68.01-.13.03-.25.06-.37q.06-.18.15-.33Zm2.56-2.08-.89-.33c.16-.12.33-.26.51-.41.19-.15.38-.33.62-.52q-.135.03-.27.03c-.65 0-1.46.09-1.84.52h-.01l-.19-.06c.3-.39.75-.54 1.2-.6.46-.06.94-.03 1.29-.07.02.52-.11 1.02-.43 1.43Zm-1.87-.69-.19-.07c-.24.34-.39.85-.27 1.6.67.09 1.42 0 1.98-.46.14-.11.26-.24.36-.38l-.89-.33c-.48.4-.88.66-1.28.99-.09-.39.01-.99.29-1.35m2.73-1.72-.83-.43c.32-.21.72-.46 1.19-.79-.08 0-.17.01-.26 0-.32-.03-.68-.05-1.01-.01-.17.02-.33.05-.47.1s-.26.13-.36.22l-.18-.09c.32-.35.78-.43 1.23-.44.45 0 .9.07 1.26.07-.02.26-.06.51-.16.74s-.23.44-.4.63Zm-1.74-.91-.18-.09c-.14.15-.26.35-.34.6-.07.26-.11.57-.1.95.65.16 1.4.16 1.98-.23.14-.09.27-.2.38-.32l-.83-.43c-.26.17-.49.3-.71.43s-.42.26-.64.39c-.02-.19 0-.44.07-.68s.2-.46.36-.62Zm2.86-1.37-.76-.52c.17-.08.36-.18.56-.29s.43-.22.69-.36c-.08 0-.17 0-.26-.02a6 6 0 0 0-.98-.13c-.32 0-.62.06-.84.22l-.16-.11c.7-.58 1.78-.15 2.45-.08-.03.26-.11.5-.23.72a2 2 0 0 1-.46.58Zm-1.59-1.1-.16-.11c-.16.13-.3.31-.4.55-.1.25-.18.54-.19.93.61.22 1.36.32 1.96 0 .14-.08.27-.16.39-.26l-.76-.52c-.27.13-.51.24-.73.35-.23.11-.44.2-.67.31 0-.19.05-.43.14-.65.05-.11.1-.22.17-.32s.15-.18.24-.25h.01Zm2.95-1-.68-.61c.18-.06.37-.13.58-.22.21-.08.44-.18.7-.28-.08-.01-.17-.03-.25-.05-.58-.2-1.32-.36-1.78-.12l-.15-.13c.38-.23.81-.22 1.23-.13s.84.26 1.16.33c-.13.5-.4.93-.82 1.2Zm-1.42-1.27-.15-.13c-.17.11-.32.27-.45.5-.06.11-.12.24-.17.39s-.08.32-.11.51c.58.29 1.28.45 1.92.21.14-.05.27-.13.38-.21l-.68-.61c-.54.22-.97.32-1.42.5.03-.38.29-.9.64-1.14 0 0 .02-.01.03-.02Zm3-.64-.59-.67c.35-.1.78-.2 1.3-.36-.08-.02-.16-.04-.24-.07a5 5 0 0 0-.88-.31c-.3-.07-.6-.09-.83.01l-.13-.15c.37-.19.81-.12 1.21.01s.78.33 1.09.44c-.09.24-.21.46-.36.65-.16.19-.35.34-.56.46Zm-1.24-1.41-.13-.15c-.18.09-.35.23-.5.43-.15.21-.27.5-.36.86.55.35 1.22.58 1.86.41.14-.04.27-.09.38-.15l-.59-.67c-.28.07-.52.13-.76.17-.23.05-.45.11-.68.16.04-.18.12-.4.25-.59s.3-.36.49-.45l.05-.02Zm3.01-.27-.51-.73c.18-.02.37-.05.58-.09q.315-.06.72-.12c-.07-.03-.16-.06-.23-.1-.25-.14-.54-.3-.83-.4-.28-.1-.57-.14-.8-.08l-.11-.16c.77-.27 1.61.43 2.19.68-.1.24-.25.44-.42.61s-.37.31-.6.39Zm-1.06-1.52-.11-.16c-.19.06-.37.18-.54.37-.16.2-.32.45-.44.81.49.39 1.15.71 1.78.6.13-.02.26-.05.38-.1l-.51-.73c-.28.04-.52.07-.75.09-.23.03-.45.05-.68.08.11-.34.42-.81.82-.95.02 0 .04-.01.06-.02Zm2.99.08-.41-.77c.36 0 .77-.04 1.3-.07-.07-.04-.15-.08-.21-.12-.46-.33-1.06-.7-1.54-.64l-.09-.17c.78-.15 1.52.58 2.07.91-.26.43-.64.76-1.11.87Zm-.87-1.61-.09-.17c-.38.09-.78.38-1.09 1.07.45.44 1.05.8 1.68.77.12 0 .24-.03.35-.06l-.41-.77c-.55.04-.96 0-1.41.03.12-.34.49-.74.88-.85.03 0 .05-.01.08-.02Zm2.93.43-.32-.8c.17 0 .36.02.57.03s.45.02.71.03c-.07-.04-.14-.09-.2-.14-.42-.37-.97-.79-1.43-.78l-.07-.18c.19-.01.37.02.55.09s.35.18.51.3c.32.24.61.52.86.7-.29.42-.71.68-1.18.76Zm-.67-1.67-.07-.18c-.2.02-.4.08-.6.23s-.4.38-.58.7c.41.48.96.9 1.58.93.12 0 .23 0 .34-.01l-.32-.8c-.55-.04-.93-.09-1.39-.12.16-.31.54-.69.94-.74h.1Zm2.83.77-.23-.82c.17.03.36.06.56.09.21.03.43.05.69.1-.06-.05-.13-.1-.18-.16-.37-.4-.87-.85-1.32-.91l-.05-.18c.37.02.71.24 1 .49.29.26.55.57.77.77-.16.19-.36.33-.57.44s-.44.17-.68.17Zm-.47-1.71-.05-.18c-.2-.01-.4.04-.61.17-.21.12-.43.32-.64.63.18.25.39.49.64.69s.52.34.83.38c.11.02.21.02.31.02l-.23-.82c-.53-.08-.9-.18-1.35-.26.18-.29.59-.6.98-.63zm2.71 1.09-.13-.83c.33.08.72.19 1.22.3-.06-.05-.12-.11-.17-.17-.33-.42-.77-.92-1.2-1.02l-.03-.18c.18.03.34.1.5.21.15.11.29.24.43.38.26.28.48.6.68.81-.36.36-.82.52-1.3.49Zm-.28-1.71-.03-.18c-.19-.03-.4-.01-.63.08-.22.11-.46.29-.7.56.15.27.34.53.57.74.22.21.48.37.78.45.1.03.19.04.29.05l-.13-.83c-.26-.07-.47-.14-.68-.21-.21-.06-.4-.12-.61-.18.2-.26.63-.55 1.02-.52.04 0 .09 0 .13.02Zm2.51-2.36.02.13c.36-.18.78-.2 1.15-.07-.23.12-.42.24-.59.37s-.31.26-.45.39l.14.86c.14-.09.26-.21.37-.35s.2-.29.28-.45c.16-.32.3-.67.45-.91-.42-.17-.93-.19-1.37.03m.13.82.14.86c-.15.09-.32.14-.52.15-.21.01-.45-.02-.74-.12.01-.54.18-1.16.69-1.54q.135-.105.3-.18l.02.13c-.09.04-.17.09-.25.15-.42.3-.58.82-.61 1.31.2-.11.37-.23.52-.37.16-.13.3-.26.45-.4Zm.49 2.72-.12-.72c.29.07.63.16 1.07.26-.05-.05-.1-.1-.14-.15-.28-.37-.67-.81-1.05-.89l-.03-.16c.16.03.3.09.43.18s.26.21.37.33c.23.25.42.53.6.71-.31.32-.72.45-1.14.43Zm-.24-1.5-.03-.16a1 1 0 0 0-.55.07c-.19.09-.4.25-.61.49.13.24.3.47.49.65.2.19.42.32.68.4.09.02.17.04.25.04l-.12-.72q-.33-.09-.6-.18c-.18-.05-.35-.11-.54-.16.18-.23.55-.48.89-.45.04 0 .08 0 .11.02Zm1.66-1.74v.08c.24-.11.49-.12.73-.04-.14.07-.26.15-.36.23s-.19.16-.28.24l.09.53c.09-.05.16-.13.23-.22.07-.08.12-.18.17-.28.1-.2.18-.41.28-.57-.26-.11-.58-.12-.85.02Zm.09.51.09.53c-.09.06-.2.09-.32.09-.13 0-.28-.01-.46-.07 0-.34.11-.72.43-.96.06-.04.12-.08.19-.11v.08s-.09.06-.14.09c-.26.19-.36.51-.38.82.12-.07.23-.15.32-.23.1-.08.19-.16.28-.25Zm.3 1.69-.07-.45c.18.04.39.1.66.16l-.09-.09c-.18-.23-.42-.5-.65-.55l-.02-.1c.1.02.19.06.27.11.08.06.16.13.23.21.14.15.26.33.37.44-.2.2-.44.28-.71.27Zm-.15-.93-.02-.1c-.11-.02-.22 0-.34.05-.12.06-.25.16-.38.31.08.15.19.29.31.4.12.12.26.2.42.25l.16.03-.07-.45c-.14-.04-.26-.08-.37-.11s-.22-.07-.33-.1c.11-.14.34-.3.55-.28.02 0 .05 0 .07.01Zm9.63 50.1c.16.02.33.03.49.03a3.06 3.06 0 0 0 1.41-.44c-.33-.39-.65-1.01-1.04-1.54-.2-.26-.41-.51-.66-.69a2 2 0 0 0-.4-.23c-.14-.07-.3-.11-.46-.13l.34 1.54c.5.36 1.04.71 1.86.97-.5.25-1.06.37-1.59.27l.05.23Zm-.33-1.48c-.27-.19-.53-.38-.8-.55a4.6 4.6 0 0 0-.91-.48c.12.8.45 1.58 1.19 2.01.24.13.51.22.79.27l.05.23c-.33-.05-.66-.14-.95-.31-.88-.52-1.22-1.47-1.33-2.36.33-.16.63-.25.9-.3a2 2 0 0 1 .72-.04l.34 1.54Zm-1.09-4.96a2.7 2.7 0 0 1 .64-.41c.22-.1.47-.13.71-.15 0 .53.09 1.21.06 1.87-.02.33-.07.66-.18.95-.06.15-.13.29-.22.42-.09.12-.21.24-.34.34l-.06-.27c.07-.05.13-.11.18-.17.45-.53.44-1.64.39-2.51 0-.12 0-.24.01-.36-.37.65-.66 1.15-.9 1.58l-.28-1.29Zm.6 2.75c-.19.15-.43.27-.67.33s-.48.07-.67.05c.17-.3.33-.57.49-.87.16-.29.33-.62.53-.97l-.28-1.29c-.21.18-.39.42-.55.69-.47.78-.53 1.81-.37 2.69q.525.03.93-.06.39-.105.66-.3l-.06-.27Zm4.02 2.55c.32-.01.65-.06.96-.19.3-.12.59-.29.85-.5-.38-.34-.76-.89-1.21-1.34a3 3 0 0 0-.73-.57c-.27-.15-.56-.24-.88-.23l.52 1.45c.27.13.54.27.86.39s.66.21 1.08.27c-.23.17-.48.3-.73.39-.26.08-.53.12-.79.12l.08.22Zm-.5-1.38c-.57-.28-1.1-.59-1.8-.74.22.76.65 1.47 1.42 1.77.26.1.52.14.79.14l.08.22c-.16 0-.32 0-.48-.03s-.32-.07-.47-.13c-.46-.18-.81-.49-1.07-.86a3.9 3.9 0 0 1-.54-1.24c.31-.19.59-.35.84-.44.26-.09.49-.13.7-.14l.52 1.45Zm3.5-.19c.31-.06.62-.17.91-.33s.54-.38.77-.62c-.82-.55-1.77-1.87-3.01-1.66l.68 1.33c.27.09.56.17.89.24.16.03.33.06.51.08s.37.02.57.02c-.4.41-.91.65-1.43.73l.1.2Zm-.65-1.27c-.3-.09-.59-.2-.89-.28-.3-.09-.61-.13-.96-.17.32.71.83 1.34 1.62 1.5.25.05.52.07.78.03l.1.2c-.31.06-.63.04-.94-.02-.47-.1-.85-.35-1.15-.68s-.52-.72-.69-1.12c.14-.12.28-.22.4-.32.13-.1.25-.18.37-.24.24-.13.47-.2.68-.24l.68 1.33Zm3.4-.7c.31-.09.59-.26.85-.46.13-.1.26-.21.37-.33s.21-.26.31-.39c-.86-.4-1.96-1.55-3.13-1.17l.82 1.2c.29.05.57.08.89.1.32.01.68.01 1.08-.06-.17.23-.38.41-.6.57-.22.15-.46.28-.71.35l.12.18Zm-.79-1.15c-.62-.11-1.16-.21-1.86-.17.2.32.45.61.74.84.3.22.64.37 1.03.39q.375.015.75-.09l.12.18c-.29.09-.6.13-.9.12-.95-.06-1.61-.75-2.03-1.47.49-.56.91-.88 1.33-1zm3.25-1.17c.14-.07.28-.15.42-.25q.195-.15.36-.33c.23-.24.43-.5.57-.81-.44-.13-.97-.44-1.52-.64-.56-.21-1.11-.3-1.67-.04l.94 1.06c.57.01 1.16 0 1.93-.25-.29.48-.69.89-1.17 1.09l.14.16Zm-.91-1.01c-.3 0-.6-.01-.89 0-.3 0-.61.04-.94.12.47.56 1.11 1 1.89.93.24-.03.48-.09.7-.2l.14.16c-.27.13-.55.22-.85.25-.94.08-1.67-.49-2.17-1.13.2-.32.4-.57.59-.76s.38-.33.58-.42l.94 1.06Zm3.04-1.6c.26-.18.51-.41.7-.67.19-.27.35-.57.46-.88-.45-.06-1-.29-1.56-.4-.28-.06-.56-.09-.83-.07-.28.02-.55.1-.8.26l1.04.9c.27-.04.56-.08.86-.16.31-.08.62-.19.98-.37-.11.26-.25.51-.42.72-.18.21-.38.39-.59.53zm-.99-.86c-.58.09-1.15.13-1.77.39.54.48 1.21.8 1.96.62.23-.05.45-.16.65-.29l.16.14c-.12.08-.24.15-.37.22-.13.06-.27.1-.41.14-.45.11-.87.06-1.25-.09s-.72-.4-1.01-.68c.16-.34.31-.63.49-.84.17-.21.34-.38.52-.5l1.04.9Zm2.79-2.01c.47-.44.82-1.04.93-1.69-.45 0-1.01-.13-1.56-.15-.56-.03-1.12.02-1.56.42l1.12.73c.26-.08.53-.17.81-.29.29-.12.6-.27.91-.5-.03.14-.08.27-.13.4-.06.13-.12.25-.19.36-.14.23-.32.44-.51.61l.17.11Zm-1.07-.7c-.29.08-.56.16-.84.25-.28.1-.55.22-.85.39.58.39 1.29.61 1.99.31.21-.09.41-.21.59-.36l.17.11c-.21.19-.45.34-.71.45-.21.09-.42.14-.62.15-.21.01-.41-.01-.61-.06-.39-.09-.75-.28-1.07-.51.06-.18.12-.35.18-.49.06-.15.12-.29.19-.41.14-.24.29-.42.46-.56zm2.48-2.36c.22-.24.38-.53.5-.84s.21-.63.22-.96c-.43.07-.99.03-1.54.08-.27.02-.54.07-.79.17-.12.05-.24.11-.35.18s-.22.16-.32.27l1.17.56c.5-.22 1-.5 1.59-1.02-.04.28-.12.54-.22.79-.05.12-.12.25-.19.36s-.16.22-.24.31l.18.09Zm-1.12-.54c-.27.12-.53.24-.78.38s-.52.29-.78.5c.61.29 1.34.4 1.98 0 .19-.12.36-.26.52-.44l.18.09c-.18.21-.39.39-.62.53-.79.47-1.63.28-2.3-.06.06-.38.15-.69.26-.94.1-.26.23-.46.37-.62zm2.15-2.67c.17-.27.31-.57.39-.89.07-.32.1-.65.08-.97-.83.26-2.18.17-2.83 1.11l1.2.38c.44-.3.93-.63 1.42-1.23 0 .28-.03.55-.11.81s-.2.5-.34.72l.18.06Zm-1.14-.36c-.47.33-.96.6-1.4 1.09.64.19 1.34.18 1.93-.29.17-.14.32-.3.44-.49l.18.06c-.07.11-.15.22-.24.32s-.19.19-.29.27c-.71.57-1.54.52-2.25.28.02-.38.05-.7.13-.97.04-.13.08-.25.13-.36s.1-.21.16-.3l1.2.38Zm1.78-2.92c.15-.29.22-.61.27-.93.04-.32.04-.65-.03-.96-.38.19-.9.31-1.4.51s-.94.47-1.21.98l1.21.21c.4-.35.81-.75 1.23-1.4.06.54-.02 1.1-.26 1.57l.19.03Zm-1.15-.21c-.22.19-.43.37-.64.57a6 6 0 0 0-.6.69c.64.09 1.35-.02 1.85-.57.14-.16.27-.34.37-.53l.19.03c-.12.23-.26.45-.43.64-.3.33-.67.52-1.04.6-.38.09-.76.07-1.12 0-.06-.76 0-1.28.22-1.66l1.21.21Zm1.4-3.1c.1-.3.15-.63.16-.95 0-.32-.06-.64-.16-.94-.7.48-1.96.77-2.36 1.8l1.2.05c.34-.4.72-.85 1.02-1.54.07.26.11.53.09.8q-.03.405-.15.78h.18Zm-1.15-.05c-.36.44-.75.83-1.04 1.41.64 0 1.3-.22 1.73-.82.12-.17.21-.36.28-.55h.18c-.08.24-.18.47-.33.68-.52.73-1.31.93-2.02.91-.18-.74-.14-1.26 0-1.67l1.2.05Zm1.02-3.24c.07-.31.07-.64.03-.96a4 4 0 0 0-.09-.47c-.05-.15-.11-.3-.17-.44-.61.56-1.82 1.03-2.07 2.08l1.18-.11c.29-.44.58-.93.81-1.65.2.49.24 1.05.13 1.56l.18-.02Zm-1.12.11c-.16.24-.32.47-.46.71s-.27.51-.39.82c.62-.1 1.25-.4 1.58-1.05q.135-.27.21-.57l.18-.02c-.05.24-.13.47-.24.68-.2.39-.5.67-.83.86s-.69.28-1.04.33c-.25-.71-.3-1.22-.19-1.65zm.61-3.32c.06-.64-.12-1.29-.44-1.8-.27.32-.68.63-1.03 1s-.65.78-.73 1.31l1.13-.26c.11-.24.23-.48.33-.76s.19-.59.25-.96c.26.45.38.99.32 1.51zm-1.07.25c-.12.26-.24.5-.35.76s-.21.54-.28.85c.59-.19 1.16-.57 1.41-1.26q.09-.27.12-.57l.17-.04c-.02.23-.07.46-.14.68-.31.83-1 1.24-1.67 1.42-.18-.33-.29-.62-.35-.88s-.08-.5-.05-.71l1.13-.26Zm.22-3.33c-.01-.32-.08-.63-.19-.92s-.28-.55-.47-.78c-.44.69-1.42 1.45-1.43 2.48l1.07-.4c.15-.49.33-1.03.35-1.76.32.4.48.92.5 1.44l.16-.06Zm-1.02.38c-.18.54-.36 1.03-.42 1.67.56-.27 1.05-.72 1.22-1.43.04-.18.06-.37.06-.56l.16-.06c.01.22-.01.45-.06.67-.1.43-.3.77-.56 1.03-.26.27-.58.46-.89.6-.2-.31-.36-.57-.45-.82s-.12-.48-.13-.69l1.07-.4Zm-.17-3.31c-.04-.31-.16-.61-.3-.88a3 3 0 0 0-.24-.38c-.1-.12-.2-.22-.31-.32-.33.73-1.2 1.61-1.09 2.6l.99-.53c.1-.5.18-1.04.13-1.77.35.35.59.84.66 1.34l.15-.08Zm-.95.51c-.11.55-.21 1.05-.2 1.69.51-.34.95-.87 1.01-1.57.02-.18.01-.36-.01-.53l.15-.08c.03.21.04.43.02.64-.03.43-.2.79-.42 1.09s-.5.53-.79.71c-.49-.54-.71-.98-.75-1.41l.99-.53Zm-.54-3.22c-.16-.61-.55-1.11-1.02-1.43-.12.38-.36.81-.55 1.27-.18.45-.31.93-.2 1.41l.91-.64c.01-.25.03-.52.02-.8a6 6 0 0 0-.11-.94c.39.3.69.73.81 1.23zm-.87.61c-.02.28-.03.54-.04.81 0 .27 0 .55.05.86.45-.41.81-.98.79-1.68 0-.17-.03-.34-.08-.5l.14-.1c.05.19.09.4.1.6.02.85-.44 1.5-.95 1.93-.28-.23-.49-.44-.63-.66s-.24-.42-.28-.63l.91-.64Zm-.89-3.08a3 3 0 0 0-.48-.76c-.2-.21-.44-.38-.69-.5-.07.38-.25.84-.37 1.3s-.2.95-.04 1.4l.81-.73c-.04-.49-.07-1.03-.29-1.68.43.23.75.63.94 1.09l.13-.11Zm-.78.7c.03.54.04 1.04.21 1.63.4-.47.66-1.06.56-1.75-.02-.16-.06-.32-.13-.47l.13-.11a2.23 2.23 0 0 1 .03 1.69c-.14.34-.34.64-.57.89-.3-.19-.53-.37-.7-.56s-.27-.39-.35-.58l.81-.73Zm-1.23-2.91c-.14-.27-.34-.49-.56-.67a2 2 0 0 0-.74-.4c-.02.38-.14.84-.21 1.31s-.07.94.12 1.36l.71-.81c-.09-.48-.2-.98-.49-1.6.44.17.82.51 1.05.95l.11-.13Zm-.67.78c.09.53.18 1 .4 1.56.32-.5.53-1.14.34-1.79-.04-.15-.1-.29-.17-.42l.11-.13q.135.24.21.51c.12.39.1.77.01 1.12s-.25.67-.44.94c-.64-.28-.99-.6-1.17-.98zm-1.53-2.7c-.35-.49-.87-.79-1.4-.88.02.37-.04.84-.05 1.3 0 .46.04.92.27 1.3l.6-.88c-.07-.23-.15-.46-.25-.71-.11-.24-.24-.5-.41-.78.23.05.44.15.64.28s.36.31.51.51zm-.58.84c.16.49.28.96.58 1.46.25-.54.37-1.18.11-1.79-.06-.13-.13-.26-.21-.37l.09-.14c.1.14.19.29.26.45.31.74.14 1.49-.17 2.07-.68-.18-1.05-.46-1.27-.8l.6-.88Zm-1.79-2.46c-.41-.42-.95-.67-1.49-.67.07.36.07.81.11 1.26s.14.9.41 1.22l.49-.93c-.2-.41-.41-.87-.83-1.35.46.03.89.27 1.22.61l.08-.14Zm-.47.89c.21.47.4.89.74 1.35.19-.57.22-1.2-.11-1.76q-.105-.18-.24-.33l.08-.14c.11.12.21.25.29.39.4.67.31 1.43.09 2.05-.17-.02-.33-.05-.46-.09-.14-.03-.26-.08-.37-.13-.22-.1-.38-.24-.51-.4l.49-.93Zm-2.03-2.17c-.44-.38-1.01-.52-1.54-.47.11.34.16.78.26 1.21s.24.84.53 1.13l.38-.96c-.24-.39-.51-.79-.97-1.21.45-.02.92.12 1.27.44l.06-.15Zm-.37.92c.13.21.26.41.4.61s.29.4.49.59c.11-.57.07-1.22-.32-1.7-.08-.1-.17-.19-.26-.27l.06-.15c.11.1.22.2.32.33.47.6.48 1.36.34 1.98-.35.01-.63-.03-.85-.11-.23-.07-.41-.18-.55-.32l.38-.96ZM137.78 20c-.48-.3-1.06-.39-1.57-.24.14.31.25.72.39 1.13s.33.79.64 1.03l.27-.98c-.14-.17-.29-.34-.46-.52s-.37-.36-.62-.52c.45-.11.91.01 1.3.25l.04-.15Zm-.25.94c.31.38.58.73 1.01 1.05.04-.58-.09-1.18-.52-1.61-.09-.08-.18-.16-.27-.22l.04-.15c.12.07.23.17.33.27.26.26.42.57.51.9.08.33.09.67.06.99-.34.05-.62.06-.86.02-.23-.04-.42-.14-.57-.26l.27-.98Zm-2.4-1.56c-.51-.25-1.09-.23-1.57-.03.17.28.33.68.51 1.04.09.18.2.36.32.51.12.16.26.3.42.4l.16-.98c-.16-.15-.32-.3-.51-.45-.19-.14-.41-.28-.67-.42.43-.15.9-.13 1.31.08zm-.15.94c.17.16.34.32.51.46.18.15.37.3.6.42-.03-.56-.22-1.15-.7-1.5-.09-.06-.18-.12-.28-.17l.03-.15c.12.06.23.12.34.2.58.43.77 1.14.78 1.76-.33.11-.61.15-.84.13-.23-.01-.43-.07-.6-.17zm2.74 43.53c.17-.21.37-.36.59-.48.21-.13.44-.21.68-.25.05.5.22 1.16.26 1.81.02.33.01.65-.06.96-.08.3-.22.57-.46.8l-.09-.26c.05-.06.1-.12.15-.19.38-.57.25-1.65.1-2.5-.02-.11-.03-.24-.03-.35-.29.68-.51 1.22-.7 1.66l-.43-1.21Zm.92 2.58c-.09.09-.18.17-.29.25-.11.07-.22.12-.33.17-.23.09-.46.14-.65.15.14-.32.25-.61.37-.92s.26-.63.41-1.01l-.43-1.21c-.17.21-.33.45-.46.73-.19.42-.26.88-.26 1.34s.08.92.21 1.34c.36-.01.65-.09.91-.18.13-.05.24-.1.34-.17s.19-.14.27-.22l-.09-.26Zm1.38-3.66c.29-.45.7-.74 1.17-.9.21.97.96 2.47.15 3.51l-.12-.24c.04-.06.08-.12.11-.19.3-.62.07-1.64-.18-2.45-.03-.11-.05-.23-.07-.34-.1.35-.19.66-.28.94s-.16.54-.23.78l-.57-1.12Zm1.2 2.38c-.15.2-.35.36-.57.49-.21.13-.44.21-.63.23.1-.31.18-.62.27-.94.08-.32.18-.65.29-1.04l-.57-1.12c-.15.22-.27.46-.36.75-.13.44-.16.89-.11 1.34s.18.89.35 1.28q.27-.045.48-.12c.14-.05.28-.11.39-.18.24-.13.42-.28.56-.46l-.12-.24Zm.94-3.77c.13-.23.27-.45.45-.62s.39-.31.61-.42c.31.92 1.19 2.28.53 3.4l-.14-.21.09-.18c.23-.64-.12-1.62-.44-2.37-.04-.1-.08-.22-.1-.32-.13.72-.23 1.27-.31 1.74l-.68-1.01Zm1.45 2.14c-.12.22-.3.41-.5.57-.2.15-.41.25-.6.3.06-.33.11-.62.16-.95.05-.32.1-.66.17-1.05l-.68-1.01c-.12.23-.21.48-.26.77-.17.87.11 1.8.53 2.53.34-.12.62-.25.83-.41.22-.17.38-.34.49-.53l-.14-.21Zm.49-3.82c.2-.5.51-.91.94-1.16.2.43.54.94.78 1.5.24.55.37 1.16.11 1.73l-.17-.19c.02-.06.04-.12.06-.17.04-.16.05-.34.02-.53s-.08-.39-.15-.59c-.14-.4-.35-.8-.55-1.15a1.6 1.6 0 0 1-.13-.3c-.05.72-.09 1.27-.12 1.75l-.78-.89Zm1.67 1.88c-.18.47-.63.85-.98 1 .04-.66.06-1.2.1-2l-.78-.89c-.09.23-.14.5-.17.77-.08.87.3 1.75.79 2.41.64-.31 1.03-.7 1.2-1.11l-.17-.19Zm.06-3.81c.06-.26.16-.5.3-.71.13-.22.3-.4.5-.56.47.78 1.58 1.84 1.22 3.03l-.18-.16.03-.16c.04-.33-.06-.7-.24-1.07s-.43-.74-.66-1.06c-.06-.09-.12-.19-.17-.28.04.71.04 1.25.07 1.73l-.86-.75Zm1.83 1.6c-.06.25-.2.47-.35.67-.16.19-.33.36-.51.45 0-.32-.03-.62-.05-.93s-.04-.64-.06-1.03l-.86-.75c-.05.24-.09.49-.08.76.03.87.48 1.67 1.03 2.25.31-.18.54-.4.71-.61s.3-.42.36-.64l-.18-.16Zm-.35-3.74c.04-.27.1-.52.22-.75.06-.11.12-.22.2-.32.07-.1.15-.2.24-.29.55.7 1.71 1.59 1.51 2.8l-.2-.13s.01-.1.02-.15c.01-.66-.59-1.41-1.1-1.97-.07-.08-.13-.17-.19-.25.06.34.09.64.13.92s.09.53.11.76l-.93-.62Zm1.96 1.3c-.08.49-.41.99-.73 1.21-.08-.62-.2-1.16-.31-1.9l-.93-.62c-.03.23-.03.48 0 .73.12.85.64 1.57 1.24 2.07.57-.45.83-.93.92-1.37l-.2-.13Zm-.76-3.63c.02-.53.18-1.03.51-1.42.3.31.75.64 1.12 1.05s.68.89.63 1.48l-.21-.1v-.13c-.04-.63-.73-1.31-1.28-1.79-.08-.07-.15-.15-.21-.22.17.66.3 1.18.41 1.61l-.97-.47Zm2.06 1.01c0 .5-.3 1.03-.58 1.29-.16-.6-.31-1.1-.5-1.82l-.97-.47c0 .23.03.46.08.7.19.81.8 1.45 1.43 1.87.25-.26.43-.52.56-.76s.18-.49.19-.7l-.21-.1Zm-1.14-3.46c-.03-.27-.01-.53.05-.78s.15-.49.29-.7c.32.26.8.53 1.21.88s.73.78.78 1.36l-.21-.07s0-.07-.02-.11c-.12-.62-.83-1.19-1.44-1.6-.08-.05-.16-.13-.23-.19.06.16.12.3.17.44s.1.27.14.4c.09.25.18.48.26.69l-1-.33Zm2.11.69c.04.49-.18 1.05-.44 1.35-.21-.56-.43-1.04-.68-1.71l-1-.33c.03.22.06.44.15.66.28.77.93 1.32 1.59 1.65.24-.29.38-.57.47-.83s.14-.5.12-.72zm-1.5-3.25c-.03-.13-.04-.26-.04-.39s0-.26.01-.39c.03-.25.11-.5.22-.73.35.22.82.42 1.25.71.42.29.82.67.9 1.22l-.22-.04s-.01-.06-.02-.09c-.08-.29-.32-.56-.61-.8-.29-.23-.64-.43-.95-.6-.08-.04-.17-.1-.24-.16.28.58.52 1.05.71 1.43l-1.01-.19Zm2.13.4c.05.24.04.51-.02.75-.06.25-.16.47-.27.63-.13-.26-.26-.5-.39-.75-.14-.25-.29-.52-.44-.84l-1.01-.19c.04.2.11.41.21.61.35.72 1.04 1.18 1.73 1.42.19-.32.32-.61.38-.88s.06-.51.03-.73l-.22-.04Zm-1.82-3c-.09-.25-.12-.51-.11-.77s.05-.51.14-.75c.35.17.85.32 1.3.55.44.23.84.56 1 1.08h-.21l-.03-.08c-.24-.56-1.01-.94-1.67-1.18-.09-.03-.18-.08-.26-.13.18.27.32.51.46.73s.26.42.38.59l-1-.05Zm2.12.1c.16.46.04 1.06-.14 1.4-.32-.48-.61-.88-.98-1.46l-1-.05c.07.19.14.38.26.56.21.33.49.59.82.78.32.19.67.32 1.02.4.17-.34.24-.64.28-.91.03-.27.02-.51-.05-.72zm-2.11-2.73c-.1-.24-.17-.49-.19-.74s.01-.51.07-.76c.36.13.85.21 1.31.39.45.17.89.44 1.09.92l-.21.02-.02-.05c-.13-.26-.41-.46-.73-.62s-.69-.26-1.01-.35c-.09-.02-.18-.06-.26-.1.37.49.69.88.94 1.2l-.98.08Zm2.07-.18c.1.22.14.48.14.73s-.06.49-.14.68c-.17-.22-.34-.42-.51-.62-.18-.21-.37-.43-.58-.69l-.98.08c.08.17.18.34.3.5.47.6 1.21.87 1.91.95.12-.35.18-.67.19-.94 0-.27-.05-.51-.13-.7l-.21.02Zm-2.35-2.41a1.9 1.9 0 0 1-.26-.71c-.05-.25-.06-.5-.01-.76.71.17 1.96.11 2.46.99l-.2.04-.02-.03c-.16-.24-.45-.41-.77-.52-.33-.11-.7-.18-1.03-.22-.09-.01-.18-.04-.27-.07.43.44.76.78 1.05 1.07l-.94.21Zm1.98-.44q.09.15.15.33c.03.12.05.25.06.37.02.25 0 .5-.05.68-.39-.37-.72-.7-1.2-1.15l-.94.21c.09.15.21.3.34.44.51.53 1.28.71 1.96.71.1-.37.11-.68.09-.95-.01-.14-.03-.26-.06-.37a1.7 1.7 0 0 0-.14-.31l-.2.04Zm-2.56-2.08c-.32-.41-.45-.91-.43-1.43.36.04.83 0 1.29.07.45.06.9.21 1.2.6l-.19.07h-.01c-.37-.44-1.18-.53-1.84-.54-.09 0-.18-.02-.27-.03.24.19.43.36.62.52.19.15.36.29.51.41l-.89.33Zm1.88-.69c.28.37.38.97.29 1.35-.4-.34-.8-.59-1.28-.99l-.89.33c.1.14.22.27.36.38.57.46 1.31.55 1.98.46.12-.75-.04-1.26-.27-1.6zm-2.74-1.72c-.17-.19-.31-.4-.4-.63-.1-.23-.14-.49-.16-.74.36 0 .81-.08 1.26-.07.45 0 .91.1 1.23.44l-.18.09c-.1-.1-.22-.17-.36-.22s-.3-.08-.47-.1c-.33-.04-.69-.02-1.01.01h-.26c.47.33.87.58 1.19.79l-.83.43Zm1.74-.91c.16.16.28.39.36.62.07.24.09.49.07.68-.22-.13-.42-.26-.64-.39s-.45-.26-.71-.43l-.83.43c.11.12.24.22.38.32.59.39 1.33.39 1.98.23.01-.38-.02-.69-.1-.95-.08-.25-.2-.45-.34-.6l-.18.09Zm-2.86-1.37c-.2-.16-.34-.36-.46-.58s-.2-.46-.23-.72c.67-.07 1.75-.5 2.45.08l-.16.11c-.21-.16-.52-.22-.84-.22-.33 0-.68.06-.98.13-.08.02-.17.02-.26.02.26.13.48.25.69.36.2.11.39.2.56.29l-.76.52Zm1.59-1.1h.01c.09.08.17.17.24.26.07.1.12.21.17.32.09.23.14.46.14.65-.23-.11-.44-.2-.67-.31-.22-.11-.46-.22-.73-.35l-.76.52c.11.1.25.18.39.26.6.32 1.35.23 1.96 0-.01-.38-.1-.68-.19-.93-.1-.25-.24-.43-.4-.55l-.16.11Zm-2.95-1c-.42-.27-.69-.71-.82-1.2.33-.07.74-.24 1.16-.33s.85-.1 1.23.13l-.15.13c-.46-.25-1.19-.08-1.78.12-.08.03-.17.04-.25.05.27.1.49.2.7.28s.4.15.58.22l-.68.61Zm1.42-1.27s.02.01.03.02c.36.24.62.76.64 1.14-.45-.18-.88-.28-1.42-.5l-.68.61c.12.08.24.15.38.21.63.24 1.33.08 1.92-.21a3 3 0 0 0-.11-.51c-.05-.15-.11-.28-.17-.39-.13-.23-.28-.39-.45-.5l-.15.13Zm-3-.64c-.21-.12-.41-.27-.56-.46a2.2 2.2 0 0 1-.36-.65c.31-.11.69-.31 1.09-.44s.83-.2 1.21-.01l-.13.15c-.23-.1-.52-.08-.83-.01-.3.07-.61.19-.88.31-.08.03-.16.06-.24.07.52.16.95.26 1.3.36l-.59.67Zm1.24-1.41.05.02c.19.1.36.26.49.45.12.2.21.41.25.59-.23-.05-.45-.11-.68-.16s-.48-.1-.76-.17l-.59.67c.12.06.25.11.38.15.64.17 1.31-.06 1.86-.41a2.8 2.8 0 0 0-.36-.86c-.15-.21-.32-.35-.5-.43l-.13.15Zm-3.01-.27a1.9 1.9 0 0 1-1.02-1c.58-.26 1.42-.95 2.19-.68l-.11.16c-.23-.06-.52-.02-.8.08-.29.1-.58.26-.83.4-.07.04-.15.07-.23.1q.405.075.72.12c.21.04.41.07.58.09l-.51.73Zm1.06-1.52s.04.01.06.02c.4.14.71.61.82.95-.23-.03-.45-.05-.68-.08s-.47-.06-.75-.09l-.51.73c.12.05.24.08.38.1.63.11 1.28-.21 1.78-.6a2.4 2.4 0 0 0-.44-.81 1.1 1.1 0 0 0-.54-.37l-.11.16Zm-2.98.08c-.48-.11-.85-.44-1.11-.87.54-.33 1.28-1.05 2.07-.91l-.09.17c-.47-.06-1.08.31-1.54.64q-.105.075-.21.12c.53.03.95.07 1.3.07l-.41.77Zm.86-1.61s.05 0 .08.02c.39.11.76.51.88.85-.46-.03-.87 0-1.41-.03l-.41.77c.11.03.23.05.35.06.64.03 1.23-.33 1.68-.77-.3-.69-.71-.98-1.09-1.07l-.09.17Zm-2.93.43c-.48-.08-.89-.33-1.18-.76.25-.18.53-.46.86-.7q.24-.18.51-.3c.18-.07.36-.1.55-.09l-.07.18c-.46-.01-1.02.42-1.43.78-.06.05-.13.1-.2.14.26 0 .5-.01.71-.03.21 0 .4-.02.57-.03l-.32.8Zm.67-1.67h.1c.4.05.78.43.94.74-.45.03-.84.08-1.39.12l-.32.8c.11.02.22.02.34.01.62-.03 1.17-.45 1.58-.93-.19-.32-.38-.55-.58-.7s-.4-.21-.6-.23l-.07.18Zm-2.83.77c-.24 0-.47-.06-.68-.17s-.4-.25-.57-.44c.23-.2.48-.51.77-.77s.62-.47 1-.49l-.05.18c-.45.06-.95.51-1.32.91-.05.06-.12.11-.18.16.26-.04.49-.07.69-.1.21-.03.39-.06.56-.09l-.23.82Zm.47-1.71h.12c.39.03.81.34.98.63-.44.08-.82.18-1.35.26l-.23.82c.1 0 .21 0 .31-.02.3-.04.58-.19.83-.38s.46-.43.64-.69c-.21-.31-.43-.51-.64-.63s-.42-.18-.61-.17zm-2.71 1.09c-.48.02-.94-.13-1.3-.49.2-.21.42-.53.68-.81.13-.14.27-.28.43-.38.15-.1.32-.17.5-.21l-.03.18c-.43.1-.87.6-1.2 1.02-.05.06-.11.12-.17.17.5-.11.89-.22 1.22-.3l-.13.83Zm.28-1.71s.09-.02.13-.02c.39-.03.82.25 1.02.52-.21.06-.41.12-.61.18-.21.06-.43.14-.68.21l-.13.83c.1 0 .19-.02.29-.05.3-.09.55-.24.78-.45.22-.21.41-.48.57-.74-.24-.28-.48-.46-.7-.56s-.43-.12-.63-.08l-.03.18Zm-2.51-2.36c-.44-.22-.95-.2-1.37-.03.15.25.28.59.45.91.08.16.17.31.28.45.1.14.22.26.37.35l.14-.86c-.14-.13-.28-.26-.45-.39a4 4 0 0 0-.59-.36c.37-.13.79-.12 1.15.07l.02-.13Zm-.13.82c.15.14.29.28.45.4.15.13.32.26.52.37-.03-.49-.2-1.01-.61-1.31-.08-.06-.16-.11-.25-.15l.02-.13q.15.075.3.18c.5.38.67 1 .69 1.54-.29.1-.53.13-.74.12-.21 0-.38-.06-.52-.15l.14-.86Zm-.49 2.72c-.42.02-.82-.12-1.14-.43.18-.19.37-.46.6-.71.11-.12.24-.24.37-.33s.28-.15.43-.18l-.03.16c-.38.08-.76.52-1.05.89-.04.05-.1.1-.14.15.44-.1.78-.19 1.07-.26l-.12.72Zm.24-1.5s.08-.02.11-.02c.34-.03.72.22.89.45-.18.05-.36.11-.54.16-.18.06-.37.12-.6.18l-.12.72c.08 0 .17-.02.25-.04.26-.07.48-.21.68-.4s.36-.42.49-.65c-.21-.24-.42-.4-.61-.49-.2-.09-.38-.1-.55-.07l-.03.16Zm-1.66-1.74c-.27-.14-.59-.13-.85-.02.09.15.18.37.28.57.05.1.11.2.17.28.06.09.14.16.23.22l.09-.53c-.09-.08-.17-.16-.28-.24-.1-.08-.22-.15-.36-.23.23-.08.49-.07.71.04v-.08h.01Zm-.09.51c.09.09.18.17.28.25s.2.16.32.23c-.02-.3-.12-.63-.38-.82a.6.6 0 0 0-.15-.09v-.08c.08.03.14.07.2.11.31.23.42.62.43.96-.18.06-.33.08-.46.07-.13 0-.23-.04-.32-.09l.09-.53Zm-.3 1.69a.92.92 0 0 1-.71-.27c.11-.12.23-.29.37-.44.07-.08.15-.15.23-.21s.17-.1.27-.11l-.02.1c-.23.05-.47.33-.65.55l-.09.09c.27-.06.49-.12.66-.16l-.07.45Zm.15-.93s.05 0 .07-.01c.21-.02.45.14.55.28-.11.03-.22.07-.33.1s-.23.07-.37.11l-.07.45c.05 0 .1-.01.16-.03.16-.05.3-.13.42-.25s.22-.26.31-.4c-.13-.15-.26-.25-.38-.31-.12-.05-.24-.06-.34-.05l-.02.1Z" style="fill:#fff;fill-rule:evenodd;stroke-width:0"/><path d="m125.42 66.21.29.9h.94l-.76.55.29.89-.76-.55-.76.55.29-.89-.76-.55h.94zm3.4 0 .29.9h.93l-.76.55.29.89-.75-.55-.76.55.29-.89-.76-.55h.94zm3.39 0 .29.9h.94l-.76.55.29.89-.76-.55-.76.55.29-.89-.75-.55h.93zm-8.25 2.75h9.71v.59h-9.71zm0 1.34h9.71v.59h-9.71zm5.92-23.71v-6.9q0-1.32.45-2.1c.3-.52.93-.78 1.9-.78v-.44h-8.76v.44c.83 0 1.42.24 1.77.71.35.48.52 1.2.52 2.16v6.42c.93.41 1.84.62 2.75.62.47 0 .94-.05 1.38-.14Zm7.98 7.03c-.6 1.94-1.29 3.17-2.06 3.7s-1.6.8-2.47.8h-1.28c-.86 0-1.43-.24-1.72-.71-.29-.48-.44-1.17-.44-2.08V49.1c-.89.25-1.89.38-3.01.38-.38 0-.76-.02-1.12-.05v6.64c0 .87-.14 1.57-.42 2.08-.28.52-.9.78-1.87.78v.44h14.13l.64-5.73h-.37Z" class="cls-4"/><path d="M129.88 47.03c-.45.09-.91.14-1.38.14-.9 0-1.82-.21-2.75-.62-.11-.05-.23-.1-.34-.16-1.04-.52-1.94-1.44-2.68-2.76q-1.11-1.98-1.11-5.28c0-1.21.11-2.35.32-3.42s.58-2.04 1.1-2.92c.43-.7 1.05-1.28 1.86-1.75s1.74-.7 2.79-.7q1.185 0 2.25.39c.71.26 1.35.63 1.92 1.13s1.05 1.13 1.45 1.89q.6 1.14.81 2.61h.46v-7.23h-.38q-.39.99-1.11.99c-.26 0-.68-.07-1.24-.21-1.6-.47-3.08-.7-4.44-.7s-2.66.19-3.84.57c-1.19.38-2.33 1.09-3.43 2.14-.64.64-1.2 1.34-1.66 2.08-.47.75-.84 1.6-1.11 2.56s-.41 2-.41 3.12c0 1.3.21 2.57.63 3.8a9.7 9.7 0 0 0 1.88 3.27q1.245 1.425 3.12 2.28c.95.43 2.01.69 3.17.8.36.03.74.05 1.12.05 1.12 0 2.12-.13 3.01-.38.19-.05.37-.11.54-.17 1.01-.37 1.86-.83 2.54-1.38s1.31-1.18 1.9-1.9v-1.86q-2.175 3.015-4.98 3.6Z" class="cls-4"/></g></svg>