<?xml version="1.0" encoding="UTF-8"?><svg id="Layer_2" xmlns="http://www.w3.org/2000/svg" xmlns:xlink="http://www.w3.org/1999/xlink" viewBox="0 0 257 91"><defs><style>.cls-1{font-size:19.54px;}.cls-1,.cls-2{font-family:Baskerville-Bold, Baskerville;font-weight:700;}.cls-1,.cls-2,.cls-3,.cls-4{fill:#fff;}.cls-5{letter-spacing:-.02em;}.cls-6{clip-path:url(#clippath);}.cls-7,.cls-8,.cls-4{stroke-width:0px;}.cls-7,.cls-9{fill:none;}.cls-10{letter-spacing:-.02em;}.cls-11{letter-spacing:0em;}.cls-2{font-size:19.32px;}.cls-3{font-family:Futura-Medium, Futura;font-size:7.64px;font-weight:500;}.cls-12{letter-spacing:-.03em;}.cls-13{letter-spacing:-.05em;}.cls-14{letter-spacing:-.05em;}.cls-15{letter-spacing:0em;}.cls-8{fill:rgba(15,3,42,.24);}.cls-9{stroke:rgba(255,255,255,.2);}.cls-16{letter-spacing:-.03em;}</style><clipPath id="clippath"><rect class="cls-7" x="55.48" y="16.43" width="146.05" height="58.14"/></clipPath></defs><g id="Layer_1-2"><path class="cls-8" d="M45.5.5h166c24.85,0,45,20.15,45,45h0c0,24.85-20.15,45-45,45H45.5C20.65,90.5.5,70.35.5,45.5h0C.5,20.65,20.65.5,45.5.5Z"/><path class="cls-9" d="M45.5.5h166c24.85,0,45,20.15,45,45h0c0,24.85-20.15,45-45,45H45.5C20.65,90.5.5,70.35.5,45.5h0C.5,20.65,20.65.5,45.5.5Z"/><g class="cls-6"><text class="cls-2" transform="translate(55.48 32.53)"><tspan class="cls-13" x="0" y="0">D</tspan><tspan x="14.63" y="0">AN THIMONS</tspan></text><text class="cls-1" transform="translate(101.67 60.97)"><tspan class="cls-14" x="0" y="0">P</tspan><tspan class="cls-15" x="11.53" y="0">AINTING</tspan></text><path class="cls-4" d="M62.1,66.82c-.66.03-.8-.14-.68-.79.16-.84.97-1.35,1.79-1.08.15.05.32.34.32.52-.03.83-.58,1.32-1.42,1.35"/><path class="cls-4" d="M90.71,52.83c-.04-.21-.1-.43-.12-.66-.11-.86-.72-1.64-1.56-1.81-1.28-.26-2.57-.46-3.86-.65-1.67-.24-3.35-.42-5.03-.64-.56-.08-1.11-.24-1.67-.3-.95-.11-1.91-.12-2.85-.26-1.34-.2-2.67-.5-4.01-.72-.58-.09-1.19-.08-1.68.32-1.56,1.25-3.08,2.55-4.64,3.79-.75.6-1.57,1.12-2.33,1.7-.26.2-.55.48-.63.77-.24.86-.42,1.73-.57,2.61-.14.82-.02.96.74,1.23.12.04.25.04.38.06,1.2.19,2.4.37,3.6.57.14.02.27.14.58.3-.83.57-1.51,1.11-2.25,1.55-.7.41-1.51.63-2.2,1.06-2.66,1.63-4.63,3.91-5.98,6.71-.27.55-.46,1.14-.66,1.72-.08.24-.15.48-.2.72-.06.31-.08.62-.05.95,0,.1.02.19.06.28.06.11.17.19.29.24.52.22,1.15,0,1.66-.13.39-.09.78-.21,1.15-.38.69-.33,1.32-.78,2.05-1.04,2.07-.73,3.83-1.99,5.43-3.37,1.59-1.36,2.82-3.13,4.22-4.71.53-.6,1.02-1.24,1.62-1.76.78-.68,1.69-.99,2.77-.67.48.14,1.01.11,1.51.16,1.24.12,2.5-.03,3.74.32.8.22,1.7.07,2.54.17.58.07.94.02,1.41-.45,1.14-1.14,2.43-2.13,3.64-3.21.79-.7,1.56-1.42,2.28-2.18.33-.35.79-.63.78-1.28,0-.31-.1-.66-.16-1M64.76,67.49c1.65-1.89,3.3-3.79,4.95-5.68-1.33,2.18-2.95,4.09-4.95,5.68M83.1,57.7c-.04.69-.14,1.38-.26,2.06-.02.13-.27.32-.4.31-2.22-.14-4.45-.3-6.62-.46.15-.59.35-1.01.33-1.44-.01-.41-.42-.25-.64-.16-.42.18-.8.43-1.21.64-.18.09-.36.17-.54.25-.2-.6-.45-.74-.97-.4-1,.66-1.99,1.34-2.9,2.12-2.11,1.79-3.6,4.13-5.43,6.18-.49.55-1.14.95-1.71,1.43-.13.11-.1.46,0,.48.12.02.25.04.37.02,0,0,.01,0,.02,0,0,0,0,0,.01.01.03.04.07.1.03.14-.03.03-.09.04-.13.06-.1.05-.2.1-.3.14-.2.1-.39.19-.59.29-.39.19-.79.39-1.18.58-.28.14-.57.28-.85.41-.14.07-.28.14-.43.21-.07.03-.14.07-.21.1-.05.02-.15.1-.2.1-.44.21-.89.4-1.34.6-.13.06-.27.12-.41.15-.63.13-.84-.04-.62-.64.32-.88.7-1.74,1.12-2.58.42-.86.87-1.7,1.39-2.5.37-.57.83-1.11,1.35-1.56.74-.64,1.55-1.2,2.37-1.74.31-.2.45-.25,1.03-.46.4-.02.82-.42,1.21-.6.9-.4,1.66-.92,2.32-1.7.16-.19.36-.36.57-.5.54-.37.77-.94,1-1.51.16-.4.01-.79-.3-.95-.38-.19-.61.18-.8.49-.02.03-.03.07-.04.1-.25.57-.55.86-1.28.68-1.28-.31-2.6-.45-3.9-.69-.14-.03-.37-.23-.36-.35.02-.48.12-.95.18-1.43.14-1.22.9-1.32,1.92-1.18,2.16.32,4.33.56,6.49.85,1.65.22,3.3.48,4.95.72.72.11,1.44.21,2.16.3,1.35.19,2.69.42,4.05.53.65.05.78.4.75.88M83.89,59.58c-.03-.54-.06-.99-.07-1.44-.01-.36-.05-.72,0-1.07.03-.24.17-.47.26-.7.07.02.13.04.2.06.35.71.18,2.68-.37,3.16M85.25,58.33c-.07-.71-.18-1.42-.2-2.13-.01-.52.15-1,.68-1.28.24-.12.47-.3.64-.5.1-.12.09-.34.13-.52-.2-.02-.44-.1-.6-.03-.24.11-.44.32-.64.5-.6.57-.75.59-1.47.29-1.17-.49-2.49-.53-3.73-.66-1.36-.14-2.71-.3-4.06-.48-2.57-.33-5.13-.71-7.68-1.15-.76-.13-1.58-.25-2.26.11.43.21.91.29,1.39.36,1.39.22,2.78.44,4.16.67.65.11,1.34.11,2,.17,1.85.19,3.7.47,5.52.87,1.12.24,2.27.36,3.4.56.42.07.83.22,1.3.34-.49.75-.73.81-1.42.65-.72-.16-1.46-.22-2.19-.33-1.47-.22-2.94-.46-4.42-.67-1.15-.16-2.3-.29-3.45-.44-1.58-.21-3.16-.43-4.74-.66-1.02-.15-2.04-.34-3.15-.52.14-.13.22-.21.3-.28.63-.56,1.27-1.1,1.88-1.68.8-.77,1.69-.95,2.78-.71,1.26.28,2.56.37,3.83.55,1.02.14,2.05.3,3.07.44,1.81.26,3.63.51,5.45.77,1.45.21,2.91.38,4.34.68.36.08.81.55.89.92.44,1.83.15,3.22-1.76,4.15M87.61,52.06c-1.67-.3-3.35-.6-5.02-.89-1.22-.21-2.43-.43-3.65-.61-.88-.12-1.78-.14-2.66-.27-1.51-.22-3.02-.49-4.52-.73-.59-.09-1.17-.16-1.76-.24,0-.07,0-.14,0-.21.6-.37,1.13-.76,1.98-.5.88.27,1.82.32,2.74.45,1.15.17,2.3.33,3.45.49.58.08,1.15.13,1.73.21,1.89.25,3.78.5,5.67.77,1.11.16,2.22.35,3.4.66-.38.29-.75.59-1.13.87-.04.03-.13,0-.2,0M88.96,55.17c-.16-.71-.32-1.34-.45-1.97-.11-.55.27-1.15.82-1.22.16-.02.45.16.51.32.42,1.11.02,2.01-.88,2.87"/><path class="cls-4" d="M121.28,40.65c-1.96-.04-3.92-.02-5.88.2-.03,0-.07,0-.1.01-2.85.33-5.75.93-8.51,1.73-2.24.64-4.06,2.06-5.84,3.51-2.36,1.91-4.66,3.89-6.91,5.94-.25.22-.69.79-1.05.59-.43-.24-.1-.58.11-.79.15-.15.32-.29.44-.51-.15.06-.3.14-.45.16-.25.04-.56.15-.6-.3-.03-.33-.26-.35-.56-.32-.25.02-.66-.05-.74-.2-.09-.19.02-.59.18-.76.55-.57,1.16-1.07,1.69-1.67-.41.29-.79.61-1.23.84-.18.1-.45.02-.69.02.07-.2.11-.44.23-.61.16-.24.39-.43.53-.73-.82.57-1.63,1.13-2.45,1.7-.07-.06-.13-.12-.2-.17.13-.22.2-.5.39-.66.98-.85,1.98-1.67,2.97-2.5-.05-.06-.1-.12-.14-.19-.96.67-1.91,1.34-2.88,2.01-.49.33-.99.66-1.51.96-.11.06-.3-.02-.45-.03.06-.15.09-.36.2-.44.42-.31.88-.57,1.31-.86,1.1-.74,2.04-1.65,2.91-2.66.44-.51,1.09-.83,1.65-1.24.14-.1.28-.19.42-.29-.04-.05-.07-.11-.11-.16-.63.42-1.27.83-1.9,1.26-.69.48-1.37.96-2.04,1.46-.24.17-.47.36-.65.58-.48.57-1.19.67-1.83.89-.12.04-.31-.11-.47-.17.07-.13.12-.3.22-.39,1.19-1.01,2.39-2.01,3.58-3.02.14-.12.2-.35.35-.63-.94.14-1.57.46-2.15.96-.55.47-1.24.78-1.85,1.18-1.19.79-2.38,1.59-3.55,2.42-.4.28-.78.33-1.24.19-.08-.61.5-.72.8-1,.33-.31.76-.49,1.14-.75.25-.17.65-.24.43-.72-.03-.08.13-.29.25-.38.58-.46,1.17-.91,1.76-1.36.1-.07.21-.13.31-.2-.04-.06-.08-.11-.13-.17-.08-.1-2.64,1.52-2.88,1.68-1.03.66-2.02,1.39-2.97,2.16-.25.2-.51.42-.82.52-.31.1-.68.07-.91-.16.62-.56,1.25-1.1,1.89-1.63-.94.56-1.89,1.11-2.83,1.67-.22.13-.59.21-.67-.03-.06-.17.11-.33.25-.43l2.39-1.77c-1.27.36-2.36,1.16-3.4,1.97-.19.14-.38.3-.62.31-.24.02-.5-.17-.47-.4-.9.2-1.84.22-2.74.04.1-.56.55-.97,1-1.31.81-.61,1.68-1.12,2.58-1.59,2.83-1.49,5.87-2.57,9.01-3.21,2.46-.5,4.99-.74,7.38-1.52,4.46-1.46,9.12-2.09,13.8-2.43,2.19-.16,4.39-.25,6.57-.34,2-.08,3.99-.13,5.99-.17.54,1.32,1.1,2.63,1.67,3.94"/><path class="cls-4" d="M85.51,48.29c.35-.28.61-.51.9-.7.07-.05.28,0,.32.07.05.07.02.26-.04.33-.27.28-.54.61-1.18.3"/><path class="cls-4" d="M200.75,36.71h-80.81c-2.05.03-4.09.09-6.14.17-2.24.09-4.49.18-6.74.34-.5.59-.56,1.58.07,2.24l1.35,1.4h92.28v-4.14Z"/><text class="cls-3" transform="translate(101.55 72.46) scale(.96) skewX(-17)"><tspan class="cls-5" x="0" y="0">T</tspan><tspan x="3.51" y="0">O BE</tspan><tspan class="cls-12" x="21.54" y="0">A</tspan><tspan class="cls-11" x="26.99" y="0">UTIFY AND P</tspan><tspan class="cls-10" x="73.55" y="0">R</tspan><tspan class="cls-16" x="78.02" y="0">O</tspan><tspan x="84.65" y="0">TECT</tspan></text></g></g></svg>