<?xml version="1.0" encoding="UTF-8"?><svg id="Layer_2" xmlns="http://www.w3.org/2000/svg" viewBox="0 0 257 91"><defs><style>.bg{fill:rgba(15,3,42,.24);stroke-width:0px;}.border{fill:none;stroke:rgba(255,255,255,.2);}.w{fill:#fff;stroke-width:0px;}</style></defs><g id="Layer_1-2"><path class="bg" d="M45.5.5h166c24.85,0,45,20.15,45,45h0c0,24.85-20.15,45-45,45H45.5C20.65,90.5.5,70.35.5,45.5h0C.5,20.65,20.65.5,45.5.5Z"/><path class="border" d="M45.5.5h166c24.85,0,45,20.15,45,45h0c0,24.85-20.15,45-45,45H45.5C20.65,90.5.5,70.35.5,45.5h0C.5,20.65,20.65.5,45.5.5Z"/><g transform="translate(36, 33.5) scale(0.059)"><polygon class="w" points="2 206 119 206 119 109 616.5 109 716.5 9 198.5 9 2 206"/><polygon class="w" points="2 403 119 403 119 306 419.5 306 519.5 206 198.5 206 2 403"/><polygon class="w" points="916 66 1088 66 1147.5 9 849.5 9 849.5 306 916 306 916 199 1041.5 199 1093.5 143 916 143 916 66"/><path class="w" d="M1303,2c-91,0-160.5,66-160.5,155.5s69.5,155.5,160.5,155.5,160.5-66,160.5-155.5S1394,2,1303,2ZM1303,253c-55.5,0-93.5-42.5-93.5-95.5s38-95.5,93.5-95.5,93.5,42.5,93.5,95.5-38,95.5-93.5,95.5Z"/><path class="w" d="M1790.5,102.5c0-55.5-43-93.5-105.5-93.5h-171v297h66.5v-110h73.8125l72.1875,110h76.5l-78.9760742-119.7109375c46.4150391-13.9455566,66.4760742-48.0478516,66.4760742-83.7890625ZM1580.5,65h98c28,0,45.5,15,45.5,38.5,0,24-17,38.5-45,38.5h-98.5v-77Z"/><path class="w" d="M1962.5,185h108v48.2460938c-19.394043,13.2478027-45.0097656,20.7539062-73,20.7539062-64.5,0-99-44-99-96.5,0-55,37-97,93.5-97,27.5,0,52,9,65.5,29h77c-19-52.5-69.5-87.5-144-87.5-89.5,0-159,64.5-158.5,155.5.5,84.5,58,154.5,160.5,154.5,62.5,0,108.5-20.5,143-50.5v-129.5h-121l-52,53Z"/><polygon class="w" points="2261.5 182.5 2360 182.5 2411 128.5 2261.5 128.5 2261.5 65 2441.5 65 2441.5 9 2195 9 2195 306 2444.5 306 2444.5 250 2261.5 250 2261.5 182.5"/><polygon class="w" points="2716 204.6105957 2562.5 9 2501 9 2501 306 2566 306 2566 110.8422852 2719.5 306 2781 306 2781 9 2716 9 2716 204.6105957"/><polygon class="w" points="3139.5 9 2826 9 2826 66 2932 66 2932 306 2998.5 306 2998.5 66 3085.5 66 3139.5 9"/></g></g></svg>