<?xml version="1.0" encoding="UTF-8"?><svg id="Layer_2" xmlns="http://www.w3.org/2000/svg" viewBox="0 0 257 91"><defs><style>.cls-1{fill:rgba(15,3,42,.24);}.cls-1,.cls-2{stroke-width:0px;}.cls-2{fill:#fff;}.cls-3{fill:none;stroke:rgba(255,255,255,.2);}</style></defs><g id="Layer_1-2"><path class="cls-1" d="M45.5.5h166c24.85,0,45,20.15,45,45h0c0,24.85-20.15,45-45,45H45.5C20.65,90.5.5,70.35.5,45.5h0C.5,20.65,20.65.5,45.5.5Z"/><path class="cls-3" d="M45.5.5h166c24.85,0,45,20.15,45,45h0c0,24.85-20.15,45-45,45H45.5C20.65,90.5.5,70.35.5,45.5h0C.5,20.65,20.65.5,45.5.5Z"/><path class="cls-2" d="M185.96,33.4l-7.82,3.82-7.01-7.27c-2.31-2.33-4.19-4.32-4.24-4.29l-.24-.15v-.83s-.03.74-.03.74v.06s.03.02.03.02v.08c-.06-.07-.1-.13-.15-.17h0s0,0,0,0,0,0,0,0c0,0,0-.01-.01-.02l-.02.03-3.51,4.71-.97-.4-6.67-2.77v-13.45l11.39-5.82.04.02,1.76.87.06.03,9.62,4.89v6.29l-.33,5.58,1.88,1.92.02-.04,6.21,6.14Z"/><polygon class="cls-2" points="186.63 50.45 186.63 50.45 186.57 50.4 186.63 50.45"/><path class="cls-2" d="M186.57,50.11v.12s-.02.02-.05.06c-.6,1.04-6.47,15.81-6.47,15.81v4.06l-6.29,6.28-.13-5.84,3.63-4.02,5.74-11.87.26-.06,3.31-4.54Z"/><polygon class="cls-2" points="181.99 54.94 176.51 66.1 173.31 69.66 168.66 66.58 170.66 54.11 175.31 56.92 181.99 54.94"/><path class="cls-2" d="M190.89,24.74c-.6.35-1.59,1.16-2.39,2.89-.93,2.01-1.46,4.31-1.67,5.35l-.87.42-6.23-6.1,3.8-7.07s4.97,2.79,5.1,2.87c.05.03,1.29.7,2.25,1.63Z"/><polygon class="cls-2" points="158.67 37.33 174.32 37.33 166.49 41.83 158.67 37.33"/><path class="cls-2" d="M173.76,76.44l-3.02-1.73-.34-.19c-.41-2.7-1.28-4.71-1.7-5.58-.16-.31-.25-.48-.25-.48h-5.08l-.24-1.88h5.53l4.65,3.08.31.2v.12s.02.62.02.62l.13,5.84Z"/><polygon class="cls-2" points="183 46.78 181.51 49.95 178.59 51.47 174.32 52.28 172.68 50.36 174.62 49.02 174.8 48.9 181.56 47.14 183 46.78"/><path class="cls-2" d="M191.98,38.58s-.1,0-.17,0h.11s.04,0,.06,0Z"/><path class="cls-2" d="M201.22,44.21c-.14-.81-.5-1.59-.88-2.23,0,0-.22-.35-.7-1.05-.21-.27-.37-.47-.43-.55-.23-.29-1.39-1.51-1.39-1.51l-4.48,3.16h0s.07-.21.07-.21l.81-2.28-.89-2.44-1.21-.2-.93.65.08,1.04s.57,7.43.57,7.43l1.66.93,3.47,1.95.26,3.61.37,5.2c2.24-2.73,3.69-7.19,4.25-8.87h0c-.05-.42-.33-2.94-.63-4.64Z"/><path class="cls-2" d="M168.15,68.46l-1.06,5.18h-3.19v.02l-.83,9c-.84-.62-2.73-2.1-2.39-6.65.29-3.88,1.85-6.68,2.28-7.38.07-.11.11-.17.11-.17h5.07Z"/><path class="cls-2" d="M168.51,83.31l-4.85-.06.83-9v-.02h3.19s1.06-5.19,1.06-5.19c1.99,2.48,2.09,7.06,2.13,7.59.33,4.39-2.2,6.55-2.35,6.67Z"/><polygon class="cls-2" points="166.51 25.39 166.51 25.41 166.51 25.41 166.5 25.4 166.51 25.39"/><path class="cls-2" d="M166.46,25.41l-3.51,4.71-.77,1.03-1.18,1.63-5.64,4.54-1.08.22s4.25-4.35,7.7-7.83h0c2.31-2.34,4.23-4.18,4.31-4.24l.17-.07Z"/><path class="cls-2" d="M178.38,37.1l-.24.12-.28.14-.12-.03-5.57-4.55-5.21-6.81h0c-.05-.08-.1-.14-.15-.2,0,0-.01-.01-.02-.02,0,0,0-.01-.01-.02,0,0-.01-.02-.02-.03-.03-.04-.06-.08-.09-.12h0c-.06-.07-.1-.13-.15-.18h0s0,0,0,0,0,0,0,0h.03s.1.03.1.03h.03s.14.06.14.06c.08.06,2,1.9,4.31,4.23,2.78,2.81,6.1,6.19,7.26,7.38Z"/><path class="cls-2" d="M166.8,25.77s-.01-.01-.02-.02c-.01-.01-.02-.03-.03-.04.01.02.03.04.05.06Z"/><polygon class="cls-2" points="185.37 48.49 182.16 53 181.35 53.25 174.99 55.3 170.57 52.41 170.57 51.83 170.57 51.83 175.06 54.65 181.93 52.44 184.69 48.26 184.43 46.4 185.11 46.28 185.37 48.49"/><polygon class="cls-2" points="194.69 64.17 192.67 67.03 183 75.34 183 71.43 190.32 64.65 191.6 63.47 194.6 60.7 194.69 64.17"/><polygon class="cls-2" points="194.56 59.4 183 70.19 183 69.34 189.87 60.1 191.19 58.51 191.2 58.51 191.21 58.5 190.92 53.17 194.45 54.96 194.53 57.84 194.52 57.85 194.56 59.4"/><path class="cls-2" d="M194.23,29.37l-4.32,2.11c.08-.85.53-2.68,2.76-4.54.8,1.13,1.35,2.08,1.35,2.08l.21.35Z"/><path class="cls-2" d="M178.17,19.8l-.33,5.58,1.88,1.92,2.7-5.02s-1.92-1.08-2.29-1.25-1.97-1.23-1.97-1.23"/><polygon class="cls-2" points="189.12 49.32 189.08 49.29 186.57 47.49 186.57 42.92 189.03 44.64 189.09 47.72 189.12 49.15 189.12 49.2 189.12 49.32"/><path class="cls-2" d="M189.12,52.23l-6.12,13.86v9.24c-1.96,0-2.95-.17-2.95-.17v-9.07s5.87-14.77,6.47-15.81c.02-.04.04-.06.05-.06v.17l2.51,1.8.04.03Z"/><path class="cls-2" d="M44.88,53.29l-1.79,1.68h-9.26l-.91-1.68,3.04-11.36,1.79-1.69h9.28l.9,1.68-.62,2.31h-3.37s-5.2,0-5.2,0l-1.82,6.74h3.02s2.2.01,2.2.01l.96-3.58h3.37l-1.57,5.89Z"/><path class="cls-2" d="M55.24,43.11h2.8l-2.8,10.49-1.46,1.37h-7.46l-.75-1.37,2.8-10.48h2.8s-2.29,8.57-2.29,8.57h4.07s2.29-8.58,2.29-8.58Z"/><path class="cls-2" d="M64.27,48.34l1.4-5.23h2.8l-3.17,11.86h-2.8l.47-1.78-2.7-5.1-1.84,6.88h-2.8l3.17-11.86h2.8l-.04.16,2.71,5.07Z"/><path class="cls-2" d="M76.11,53.6l-1.46,1.37h-8.57l3.16-11.86h8.58l.74,1.37-2.44,9.12ZM73.81,51.7l1.43-5.32h-4.07l-1.43,5.32h4.07Z"/><path class="cls-2" d="M80.08,52.11l-.77,2.86h-2.8s2.81-10.49,2.81-10.49l1.47-1.37h7.46l.74,1.37-2.81,10.49h-2.8l.77-2.86h-4.07ZM85.02,48.83l.66-2.45h-4.07l-.66,2.45h4.07Z"/><path class="cls-2" d="M91.54,48.3l-1.78,6.67h-2.81l3.18-11.86h2.68l2.11,3.91,4.16-3.91h2.7l-3.17,11.86h-2.81l1.8-6.68-2.18,2.03-1.24,4.64h-2.8l1.24-4.64-1.07-2.02Z"/><path class="cls-2" d="M109.15,44.23l-.37,1.38h7.25l.89,1.68-1.61,6-1.79,1.68h-10.62l1.06-3.99h8.59l.37-1.38h-7.25l-.89-1.68,1.62-6,1.78-1.68h9.81l-1.06,3.99h-7.77Z"/><path class="cls-2" d="M120.71,46.38h-2.78l.87-3.27h8.36l-.87,3.27h-2.78l-2.3,8.59h-2.8l2.3-8.59Z"/><path class="cls-2" d="M132.77,51.29h-4.22l-.98,3.68h-2.8l3.17-11.86h8.58l.74,1.37-1.46,5.44-1.46,1.37h-1.31l1.96,3.68h-3.89l-.99-1.86,2.67-1.82ZM133.93,46.38h-4.06l-.44,1.64h4.06l.44-1.64Z"/><path class="cls-2" d="M138.34,54.97h-2.81l3.18-11.86h2.8l-3.17,11.86Z"/><path class="cls-2" d="M149.15,43.11h2.8l-1.27,4.76-3.65,3.41h-4.14l-.98,3.68h-2.8l3.17-11.86h2.8l-1.31,4.91h2.55l2.03-1.9.8-3.01ZM145.44,54.97l-.99-1.86,2.84-1.94,2.03,3.8h-3.89Z"/><path class="cls-2" d="M153.82,50.67l-.27,1.01h6.86s-.87,3.28-.87,3.28h-8.56l-.75-1.37.91-3.39,1.24-1.17-.61-1.17.9-3.38,1.46-1.38h8.58l-.87,3.27h-6.86l-.28,1.02h4.24l-.88,3.27h-4.25Z"/><path class="cls-2" d="M201.87,30.16l.27-.16-3.94,8.6-.39.28s1.17,1.22,1.39,1.51c.06.08.22.27.43.55.48-1.06,1.28-2.86,1.26-2.99-.03-.19.68.46.68.46l-1.23,3.58c.38.64.74,1.42.88,2.23.3,1.69.58,4.21.63,4.63,0-.01,0-.03.01-.04v-.03c.04-.08.06-.14.07-.19,0,0,0-.02,0-.03,0,0,0-.01,0-.01,0,0,0-.02,0-.03,0,0,0-.02,0-.02l3.38-20.41.06-.36-3.24,2.25-.29.2Z"/><polygon class="cls-2" points="206.51 21.04 206.09 23.57 206.09 23.58 200.36 26.37 206.51 21.04"/><path class="cls-2" d="M70.75,59.45h1.38c.1,0,.15.05.15.15v7.22h5.53c.1,0,.15.05.15.15v1.08c0,.1-.05.15-.15.15h-7.07c-.1,0-.15-.05-.15-.15v-8.45c0-.1.05-.15.15-.15Z"/><path class="cls-2" d="M80.89,68.21c-.64,0-1.18-.23-1.63-.68-.45-.45-.68-.99-.68-1.63v-2.46c0-.64.23-1.18.68-1.63.45-.45.99-.68,1.63-.68h2.77c.64,0,1.18.23,1.63.68.45.45.68.99.68,1.63v2.46c0,.64-.23,1.18-.68,1.63-.45.45-.99.68-1.63.68h-2.77ZM80.89,62.52c-.17,0-.31.09-.43.27-.12.18-.18.4-.18.65v2.46c0,.25.06.47.18.65.12.18.27.27.43.27h2.77c.17,0,.31-.09.43-.27.12-.18.18-.4.18-.65v-2.46c0-.25-.06-.47-.18-.65-.12-.18-.27-.27-.43-.27h-2.77Z"/><path class="cls-2" d="M89.23,68.21c-.64,0-1.18-.23-1.63-.68-.45-.45-.68-.99-.68-1.63v-2.46c0-.64.23-1.18.68-1.63.45-.45.99-.68,1.63-.68h2.77c.64,0,1.18.23,1.63.68.45.45.68.99.68,1.63v4.76c0,.64-.23,1.18-.68,1.63-.45.45-.99.68-1.63.68h-4.92c-.1,0-.15-.05-.15-.15v-1.08c0-.1.05-.15.15-.15h4.92c.17,0,.31-.09.43-.27.12-.18.18-.4.18-.65h-3.38ZM89.23,62.52c-.17,0-.31.09-.43.27-.12.18-.18.4-.18.65v2.46c0,.25.06.47.18.65.12.18.27.27.43.27h3.38v-3.38c0-.25-.06-.47-.18-.65-.12-.18-.27-.27-.43-.27h-2.77Z"/><path class="cls-2" d="M95.54,59.45h1.38c.1,0,.15.05.15.15v1.08c0,.1-.05.15-.15.15h-1.38c-.1,0-.15-.05-.15-.15v-1.08c0-.1.05-.15.15-.15ZM95.54,61.14h1.38c.1,0,.15.05.15.15v6.76c0,.1-.05.15-.15.15h-1.38c-.1,0-.15-.05-.15-.15v-6.76c0-.1.05-.15.15-.15Z"/><path class="cls-2" d="M103.15,65.29h-2.77c-.64,0-1.18-.2-1.63-.61s-.68-.9-.68-1.47.23-1.06.68-1.46.99-.61,1.63-.61h4.92c.1,0,.15.05.15.15v1.08c0,.1-.05.15-.15.15h-4.92c-.17,0-.31.07-.43.2s-.18.3-.18.49.06.36.18.49.27.2.43.2h2.77c.64,0,1.18.21,1.63.63.45.42.68.93.68,1.52s-.23,1.1-.68,1.52c-.45.42-.99.63-1.63.63h-4.92c-.1,0-.15-.05-.15-.15v-1.08c0-.1.05-.15.15-.15h4.92c.17,0,.31-.07.43-.22.12-.15.18-.33.18-.54s-.06-.39-.18-.54c-.12-.15-.27-.22-.43-.22Z"/><path class="cls-2" d="M107.76,62.52v3.38c0,.25.06.47.18.65.12.18.27.27.43.27h1.54c.1,0,.15.05.15.15v1.08c0,.1-.05.15-.15.15h-1.54c-.64,0-1.18-.23-1.63-.68-.45-.45-.68-.99-.68-1.63v-6.3c0-.1.05-.15.15-.15h1.38c.1,0,.15.05.15.15v1.54h2.15c.1,0,.15.05.15.15v1.08c0,.1-.05.15-.15.15h-2.15Z"/><path class="cls-2" d="M110.84,59.45h1.38c.1,0,.15.05.15.15v1.08c0,.1-.05.15-.15.15h-1.38c-.1,0-.15-.05-.15-.15v-1.08c0-.1.05-.15.15-.15ZM110.84,61.14h1.38c.1,0,.15.05.15.15v6.76c0,.1-.05.15-.15.15h-1.38c-.1,0-.15-.05-.15-.15v-6.76c0-.1.05-.15.15-.15Z"/><path class="cls-2" d="M120.27,66.98v1.08c0,.1-.05.15-.15.15h-4.3c-.64,0-1.18-.23-1.63-.68-.45-.45-.68-.99-.68-1.63v-2.46c0-.64.23-1.18.68-1.63.45-.45.99-.68,1.63-.68h4.3c.1,0,.15.05.15.15v1.08c0,.1-.05.15-.15.15h-4.3c-.17,0-.31.09-.43.27-.12.18-.18.4-.18.65v2.46c0,.25.06.47.18.65.12.18.27.27.43.27h4.3c.1,0,.15.05.15.15Z"/><path class="cls-2" d="M125.95,65.29h-2.77c-.64,0-1.18-.2-1.63-.61s-.68-.9-.68-1.47.23-1.06.68-1.46.99-.61,1.63-.61h4.92c.1,0,.15.05.15.15v1.08c0,.1-.05.15-.15.15h-4.92c-.17,0-.31.07-.43.2s-.18.3-.18.49.06.36.18.49.27.2.43.2h2.77c.64,0,1.18.21,1.63.63.45.42.68.93.68,1.52s-.23,1.1-.68,1.52c-.45.42-.99.63-1.63.63h-4.92c-.1,0-.15-.05-.15-.15v-1.08c0-.1.05-.15.15-.15h4.92c.17,0,.31-.07.43-.22.12-.15.18-.33.18-.54s-.06-.39-.18-.54c-.12-.15-.27-.22-.43-.22Z"/><path class="cls-2" d="M128.87,66.98c0-.1.05-.15.15-.15h1.38c.1,0,.15.05.15.15v2.92c0,.1-.05.15-.15.15h-1.38c-.1,0-.15-.05-.15-.15v-2.92Z"/><path class="cls-2" d="M136.25,59.45h1.38c.1,0,.15.05.15.15v7.22h5.53c.1,0,.15.05.15.15v1.08c0,.1-.05.15-.15.15h-7.07c-.1,0-.15-.05-.15-.15v-8.45c0-.1.05-.15.15-.15Z"/><path class="cls-2" d="M144.24,59.45h1.38c.1,0,.15.05.15.15v7.22h5.53c.1,0,.15.05.15.15v1.08c0,.1-.05.15-.15.15h-7.07c-.1,0-.15-.05-.15-.15v-8.45c0-.1.05-.15.15-.15Z"/><path class="cls-2" d="M154.39,66.83h4.92c.1,0,.15.05.15.15v1.08c0,.1-.05.15-.15.15h-4.92c-.64,0-1.18-.23-1.63-.68-.45-.45-.68-.99-.68-1.63v-4.15c0-.64.23-1.18.68-1.63.45-.45.99-.68,1.63-.68h4.92c.1,0,.15.05.15.15v1.08c0,.1-.05.15-.15.15h-4.92c-.17,0-.31.09-.43.27-.12.18-.18.4-.18.65v4.15c0,.25.06.47.18.65.12.18.27.27.43.27Z"/><polygon class="cls-2" points="224.08 14.79 205.55 27.62 205.4 27.71 202.16 29.96 201.87 30.16 201.86 30.17 192.13 36.9 191.2 37.55 174.62 49.02 172.68 50.36 168.84 53.02 166.49 54.65 166.49 48.45 175.71 43.19 201.11 28.28 205.76 25.54 224.08 14.79"/></g></svg>