<svg xmlns="http://www.w3.org/2000/svg" id="Layer_2" viewBox="0 0 257 91"><defs><style>.cls-2{stroke-width:0;fill:#fff}</style></defs><g id="Layer_1-2"><path d="M45.5.5h166c24.85 0 45 20.15 45 45s-20.15 45-45 45h-166c-24.85 0-45-20.15-45-45s20.15-45 45-45" style="fill:rgba(15,3,42,.24);stroke-width:0"/><path d="M45.5.5h166c24.85 0 45 20.15 45 45s-20.15 45-45 45h-166c-24.85 0-45-20.15-45-45s20.15-45 45-45Z" style="fill:none;stroke:rgba(255,255,255,.2)"/><path d="m185.96 33.4-7.82 3.82-7.01-7.27c-2.31-2.33-4.19-4.32-4.24-4.29l-.24-.15v-.83l-.03.74v.06l.03.02v.08c-.06-.07-.1-.13-.15-.17 0 0 0-.01-.01-.02l-.02.03-3.51 4.71-.97-.4-6.67-2.77V13.51l11.39-5.82.04.02 1.76.87.06.03 9.62 4.89v6.29l-.33 5.58 1.88 1.92.02-.04 6.21 6.14Zm.67 17.05-.06-.05zm-.06-.34v.12s-.02.02-.05.06c-.6 1.04-6.47 15.81-6.47 15.81v4.06l-6.29 6.28-.13-5.84 3.63-4.02L183 54.71l.26-.06z" class="cls-2"/><path d="m181.99 54.94-5.48 11.16-3.2 3.56-4.65-3.08 2-12.47 4.65 2.81zm8.9-30.2c-.6.35-1.59 1.16-2.39 2.89-.93 2.01-1.46 4.31-1.67 5.35l-.87.42-6.23-6.1 3.8-7.07s4.97 2.79 5.1 2.87c.05.03 1.29.7 2.25 1.63Zm-32.22 12.59h15.65l-7.83 4.5z" class="cls-2"/><path d="m173.76 76.44-3.02-1.73-.34-.19a20 20 0 0 0-1.7-5.58c-.16-.31-.25-.48-.25-.48h-5.08l-.24-1.88h5.53l4.65 3.08.31.2v.12l.02.62.13 5.84ZM183 46.78l-1.49 3.17-2.92 1.52-4.27.81-1.64-1.92 1.94-1.34.18-.12 6.76-1.76zm8.98-8.2h-.17zm9.24 5.63c-.14-.81-.5-1.59-.88-2.23 0 0-.22-.35-.7-1.05-.21-.27-.37-.47-.43-.55-.23-.29-1.39-1.51-1.39-1.51l-4.48 3.16.07-.21.81-2.28-.89-2.44-1.21-.2-.93.65.08 1.04.57 7.43 1.66.93 3.47 1.95.26 3.61.37 5.2c2.24-2.73 3.69-7.19 4.25-8.87-.05-.42-.33-2.94-.63-4.64Z" class="cls-2"/><path d="m168.15 68.46-1.06 5.18h-3.19v.02l-.83 9c-.84-.62-2.73-2.1-2.39-6.65.29-3.88 1.85-6.68 2.28-7.38l.11-.17h5.07Z" class="cls-2"/><path d="m168.51 83.31-4.85-.06.83-9v-.02h3.19l1.06-5.19c1.99 2.48 2.09 7.06 2.13 7.59.33 4.39-2.2 6.55-2.35 6.67Zm-2-57.92v.02l-.01-.01zm-.05.02-3.51 4.71-.77 1.03-1.18 1.63-5.64 4.54-1.08.22s4.25-4.35 7.7-7.83c2.31-2.34 4.23-4.18 4.31-4.24l.17-.07Zm11.92 11.69-.24.12-.28.14-.12-.03-5.57-4.55-5.21-6.81c-.05-.08-.1-.14-.15-.2l-.02-.02s0-.01-.01-.02c0 0-.01-.02-.02-.03l-.09-.12c-.06-.07-.1-.13-.15-.18h.03l.1.03h.03l.14.06c.08.06 2 1.9 4.31 4.23 2.78 2.81 6.1 6.19 7.26 7.38ZM166.8 25.77l-.02-.02c-.01-.01-.02-.03-.03-.04.01.02.03.04.05.06m18.57 22.72L182.16 53l-.81.25-6.36 2.05-4.42-2.89v-.58l4.49 2.82 6.87-2.21 2.76-4.18-.26-1.86.68-.12zm9.32 15.68-2.02 2.86-9.67 8.31v-3.91l7.32-6.78 1.28-1.18 3-2.77zm-.13-4.77L183 70.19v-.85l6.87-9.24 1.32-1.59h.01l.01-.01-.29-5.33 3.53 1.79.08 2.88-.01.01zm-.33-30.03-4.32 2.11c.08-.85.53-2.68 2.76-4.54.8 1.13 1.35 2.08 1.35 2.08zm-16.06-9.57-.33 5.58 1.88 1.92 2.7-5.02s-1.92-1.08-2.29-1.25-1.97-1.23-1.97-1.23m10.96 29.52-.04-.03-2.51-1.8v-4.57l2.46 1.72.06 3.08.03 1.43z" class="cls-2"/><path d="M189.12 52.23 183 66.09v9.24c-1.96 0-2.95-.17-2.95-.17v-9.07s5.87-14.77 6.47-15.81c.02-.04.04-.06.05-.06v.17l2.51 1.8.04.03ZM44.88 53.29l-1.79 1.68h-9.26l-.91-1.68 3.04-11.36 1.79-1.69h9.28l.9 1.68-.62 2.31h-8.57l-1.82 6.74h3.02l2.2.01.96-3.58h3.37l-1.57 5.89Zm10.36-10.18h2.8l-2.8 10.49-1.46 1.37h-7.46l-.75-1.37 2.8-10.48h2.8l-2.29 8.57h4.07zm9.03 5.23 1.4-5.23h2.8L65.3 54.97h-2.8l.47-1.78-2.7-5.1-1.84 6.88h-2.8l3.17-11.86h2.8l-.04.16zm11.84 5.26-1.46 1.37h-8.57l3.16-11.86h8.58l.74 1.37-2.44 9.12Zm-2.3-1.9 1.43-5.32h-4.07l-1.43 5.32zm6.27.41-.77 2.86h-2.8l2.81-10.49 1.47-1.37h7.46l.74 1.37-2.81 10.49h-2.8l.77-2.86zm4.94-3.28.66-2.45h-4.07l-.66 2.45zm6.52-.53-1.78 6.67h-2.81l3.18-11.86h2.68l2.11 3.91 4.16-3.91h2.7l-3.17 11.86H95.8l1.8-6.68-2.18 2.03-1.24 4.64h-2.8l1.24-4.64-1.07-2.02Zm17.61-4.07-.37 1.38h7.25l.89 1.68-1.61 6-1.79 1.68H102.9l1.06-3.99h8.59l.37-1.38h-7.25l-.89-1.68 1.62-6 1.78-1.68h9.81l-1.06 3.99h-7.77Zm11.56 2.15h-2.78l.87-3.27h8.36l-.87 3.27h-2.78l-2.3 8.59h-2.8zm12.06 4.91h-4.22l-.98 3.68h-2.8l3.17-11.86h8.58l.74 1.37-1.46 5.44-1.46 1.37h-1.31l1.96 3.68h-3.89l-.99-1.86 2.67-1.82Zm1.16-4.91h-4.06l-.44 1.64h4.06zm4.41 8.59h-2.81l3.18-11.86h2.8zm10.81-11.86h2.8l-1.27 4.76-3.65 3.41h-4.14l-.98 3.68h-2.8l3.17-11.86h2.8l-1.31 4.91h2.55l2.03-1.9.8-3.01Zm-3.71 11.86-.99-1.86 2.84-1.94 2.03 3.8h-3.89Zm8.38-4.3-.27 1.01h6.86l-.87 3.28h-8.56l-.75-1.37.91-3.39 1.24-1.17-.61-1.17.9-3.38 1.46-1.38h8.58l-.87 3.27h-6.86l-.28 1.02h4.24l-.88 3.27h-4.25Zm48.05-20.51.27-.16-3.94 8.6-.39.28s1.17 1.22 1.39 1.51c.06.08.22.27.43.55.48-1.06 1.28-2.86 1.26-2.99-.03-.19.68.46.68.46l-1.23 3.58c.38.64.74 1.42.88 2.23.3 1.69.58 4.21.63 4.63 0-.01 0-.03.01-.04v-.03c.04-.08.06-.14.07-.19v-.09l3.38-20.41.06-.36-3.24 2.25-.29.2Zm4.64-9.12-.42 2.53v.01l-5.73 2.79zM70.75 59.45h1.38q.15 0 .15.15v7.22h5.53q.15 0 .15.15v1.08q0 .15-.15.15h-7.07q-.15 0-.15-.15V59.6q0-.15.15-.15Zm10.14 8.76c-.64 0-1.18-.23-1.63-.68a2.22 2.22 0 0 1-.68-1.63v-2.46c0-.64.23-1.18.68-1.63s.99-.68 1.63-.68h2.77c.64 0 1.18.23 1.63.68s.68.99.68 1.63v2.46c0 .64-.23 1.18-.68 1.63s-.99.68-1.63.68zm0-5.69c-.17 0-.31.09-.43.27s-.18.4-.18.65v2.46c0 .25.06.47.18.65s.27.27.43.27h2.77c.17 0 .31-.09.43-.27s.18-.4.18-.65v-2.46c0-.25-.06-.47-.18-.65s-.27-.27-.43-.27zm8.34 5.69c-.64 0-1.18-.23-1.63-.68a2.22 2.22 0 0 1-.68-1.63v-2.46c0-.64.23-1.18.68-1.63s.99-.68 1.63-.68H92c.64 0 1.18.23 1.63.68s.68.99.68 1.63v4.76c0 .64-.23 1.18-.68 1.63s-.99.68-1.63.68h-4.92q-.15 0-.15-.15v-1.08q0-.15.15-.15H92c.17 0 .31-.09.43-.27s.18-.4.18-.65zm0-5.69c-.17 0-.31.09-.43.27s-.18.4-.18.65v2.46c0 .25.06.47.18.65s.27.27.43.27h3.38v-3.38c0-.25-.06-.47-.18-.65s-.27-.27-.43-.27zm6.31-3.07h1.38q.15 0 .15.15v1.08q0 .15-.15.15h-1.38q-.15 0-.15-.15V59.6q0-.15.15-.15m0 1.69h1.38q.15 0 .15.15v6.76q0 .15-.15.15h-1.38q-.15 0-.15-.15v-6.76q0-.15.15-.15m7.61 4.15h-2.77c-.64 0-1.18-.2-1.63-.61s-.68-.9-.68-1.47.23-1.06.68-1.46.99-.61 1.63-.61h4.92q.15 0 .15.15v1.08q0 .15-.15.15h-4.92c-.17 0-.31.07-.43.2s-.18.3-.18.49.06.36.18.49.27.2.43.2h2.77c.64 0 1.18.21 1.63.63s.68.93.68 1.52-.23 1.1-.68 1.52-.99.63-1.63.63h-4.92q-.15 0-.15-.15v-1.08q0-.15.15-.15h4.92c.17 0 .31-.07.43-.22q.18-.225.18-.54c0-.315-.06-.39-.18-.54a.54.54 0 0 0-.43-.22Zm4.61-2.77v3.38c0 .25.06.47.18.65s.27.27.43.27h1.54q.15 0 .15.15v1.08q0 .15-.15.15h-1.54c-.64 0-1.18-.23-1.63-.68a2.22 2.22 0 0 1-.68-1.63v-6.3q0-.15.15-.15h1.38q.15 0 .15.15v1.54h2.15q.15 0 .15.15v1.08q0 .15-.15.15h-2.15Zm3.08-3.07h1.38q.15 0 .15.15v1.08q0 .15-.15.15h-1.38q-.15 0-.15-.15V59.6q0-.15.15-.15m0 1.69h1.38q.15 0 .15.15v6.76q0 .15-.15.15h-1.38q-.15 0-.15-.15v-6.76q0-.15.15-.15m9.43 5.84v1.08q0 .15-.15.15h-4.3c-.64 0-1.18-.23-1.63-.68a2.22 2.22 0 0 1-.68-1.63v-2.46c0-.64.23-1.18.68-1.63s.99-.68 1.63-.68h4.3q.15 0 .15.15v1.08q0 .15-.15.15h-4.3c-.17 0-.31.09-.43.27s-.18.4-.18.65v2.46c0 .25.06.47.18.65s.27.27.43.27h4.3q.15 0 .15.15Zm5.68-1.69h-2.77c-.64 0-1.18-.2-1.63-.61s-.68-.9-.68-1.47.23-1.06.68-1.46.99-.61 1.63-.61h4.92q.15 0 .15.15v1.08q0 .15-.15.15h-4.92c-.17 0-.31.07-.43.2s-.18.3-.18.49.06.36.18.49.27.2.43.2h2.77c.64 0 1.18.21 1.63.63s.68.93.68 1.52-.23 1.1-.68 1.52-.99.63-1.63.63h-4.92q-.15 0-.15-.15v-1.08q0-.15.15-.15h4.92c.17 0 .31-.07.43-.22q.18-.225.18-.54c0-.315-.06-.39-.18-.54a.54.54 0 0 0-.43-.22Zm2.92 1.69q0-.15.15-.15h1.38q.15 0 .15.15v2.92q0 .15-.15.15h-1.38q-.15 0-.15-.15zm7.38-7.53h1.38q.15 0 .15.15v7.22h5.53q.15 0 .15.15v1.08q0 .15-.15.15h-7.07q-.15 0-.15-.15V59.6q0-.15.15-.15Zm7.99 0h1.38q.15 0 .15.15v7.22h5.53q.15 0 .15.15v1.08q0 .15-.15.15h-7.07q-.15 0-.15-.15V59.6q0-.15.15-.15Zm10.15 7.38h4.92q.15 0 .15.15v1.08q0 .15-.15.15h-4.92c-.64 0-1.18-.23-1.63-.68a2.22 2.22 0 0 1-.68-1.63v-4.15c0-.64.23-1.18.68-1.63s.99-.68 1.63-.68h4.92q.15 0 .15.15v1.08q0 .15-.15.15h-4.92c-.17 0-.31.09-.43.27s-.18.4-.18.65v4.15c0 .25.06.47.18.65s.27.27.43.27Z" class="cls-2"/><path d="m224.08 14.79-18.53 12.83-.15.09-3.24 2.25-.29.2-.01.01-9.73 6.73-.93.65-16.58 11.47-1.94 1.34-3.84 2.66-2.35 1.63v-6.2l9.22-5.26 25.4-14.91 4.65-2.74z" class="cls-2"/></g></svg>