<?xml version="1.0" encoding="UTF-8"?><svg id="Layer_2" xmlns="http://www.w3.org/2000/svg" viewBox="0 0 257 91"><defs><style>.cls-1{fill-rule:evenodd;}.cls-1,.cls-2,.cls-3{stroke-width:0px;}.cls-1,.cls-3{fill:#fff;}.cls-2{fill:rgba(15,3,42,.24);}.cls-4{fill:none;stroke:rgba(255,255,255,.2);}</style></defs><g id="Layer_1-2"><path class="cls-2" d="M45.5.5h166c24.85,0,45,20.15,45,45h0c0,24.85-20.15,45-45,45H45.5C20.65,90.5.5,70.35.5,45.5h0C.5,20.65,20.65.5,45.5.5Z"/><path class="cls-4" d="M45.5.5h166c24.85,0,45,20.15,45,45h0c0,24.85-20.15,45-45,45H45.5C20.65,90.5.5,70.35.5,45.5h0C.5,20.65,20.65.5,45.5.5Z"/><path class="cls-1" d="M69.59,26.65h9.13v9.24h9.98v-9.24h9.16v26.41h-9.16v-9.76h-9.98v9.76h-9.13v-26.41ZM168.29,42.98l3.25-9.5,3.29,9.5h-6.53ZM178.22,53.05h9.64l-11.2-26.41h-10.06l-11.2,26.41h9.4l1.46-4.35h10.47l1.48,4.35ZM132.2,50.91c2.06,1.72,5.8,2.59,11.18,2.59,3.07,0,5.6-.36,7.62-1.11,2.02-.73,3.58-1.82,4.69-3.27,1.13-1.43,1.68-2.99,1.68-4.69,0-1.44-.44-2.73-1.27-3.9-.85-1.17-2.2-2.14-4.04-2.93s-4.91-1.56-9.18-2.34c-1.72-.3-2.81-.61-3.29-.97-.48-.32-.71-.71-.71-1.13,0-.57.28-1.07.87-1.46.57-.4,1.43-.61,2.57-.61,1.39,0,2.45.28,3.25.81.79.55,1.31,1.41,1.54,2.59l9.2-.44c-.4-2.73-1.66-4.73-3.78-6-2.12-1.27-5.21-1.88-9.24-1.88-3.31,0-5.88.36-7.8,1.05-1.88.69-3.31,1.64-4.26,2.85-.95,1.21-1.43,2.47-1.43,3.84,0,2.06.91,3.76,2.77,5.11,1.82,1.35,4.89,2.4,9.16,3.21,2.61.48,4.3.99,5.01,1.52.73.55,1.09,1.15,1.09,1.84s-.38,1.35-1.13,1.9c-.75.55-1.84.81-3.23.81-1.88,0-3.31-.55-4.32-1.6-.61-.65-1.03-1.62-1.23-2.89l-9.3.49c.26,2.65,1.44,4.85,3.54,6.59ZM118.66,35.14c0-1.37-1.09-2.47-2.45-2.47h-7.21v4.95h7.21c1.35,0,2.45-1.11,2.45-2.47ZM129.25,52.7h-10.19l-.73-6.27c-.16-1.48-1.43-2.61-2.91-2.61h-6.22v8.89h-10.1v-26.07h21.64c4.14,0,7.52,3.4,7.52,7.58v1.7h-.06c-.36,2.47-2.47,4.37-4.99,4.37,2.18,0,4.02,1.6,4.33,3.78l1.7,8.63Z"/><path class="cls-3" d="M69.12,64.63v-6.43h.81v2.53h1.6v-2.53h.81v6.43h-.79v-2.83h-1.62v2.81h-.81v.02ZM73.79,61.9c0-.34.06-.61.16-.81.12-.2.24-.28.42-.28.16,0,.28.1.4.28s.16.46.18.81h-1.15ZM74.4,63.8c-.16,0-.32-.1-.44-.3-.14-.2-.2-.49-.2-.85h1.94v-.14c0-.89-.14-1.58-.4-2.06-.24-.4-.55-.61-.99-.61-.38,0-.69.2-.91.59-.28.48-.44,1.09-.44,1.86s.14,1.41.42,1.84c.24.38.57.57,1.01.57.32,0,.57-.12.79-.34s.38-.57.48-1.03l-.77-.2c-.08.44-.26.65-.49.65ZM77.95,62.39v.24c0,.36-.02.61-.06.73-.04.14-.12.24-.22.36-.1.1-.2.14-.32.14-.14,0-.24-.06-.32-.18-.1-.14-.14-.28-.14-.46,0-.16.04-.28.12-.4.08-.1.24-.2.48-.28.2-.04.36-.12.46-.16h0ZM77.13,60.97c.08-.08.18-.12.32-.12s.24.02.32.08.14.12.16.2c.02.08.04.24.04.51-.14.1-.4.2-.75.3-.3.1-.51.2-.65.32-.14.12-.24.28-.32.48s-.12.44-.12.69c0,.42.1.75.28.99s.42.38.69.38c.16,0,.32-.06.48-.16s.3-.26.44-.48l.1.51h.79c-.08-.24-.12-.44-.14-.63s-.04-.51-.04-.91l.02-1.44c0-.55-.04-.93-.12-1.13s-.2-.38-.38-.49c-.16-.12-.44-.18-.75-.18-.38,0-.65.1-.85.32-.2.2-.34.55-.44,1.01l.69.2c.08-.26.16-.36.24-.44ZM79.49,64.63h.77v-6.43h-.77v6.43ZM82.4,59.98h-.51v-1.64l-.77.71v.93h-.38v.99h.34v2.04c0,.51.02.87.06,1.03.06.24.14.42.24.53.12.12.28.18.48.18.22,0,.44-.06.61-.18l-.06-.97c-.14.08-.24.12-.32.12-.1,0-.16-.06-.2-.18-.02-.06-.02-.32-.02-.71v-1.88h.53v-.99.02ZM83.71,58.22h-.77v6.43h.77v-2.34c0-.59.06-.97.16-1.19.12-.2.28-.32.46-.32s.32.1.4.28c.06.14.1.51.1,1.07v2.47h.77v-2.73c0-.51-.02-.89-.08-1.11-.06-.3-.18-.53-.34-.69-.16-.18-.36-.24-.57-.24-.18,0-.34.06-.49.18s-.28.28-.42.51v-2.34h.02ZM88.79,59.27h.65c.36,0,.57.02.65.06.12.06.2.14.26.26.06.14.1.28.1.49s-.02.4-.1.51c-.06.14-.14.22-.24.26-.1.04-.34.06-.71.06h-.61v-1.64ZM88.77,64.63v-2.69h.16c.2,0,.32.02.42.08.1.04.16.14.24.26.08.14.24.44.44.95l.59,1.41h.99l-.49-1.27c-.2-.51-.36-.85-.46-1.05-.12-.2-.26-.36-.44-.53.34-.08.61-.28.79-.59.2-.32.28-.71.28-1.23,0-.4-.06-.73-.18-1.03-.12-.28-.28-.48-.46-.59-.2-.12-.49-.18-.95-.18h-1.72v6.43h.79v.04ZM92.63,61.9c0-.34.06-.61.16-.81.12-.2.24-.28.42-.28.16,0,.28.1.4.28s.16.46.18.81h-1.15ZM93.27,63.8c-.16,0-.32-.1-.44-.3-.14-.2-.2-.49-.2-.85h1.94v-.14c0-.91-.14-1.58-.42-2.06-.24-.4-.55-.61-.99-.61-.38,0-.69.2-.91.59-.28.48-.44,1.09-.44,1.86s.14,1.41.42,1.84c.24.38.57.57,1.01.57.32,0,.57-.12.79-.34.22-.22.38-.57.48-1.03l-.77-.2c-.08.44-.24.65-.48.65ZM95.38,64.35c.24.24.55.36.93.36.42,0,.75-.14.99-.44s.36-.65.36-1.11c0-.38-.08-.67-.24-.89-.16-.24-.44-.44-.87-.59-.38-.14-.61-.26-.69-.32-.08-.08-.12-.16-.12-.26,0-.12.04-.2.12-.28.1-.06.22-.1.42-.1.32,0,.49.18.55.55l.73-.22c-.1-.44-.24-.73-.44-.93s-.49-.28-.87-.28c-.4,0-.71.14-.91.4-.22.26-.32.61-.32,1.03s.1.77.32,1.03c.16.2.57.42,1.21.63.14.06.22.1.26.16s.06.14.06.24c0,.14-.06.28-.14.36s-.24.14-.42.14c-.36,0-.57-.24-.63-.73l-.77.2c.1.46.26.81.48,1.05ZM99.18,61.23c.14-.24.32-.36.49-.36.2,0,.36.12.49.36.14.24.2.59.2,1.07s-.06.83-.2,1.07c-.14.24-.32.36-.49.36-.2,0-.38-.12-.51-.36-.14-.24-.2-.61-.2-1.07s.06-.83.22-1.07ZM98.59,64.08c.28.44.65.65,1.09.65.28,0,.51-.1.75-.3.24-.2.42-.48.55-.87s.2-.81.2-1.31c0-.63-.14-1.21-.4-1.68-.28-.48-.63-.73-1.11-.73-.28,0-.53.1-.75.28-.22.18-.4.48-.53.85s-.2.79-.2,1.25c-.02.81.12,1.43.4,1.86ZM103.74,64.63h.73v-4.65h-.77v1.96c0,.61-.02,1.03-.06,1.23-.04.18-.12.34-.22.46-.12.12-.24.18-.36.18s-.22-.04-.3-.14-.14-.22-.16-.4-.04-.55-.04-1.17v-2.14h-.77v2.95c0,.48.04.81.12,1.07.06.24.18.44.34.55.16.14.32.2.51.2.18,0,.36-.06.53-.2s.32-.36.44-.59v.69h0ZM106.01,63.17c0-.73.02-1.23.06-1.5.04-.26.1-.46.18-.55s.18-.16.28-.16c.12,0,.24.08.36.2l.24-1.07c-.16-.16-.32-.24-.49-.24-.14,0-.24.06-.34.16s-.2.32-.34.61v-.65h-.73v4.65h.77v-1.44h.02ZM109.56,60.22c-.22-.24-.49-.36-.83-.36-.44,0-.77.2-1.03.61-.26.42-.4,1.03-.4,1.82,0,.65.12,1.23.36,1.72.22.48.57.71,1.05.71.75,0,1.21-.55,1.37-1.68l-.77-.2c-.04.32-.12.55-.2.69-.1.14-.22.2-.36.2-.2,0-.36-.1-.46-.34-.12-.24-.18-.61-.18-1.19,0-.49.06-.85.18-1.07.12-.2.28-.32.46-.32.3,0,.48.24.53.73l.77-.22c-.14-.53-.3-.91-.49-1.13ZM111.18,61.9c0-.34.06-.61.16-.81.12-.2.24-.28.42-.28.16,0,.28.1.4.28s.16.46.18.81h-1.15ZM111.81,63.8c-.16,0-.32-.1-.44-.3-.14-.2-.2-.49-.2-.85h1.94v-.14c0-.91-.14-1.58-.42-2.06-.24-.4-.55-.61-.99-.61-.38,0-.69.2-.91.59-.28.48-.44,1.09-.44,1.86s.14,1.41.42,1.84c.24.38.57.57,1.01.57.32,0,.57-.12.79-.34s.38-.57.48-1.03l-.77-.2c-.06.44-.24.65-.48.65ZM113.95,64.35c.24.24.55.36.93.36.42,0,.75-.14.99-.44s.36-.65.36-1.11c0-.38-.08-.67-.24-.89-.16-.24-.44-.44-.87-.59-.38-.14-.61-.26-.69-.32-.08-.08-.12-.16-.12-.26,0-.12.04-.2.12-.28.1-.06.22-.1.42-.1.32,0,.49.18.55.55l.73-.22c-.1-.44-.24-.73-.44-.93s-.49-.28-.87-.28c-.4,0-.71.14-.91.4-.22.26-.32.61-.32,1.03s.1.77.32,1.03c.16.2.57.42,1.21.63.14.06.22.1.26.16.04.06.06.14.06.24,0,.14-.06.28-.14.36-.1.1-.24.14-.42.14-.36,0-.57-.24-.63-.73l-.77.2c.08.46.24.81.48,1.05ZM119.75,59.98c-.12-.22-.18-.4-.18-.55,0-.14.02-.24.1-.34s.16-.14.28-.14.22.06.3.16.12.24.12.42-.08.36-.24.55l-.2.26-.18-.36ZM120.42,63.21c-.26.32-.49.49-.73.49-.18,0-.32-.1-.44-.24-.12-.16-.16-.38-.16-.65,0-.2.06-.44.14-.61.1-.2.24-.36.4-.51l.79,1.52ZM121.73,63.5c-.14-.14-.24-.28-.34-.42.14-.26.24-.69.36-1.33l-.69-.26c-.06.3-.1.55-.16.73l-.55-1.19c.28-.28.48-.55.57-.77.1-.24.16-.49.16-.77,0-.44-.1-.77-.32-1.05-.2-.28-.46-.4-.79-.4-.36,0-.61.14-.83.4-.2.26-.32.59-.32,1.01s.14.89.42,1.41c-.61.49-.91,1.15-.91,1.98,0,.48.12.91.36,1.31.24.4.59.59,1.09.59.24,0,.48-.06.65-.16.18-.1.36-.28.53-.51.2.32.44.55.65.73l.48-.95c-.1-.06-.2-.18-.36-.36ZM125.57,64.73c.57,0,.97-.2,1.25-.57.28-.38.4-.85.4-1.41,0-.4-.06-.71-.14-.99-.1-.28-.24-.49-.42-.65-.18-.18-.48-.34-.89-.49-.4-.14-.65-.28-.75-.4-.12-.12-.16-.28-.16-.44,0-.18.06-.32.18-.44.12-.12.28-.18.49-.18s.4.06.49.2c.12.14.2.38.24.73l.81-.06c-.02-.61-.16-1.11-.44-1.44-.26-.34-.63-.51-1.11-.51-.32,0-.57.08-.79.22-.2.14-.4.36-.49.63-.12.28-.18.59-.18.95,0,.3.06.59.14.85.1.26.22.48.4.63.16.16.42.3.77.44.4.14.63.26.73.32.1.06.16.14.22.24s.08.24.08.38c0,.24-.06.46-.2.61-.14.18-.34.24-.57.24-.49,0-.79-.42-.87-1.23l-.79.12c.06,1.52.61,2.26,1.6,2.26ZM128.48,61.9c0-.34.06-.61.16-.81.12-.2.24-.28.42-.28.16,0,.28.1.4.28s.16.46.18.81h-1.15ZM129.11,63.8c-.16,0-.32-.1-.44-.3-.14-.2-.2-.49-.2-.85h1.94v-.14c0-.91-.14-1.58-.42-2.06-.24-.4-.55-.61-.99-.61-.38,0-.69.2-.91.59-.28.48-.44,1.09-.44,1.86s.14,1.41.42,1.84c.24.38.57.57,1.01.57.32,0,.57-.12.79-.34s.38-.57.48-1.03l-.77-.2c-.08.44-.24.65-.48.65ZM131.79,63.17c0-.73.02-1.23.06-1.5.04-.26.1-.46.18-.55s.18-.16.28-.16c.12,0,.24.08.36.2l.24-1.07c-.16-.16-.32-.24-.49-.24-.14,0-.24.06-.34.16s-.2.32-.34.61v-.65h-.71v4.65h.77v-1.44ZM134.74,64.63l1.17-4.65h-.79l-.55,2.38-.16.79-.16-.79-.55-2.38h-.81l1.19,4.65h.67ZM137.17,64.63v-4.65h-.77v4.65h.77ZM137.17,59.33v-1.15h-.77v1.15h.77ZM140.06,60.22c-.22-.24-.49-.36-.83-.36-.44,0-.77.2-1.03.61s-.4,1.03-.4,1.82c0,.65.12,1.23.36,1.72.22.48.57.71,1.05.71.75,0,1.21-.55,1.37-1.68l-.75-.2c-.04.32-.12.55-.2.69-.1.14-.22.2-.36.2-.2,0-.36-.1-.46-.34-.12-.24-.18-.61-.18-1.19,0-.49.06-.85.18-1.07.12-.2.28-.32.46-.32.3,0,.48.24.53.73l.75-.22c-.14-.53-.3-.91-.49-1.13ZM141.68,61.9c0-.34.06-.61.16-.81.12-.2.24-.28.42-.28.16,0,.28.1.4.28s.16.46.18.81h-1.15ZM142.32,63.8c-.16,0-.32-.1-.44-.3-.14-.2-.2-.49-.2-.85h1.94v-.14c0-.91-.14-1.58-.42-2.06-.24-.4-.55-.61-.99-.61-.38,0-.69.2-.91.59-.28.48-.44,1.09-.44,1.86s.14,1.41.42,1.84c.24.38.57.57,1.01.57.32,0,.57-.12.79-.34s.38-.57.48-1.03l-.77-.2c-.06.44-.24.65-.48.65ZM144.43,64.35c.24.24.55.36.93.36.42,0,.75-.14.99-.44s.36-.65.36-1.11c0-.38-.08-.67-.24-.89-.16-.24-.44-.44-.87-.59-.38-.14-.61-.26-.69-.32-.08-.08-.12-.16-.12-.26,0-.12.04-.2.12-.28.1-.06.22-.1.42-.1.32,0,.49.18.55.55l.73-.22c-.1-.44-.24-.73-.44-.93s-.49-.28-.87-.28c-.4,0-.71.14-.91.4-.22.26-.32.61-.32,1.03s.1.77.32,1.03c.16.2.57.42,1.21.63.14.06.22.1.26.16.04.06.06.14.06.24,0,.14-.06.28-.14.36s-.24.14-.42.14c-.36,0-.57-.24-.63-.73l-.77.2c.08.46.26.81.48,1.05ZM149.82,62.08l.53-2.4.55,2.4h-1.09ZM150.79,58.18h-.87l-1.58,6.43h.87l.34-1.44h1.62l.36,1.44h.89l-1.62-6.43ZM153.66,61.15c.12-.24.28-.36.46-.36.2,0,.36.12.48.36.12.24.18.61.18,1.15,0,.49-.06.85-.2,1.09-.12.24-.28.36-.44.36-.14,0-.24-.06-.36-.16-.1-.1-.18-.26-.24-.48-.06-.2-.08-.51-.08-.95,0-.44.06-.77.2-1.01ZM155.52,58.2h-.77v2.32c-.12-.22-.24-.4-.4-.49-.14-.12-.3-.18-.46-.18-.36,0-.65.2-.87.61-.24.4-.36,1.01-.36,1.8s.12,1.41.36,1.82c.24.44.53.63.85.63.18,0,.34-.06.49-.2.18-.14.32-.34.44-.59v.69h.73v-6.41h-.02ZM156.25,59.96v4.69h.77v-2.28c0-.46.02-.77.06-.97.04-.2.12-.34.2-.44.1-.1.2-.16.32-.16.16,0,.28.1.34.28.04.14.06.48.06.97v2.55h.77v-2.24c0-.61.06-1.03.16-1.27.1-.22.24-.32.42-.32.16,0,.26.08.32.24.06.16.1.48.1.93v2.65h.77v-2.99c0-.48-.04-.83-.12-1.07-.08-.24-.2-.4-.34-.53-.14-.12-.32-.18-.51-.18-.18,0-.32.06-.48.18-.14.14-.28.32-.42.55-.1-.24-.2-.44-.34-.55-.14-.12-.3-.18-.49-.18-.16,0-.34.06-.49.18s-.3.32-.44.55v-.63h-.65v.02ZM162.11,64.63v-4.65h-.77v4.65h.77ZM162.11,59.33v-1.15h-.77v1.15h.77ZM165.59,64.63v-2.89c0-.48-.02-.81-.1-1.05-.06-.24-.16-.44-.32-.59-.16-.16-.34-.24-.57-.24-.2,0-.38.06-.53.2-.16.14-.32.34-.44.59v-.67h-.73v4.65h.77v-2.12c0-.53.02-.89.06-1.09.04-.2.12-.36.22-.46.1-.12.22-.18.36-.18.1,0,.2.04.28.14.1.08.14.2.16.36.02.16.04.48.04.95v2.38h.81v.02ZM167.14,64.63v-4.65h-.77v4.65h.77ZM167.14,59.33v-1.15h-.77v1.15h.77ZM168.13,64.35c.24.24.55.36.93.36.42,0,.75-.14.99-.44s.36-.65.36-1.11c0-.38-.08-.67-.24-.89-.16-.24-.44-.44-.87-.59-.38-.14-.61-.26-.69-.32-.08-.08-.12-.16-.12-.26,0-.12.04-.2.12-.28.1-.06.22-.1.42-.1.32,0,.49.18.55.55l.73-.22c-.1-.44-.24-.73-.44-.93s-.49-.28-.87-.28c-.4,0-.71.14-.91.4-.22.26-.32.61-.32,1.03s.1.77.32,1.03c.16.2.57.42,1.21.63.14.06.22.1.26.16.04.06.06.14.06.24,0,.14-.06.28-.14.36-.1.1-.24.14-.42.14-.36,0-.57-.24-.63-.73l-.77.2c.08.46.24.81.48,1.05ZM172.42,59.98h-.53v-1.64l-.77.71v.93h-.36v.99h.36v2.04c0,.51.02.87.06,1.03.06.24.14.42.24.53.12.12.28.18.48.18.22,0,.44-.06.61-.18l-.06-.97c-.14.08-.24.12-.32.12-.1,0-.16-.06-.2-.18-.02-.06-.02-.32-.02-.71v-1.88h.53v-.99.02h-.02ZM173.69,63.17c0-.73.02-1.23.06-1.5.04-.26.1-.46.18-.55s.18-.16.28-.16c.12,0,.24.08.36.2l.24-1.07c-.16-.16-.32-.24-.49-.24-.14,0-.24.06-.34.16s-.2.32-.34.61v-.65h-.73v4.65h.77v-1.44h.02ZM176.76,62.39v.24c0,.36-.02.61-.06.73-.04.14-.12.24-.22.36-.1.1-.2.14-.32.14-.14,0-.24-.06-.32-.18-.1-.14-.14-.28-.14-.46,0-.16.04-.28.12-.4.08-.1.24-.2.48-.28.2-.06.36-.14.48-.18h-.02v.02ZM175.97,60.95c.08-.08.18-.12.32-.12s.24.02.32.08.14.12.16.2c.04.08.04.24.04.51-.14.1-.4.2-.75.3-.3.1-.51.2-.65.32-.14.12-.24.28-.32.48s-.12.44-.12.69c0,.42.1.75.28.99s.42.38.69.38c.16,0,.32-.06.48-.16s.3-.26.44-.48l.1.51h.77c-.08-.24-.12-.44-.14-.63s-.04-.51-.04-.91l.02-1.44c0-.55-.04-.93-.12-1.13s-.2-.38-.38-.49-.44-.18-.75-.18c-.38,0-.65.1-.85.32-.2.2-.34.55-.44,1.01l.71.2c.06-.24.12-.38.24-.44ZM179.63,59.98h-.51v-1.64l-.77.71v.93h-.36v.99h.34v2.04c0,.51.02.87.04,1.03.06.24.14.42.26.53.12.12.3.18.48.18.22,0,.42-.06.59-.18l-.06-.97c-.14.08-.24.12-.32.12-.1,0-.16-.06-.2-.18-.02-.06-.02-.32-.02-.71v-1.88h.53v-.99.02h0ZM180.96,64.63v-4.65h-.79v4.65h.79ZM180.96,59.33v-1.15h-.79v1.15h.79ZM182.6,61.23c.14-.24.32-.36.51-.36s.36.12.51.36c.14.24.2.59.2,1.07s-.06.83-.2,1.07c-.16.24-.32.36-.51.36s-.38-.12-.51-.36c-.14-.24-.2-.61-.2-1.07-.02-.48.04-.83.2-1.07ZM182,64.08c.28.44.65.65,1.09.65.28,0,.51-.1.73-.3.24-.2.42-.48.55-.87.14-.4.2-.81.2-1.31,0-.63-.14-1.21-.4-1.68s-.63-.73-1.11-.73c-.3,0-.55.1-.77.28s-.4.48-.55.85c-.14.38-.2.79-.2,1.25.02.81.16,1.43.46,1.86ZM187.88,64.63v-2.89c0-.48-.02-.81-.08-1.05-.06-.24-.18-.44-.32-.59-.16-.16-.34-.24-.57-.24-.2,0-.38.06-.53.2-.18.14-.32.34-.44.59v-.67h-.71v4.65h.77v-2.12c0-.53.02-.89.06-1.09.04-.2.12-.36.22-.46.1-.12.22-.18.36-.18.1,0,.2.04.28.14.08.08.14.2.16.36.04.16.04.48.04.95v2.38h.77v.02Z"/></g></svg>