<?xml version="1.0" encoding="UTF-8"?><svg id="Layer_2" xmlns="http://www.w3.org/2000/svg" viewBox="0 0 257 91"><defs><style>.cls-1{fill:rgba(15,3,42,.24);}.cls-1,.cls-2{stroke-width:0px;}.cls-2{fill:#fff;}.cls-3{fill:none;stroke:rgba(255,255,255,.2);}</style></defs><g id="Layer_1-2"><path class="cls-1" d="M45.5.5h166c24.85,0,45,20.15,45,45h0c0,24.85-20.15,45-45,45H45.5C20.65,90.5.5,70.35.5,45.5h0C.5,20.65,20.65.5,45.5.5Z"/><path class="cls-3" d="M45.5.5h166c24.85,0,45,20.15,45,45h0c0,24.85-20.15,45-45,45H45.5C20.65,90.5.5,70.35.5,45.5h0C.5,20.65,20.65.5,45.5.5Z"/><path class="cls-2" d="M162.5,60.82v-14.36h1.9v12.67h7.07v1.69h-8.97Z"/><path class="cls-2" d="M172.85,55.62c0-1.93.54-3.35,1.61-4.28.89-.77,1.99-1.16,3.27-1.16,1.43,0,2.6.47,3.51,1.41.91.94,1.36,2.23,1.36,3.88,0,1.34-.2,2.39-.6,3.16-.4.77-.99,1.36-1.75,1.79s-1.6.64-2.51.64c-1.46,0-2.63-.47-3.53-1.4-.9-.93-1.35-2.28-1.35-4.04ZM174.67,55.62c0,1.33.29,2.33.87,2.99.58.66,1.31.99,2.19.99s1.6-.33,2.18-1c.58-.67.87-1.68.87-3.05,0-1.29-.29-2.26-.88-2.92-.58-.66-1.31-.99-2.18-.99s-1.61.33-2.19.99c-.58.66-.87,1.66-.87,2.99Z"/><path class="cls-2" d="M191.46,57.01l1.73.23c-.19,1.2-.67,2.13-1.45,2.81-.78.68-1.74,1.01-2.87,1.01-1.42,0-2.57-.47-3.43-1.4s-1.3-2.26-1.3-4c0-1.12.19-2.11.56-2.95.37-.84.94-1.47,1.7-1.9s1.59-.63,2.48-.63c1.13,0,2.05.29,2.77.86.72.57,1.18,1.38,1.38,2.43l-1.71.26c-.16-.7-.45-1.22-.87-1.58-.41-.35-.92-.53-1.5-.53-.89,0-1.61.32-2.16.96-.56.64-.83,1.64-.83,3.02s.27,2.41.8,3.05c.54.63,1.23.95,2.1.95.69,0,1.27-.21,1.73-.64.46-.42.76-1.08.88-1.96Z"/><path class="cls-2" d="M201.49,59.53c-.65.56-1.28.95-1.89,1.18-.6.23-1.25.34-1.94.34-1.14,0-2.02-.28-2.63-.84-.61-.56-.92-1.27-.92-2.14,0-.51.12-.97.35-1.4.23-.42.54-.76.91-1.01.38-.25.8-.45,1.27-.58.35-.09.87-.18,1.57-.26,1.42-.17,2.47-.37,3.14-.61,0-.24,0-.4,0-.46,0-.72-.17-1.22-.5-1.52-.45-.4-1.12-.6-2.01-.6-.83,0-1.44.15-1.84.44-.4.29-.69.8-.88,1.54l-1.72-.24c.16-.74.41-1.33.77-1.79.36-.45.88-.8,1.56-1.05.68-.24,1.47-.37,2.36-.37s1.61.1,2.16.31c.56.21.96.47,1.22.79.26.32.44.72.55,1.2.06.3.09.84.09,1.63v2.35c0,1.64.04,2.68.11,3.11.08.43.22.85.45,1.25h-1.84c-.18-.37-.3-.79-.35-1.28ZM201.34,55.6c-.64.26-1.6.48-2.88.67-.72.1-1.24.22-1.54.35-.3.13-.53.32-.7.57-.16.25-.24.53-.24.84,0,.47.18.86.53,1.18.36.31.88.47,1.56.47s1.28-.15,1.81-.45c.53-.3.92-.7,1.17-1.22.19-.4.28-.99.28-1.76v-.65Z"/><path class="cls-2" d="M205.82,60.82v-14.36h1.76v14.36h-1.76Z"/><path class="cls-2" d="M62.54,36.22h8.06v26.03h-8.06v-26.03Z"/><path class="cls-2" d="M104.67,36.22h15.06c2.51,0,4.44.62,5.78,1.86,1.34,1.24,2.02,2.78,2.02,4.62,0,1.54-.48,2.86-1.44,3.96-.64.73-1.57,1.31-2.81,1.74,1.87.45,3.25,1.22,4.13,2.32.88,1.1,1.32,2.47,1.32,4.13,0,1.35-.31,2.56-.94,3.64-.63,1.08-1.49,1.93-2.57,2.56-.67.39-1.69.67-3.05.85-1.81.24-3.01.36-3.6.36h-13.89v-26.03ZM112.79,46.43h3.5c1.25,0,2.13-.22,2.62-.65.49-.43.74-1.06.74-1.87,0-.76-.25-1.35-.74-1.78-.49-.43-1.35-.64-2.57-.64h-3.55v4.94ZM112.79,56.66h4.1c1.39,0,2.36-.25,2.93-.74.57-.49.85-1.15.85-1.98,0-.77-.28-1.39-.84-1.86-.56-.47-1.55-.7-2.96-.7h-4.08v5.27Z"/><path class="cls-2" d="M131.54,53.64l7.65-.48c.17,1.24.5,2.19,1.01,2.84.83,1.05,2.01,1.58,3.55,1.58,1.15,0,2.03-.27,2.65-.81.62-.54.93-1.16.93-1.87s-.3-1.28-.89-1.81c-.59-.53-1.97-1.04-4.12-1.51-3.53-.79-6.04-1.85-7.55-3.16-1.52-1.31-2.27-2.99-2.27-5.03,0-1.34.39-2.6,1.16-3.79.78-1.19,1.94-2.12,3.5-2.81,1.56-.68,3.69-1.02,6.4-1.02,3.33,0,5.86.62,7.61,1.86,1.75,1.24,2.78,3.21,3.12,5.9l-7.58.44c-.2-1.17-.62-2.02-1.27-2.56-.65-.53-1.54-.8-2.67-.8-.94,0-1.64.2-2.11.59-.47.4-.71.88-.71,1.45,0,.41.2.79.59,1.12.38.34,1.28.66,2.7.96,3.52.76,6.03,1.52,7.56,2.3,1.52.78,2.63,1.74,3.32,2.89.69,1.15,1.04,2.43,1.04,3.85,0,1.67-.46,3.21-1.39,4.62-.92,1.41-2.21,2.48-3.87,3.21-1.66.73-3.75,1.09-6.27,1.09-4.43,0-7.49-.85-9.2-2.56-1.7-1.7-2.67-3.87-2.89-6.5Z"/><path class="cls-2" d="M71.3,28.93c0,2.35-1.91,4.26-4.26,4.26s-4.26-1.91-4.26-4.26,1.91-4.26,4.26-4.26,4.26,1.91,4.26,4.26Z"/><path class="cls-2" d="M72.68,28.93c0,3.11-2.52,5.63-5.63,5.63s-5.63-2.52-5.63-5.63,2.52-5.63,5.63-5.63,5.63,2.52,5.63,5.63Z"/><polygon class="cls-2" points="118.38 18.3 113.26 20.59 114.38 21.27 108.63 30.85 104.13 28.14 100.75 33.78 99.22 32.86 96.24 31.07 90.45 40.72 90.48 40.73 87.92 45.01 82.67 36.22 73.74 36.22 83.88 51.35 83.88 62.26 91.94 62.26 91.94 51.35 99.24 38.41 101.83 39.47 105.48 33.55 109.99 37.9 117.76 23.3 118.89 23.97 118.38 18.3"/></g></svg>