<?xml version="1.0" encoding="UTF-8"?><svg id="Layer_2" xmlns="http://www.w3.org/2000/svg" viewBox="0 0 257 91"><defs><style>.cls-1{fill:rgba(15,3,42,.24);}.cls-1,.cls-2{stroke-width:0px;}.cls-2{fill:#fff;}.cls-3{fill:none;stroke:rgba(255,255,255,.2);}</style></defs><g id="Layer_1-2"><path class="cls-1" d="M45.5.5h166c24.85,0,45,20.15,45,45h0c0,24.85-20.15,45-45,45H45.5C20.65,90.5.5,70.35.5,45.5h0C.5,20.65,20.65.5,45.5.5Z"/><path class="cls-3" d="M45.5.5h166c24.85,0,45,20.15,45,45h0c0,24.85-20.15,45-45,45H45.5C20.65,90.5.5,70.35.5,45.5h0C.5,20.65,20.65.5,45.5.5Z"/><path class="cls-2" d="M86.54,12.53v8.38h-.41c-.45-3.21-1.17-5.41-2.15-6.61-.8-1-1.99-1.51-3.56-1.51-.39,0-.61.02-.65.06-.08.06-.12.32-.12.77v15.94c0,.57.04.93.12,1.09.04.08.18.16.41.25.24.09.69.16,1.35.22.67.06,1.57.09,2.71.09v.29h-12.8v-.29c1.12,0,2.01-.03,2.68-.09.67-.06,1.12-.13,1.35-.22.24-.09.39-.2.46-.32.07-.13.1-.47.1-1.02v-15.91c0-.51-.06-.79-.18-.83-.06-.02-.26-.03-.62-.03-1.53,0-2.7.49-3.5,1.48-.98,1.22-1.72,3.42-2.21,6.58h-.41v-8.33h17.42Z"/><path class="cls-2" d="M93.6,24.17v5.91c0,.39.03.65.09.77.04.06.13.12.28.18.15.06.41.11.79.15s.72.06,1.01.06v.26h-7.85v-.26c.57,0,1.08-.02,1.54-.06s.86-.12,1.19-.24c.12-.1.18-.38.18-.86v-15.46c0-.26,0-.47-.01-.65-.01-.18-.05-.32-.13-.41-.14-.2-.26-.31-.38-.35-.35-.1-1.14-.15-2.35-.15v-.26l5.65-.5v10.41c.12-.78.4-1.54.85-2.27.57-.9,1.25-1.39,2.03-1.47.16,0,.33,0,.51-.03.19-.02.32-.03.4-.03,1.37,0,2.4.37,3.09,1.12.55.61.82,1.36.82,2.24v7.82c0,.39.03.65.09.77.04.06.14.12.29.18.16.06.44.11.85.15.41.04.82.06,1.24.06v.26h-7.59v-.26c.31,0,.68-.02,1.09-.06s.77-.12,1.09-.24c.12-.1.18-.38.18-.86v-7.98c0-.85-.09-1.48-.26-1.89-.27-.65-.79-.98-1.56-.98-.82,0-1.53.54-2.12,1.63-.49.91-.82,2.01-1,3.31Z"/><path class="cls-2" d="M108.34,25.44c0,2.11.25,3.64.75,4.58.5.95,1.26,1.42,2.28,1.42,1.08,0,2.03-.37,2.85-1.1,1-.89,1.5-2.09,1.5-3.61h.24c0,1.47-.47,2.68-1.41,3.62s-2.2,1.41-3.77,1.41c-1.31,0-2.51-.5-3.59-1.5-1.27-1.18-1.91-2.72-1.91-4.62,0-2.06.63-3.74,1.88-5.03,1.1-1.12,2.33-1.68,3.71-1.68,1.27,0,2.33.37,3.18,1.12,1.24,1.1,1.85,2.89,1.85,5.38h-7.56ZM113.4,25.09c0-1.9-.17-3.35-.51-4.35-.34-1-.89-1.5-1.64-1.5-1.07,0-1.82.48-2.25,1.43-.44.95-.65,2.43-.65,4.43h5.06Z"/><path class="cls-2" d="M137.37,31.15c2.37,0,4.18-.72,5.43-2.17,1.25-1.45,1.88-3.64,1.88-6.57h.38v9.09h-19.24v-.29c.86,0,1.6-.03,2.21-.09.61-.06,1.02-.13,1.25-.22.23-.09.37-.2.44-.32.07-.13.1-.47.1-1.02v-15.11c0-.57-.04-.92-.12-1.06-.04-.08-.17-.16-.4-.24-.23-.08-.67-.16-1.32-.24-.66-.08-1.38-.12-2.16-.12v-.26h12.09v.26c-1.1,0-1.96.03-2.57.09s-1.05.14-1.31.24c-.26.1-.4.19-.44.27-.1.18-.15.53-.15,1.06v15.08c0,.57.04.93.12,1.09.04.08.16.16.35.24.67.2,1.82.3,3.46.3Z"/><path class="cls-2" d="M154.29,22.96v-1.71c0-.79-.13-1.32-.38-1.6s-.79-.41-1.62-.41c-.67,0-1.27.13-1.77.39-.51.26-.84.61-1,1.05.08-.02.18-.03.29-.03.37,0,.68.15.91.44.24.29.35.63.35,1,0,.43-.15.78-.45,1.06-.3.27-.64.41-1.04.41-.26,0-.49-.07-.68-.21-.57-.37-.86-.84-.86-1.41,0-.27.06-.59.18-.94.27-.76.96-1.32,2.06-1.68.78-.25,1.58-.38,2.38-.38,1.45,0,2.55.27,3.3.82.67.49,1,1.11,1,1.85v6.49c0,1.17.03,1.9.09,2.17.14.67.49,1,1.06,1,.51,0,.85-.26,1.03-.79.18-.53.26-1.29.26-2.28,0-.27,0-.55-.01-.82-.01-.27-.01-.56-.01-.85v-.26h.35v1.29c0,.41,0,.8.03,1.18,0,1.14-.14,1.9-.41,2.29-.35.49-1.07.74-2.16.74-.85,0-1.48-.15-1.89-.44-.49-.35-.82-.94-.98-1.78-.41.95-1.03,1.59-1.85,1.92-.49.19-1.15.29-1.97.29s-1.54-.2-2.15-.59c-.84-.53-1.27-1.34-1.27-2.42s.41-1.95,1.23-2.68c.82-.71,1.82-1.11,2.99-1.21,1.17-.1,1.96-.26,2.37-.47.41-.22.62-.7.62-1.44ZM154.21,28.28v-3.93c-.24.32-.58.51-1.04.58-.46.07-.91.13-1.34.19-.57.14-1.02.45-1.35.95-.39.59-.59,1.42-.59,2.48,0,1.14.11,1.92.34,2.32.23.4.58.61,1.07.61.75,0,1.42-.31,2.02-.93s.9-1.37.9-2.26Z"/><path class="cls-2" d="M168.21,19.85c.77-.57,1.17-.87,1.21-.91v4.41l-.24-.06c-.27-1.18-.76-2.14-1.47-2.88-.77-.8-1.61-1.21-2.53-1.21-.71,0-1.29.14-1.74.41-.61.37-.91.99-.91,1.85,0,.71.33,1.26,1,1.65.47.27,1.41.58,2.81.91,1.41.33,2.39.73,2.96,1.18.8.63,1.2,1.63,1.2,3,0,1.28-.43,2.22-1.29,2.82-.69.49-1.55.74-2.59.74-.86,0-1.48-.06-1.85-.18-.55-.18-1.15-.6-1.79-1.27-.78.92-1.2,1.4-1.24,1.44v-5.21h.21c.33,1.22.61,2.06.83,2.53.3.65.61,1.13.95,1.44.45.43.88.7,1.28.81.4.11,1.01.16,1.82.16.61,0,1.11-.16,1.51-.47.47-.37.71-.9.71-1.59,0-.88-.32-1.54-.95-1.97-.49-.33-1.36-.63-2.61-.88-1.25-.25-2.22-.67-2.91-1.24-.83-.69-1.24-1.6-1.24-2.74,0-1.02.35-1.89,1.04-2.6.7-.72,1.54-1.07,2.54-1.07.77,0,1.43.13,2,.38.75.33,1.18.51,1.29.53Z"/><path class="cls-2" d="M177.89,24.17v5.91c0,.39.03.65.09.77.04.06.13.12.28.18.15.06.41.11.79.15s.72.06,1.01.06v.26h-7.85v-.26c.57,0,1.08-.02,1.54-.06s.86-.12,1.19-.24c.12-.1.18-.38.18-.86v-15.46c0-.26,0-.47-.01-.65-.01-.18-.05-.32-.13-.41-.14-.2-.26-.31-.38-.35-.35-.1-1.14-.15-2.35-.15v-.26l5.65-.5v10.41c.12-.78.4-1.54.85-2.27.57-.9,1.25-1.39,2.03-1.47.16,0,.33,0,.51-.03.19-.02.32-.03.4-.03,1.37,0,2.4.37,3.09,1.12.55.61.82,1.36.82,2.24v7.82c0,.39.03.65.09.77.04.06.14.12.29.18.16.06.44.11.85.15.41.04.82.06,1.24.06v.26h-7.59v-.26c.31,0,.68-.02,1.09-.06s.77-.12,1.09-.24c.12-.1.18-.38.18-.86v-7.98c0-.85-.09-1.48-.26-1.89-.27-.65-.79-.98-1.56-.98-.82,0-1.53.54-2.12,1.63-.49.91-.82,2.01-1,3.31Z"/><path class="cls-2" d="M80.72,55.37h-11.44v-.29c.88,0,1.64-.03,2.27-.09.63-.06,1.06-.13,1.29-.22.24-.09.37-.17.41-.25.08-.14.12-.5.12-1.09v-15.11c0-.55-.04-.9-.12-1.06-.04-.08-.17-.16-.38-.24-.63-.24-1.82-.35-3.59-.35v-.26h11.47c2.22,0,4.22.81,6,2.44,2.06,1.86,3.09,4.25,3.09,7.15s-.91,5.17-2.74,6.91c-1.73,1.65-3.85,2.47-6.38,2.47ZM80.73,55.07c1.87,0,3.23-.76,4.09-2.27.86-1.52,1.28-3.79,1.28-6.82,0-2.87-.43-5.12-1.3-6.73-.93-1.73-2.28-2.6-4.07-2.6-.94,0-1.67.02-2.17.04-.5.03-.86.08-1.06.16-.21.08-.34.19-.41.34s-.1.52-.1,1.11v15.11c0,.57.03.94.1,1.12.07.18.2.31.4.38.2.08.62.12,1.27.13.65.01,1.31.01,1.98.01Z"/><path class="cls-2" d="M93.72,49.31c0,2.11.25,3.64.75,4.58s1.26,1.42,2.28,1.42c1.08,0,2.03-.36,2.85-1.1,1-.89,1.5-2.09,1.5-3.61h.24c0,1.47-.47,2.68-1.41,3.62-.94.94-2.2,1.41-3.77,1.41-1.31,0-2.51-.5-3.59-1.5-1.27-1.18-1.91-2.72-1.91-4.62,0-2.06.63-3.74,1.88-5.03,1.1-1.12,2.33-1.68,3.71-1.68,1.27,0,2.33.37,3.18,1.12,1.24,1.1,1.85,2.89,1.85,5.38h-7.56ZM98.78,48.95c0-1.9-.17-3.35-.51-4.35-.34-1-.89-1.5-1.64-1.5-1.07,0-1.82.48-2.25,1.43-.44.95-.65,2.43-.65,4.43h5.06Z"/><path class="cls-2" d="M109.37,43.72c.77-.57,1.17-.87,1.21-.91v4.41l-.24-.06c-.27-1.18-.76-2.14-1.47-2.88-.77-.8-1.61-1.21-2.53-1.21-.71,0-1.29.14-1.74.41-.61.37-.91.99-.91,1.85,0,.71.33,1.26,1,1.65.47.27,1.41.58,2.81.91,1.41.33,2.39.73,2.96,1.18.8.63,1.2,1.63,1.2,3,0,1.28-.43,2.22-1.29,2.82-.69.49-1.55.74-2.59.74-.86,0-1.48-.06-1.85-.18-.55-.18-1.15-.6-1.79-1.27-.78.92-1.2,1.4-1.24,1.44v-5.21h.21c.33,1.22.61,2.06.83,2.53.3.65.61,1.13.95,1.44.45.43.88.7,1.28.81.4.11,1.01.16,1.82.16.61,0,1.11-.16,1.51-.47.47-.37.71-.9.71-1.59,0-.88-.32-1.54-.95-1.97-.49-.33-1.36-.63-2.61-.88-1.25-.25-2.22-.67-2.91-1.24-.83-.69-1.24-1.6-1.24-2.74,0-1.02.35-1.89,1.04-2.6.7-.72,1.54-1.07,2.54-1.07.77,0,1.43.13,2,.38.75.33,1.18.51,1.29.53Z"/><path class="cls-2" d="M118.2,42.81v11.14c0,.39.03.65.09.77.04.06.13.12.26.18.41.14,1.27.21,2.56.21v.26h-8.59v-.26c.57,0,1.08-.02,1.54-.06s.86-.12,1.19-.24c.12-.1.18-.39.18-.86v-9.19c0-.38-.04-.61-.12-.71-.14-.2-.26-.32-.38-.36-.35-.1-1.16-.15-2.41-.15v-.26l5.68-.47ZM116.65,36.16c.47,0,.86.16,1.17.47.31.31.47.71.47,1.18s-.16.86-.47,1.18c-.31.31-.7.47-1.17.47s-.86-.16-1.17-.47c-.31-.31-.47-.71-.47-1.18s.16-.86.47-1.18c.31-.31.7-.47,1.17-.47Z"/><path class="cls-2" d="M124.79,50.37c-.63-.31-1.12-.73-1.47-1.24-.35-.51-.53-1.14-.53-1.88,0-1.26.57-2.32,1.71-3.21,1.04-.8,2.19-1.21,3.44-1.21.37,0,.77.05,1.18.15.41.1.79.23,1.15.38v-.71c0-.92.16-1.52.49-1.81.32-.28.82-.43,1.49-.43.29,0,.55.1.76.3.22.2.32.46.32.78,0,.7-.32,1.04-.97,1.04s-1-.32-1-.95c0-.12.02-.23.06-.33.04-.1.09-.2.15-.3-.39.06-.65.23-.78.51-.13.28-.19.67-.19,1.16.02.41.03.71.03.91.76.37,1.37.86,1.81,1.47.44.61.66,1.31.66,2.12,0,1.2-.57,2.18-1.71,2.94-1.02.69-2.17,1.03-3.44,1.03-.9,0-1.76-.16-2.56-.47-.68,0-1.23.11-1.66.32-.56.29-.84.78-.84,1.44,0,.29.24.52.73.68.47.18,1.39.26,2.76.26h1.7c1.74,0,3.06.24,3.96.71,1.13.59,1.7,1.57,1.7,2.94,0,1.45-.52,2.57-1.54,3.35-1.03.78-2.38,1.18-4.05,1.18-1.98,0-3.56-.33-4.74-.99s-1.77-1.41-1.77-2.25c0-.55.32-1.01.97-1.38.45-.26,1.16-.52,2.12-.79-.86-.31-1.5-.65-1.91-1-.57-.49-.85-1.13-.85-1.91,0-.82.25-1.5.74-2.03.49-.53,1.19-.79,2.09-.79ZM128.32,61.25c1.32,0,2.35-.28,3.08-.83.73-.55,1.1-1.22,1.1-2.01,0-.95-.3-1.59-.89-1.92-.6-.34-1.7-.5-3.3-.5-1.84,0-3.1.22-3.78.65-.57.35-.85.96-.85,1.82s.23,1.44.7,1.85c.72.63,2.04.94,3.95.94ZM130.43,46.98c0-1.24-.17-2.17-.49-2.79-.39-.73-1.06-1.1-2.01-1.1-.87,0-1.51.35-1.91,1.04s-.6,1.64-.6,2.85c0,1.38.17,2.37.51,2.96.34.59,1,.89,1.99.89.89,0,1.53-.31,1.92-.93.39-.62.58-1.6.58-2.92Z"/><path class="cls-2" d="M140.11,48.16v5.79c0,.39.03.65.09.77.04.06.13.12.28.18.15.06.41.11.79.15.38.04.72.06,1.01.06v.26h-7.53v-.26c.43,0,.86-.02,1.28-.06.42-.04.8-.12,1.13-.24.12-.1.18-.38.18-.86v-8.96c0-.18,0-.35-.01-.53-.01-.18-.05-.32-.13-.41l-.18-.3c-.2-.14-.94-.21-2.24-.21v-.26l5.32-.47v3.75c.12-.84.37-1.58.77-2.23.55-.9,1.13-1.38,1.74-1.45.61-.07,1-.1,1.18-.1,1.24,0,2.22.37,2.94,1.12.61.63.91,1.38.91,2.24v7.82c0,.39.03.65.09.77.04.06.14.12.29.18.16.06.44.11.85.15.41.04.8.06,1.18.06v.26h-7.53v-.26c.31,0,.68-.02,1.09-.06.41-.04.77-.12,1.09-.24.12-.1.18-.38.18-.86v-7.48c0-.95-.08-1.67-.24-2.16-.26-.81-.73-1.21-1.41-1.21-.9,0-1.64.56-2.21,1.69-.43.85-.74,1.97-.91,3.37Z"/><path class="cls-2" d="M162.71,49.19c0,1.9-.66,3.48-1.97,4.74-1.2,1.14-2.54,1.71-4.03,1.71s-2.86-.53-4-1.59c-1.33-1.24-2-2.85-2-4.85s.66-3.47,1.97-4.71c1.2-1.12,2.54-1.68,4.03-1.68s2.84.53,4,1.59c1.33,1.22,2,2.81,2,4.8ZM159.65,49.19c0-2.18-.19-3.71-.56-4.59-.43-1.02-1.23-1.53-2.38-1.53-1.06,0-1.81.49-2.27,1.47-.45.98-.68,2.53-.68,4.65s.2,3.73.6,4.71c.4.98,1.18,1.47,2.34,1.47,1.06,0,1.81-.5,2.27-1.5.45-1,.68-2.56.68-4.68Z"/><path class="cls-2" d="M166.65,44.76c0-.4-.04-.64-.12-.74-.14-.2-.26-.32-.38-.36-.35-.1-1.16-.15-2.41-.15v-.26l5.68-.44v3.74c.08-.8.35-1.56.82-2.27.65-.98,1.46-1.47,2.44-1.47.37,0,.77.12,1.21.37.43.25.72.55.87.93.15.37.22.71.22,1,0,.78-.33,1.32-.98,1.62-.16.08-.37.12-.62.12-.4,0-.73-.14-1.01-.41-.28-.27-.42-.69-.42-1.24,0-.35.13-.71.4-1.06s.58-.49.94-.41c-.12-.41-.47-.62-1.05-.62s-1.13.41-1.7,1.24c-.74,1.06-1.11,2.43-1.11,4.11v5.5c0,.39.03.65.09.77.04.06.13.12.26.18.41.14,1.27.21,2.56.21v.26h-8.59v-.26c.57,0,1.08-.02,1.54-.06s.86-.12,1.19-.24c.12-.1.18-.39.18-.86v-9.19Z"/><path class="cls-2" d="M181.01,58.19c-.4,1.2-.78,2.03-1.13,2.5-.4.55-.92.82-1.56.82-.81,0-1.4-.08-1.79-.25-.39-.17-.63-.45-.74-.85-.11-.4-.16-.72-.16-.96,0-.59.27-1.03.82-1.32.21-.12.44-.18.67-.18.37,0,.69.14.98.43.28.28.42.66.42,1.13,0,.84-.39,1.31-1.17,1.41.13.15.27.24.42.26.14.02.29.03.45.03.52,0,.94-.2,1.27-.61.33-.4.67-1.15,1.04-2.23l.92-2.66-4.17-11.53c-.17-.45-.28-.72-.32-.8-.12-.2-.45-.29-1.01-.29h-.66v-.29h6.61v.29c-.44,0-.89,0-1.34.01-.45.01-.68.13-.68.37l.17.59,2.79,7.59,1.94-5.79c.23-.69.35-1.22.35-1.59,0-.79-.64-1.18-1.93-1.18v-.29h4.82v.29c-.73,0-1.3.18-1.7.55-.4.36-.86,1.27-1.36,2.73l-3.95,11.82Z"/><path class="cls-2" d="M143.46,21.39c.42-1.14,1.03-2.25,1.78-3.21.67-.87,1.53-1.58,2.52-2.05-.05-.09-.1-.17-.15-.25-.23-.38-.48-.75-.73-1.12-.07-.11.09-.24.19-.14.19.2.41.37.6.57.21.21.37.5.51.76.4-.16.81-.29,1.23-.39,0-.13-.03-.26-.04-.36-.04-.36-.11-.71-.22-1.05-.09-.29-.21-.56-.36-.82-.15-.27-.3-.6-.53-.8-.06-.05.02-.14.08-.1.3.17.55.36.75.65.21.31.39.65.51,1.01.14.4.21.82.27,1.24,0,.05.01.1.02.16.43-.08.87-.12,1.3-.13,0-.03.01-.06.02-.09.06-.3.05-.61.06-.92.02-.51-.03-1.01-.19-1.5-.08-.26-.19-.52-.32-.77-.11-.21-.26-.41-.34-.64-.02-.05.05-.1.1-.08.23.15.4.4.55.63.17.26.31.53.42.82.23.61.26,1.19.26,1.83,0,.24-.02.48-.06.71.44.01.88.06,1.32.16.02-.04.03-.09.04-.13.12-.36.23-.73.3-1.11.09-.52.11-1.08,0-1.6-.05-.23-.14-.45-.17-.68-.03-.16-.04-.4-.17-.52-.05-.05,0-.13.07-.11.18.04.3.23.37.39.04.08.05.16.08.24.04.13.11.25.15.38.2.63.24,1.31.16,1.96-.02.12-.16.77-.36,1.31.02,0,.04.01.06.02.38.12.76.27,1.13.42,0,0,.02-.02.02-.03.11-.14.19-.3.27-.45.17-.33.34-.68.49-1.03.22-.52.35-1.08.35-1.64,0-.3,0-.6-.02-.89,0-.15-.03-.3-.02-.45,0-.15.02-.3-.03-.44-.02-.06.07-.12.11-.06.18.23.19.49.24.77.07.34.1.69.13,1.03.05.67-.09,1.36-.36,1.97-.17.4-.36.82-.58,1.2-.04.06-.08.14-.14.22.1.04.2.09.29.13.08.04.16.07.24.11.04-.02.07-.04.11-.06.25-.17.44-.41.62-.65.32-.43.65-.83.92-1.3.28-.48.49-.99.61-1.53.06-.3.06-.6.06-.9,0-.3-.02-.64.05-.93.03-.1.16-.09.19,0,.1.31.14.64.16.97.02.33.05.66,0,.98-.1.58-.32,1.16-.61,1.68-.29.52-.66.97-1.02,1.45-.15.19-.32.39-.52.57.22.11.44.21.67.32.28-.12.55-.33.75-.52.35-.33.65-.72.89-1.14.26-.46.45-.94.6-1.44.15-.52.22-1.05.31-1.58,0-.05.09-.05.1,0,.29,1.74-.48,3.89-1.96,4.9-.03.02-.06.04-.09.06.03.01.06.03.08.04.22-.07.42-.17.61-.3.49-.32.92-.76,1.27-1.22.35-.46.66-.97.88-1.5.25-.59.31-1.23.49-1.84.02-.07.12-.07.14,0,.17.62.05,1.43-.19,2.02-.24.6-.57,1.18-.96,1.69-.4.52-.88,1-1.44,1.35-.05.03-.11.06-.17.1.06.03.11.05.17.08.77-.13,1.47-.68,1.98-1.24.35-.38.7-.74.95-1.2.06-.12.11-.25.16-.38.07-.16.18-.32.2-.49.03-.24,0-.46.08-.7,0-.03.05-.02.05,0,0,.29.12.6.07.89-.05.29-.14.62-.25.89-.22.55-.63,1.01-1.03,1.44-.41.44-.9.84-1.47,1.06.1.03.2.05.31.07.63-.06,1.18-.37,1.66-.83.3-.28.59-.6.8-.96.25-.42.35-.9.42-1.38,0-.05.1-.05.11,0,.06.4.09.76,0,1.16-.09.37-.29.71-.51,1.01-.42.58-.95,1.14-1.62,1.41-1.58.65-3.09-.44-4.47-1.07-1.52-.69-3.23-1.26-4.92-1.11-1.55.14-3.07.79-4.24,1.81-.33.29-1.99,2-2.82,2.92-.12.08-.24.17-.36.27Z"/><rect class="cls-2" x="68.93" y="65.35" width="119.08" height="2.36"/><path class="cls-2" d="M73.16,78.39h-4.23v-6.23h.47v5.81h3.75v.43Z"/><path class="cls-2" d="M78.4,78.39h-.46v-.97c-.18.34-.43.61-.75.8-.32.19-.69.28-1.11.28-.55,0-.99-.18-1.33-.54-.33-.36-.5-.83-.5-1.42v-2.7h.45v2.63c0,.48.13.86.4,1.16s.61.44,1.05.44c.55,0,.98-.18,1.31-.53.33-.35.49-.83.49-1.43v-2.28h.46v4.55Z"/><path class="cls-2" d="M84.1,78.39h-.55l-1.61-1.99-1.62,1.99h-.55l1.84-2.26-1.84-2.3h.55l1.62,2.03,1.61-2.03h.55l-1.84,2.3,1.84,2.26Z"/><path class="cls-2" d="M89.54,78.39h-.46v-.97c-.18.34-.43.61-.75.8-.32.19-.69.28-1.11.28-.55,0-.99-.18-1.33-.54-.33-.36-.5-.83-.5-1.42v-2.7h.45v2.63c0,.48.13.86.4,1.16s.61.44,1.05.44c.55,0,.98-.18,1.31-.53.33-.35.49-.83.49-1.43v-2.28h.46v4.55Z"/><path class="cls-2" d="M94.03,73.83l-.05.43c-.06-.01-.15-.02-.27-.02-.6,0-1.07.22-1.42.65-.34.43-.52.97-.52,1.6v1.9h-.46v-4.55h.46v1.27c.19-.4.45-.72.79-.95.33-.24.71-.36,1.15-.36.12,0,.23,0,.32.03Z"/><path class="cls-2" d="M96.24,79.97h-.5l.75-1.62-2.12-4.52h.52l1.85,4,1.87-4h.5l-2.87,6.14Z"/><path class="cls-2" d="M103.05,75.05h3.71v.42h-3.71v2.49h3.99v.43h-4.46v-6.23h4.46v.43h-3.99v2.47Z"/><path class="cls-2" d="M109.68,79.97h-.5l.75-1.62-2.12-4.52h.52l1.85,4,1.87-4h.5l-2.87,6.14Z"/><path class="cls-2" d="M117.62,76.15h-4.12c0,.58.2,1.05.57,1.41s.8.53,1.28.53c.87,0,1.46-.39,1.77-1.16l.4.09c-.17.48-.45.84-.82,1.09-.37.25-.82.38-1.35.38-.61,0-1.15-.22-1.61-.65-.46-.43-.69-1-.69-1.71s.23-1.29.7-1.74c.46-.44,1.02-.67,1.65-.67s1.14.21,1.56.63c.41.42.63.96.66,1.63v.17ZM114.17,74.59c-.37.3-.58.71-.65,1.21h3.64c-.06-.52-.24-.93-.57-1.22-.32-.29-.72-.44-1.19-.44s-.87.15-1.24.46Z"/><path class="cls-2" d="M118.96,78.39v-6.7h.46v6.7h-.46Z"/><path class="cls-2" d="M125.4,78.39h-.46v-.96c-.2.33-.47.6-.81.78-.34.19-.72.28-1.14.28-.64,0-1.19-.22-1.64-.66-.45-.44-.67-1.01-.67-1.72s.22-1.27.67-1.72c.45-.44.99-.67,1.63-.67.42,0,.79.09,1.14.28s.61.45.81.79v-.96h.46v4.55ZM124.38,77.53c.38-.37.57-.84.57-1.42s-.19-1.06-.57-1.42-.83-.55-1.33-.55-.98.18-1.35.54c-.37.36-.55.84-.55,1.43s.18,1.07.55,1.43c.37.36.82.54,1.36.54s.96-.18,1.34-.55Z"/><path class="cls-2" d="M127.24,77.03c.03.33.19.6.47.79.29.19.64.29,1.07.29.38,0,.69-.08.93-.25.24-.16.35-.39.35-.68,0-.22-.07-.4-.22-.52s-.36-.21-.64-.27l-1.11-.24c-.75-.16-1.12-.53-1.12-1.11,0-.39.15-.71.46-.95s.71-.36,1.2-.36.88.11,1.19.34.51.52.59.89l-.42.11c-.06-.29-.21-.52-.46-.7-.24-.17-.55-.26-.92-.26s-.66.08-.87.25c-.22.16-.33.38-.33.66,0,.22.07.39.21.5s.35.2.62.26l1.1.24c.77.18,1.16.56,1.16,1.13,0,.42-.16.74-.48.98-.32.24-.75.36-1.27.36s-.98-.12-1.34-.36c-.35-.24-.56-.57-.62-.99l.45-.11Z"/><path class="cls-2" d="M135.54,74.27c.34.36.51.83.51,1.41v2.71h-.46v-2.64c0-.48-.13-.86-.4-1.15s-.61-.44-1.04-.44c-.55,0-.99.18-1.32.53-.33.35-.49.83-.49,1.43v2.28h-.46v-6.7h.46v3.12c.37-.72.99-1.08,1.87-1.08.55,0,.99.18,1.32.54Z"/><path class="cls-2" d="M140.58,75.05h3.71v.42h-3.71v2.49h3.99v.43h-4.46v-6.23h4.46v.43h-3.99v2.47Z"/><path class="cls-2" d="M149.96,78.39h-.55l-1.61-1.99-1.62,1.99h-.55l1.84-2.26-1.84-2.3h.55l1.62,2.03,1.61-2.03h.55l-1.84,2.3,1.84,2.26Z"/><path class="cls-2" d="M153.8,78.13c-.32.24-.65.36-.99.36-.41,0-.74-.12-.98-.37s-.37-.58-.37-1.02v-2.87h-.99v-.39h.99v-1.5h.46v1.5h1.7v.39h-1.7v2.85c0,.3.09.54.26.72s.4.26.67.26.55-.1.79-.31l.18.37Z"/><path class="cls-2" d="M158.77,76.15h-4.12c0,.58.2,1.05.57,1.41s.8.53,1.28.53c.87,0,1.46-.39,1.77-1.16l.4.09c-.17.48-.45.84-.82,1.09-.37.25-.82.38-1.35.38-.61,0-1.15-.22-1.61-.65-.46-.43-.69-1-.69-1.71s.23-1.29.7-1.74c.46-.44,1.02-.67,1.65-.67s1.14.21,1.56.63c.41.42.63.96.66,1.63v.17ZM155.32,74.59c-.37.3-.58.71-.65,1.21h3.64c-.06-.52-.24-.93-.57-1.22-.32-.29-.72-.44-1.19-.44s-.87.15-1.24.46Z"/><path class="cls-2" d="M163.75,74.27c.34.36.51.83.51,1.41v2.71h-.46v-2.64c0-.48-.13-.86-.4-1.15s-.61-.44-1.04-.44c-.55,0-.99.18-1.32.53-.33.35-.49.83-.49,1.43v2.28h-.46v-4.55h.46v.97c.37-.72.99-1.08,1.87-1.08.55,0,.99.18,1.32.54Z"/><path class="cls-2" d="M166,77.03c.03.33.19.6.47.79.29.19.64.29,1.07.29.38,0,.69-.08.93-.25.24-.16.35-.39.35-.68,0-.22-.07-.4-.22-.52s-.36-.21-.64-.27l-1.11-.24c-.75-.16-1.12-.53-1.12-1.11,0-.39.15-.71.46-.95s.71-.36,1.2-.36.88.11,1.19.34.51.52.59.89l-.42.11c-.06-.29-.21-.52-.46-.7-.24-.17-.55-.26-.92-.26s-.66.08-.87.25c-.22.16-.33.38-.33.66,0,.22.07.39.21.5s.35.2.62.26l1.1.24c.77.18,1.16.56,1.16,1.13,0,.42-.16.74-.48.98-.32.24-.75.36-1.27.36s-.98-.12-1.34-.36c-.35-.24-.56-.57-.62-.99l.45-.11Z"/><path class="cls-2" d="M171.22,72.2c.07.07.1.15.1.25s-.03.18-.1.25-.15.1-.25.1c-.11,0-.19-.03-.26-.1s-.1-.15-.1-.25.03-.18.1-.25.15-.1.26-.1c.1,0,.18.03.25.1ZM170.74,78.39v-4.55h.45v4.55h-.45Z"/><path class="cls-2" d="M176.72,74.41c.46.45.69,1.02.69,1.7s-.23,1.25-.69,1.7c-.46.45-1.03.68-1.7.68s-1.24-.23-1.7-.68c-.46-.45-.69-1.02-.69-1.7s.23-1.25.69-1.7c.46-.45,1.03-.67,1.7-.67s1.24.22,1.7.67ZM176.4,77.52c.37-.38.56-.84.56-1.41s-.19-1.04-.56-1.41-.83-.56-1.38-.56-1.01.19-1.38.56-.56.84-.56,1.41.19,1.03.56,1.41c.37.38.83.56,1.38.56s1-.19,1.38-.56Z"/><path class="cls-2" d="M182.4,74.27c.34.36.51.83.51,1.41v2.71h-.46v-2.64c0-.48-.13-.86-.4-1.15s-.61-.44-1.04-.44c-.55,0-.99.18-1.32.53-.33.35-.49.83-.49,1.43v2.28h-.46v-4.55h.46v.97c.37-.72.99-1.08,1.87-1.08.55,0,.99.18,1.32.54Z"/><path class="cls-2" d="M184.64,77.03c.03.33.19.6.47.79.29.19.64.29,1.07.29.38,0,.69-.08.93-.25.24-.16.35-.39.35-.68,0-.22-.07-.4-.22-.52s-.36-.21-.64-.27l-1.11-.24c-.75-.16-1.12-.53-1.12-1.11,0-.39.15-.71.46-.95s.71-.36,1.2-.36.88.11,1.19.34.51.52.59.89l-.42.11c-.06-.29-.21-.52-.46-.7-.24-.17-.55-.26-.92-.26s-.66.08-.87.25c-.22.16-.33.38-.33.66,0,.22.07.39.21.5s.35.2.62.26l1.1.24c.77.18,1.16.56,1.16,1.13,0,.42-.16.74-.48.98-.32.24-.75.36-1.27.36s-.98-.12-1.34-.36c-.35-.24-.56-.57-.62-.99l.45-.11Z"/></g></svg>