<?xml version="1.0" encoding="UTF-8"?><svg id="Layer_2" xmlns="http://www.w3.org/2000/svg" viewBox="0 0 257 91"><defs><style>.cls-1{fill-rule:evenodd;}.cls-1,.cls-2,.cls-3{stroke-width:0px;}.cls-1,.cls-3{fill:#fff;}.cls-2{fill:rgba(15,3,42,.24);}.cls-4{fill:none;stroke:rgba(255,255,255,.2);}</style></defs><g id="Layer_1-2"><path class="cls-2" d="M45.5.5h166c24.85,0,45,20.15,45,45h0c0,24.85-20.15,45-45,45H45.5C20.65,90.5.5,70.35.5,45.5h0C.5,20.65,20.65.5,45.5.5Z"/><path class="cls-4" d="M45.5.5h166c24.85,0,45,20.15,45,45h0c0,24.85-20.15,45-45,45H45.5C20.65,90.5.5,70.35.5,45.5h0C.5,20.65,20.65.5,45.5.5Z"/><path class="cls-1" d="M49.77,39.05c4.09.31,5.37,7.08,6.68,9.85-2.64-1.58-3.93-8.84-6.68-9.85M57.35,53.17c-3.01-.97-5.05-14.54-10.73-14.58,4.44,1.93,5.94,15.03,10.73,14.58M57.32,45.86c-.69,2.06.12,4.11,1.03,5.85,1.18,2.26,1.67,2.92.08,3.45,5.45,1.55.78-3.97.1-5.95,1.22,1.7,3.04,3.09,4.4,4.8,1.84,2.31,2.51,4.43,2.94,9.13-2.84-4.18-9.43-6.79-12.53-10.61-2.76-3.41-4.55-12.48-7.92-13.19,2.92,3.91,3.38,10.53,6.87,14.66,4.72,5.57,12.28,8.04,15.91,15.47-.29-5.51-.05-11.78-4.08-16.65-1.69-2.05-6.07-5.1-6.83-6.95"/><path class="cls-1" d="M80.55,48.91c1.3-2.77,2.59-9.54,6.67-9.85-2.74,1.01-4.03,8.28-6.67,9.85M83.64,52.53c-3.1,3.82-9.69,6.43-12.53,10.61.44-4.7,1.1-6.82,2.94-9.13,1.36-1.71,3.19-3.1,4.4-4.8-.68,1.98-5.34,7.5.1,5.95-1.59-.53-1.1-1.19.08-3.45.91-1.74,1.72-3.79,1.03-5.85-.76,1.85-5.14,4.9-6.83,6.95-4.03,4.87-3.79,11.14-4.08,16.65,3.63-7.43,11.19-9.9,15.91-15.47,3.49-4.12,3.95-10.75,6.87-14.66-3.37.72-5.15,9.79-7.92,13.2M90.38,38.59c-5.69.04-7.73,13.61-10.73,14.58,4.79.44,6.3-12.65,10.73-14.58"/><path class="cls-1" d="M68.5,34.56c4.43,4.88,5.34,15.39,0,15.39-4.2,0-4.54-6.52-2.32-11.67.53.69.99,1.51,1.43,2.32-1.21,3.45-1.03,7.07.9,7.07,2.31,0,2.12-5.21,0-9.1-3.52-6.47-12.89-7.29-15.7-.21-.73-.53-1.54-.89-2.43-1.03,3.54-8.72,13.5-7.86,18.13-2.76M69.8,33.34c.56.62,1.05,1.28,1.49,1.98,4.29-3.22,10.67-2.59,12.9,3.03.7-.52,1.5-.89,2.43-1.03-3.23-7.96-11.83-7.94-16.82-3.98"/><path class="cls-1" d="M68.5,21.54c-2.6,0-4.71,2.11-4.71,4.71s2.11,4.71,4.71,4.71,4.71-2.11,4.71-4.71-2.11-4.71-4.71-4.71M68.5,28.93c-1.48,0-2.68-1.2-2.68-2.68s1.2-2.68,2.68-2.68,2.68,1.2,2.68,2.68-1.2,2.68-2.68,2.68"/><polygon class="cls-3" points="109.28 37.87 105.72 42.36 105.26 42.36 101.82 37.84 101.82 45.9 99.24 45.9 99.24 34.36 102.19 34.36 105.56 38.8 108.94 34.36 111.86 34.36 111.86 45.9 109.28 45.9 109.28 37.87"/><path class="cls-3" d="M115.9,42.59c.12.79.87,1.43,2.21,1.43.64,0,1.53-.15,2.11-.64l1.34,1.48c-.87.86-2.28,1.2-3.5,1.2-2.95,0-4.57-1.73-4.57-4.34s1.67-4.2,4.32-4.2,4.58,1.73,4.07,5.06h-5.99ZM119.76,40.86c-.05-.89-.96-1.3-1.95-1.3s-1.68.49-1.91,1.3h3.86Z"/><path class="cls-3" d="M129.34,45.89v-4.3c0-1.25-.54-1.9-1.68-1.9-1.1-.02-1.85.94-1.85,1.99v4.2h-2.34v-8.15h2.14l.08,1.04c.73-.94,1.65-1.25,2.64-1.24,1.83,0,3.4.86,3.4,4.02v4.32h-2.39Z"/><path class="cls-3" d="M136.86,35.52v2.28h2.06v1.98h-2.08v3.07c0,.86.48,1.09.92,1.09.28,0,.73-.07.99-.2l.54,1.98c-.59.23-1.07.33-1.71.36-1.76.08-3.1-.69-3.1-3.23v-3.07h-1.45v-1.98h1.45v-2.01l2.37-.26Z"/><path class="cls-3" d="M146.83,37.74h2.23v8.14h-2.14l-.13-1.02c-.54.86-1.71,1.19-2.51,1.2-2.44.02-4.2-1.57-4.2-4.25s1.86-4.29,4.27-4.25c1.02,0,1.98.4,2.41,1.12l.08-.94ZM142.44,41.81c0,1.35.96,2.14,2.14,2.14,1.34,0,2.16-1.04,2.16-2.06,0-1.17-.74-2.24-2.16-2.24-1.19,0-2.14.81-2.14,2.16"/><rect class="cls-3" x="151.1" y="34.36" width="2.36" height="11.53"/><polygon class="cls-3" points="167.43 45.9 167.43 41.34 162.27 41.34 162.27 45.9 159.69 45.9 159.69 34.36 162.27 34.36 162.27 38.98 167.43 38.98 167.43 34.36 169.97 34.36 169.97 45.9 167.43 45.9"/><path class="cls-3" d="M174.01,42.59c.12.79.87,1.43,2.21,1.43.64,0,1.53-.15,2.11-.64l1.34,1.48c-.87.86-2.28,1.2-3.5,1.2-2.95,0-4.57-1.73-4.57-4.34s1.67-4.2,4.32-4.2,4.58,1.73,4.07,5.06h-5.99ZM177.86,40.86c-.05-.89-.96-1.3-1.95-1.3s-1.68.49-1.91,1.3h3.86Z"/><path class="cls-3" d="M187.87,37.74h2.23v8.14h-2.14l-.13-1.02c-.54.86-1.71,1.19-2.51,1.2-2.44.02-4.2-1.57-4.2-4.25s1.86-4.29,4.27-4.25c1.02,0,1.98.4,2.41,1.12l.08-.94ZM183.49,41.81c0,1.35.96,2.14,2.14,2.14,1.34,0,2.16-1.04,2.16-2.06,0-1.17-.74-2.24-2.16-2.24-1.19,0-2.14.81-2.14,2.16"/><rect class="cls-3" x="192.14" y="34.36" width="2.36" height="11.53"/><path class="cls-3" d="M199.78,35.52v2.28h2.06v1.98h-2.08v3.07c0,.86.48,1.09.92,1.09.28,0,.73-.07.99-.2l.54,1.98c-.59.23-1.07.33-1.71.36-1.76.08-3.1-.69-3.1-3.23v-3.07h-1.45v-1.98h1.45v-2.01l2.37-.26Z"/><path class="cls-3" d="M205.85,34.35v4.4c.68-.87,1.65-1.14,2.47-1.14,1.91,0,3.25,1.01,3.25,3.91v4.37h-2.37v-4.35c0-1.14-.61-1.76-1.55-1.76-.99,0-1.81.69-1.81,2v4.12h-2.37v-11.54h2.39Z"/><path class="cls-3" d="M106.07,53.38c-.64-.68-1.76-.97-2.67-.97-1.14,0-2.06.48-2.06,1.27,0,1.06,1.01,1.25,2.49,1.39,2.28.2,4.44,1.07,4.44,3.74s-2.37,3.69-4.86,3.71c-2,.02-4.07-.76-5.05-2.37l1.53-1.6c.89,1.14,2.36,1.63,3.53,1.63,1.37,0,2.31-.54,2.31-1.37.02-.97-.76-1.42-2.32-1.55-2.44-.23-4.62-.84-4.58-3.56.02-2.29,2.19-3.51,4.57-3.51,1.78,0,3.12.4,4.3,1.78l-1.62,1.42Z"/><path class="cls-3" d="M109.27,58.08c0-2.46,1.75-4.27,4.45-4.27s4.47,1.81,4.47,4.27-1.7,4.24-4.47,4.24-4.45-1.78-4.45-4.24M115.78,58.08c0-1.02-.63-2.14-2.06-2.14s-2.04,1.12-2.04,2.14.61,2.13,2.04,2.13,2.06-1.06,2.06-2.13"/><rect class="cls-3" x="119.76" y="50.61" width="2.36" height="11.53"/><path class="cls-3" d="M126.43,53.99v4.3c0,1.25.54,1.9,1.68,1.9,1.1.02,1.85-.94,1.85-2v-4.2h2.34v8.15h-2.14l-.08-1.07c-.73.97-1.65,1.25-2.64,1.24-1.83,0-3.4-.82-3.4-3.99v-4.32h2.39Z"/><path class="cls-3" d="M137.55,51.77v2.28h2.06v1.98h-2.08v3.07c0,.86.48,1.09.92,1.09.28,0,.73-.07.99-.2l.54,1.98c-.59.23-1.07.33-1.71.36-1.76.08-3.1-.69-3.1-3.23v-3.07h-1.45v-1.98h1.45v-2.01l2.37-.26Z"/><path class="cls-3" d="M143.76,51.83c0,1.78-2.7,1.78-2.7,0s2.7-1.78,2.7,0M141.22,62.14h2.37v-8.16h-2.37v8.16Z"/><path class="cls-3" d="M145.13,58.08c0-2.46,1.75-4.27,4.45-4.27s4.47,1.81,4.47,4.27-1.7,4.24-4.47,4.24-4.45-1.78-4.45-4.24M151.65,58.08c0-1.02-.63-2.14-2.06-2.14s-2.04,1.12-2.04,2.14.61,2.13,2.04,2.13,2.06-1.06,2.06-2.13"/><path class="cls-3" d="M161.46,62.14v-4.3c0-1.25-.54-1.9-1.68-1.9-1.1-.02-1.85.94-1.85,2v4.2h-2.34v-8.15h2.14l.08,1.04c.73-.94,1.65-1.25,2.64-1.24,1.83,0,3.4.86,3.4,4.02v4.32h-2.39Z"/><rect class="cls-3" x="169.93" y="50.59" width="2.56" height="11.54"/><path class="cls-3" d="M180.57,62.14v-4.3c0-1.25-.54-1.9-1.68-1.9-1.1-.02-1.85.94-1.85,2v4.2h-2.34v-8.15h2.14l.08,1.04c.73-.94,1.65-1.25,2.64-1.24,1.83,0,3.4.86,3.4,4.02v4.32h-2.39Z"/><path class="cls-3" d="M192.01,61.07c-.97.96-2.14,1.25-3.18,1.25-2.37,0-4.45-1.3-4.45-4.24,0-2.74,2.06-4.27,4.44-4.27,1.19,0,2.13.26,2.95,1.12l-1.32,1.5c-.49-.38-1.04-.48-1.53-.48-1.19,0-2.14.77-2.14,2.13s.99,2.04,2.09,2.04c.53,0,1.25-.21,1.65-.61l1.5,1.55Z"/><path class="cls-3" d="M195.75,60.93c0,1.78-2.7,1.78-2.7,0s2.7-1.78,2.7,0"/></g></svg>