<svg xmlns="http://www.w3.org/2000/svg" viewBox="0 0 257 91"><path d="M45.5.5h166c24.85 0 45 20.15 45 45s-20.15 45-45 45h-166c-24.85 0-45-20.15-45-45s20.15-45 45-45" style="fill:rgba(15,3,42,.24);stroke-width:0"/><path d="M45.5.5h166c24.85 0 45 20.15 45 45s-20.15 45-45 45h-166c-24.85 0-45-20.15-45-45s20.15-45 45-45Z" style="fill:none;stroke:rgba(255,255,255,.2)"/><path d="M90.28 41.33v3.93q0 .705.24 1.08c.16.25.36.4.61.48.25.07.54.11.86.11v.25h-6.16v-.25c.41 0 .78-.09 1.11-.26s.49-.57.49-1.19v-9.23c0-.62-.13-1.05-.39-1.31-.26-.25-.66-.38-1.21-.38v-.25h6.83c.94 0 1.72.18 2.32.54s1.03.8 1.28 1.33.38 1.08.38 1.64c0 .66-.14 1.22-.42 1.67s-.6.81-.96 1.06c-.42.3-.89.53-1.4.68s-1.2.22-2.06.22c-.38 0-.89-.04-1.5-.11Zm0-6.24v5.54c.29.06.57.1.85.1.64 0 1.16-.16 1.56-.47s.68-.7.83-1.16q.24-.69.24-1.38c0-.48-.09-.93-.26-1.33-.18-.41-.46-.74-.86-.99s-.92-.38-1.55-.38c-.23 0-.5.03-.8.08Zm13.21-.92 4.33 11.14c.23.57.51.96.82 1.18.31.21.7.36 1.16.43v.25h-6.1v-.25c.83-.05 1.25-.31 1.25-.79 0-.08-.01-.18-.04-.32s-.06-.28-.1-.44c-.04-.15-.07-.25-.08-.28l-1.08-2.74H99.8l-.92 2.63c-.12.31-.17.6-.17.86 0 .4.12.66.35.8s.51.23.83.28v.25h-3.86v-.25c.4-.04.78-.23 1.13-.56.35-.34.69-.95 1.01-1.85l3.66-10.34h1.67Zm-3.39 7.33h3.21l-1.66-4.34zm15.05-.36h-.41v4.12c0 .49.07.86.22 1.1s.32.4.53.46q.315.105.84.12v.24h-6.05v-.25c.68 0 1.11-.15 1.3-.45s.29-.71.29-1.21v-9.02c0-.62-.13-1.05-.38-1.31-.25-.25-.66-.38-1.22-.38v-.25h6.68c.88 0 1.65.14 2.32.41.66.27 1.17.66 1.52 1.16s.52 1.08.52 1.72c0 .52-.11.99-.33 1.4s-.52.74-.9 1.01c-.38.26-.79.46-1.26.6.6.38 1.18 1.05 1.75 2.01l1.54 2.61c.26.45.5.8.73 1.05.22.25.42.41.59.49s.35.13.55.16v.25h-4.15q-.6-1.095-.93-1.74c-.69-1.35-1.19-2.28-1.5-2.81s-.64-.9-.98-1.14c-.34-.23-.76-.35-1.28-.35Zm.28-6.13h-.7v5.41h.59c1 0 1.76-.24 2.26-.72.51-.48.76-1.17.76-2.08 0-.56-.11-1.03-.33-1.42s-.55-.68-.98-.89c-.43-.2-.97-.31-1.6-.31Zm16.43-.84 4.33 11.14c.23.57.51.96.82 1.18.31.21.7.36 1.16.43v.25h-6.1v-.25c.83-.05 1.25-.31 1.25-.79 0-.08-.01-.18-.04-.32s-.06-.28-.1-.44c-.04-.15-.07-.25-.08-.28l-1.08-2.74h-3.85l-.92 2.63c-.12.31-.17.6-.17.86 0 .4.12.66.35.8s.51.23.83.28v.25h-3.86v-.25c.4-.04.78-.23 1.13-.56.35-.34.69-.95 1.01-1.85l3.66-10.34h1.67Zm-3.4 7.33h3.21l-1.66-4.34zm26.57-7.21v.25c-.34.02-.62.07-.83.13-.22.06-.4.2-.55.42s-.2.54-.16.98l.71 8.65c.05.61.14 1.05.26 1.34s.27.48.45.58.46.19.84.28v.25h-5.91v-.25c.5-.01.88-.14 1.17-.39.28-.25.39-.75.34-1.49l-.63-8.2h-.04l-4.21 10.34h-.31l-4.34-10h-.03l-.57 7.18c-.06.71 0 1.25.15 1.62.16.38.37.62.63.73q.39.165.9.21v.25h-4.37v-.25c.55-.03.97-.26 1.26-.66s.47-1.09.57-2.04l.87-8.15c-.54-.87-1.28-1.38-2.22-1.52v-.25h4.65l3.73 8.47 3.45-8.47h4.2Zm1.52 6.4c0-.87.15-1.71.45-2.51q.45-1.2 1.32-2.1c.58-.6 1.29-1.07 2.12-1.41s1.77-.5 2.82-.5 2.01.17 2.84.51 1.54.81 2.12 1.42q.87.915 1.32 2.1c.45 1.185.45 1.64.45 2.54s-.14 1.73-.43 2.52a6.2 6.2 0 0 1-1.27 2.09c-.56.61-1.26 1.08-2.11 1.43s-1.81.52-2.88.52c-1.15 0-2.16-.2-3.02-.59s-1.56-.91-2.11-1.56-.95-1.36-1.21-2.14-.39-1.56-.39-2.33Zm3.06-.16c0 .87.07 1.74.2 2.58.13.85.47 1.64 1.02 2.38s1.37 1.11 2.47 1.11c1.54 0 2.53-.62 2.97-1.87.43-1.24.65-2.51.65-3.81 0-1.01-.09-1.95-.26-2.83s-.53-1.63-1.07-2.26-1.3-.94-2.29-.94c-1.11 0-1.93.36-2.48 1.07s-.88 1.47-1.01 2.28c-.13.8-.2 1.57-.2 2.29m21.64 6.64v-2.44h-.04c-.94 1.72-2.33 2.58-4.19 2.58q-1.41 0-2.52-.66c-.74-.44-1.29-.99-1.65-1.67-.37-.7-.56-1.82-.56-3.35v-5.42c0-.55-.11-.96-.33-1.25q-.33-.42-1.26-.42v-.25h6.05v.25c-.66 0-1.1.15-1.29.46s-.3.71-.3 1.22v5.75c0 .85.1 1.51.31 2 .15.36.35.66.62.92.26.26.57.45.93.59a3.2 3.2 0 0 0 2.26-.01c.37-.14.7-.35.99-.62s.52-.57.67-.91c.21-.5.31-1.28.31-2.34v-5.37c0-.61-.12-1.05-.37-1.3-.24-.26-.65-.38-1.22-.38v-.24h6.05v.25q-.99 0-1.29.45c-.3.45-.3.71-.3 1.22v9.04c0 .57.11.99.34 1.27s.64.41 1.25.41v.24h-4.46Zm9.6-12.88 7.86 8.3V36.7c0-.78-.16-1.3-.47-1.59-.31-.28-.8-.47-1.44-.56v-.25h4.44v.25c-.49.05-.85.19-1.09.4s-.39.46-.46.75-.1.62-.1 1.01v10.62h-.32l-9.43-9.92v7.25c0 .61.13 1.12.39 1.55q.39.645 1.44.72v.25h-4.6v-.25c1.29-.1 1.93-.74 1.91-1.9V36.5s-.08-.06-.14-.12c-.05-.05-.14-.14-.26-.25-.12-.12-.23-.22-.33-.31-.78-.75-1.47-1.17-2.06-1.26v-.25h4.67Zm12.25 0h9c.41 0 .76-.05 1.03-.16h.25l.07 3.03h-.25c-.13-.89-.34-1.45-.65-1.69s-.68-.36-1.12-.36h-2.4v10.15c0 .34.04.63.11.86.08.24.23.43.46.58s.57.22 1.02.22v.25h-6.06v-.25c.67 0 1.11-.15 1.3-.45s.3-.71.3-1.21V35.11h-2.41c-.41 0-.74.13-1 .39s-.51.81-.75 1.67h-.27l.07-3.03h.25c.27.1.62.16 1.03.16ZM86.63 53.44h2.35q.99 0 1.68.24c.46.16.84.37 1.14.62s.54.53.72.83.3.6.39.88.13.53.16.76.03.39.03.48-.01.25-.03.48-.07.48-.16.76a4 4 0 0 1-.39.88c-.18.3-.42.58-.72.83s-.69.46-1.14.62q-.69.24-1.68.24h-2.35v-7.61Zm.71 6.96h1.46c.5 0 .97-.06 1.41-.19s.82-.32 1.14-.58.58-.59.76-.98c.19-.4.28-.87.28-1.41s-.09-1.02-.28-1.41c-.19-.4-.44-.73-.76-.98-.32-.26-.7-.45-1.14-.58s-.91-.19-1.41-.19h-1.46zm12.08-6.96h4.65v.64h-3.94v2.71h3.7v.64h-3.7v2.97h4.12v.64h-4.82v-7.61Zm10.02 0h.76l2.45 6.67 2.47-6.67h.75l-2.89 7.61h-.71l-2.84-7.61Zm12.18 0h4.65v.64h-3.94v2.71h3.7v.64h-3.7v2.97h4.12v.64h-4.82v-7.61Zm11.1 0h.71v6.96h3.55v.64h-4.26v-7.61Zm9.6 3.8c0-.58.1-1.11.29-1.6q.285-.735.81-1.26c.34-.35.76-.63 1.24-.83s1.02-.3 1.6-.3 1.11.1 1.6.3c.48.2.9.48 1.24.83s.61.78.81 1.26c.19.49.29 1.02.29 1.6s-.1 1.12-.29 1.61-.46.91-.81 1.27c-.34.35-.76.63-1.24.83s-1.02.3-1.6.3-1.11-.1-1.6-.3-.9-.47-1.24-.83c-.34-.35-.61-.78-.81-1.27s-.29-1.03-.29-1.61m.71 0c0 .47.07.91.23 1.32s.37.76.65 1.06.62.54 1.02.71.84.26 1.34.26.94-.09 1.34-.26.74-.41 1.02-.71.49-.66.64-1.06.23-.85.23-1.32-.07-.91-.23-1.32c-.15-.41-.37-.76-.64-1.06-.28-.3-.62-.54-1.02-.71s-.84-.26-1.34-.26-.94.09-1.34.26-.74.41-1.02.71-.49.66-.65 1.06c-.15.41-.23.85-.23 1.32m13.48-3.8h2.19c.26 0 .54.03.83.09s.55.17.79.32.44.36.59.62.23.59.23.98c0 .34-.06.64-.19.89s-.29.46-.5.62-.46.28-.73.36a3.1 3.1 0 0 1-.87.12h-1.64v3.61h-.71v-7.61Zm.71 3.35h1.61c.2 0 .4-.02.59-.07s.37-.12.52-.23c.15-.1.27-.24.36-.41s.14-.38.14-.63-.05-.45-.15-.62-.22-.31-.38-.42c-.15-.11-.33-.19-.53-.24s-.4-.08-.6-.08h-1.57v2.71Zm10.11-3.35h1.06l2.77 6.38 2.77-6.38h1.01v7.61h-.71v-6.71h-.02l-2.9 6.71H171l-2.94-6.71h-.02v6.71h-.71zm14.35 0h4.65v.64h-3.94v2.71h3.7v.64h-3.7v2.97h4.12v.64h-4.82v-7.61Zm11.1 0h.91l4.63 6.66h.02v-6.66h.71v7.61h-.91l-4.63-6.66h-.02v6.66h-.71zm14.78.64h-2.6v-.64h5.91v.64h-2.6v6.96h-.71zM43.55 21.19v48.62h35.91V21.19zm4.87 46.84h-3.36v-.64c1.12-.04 2.24-.07 3.36-.11zm0-1.38c-1.13.04-2.25.09-3.36.13v-.65c1.11-.09 2.23-.16 3.36-.23zm0-1.37c-1.12.05-2.26.14-3.36.23v-.65c1.12-.13 2.23-.24 3.36-.33zm0-1.38c-1.14.09-2.26.21-3.36.33v-.65c1.12-.17 2.23-.31 3.36-.44v.75Zm0-1.38c-1.14.12-2.27.3-3.36.46v-.65c1.12-.22 2.23-.4 3.36-.56zm0-1.39c-1.13.16-2.28.37-3.36.56v-.63c1.12-.26 2.23-.5 3.36-.68zm0-1.38c-1.15.2-2.29.45-3.36.69v-.65c1.12-.3 2.22-.57 3.36-.77zm0-1.36c-1.15.19-2.3.5-3.36.78v-.65c1.12-.35 2.22-.66 3.36-.89v.75Zm0-1.39c-1.16.23-2.31.57-3.36.89v-.64c1.12-.38 2.22-.73 3.36-1zm0-1.38c-1.16.26-2.32.65-3.36 1.01v-.65c1.12-.43 2.22-.81 3.36-1.12v.75Zm0-1.38c-1.15.3-2.33.72-3.36 1.13v-.64c1.12-.48 2.22-.9 3.36-1.22zm0-1.39c-1.17.33-2.34.79-3.36 1.23v-.64c1.12-.52 2.2-.97 3.36-1.32zm0-1.38c-1.16.37-2.35.88-3.36 1.36v-.64c1.12-.56 2.2-1.06 3.36-1.45zm0-1.38c-1.18.38-2.36.94-3.36 1.47v-.63c1.12-.61 2.2-1.15 3.36-1.57zm0-1.37c-1.17.4-2.37.99-3.36 1.55v-.63c1.12-.64 2.2-1.22 3.36-1.68v.75Zm0-1.38c-1.18.44-2.38 1.07-3.36 1.68v-.63c1.12-.69 2.2-1.3 3.36-1.78zm16.22 13.41v-29.8l2.7 2.14v31.93c-4.99-.51-8.91-5.42-8.91-11.39 0-4.18 1.92-7.84 4.78-9.83v3.99c-1.28 1.49-2.07 3.56-2.07 5.84 0 3.04 1.4 5.69 3.49 7.12Zm-5.95-16.22v-3.39a6.984 6.984 0 0 0-1.42-11.01v33.61l-2.73-4.67V26.5c5.01.42 8.94 4.59 8.94 9.68 0 3.55-1.92 6.66-4.78 8.35Zm19.25 23.5h-3.15v-.75c1.04.04 2.1.07 3.15.11zm0-1.25c-1.04-.04-2.09-.09-3.15-.13v-.75c1.06.07 2.1.15 3.15.24zm0-1.26c-1.03-.09-2.09-.18-3.15-.23v-.75c1.06.09 2.09.2 3.15.34zm0-1.28c-1.02-.13-2.08-.25-3.15-.34v-.75c1.06.13 2.09.28 3.15.45zm0-1.25c-1.01-.17-2.08-.34-3.15-.47v-.75c1.06.16 2.09.35 3.15.58V63Zm0-1.28c-1.01-.2-2.08-.42-3.15-.58v-.75c1.06.18 2.09.43 3.15.7zm0-1.25c-.99-.24-2.07-.51-3.15-.71v-.73c1.07.2 2.09.49 3.15.79v.64Zm0-1.26c-.98-.3-2.07-.61-3.15-.81v-.75c1.07.24 2.09.56 3.15.92zm0-1.28c-.97-.33-2.06-.68-3.15-.92v-.75c1.07.28 2.09.63 3.15 1.03zm0-1.25c-.97-.37-2.06-.78-3.15-1.05v-.75c1.07.31 2.09.71 3.15 1.15v.64Zm0-1.26c-.96-.42-2.06-.86-3.15-1.17v-.73c1.07.33 2.09.76 3.15 1.26zm0-1.28c-.95-.46-2.05-.93-3.15-1.28v-.73c1.08.36 2.1.83 3.15 1.37zm0-1.26c-.94-.5-2.05-1.02-3.15-1.4v-.73c1.08.4 2.1.92 3.15 1.5v.64Zm0-1.26c-.93-.55-2.04-1.13-3.15-1.52v-.73c1.08.44 2.1 1 3.15 1.63v.63Zm0-1.28c-.92-.58-2.04-1.2-3.15-1.61v-.75c1.08.47 2.1 1.07 3.15 1.73zm0-1.25c-.91-.62-2.03-1.29-3.15-1.74v-.73c1.08.49 2.1 1.12 3.15 1.84zm0-1.27c-1.16-.87-2.75-1.79-4.14-2.23v22.71h-.88v-.8h-4.14v-.81c1.38.04 2.76.11 4.14.18V65.7c-1.37-.07-2.76-.13-4.14-.18v-.79q2.07.135 4.14.33V63.9c-1.36-.11-2.75-.24-4.14-.35v-.79c1.39.13 2.76.33 4.14.53v-1.16c-1.35-.2-2.75-.4-4.14-.53v-.81c1.39.2 2.76.44 4.14.7v-1.17c-1.33-.24-2.74-.51-4.14-.7v-.79c1.39.24 2.76.53 4.14.86v-1.17c-1.32-.31-2.74-.64-4.14-.88v-.79c1.39.28 2.76.63 4.14 1.05v-1.17c-1.31-.37-2.73-.79-4.14-1.05v-.79c1.39.33 2.76.75 4.14 1.21v-1.17c-1.3-.44-2.73-.9-4.14-1.23v-.79c1.39.37 2.76.86 4.14 1.41v-1.19c-1.29-.48-2.71-1.03-4.14-1.41v-.77c1.4.42 2.76.95 4.14 1.56v-1.17c-1.28-.55-2.71-1.17-4.14-1.6v-.77c1.4.46 2.76 1.06 4.14 1.74v-1.17c-1.27-.61-2.7-1.3-4.14-1.76v-.79c1.4.53 2.76 1.19 4.14 1.94v-1.19c-1.25-.66-2.7-1.41-4.14-1.94v-.77c1.4.55 2.76 1.28 4.14 2.09v-1.16c-1.23-.75-2.69-1.56-4.14-2.13v-.77c1.4.62 2.76 1.39 4.14 2.26v-1.17c-1.22-.79-2.69-1.67-4.14-2.31v-.77c1.42.66 2.76 1.49 4.14 2.46v-1.17c-1.21-.88-2.68-1.83-4.14-2.48v-.77c1.42.7 2.76 1.61 4.14 2.62v-1.16c-1.2-.92-2.68-1.96-4.14-2.66v-.77c1.42.75 2.75 1.72 4.14 2.79v-1.17c-1.19-.99-2.67-2.07-4.14-2.84v-.77c1.42.81 2.75 1.82 4.14 2.99v-1.17c-1.17-1.06-2.67-2.22-4.14-3.03v-.75c1.42.83 2.75 1.91 4.14 3.14v-1.17c-1.16-1.12-2.66-2.35-4.14-3.21v-.75c1.43.9 2.75 2.04 4.14 3.32v-1.17c-1.15-1.16-2.66-2.46-4.14-3.36v-.77c1.43.94 2.75 2.15 4.14 3.52v-1.17c-1.14-1.25-2.65-2.62-4.14-3.56v-.75c1.43.99 2.75 2.24 4.14 3.67v-1.17c-1.38-1.6-3.34-3.39-5.14-4.33-.14-.07-.47-.25-.59-.31s-.3-.15-.56-.25c-1.89-.68-7.02-2.01-11.96.28-.05.02-.19.09-.2.1-1.4.87-2.99 2.8-4.08 4.51v1.17c1.03-1.43 2.02-2.68 3.07-3.67v.75c-1.11.95-2.23 2.31-3.07 3.56v1.17c1.03-1.36 2.02-2.57 3.07-3.52v.77c-1.1.9-2.22 2.2-3.07 3.36v1.17c1.03-1.27 2.02-2.42 3.07-3.32v.75c-1.1.86-2.21 2.09-3.07 3.21v1.17c1.03-1.23 2.02-2.31 3.07-3.14v.75c-1.09.81-2.2 1.98-3.07 3.03v1.17c1.03-1.17 2.02-2.18 3.07-2.99v.77c-1.09.77-2.19 1.85-3.07 2.84v1.17c1.03-1.08 2.02-2.04 3.07-2.79v.77c-1.08.7-2.19 1.74-3.07 2.66v1.16c1.02-1.01 2.02-1.91 3.07-2.62v.77c-1.08.66-2.18 1.61-3.07 2.48v1.17c1.02-.97 2.02-1.8 3.07-2.46v.77c-1.08.64-2.17 1.52-3.07 2.31v1.17c1.02-.88 2.03-1.65 3.07-2.26v.77c-1.08.57-2.16 1.39-3.07 2.13v1.16c1.02-.81 2.03-1.54 3.07-2.09v.77c-1.07.53-2.14 1.28-3.07 1.94v1.19c1.02-.75 2.03-1.41 3.07-1.94v.79c-1.07.46-2.13 1.14-3.07 1.76v1.17c1.02-.68 2.03-1.28 3.07-1.74v.77c-1.06.44-2.13 1.05-3.07 1.6v1.17c1.02-.62 2.03-1.14 3.07-1.56v.77c-1.06.37-2.12.92-3.07 1.41v1.19c1.02-.55 2.04-1.03 3.07-1.41v.79c-1.05.33-2.11.79-3.07 1.23v1.17c1.02-.46 2.04-.88 3.07-1.21v.79c-1.05.26-2.1.68-3.07 1.05v1.17c1.02-.42 2.04-.77 3.07-1.05v.79c-1.04.24-2.09.57-3.07.88v1.17c1.02-.33 2.04-.62 3.07-.86v.79c-1.04.2-2.08.46-3.07.7v1.17c1.02-.26 2.04-.51 3.07-.7v.81c-1.03.13-2.07.33-3.07.53v1.16c1.02-.2 2.04-.4 3.07-.53v.79c-1.03.11-2.07.24-3.07.35v1.16c1.02-.13 2.05-.24 3.07-.33v.79c-1.02.04-2.06.11-3.07.18v1.16c1.02-.07 2.05-.13 3.07-.18v.81h-3.07v.79h-.88V45.57c-1.49.43-3.19 1.31-4.45 2.17V22.7h32.88v25.1Z" style="stroke-width:0;fill:#fff"/></svg>