<?xml version="1.0" encoding="UTF-8"?><svg id="Layer_2" xmlns="http://www.w3.org/2000/svg" viewBox="0 0 257 91"><defs><style>.cls-1{fill:rgba(15,3,42,.24);}.cls-1,.cls-2{stroke-width:0px;}.cls-2{fill:#fff;}.cls-3{fill:none;stroke:rgba(255,255,255,.2);}</style></defs><g id="Layer_1-2"><path class="cls-1" d="M45.5.5h166c24.85,0,45,20.15,45,45h0c0,24.85-20.15,45-45,45H45.5C20.65,90.5.5,70.35.5,45.5h0C.5,20.65,20.65.5,45.5.5Z"/><path class="cls-3" d="M45.5.5h166c24.85,0,45,20.15,45,45h0c0,24.85-20.15,45-45,45H45.5C20.65,90.5.5,70.35.5,45.5h0C.5,20.65,20.65.5,45.5.5Z"/><path class="cls-2" d="M110.15,54.76c.23,0,.45-.01.67-.05.15-.02.28-.09.39-.19.1-.1.16-.23.18-.36.03-.19.05-.39.05-.59v-7.48c0-.16-.01-.33-.05-.48-.03-.12-.09-.22-.18-.3-.11-.08-.25-.14-.39-.16-.17-.03-.39-.05-.67-.08v-.39c.2.01.39.02.58.02s.38,0,.57,0c.37,0,.73,0,1.09-.02.36-.02.72-.02,1.08-.02,2.84,0,4.27.87,4.27,2.62,0,.56-.18,1.11-.52,1.56-.41.49-.95.86-1.56,1.06.49.79.94,1.48,1.35,2.08.41.6.79,1.1,1.13,1.51.28.34.6.65.96.92.24.2.54.32.85.34h.05v.39c-.2,0-.39-.01-.56-.01h-1.15c-.21,0-.44,0-.67.03-.73-.72-1.85-2.37-3.35-4.94h-.4c-.33,0-.66-.02-.98-.06v2.84c0,.35,0,.63.02.86,0,.19.05.37.14.54.08.14.22.24.37.28.23.06.47.09.7.08h.06v.4c-.56-.03-1.17-.05-1.84-.05-.77,0-1.49.02-2.19.05v-.39h0ZM112.89,49.6c.22.06.46.09.69.09.86,0,1.52-.2,1.98-.61.47-.42.72-1.02.69-1.64,0-1.51-.88-2.27-2.65-2.27-.24,0-.48.02-.72.05v4.39h0Z"/><path class="cls-2" d="M120.45,54.76c.23,0,.45-.01.67-.05.15-.02.28-.09.4-.19.1-.1.17-.23.19-.37.03-.19.05-.39.05-.59v-7.49c0-.16-.01-.33-.05-.49-.03-.12-.09-.22-.18-.3-.12-.09-.25-.14-.4-.16-.17-.03-.4-.06-.69-.08v-.37c.48.01.96.02,1.44.02.48,0,.97,0,1.48,0,1.02,0,1.88,0,2.6-.01s1.3-.02,1.74-.03v2.32h-.31c0-.3-.08-.6-.2-.88-.1-.23-.27-.42-.48-.55-.24-.15-.51-.24-.79-.28-.38-.06-.76-.09-1.15-.08h-1.57v4.19h1.93c.46,0,.79-.09.98-.26.19-.17.3-.51.31-1h.4c-.05.46-.08.92-.09,1.38,0,.31,0,.63.03.97s.05.68.08,1.04h-.39v-.12c0-.25-.02-.5-.1-.73-.06-.17-.17-.31-.31-.4-.18-.1-.37-.16-.58-.17-.29-.03-.59-.04-.88-.04h-1.38v3.12c0,.27.02.54.09.81.05.19.16.35.32.46.19.11.41.18.64.2.35.03.7.05,1.05.04.38,0,.77-.02,1.15-.07.29-.04.58-.13.84-.26.25-.14.46-.33.62-.56.2-.3.37-.62.49-.97l.36.11c-.13.32-.24.64-.33.97-.11.38-.22.83-.31,1.34-1.52-.04-2.74-.07-3.67-.08-.93-.01-1.58-.02-1.95-.02h-1.01c-.33,0-.67,0-1.01.02v-.39h-.02Z"/><path class="cls-2" d="M129.33,54.76c.33,0,.65-.07.95-.19.23-.09.42-.26.53-.49.15-.33.24-.69.25-1.05.03-.42.05-.92.08-1.49l.23-4.72v-.27c0-.23-.02-.46-.06-.69-.03-.16-.11-.32-.22-.44-.12-.12-.27-.21-.43-.25-.23-.06-.47-.09-.71-.11v-.39c.2.02.41.03.62.03h1.38c.18,0,.37,0,.55-.03l4.01,8.36,3.98-8.36c.16.02.31.03.47.03h.58c.67,0,1.15-.02,1.44-.05v.37c-.23,0-.46.03-.69.08-.15.03-.28.1-.39.2-.09.1-.15.22-.17.36-.03.18-.04.36-.04.54v.27l.1,5.81c0,.46.02.84.05,1.15,0,.26.07.52.17.76.09.19.26.34.46.42.28.1.58.14.88.13h.11v.39c-.36-.02-.73-.03-1.1-.04-.37,0-.76,0-1.15,0-.72,0-1.5.02-2.35.05v-.39h.17c.22,0,.45-.02.67-.06.16-.03.3-.1.42-.2.11-.11.19-.24.23-.39.05-.2.07-.41.07-.62v-.66l-.09-6.32c-1.15,2.29-2.07,4.16-2.75,5.61-.51,1.03-.96,2.09-1.34,3.17h-.31l-4.01-8.45-.14,4.82c-.01.18-.02.33-.02.46v1.11c0,.56.09.96.27,1.2.18.24.52.36,1.03.36h.15v.36c-.36-.02-.7-.04-1.03-.05s-.64-.02-.92-.02c-.31,0-.62,0-.94.02-.32.01-.64.03-.95.05v-.39h-.02Z"/><path class="cls-2" d="M144.29,54.76c.23,0,.45-.01.67-.05.15-.02.28-.09.39-.19.1-.1.16-.23.18-.36.03-.19.05-.39.05-.59v-7.48c0-.16-.01-.33-.05-.48-.03-.12-.09-.22-.18-.3-.11-.08-.25-.14-.39-.16-.17-.03-.39-.05-.67-.08v-.39c.61.03,1.29.04,2.02.05h1c.33,0,.66-.01,1-.04v.39c-.25,0-.5.03-.74.1-.15.04-.29.13-.38.26-.09.14-.14.31-.15.48-.02.2-.03.45-.03.75v6.33c0,.35,0,.64.02.86,0,.19.05.37.14.54.08.14.22.24.37.28.23.06.47.09.7.08h.06v.4c-.56-.03-1.17-.05-1.84-.05-.77,0-1.49.02-2.19.05v-.39h0Z"/><path class="cls-2" d="M149.12,44.72c.37,0,.71,0,1.03.02s.62.02.9.02h.96c.32,0,.64,0,.96-.02v.34h-.05c-.22-.01-.44.02-.65.1-.14.06-.26.17-.34.31-.08.18-.13.37-.14.57-.02.24-.02.53-.02.87v3.56c0,.52.02,1.03.08,1.54.04.42.15.83.31,1.21.2.47.54.86.97,1.12.47.27,1.01.41,1.56.4.5,0,.99-.12,1.42-.37.4-.22.72-.56.92-.97.14-.3.23-.63.25-.96.03-.34.05-.71.05-1.11v-4.22c0-.41,0-.75-.03-1.01,0-.22-.07-.43-.17-.62-.1-.15-.25-.26-.43-.31-.25-.07-.52-.1-.78-.09v-.36h3.36v.34c-.21,0-.43.06-.62.14-.15.07-.28.2-.35.35-.09.19-.14.4-.15.61-.02.24-.03.54-.03.89v4.19c0,1.4-.31,2.43-.94,3.09-.63.66-1.63.99-3.01.99s-2.33-.34-2.93-1.02c-.59-.68-.89-1.75-.89-3.21v-4.29c0-.33,0-.6-.02-.82,0-.18-.05-.36-.14-.52-.09-.14-.22-.23-.37-.28-.23-.06-.47-.09-.7-.08v-.37h0Z"/><path class="cls-2" d="M159.63,54.76c.33,0,.65-.07.95-.19.23-.09.42-.26.53-.49.15-.33.24-.69.25-1.05.03-.42.05-.92.08-1.49l.23-4.72v-.27c0-.23-.02-.46-.06-.69-.03-.16-.11-.32-.22-.44-.12-.12-.27-.21-.43-.25-.23-.06-.47-.09-.71-.11v-.39c.2.02.41.03.62.03h1.38c.18,0,.37,0,.55-.03l4.01,8.36,3.98-8.36c.16.02.31.03.47.03h.58c.67,0,1.15-.02,1.44-.05v.37c-.23,0-.46.03-.69.08-.15.03-.28.1-.39.2-.09.1-.15.22-.17.36-.03.18-.04.36-.04.54v.27l.1,5.81c0,.46.02.84.05,1.15,0,.26.07.52.17.76.09.19.26.34.46.42.28.1.58.14.88.13h.11v.39c-.36-.02-.73-.03-1.1-.04-.37,0-.76,0-1.15,0-.72,0-1.5.02-2.35.05v-.39h.17c.22,0,.45-.02.67-.06.16-.03.3-.1.42-.2.11-.11.19-.24.23-.39.05-.2.07-.41.07-.62v-.66l-.09-6.32c-1.15,2.29-2.07,4.16-2.75,5.61-.51,1.03-.96,2.09-1.34,3.17h-.31l-4.01-8.45-.14,4.82c-.01.18-.02.33-.02.46v1.11c0,.56.09.96.27,1.2.18.24.52.36,1.03.36h.15v.36c-.36-.02-.7-.04-1.03-.05s-.64-.02-.92-.02c-.31,0-.62,0-.94.02-.32.01-.64.03-.95.05v-.39h-.02Z"/><path class="cls-2" d="M95.64,65.07h.12c.13,0,.26,0,.39-.03.09-.01.17-.05.23-.11.06-.06.1-.14.11-.23.02-.12.03-.24.03-.36v-4.98h-.93c-.18,0-.35,0-.53.03-.13.02-.25.06-.36.12-.1.06-.18.15-.23.26-.06.14-.11.29-.12.44h-.23l.1-1.45h.19c.06.12.18.2.32.21.19.02.39.03.59.03h3.09c.29,0,.59-.01.88-.06.2-.04.3-.1.31-.2h.2l-.07,1.39h-.23v-.06c0-.13-.02-.27-.06-.4-.03-.09-.1-.17-.19-.21-.11-.05-.23-.08-.35-.08-.15-.01-.32-.02-.53-.02h-.99v4.57c0,.22,0,.4.01.55,0,.12.03.24.08.35.05.09.13.15.23.18.14.04.28.06.42.06h.12v.24c-.24-.01-.47-.02-.69-.02h-.67c-.26,0-.68,0-1.24.03v-.25Z"/><path class="cls-2" d="M100.32,65.07c.14,0,.27,0,.41-.03.09-.02.17-.05.23-.11.06-.06.1-.14.11-.23.02-.12.03-.24.03-.36v-4.5c0-.1,0-.2-.03-.29-.01-.07-.05-.13-.11-.18-.07-.05-.15-.08-.23-.09-.1-.02-.24-.03-.41-.05v-.23c.37.02.77.03,1.22.03h.61c.2,0,.4,0,.61-.02v.23c-.15,0-.31.02-.46.06-.09.02-.17.08-.23.16-.05.09-.08.19-.09.29-.01.12-.02.27-.02.46v3.82c0,.21,0,.38.01.52,0,.11.03.22.09.32.05.08.13.15.23.17.14.04.28.05.42.05h.04v.24c-.34-.02-.71-.03-1.11-.03-.46,0-.9,0-1.32.03v-.25Z"/><path class="cls-2" d="M104.73,65.07h.11c.13,0,.26,0,.39-.03.09-.01.17-.05.23-.11.06-.06.1-.14.11-.23.02-.12.03-.24.03-.36v-4.98h-.93c-.18,0-.35,0-.53.03-.13.02-.25.06-.36.12-.1.06-.18.15-.23.26-.06.14-.11.29-.12.44h-.23l.1-1.45h.19c.06.12.18.2.32.21.19.02.39.03.59.03h3.09c.29,0,.59-.01.88-.06.2-.04.3-.1.31-.2h.19l-.07,1.39h-.23v-.06c0-.13-.02-.27-.06-.4-.03-.09-.1-.17-.19-.21-.11-.05-.23-.08-.35-.08-.15-.01-.32-.02-.53-.02h-.99v4.57c0,.22,0,.4.01.55,0,.12.03.24.08.35.05.09.13.15.23.18.14.04.28.06.42.06h.12v.24c-.24-.01-.47-.02-.69-.02h-.67c-.26,0-.68,0-1.24.03v-.25Z"/><path class="cls-2" d="M109.35,65.09h.09c.14,0,.29-.01.42-.05.09-.02.18-.07.23-.15.05-.09.08-.18.08-.28,0-.12.01-.27.01-.45v-4.32c0-.1,0-.2-.03-.29-.02-.07-.05-.13-.11-.18-.07-.05-.15-.08-.23-.09-.11-.02-.24-.03-.41-.05v-.23c.49.02.96.03,1.42.03h.66c.17,0,.29-.01.36-.02v.23c-.15,0-.31.02-.46.06-.09.02-.17.08-.23.16-.05.09-.08.19-.09.29-.01.12-.02.27-.02.46v3.82c0,.16.01.32.05.48.03.11.09.22.17.3.1.08.21.13.34.15.18.03.37.05.56.05.29,0,.54,0,.76-.03.19-.01.38-.06.55-.14.16-.08.29-.19.39-.34.12-.19.21-.39.26-.6l.21.05-.34,1.38c-1.54-.02-2.49-.03-2.85-.03-.33,0-.64,0-.94,0-.3,0-.59,0-.86.03v-.23h0Z"/><path class="cls-2" d="M114.78,65.07c.14,0,.27,0,.41-.03.09-.02.16-.06.23-.11.06-.06.1-.14.11-.23.02-.12.03-.24.03-.36v-4.51c0-.1,0-.2-.03-.29-.01-.07-.05-.13-.11-.18-.07-.05-.15-.08-.23-.09-.11-.02-.24-.03-.41-.05v-.23h.87s.9.01.9.01h1.57l1.05-.02v1.4h-.19c0-.18-.04-.36-.12-.53-.06-.14-.16-.25-.29-.34-.15-.09-.31-.15-.48-.17-.23-.04-.46-.05-.69-.05h-.95v2.52h1.17c.21.02.42-.04.59-.16.14-.17.21-.38.19-.6h.24c-.03.28-.05.55-.06.83,0,.19,0,.38.02.58.01.2.03.41.05.63h-.23v-.07c0-.15-.02-.3-.06-.44-.03-.1-.1-.19-.19-.24-.11-.06-.23-.1-.35-.1-.18-.02-.36-.02-.53-.02h-.83v1.88c0,.16.01.33.06.49.03.11.1.21.2.27.12.07.25.11.39.12.21.02.42.03.63.03.23,0,.46-.01.69-.04.18-.02.35-.08.51-.16.15-.08.28-.2.38-.34.12-.18.22-.38.29-.58l.22.06c-.08.19-.14.38-.2.58-.07.23-.13.5-.19.81-.92-.02-1.66-.04-2.22-.05h-1.8s-.61.02-.61.02v-.23h0Z"/><path class="cls-2" d="M127.07,64.07c-.19.23-.36.43-.53.6-.15.16-.32.3-.51.42-.16.11-.34.19-.52.25-.18.06-.37.09-.56.08-.26,0-.51-.04-.75-.14-.22-.09-.42-.22-.58-.39-.16-.16-.29-.36-.38-.57-.09-.23-.13-.47-.13-.71-.01-.42.12-.83.36-1.17.31-.39.69-.7,1.13-.92-.21-.16-.4-.36-.55-.59-.12-.19-.18-.41-.18-.63,0-.17.04-.35.11-.51.07-.16.17-.29.3-.41.13-.12.29-.21.46-.28.18-.07.37-.1.56-.1.33-.02.65.08.92.28.22.17.35.43.35.71,0,.24-.09.48-.25.67-.2.24-.45.44-.73.58.36.27.69.56,1.01.88.32.33.61.68.88,1.04.36-.42.69-.86.97-1.34.13-.2.23-.43.29-.66.01-.1-.04-.2-.14-.24-.14-.05-.28-.08-.42-.08v-.23h.57s.57.01.57.01c.42,0,.83,0,1.22-.03v.24c-.15,0-.31,0-.46.03-.12.02-.24.05-.35.1-.11.05-.22.11-.32.19-.1.08-.19.17-.27.27-.1.12-.27.35-.52.69s-.58.77-1.01,1.29c.19.27.37.5.53.69.14.18.3.35.46.51.13.12.27.23.43.31.14.07.29.1.44.1.4-.02.77-.23.98-.57l.14.14c-.2.29-.45.55-.74.76-.25.16-.54.25-.83.24-.37,0-.72-.14-1-.39-.37-.34-.69-.72-.95-1.14ZM126.94,63.82c-.34-.43-.71-.85-1.1-1.24-.32-.33-.67-.64-1.04-.92-.3.17-.56.4-.76.67-.17.24-.25.53-.25.82,0,.21.04.42.13.61.16.38.46.69.84.87.18.09.38.13.59.13.3,0,.59-.08.84-.23.29-.19.54-.43.75-.71h0ZM125.36,61.13c.37-.21.59-.61.59-1.03.02-.23-.06-.45-.2-.62-.29-.29-.76-.29-1.05,0-.14.14-.22.34-.21.54,0,.22.08.42.23.58.19.21.41.39.65.53h0Z"/><path class="cls-2" d="M133.72,65.07c.14,0,.27,0,.41-.03.09-.02.16-.06.23-.11.06-.06.1-.14.11-.23.02-.12.03-.24.03-.36v-4.51c0-.1,0-.2-.03-.29-.01-.07-.05-.13-.11-.18-.07-.05-.15-.08-.23-.09-.11-.02-.24-.03-.41-.05v-.23h.87s.9.01.9.01h1.57l1.05-.02v1.4h-.19c0-.18-.04-.36-.12-.53-.06-.14-.16-.25-.29-.34-.15-.09-.31-.15-.48-.17-.23-.04-.46-.05-.69-.05h-.95v2.52h1.17c.21.02.42-.04.59-.16.14-.17.21-.38.19-.6h.24c-.03.28-.05.55-.06.83,0,.19,0,.38.02.58.01.2.03.41.05.63h-.23v-.07c0-.15-.02-.3-.06-.44-.03-.1-.1-.19-.19-.24-.11-.06-.23-.1-.35-.1-.18-.02-.36-.02-.53-.02h-.83v1.88c0,.16.01.33.06.49.03.11.1.21.2.27.12.07.25.11.39.12.21.02.42.03.63.03.23,0,.46-.01.69-.04.18-.02.35-.08.51-.16.15-.08.28-.2.38-.34.12-.18.22-.38.29-.58l.22.06c-.08.19-.14.38-.2.58-.07.23-.13.5-.19.81-.92-.02-1.66-.04-2.22-.05h-2.4s0-.22,0-.22h-.01Z"/><path class="cls-2" d="M139.25,63.76h.22c.09.37.27.72.55.99.22.21.52.33.83.34.17,0,.34-.03.5-.08.29-.11.53-.33.64-.62.06-.16.09-.32.09-.49,0-.17-.03-.33-.1-.48-.07-.14-.16-.26-.28-.36-.13-.12-.27-.22-.42-.3-.16-.09-.34-.2-.54-.32-.2-.11-.39-.24-.57-.37-.15-.11-.29-.24-.41-.39-.11-.14-.19-.29-.24-.46-.06-.18-.08-.38-.08-.57,0-.25.04-.49.14-.72.09-.21.22-.4.39-.55.17-.16.38-.28.6-.36.25-.09.51-.13.78-.13.16,0,.33.01.49.03.18.02.38.05.61.09l.14,1.15h-.2c-.03-.28-.17-.53-.38-.71-.21-.17-.48-.26-.76-.25-.15,0-.29.02-.43.08-.13.05-.24.12-.34.22-.1.09-.18.21-.23.33-.05.13-.08.27-.08.41,0,.17.02.33.08.49.05.14.13.27.23.38.11.12.23.22.37.31.16.11.33.21.51.3.17.1.35.19.54.29.19.1.37.23.52.39.31.31.47.74.46,1.18,0,.26-.05.51-.15.75-.1.23-.24.43-.42.6-.19.17-.42.31-.67.39-.28.1-.57.14-.86.14-.47.01-.93-.1-1.35-.33l-.17-1.34Z"/><path class="cls-2" d="M149.37,64.94c-.64.32-1.35.48-2.07.48-.87.04-1.72-.27-2.36-.86-.31-.3-.56-.66-.73-1.06-.18-.42-.27-.86-.27-1.32,0-.45.09-.9.27-1.31.19-.42.45-.79.79-1.1.65-.6,1.51-.91,2.39-.88.71.01,1.41.17,2.05.46.02.19.04.4.06.61.01.21.02.44.04.67h-.17c-.08-.43-.3-.82-.63-1.1-.37-.25-.81-.38-1.26-.35-.56-.02-1.1.17-1.54.52-.33.26-.59.6-.76.98-.18.4-.27.83-.26,1.26,0,.59.14,1.17.42,1.69.22.43.54.8.94,1.08.37.25.81.37,1.26.36.91.05,1.7-.6,1.84-1.5l.2.05-.2,1.32Z"/><path class="cls-2" d="M150.36,65.07c.14,0,.27,0,.41-.03.09-.02.17-.05.23-.11.06-.06.1-.14.11-.23.02-.12.03-.24.03-.36v-4.5c0-.1,0-.2-.03-.29-.01-.07-.05-.13-.11-.18-.07-.05-.15-.08-.23-.09-.1-.02-.24-.03-.41-.05v-.23h.35s.34.01.34.01c.22,0,.44,0,.66-.01.22,0,.43-.01.65-.01,1.72,0,2.58.53,2.58,1.58,0,.34-.11.67-.32.94-.25.3-.57.52-.94.64.3.48.57.89.81,1.26s.48.67.69.92c.17.21.36.4.58.56.15.12.33.18.51.19h.03v.23c-.12,0-.23,0-.34,0h-.69c-.13,0-.26,0-.4.02-.44-.43-1.12-1.43-2.03-2.98h-.24c-.2,0-.4,0-.6-.03v1.71c0,.21,0,.38.01.52,0,.11.03.22.09.32.05.08.13.15.23.17.14.04.28.05.42.05h.04v.24c-.34-.02-.71-.03-1.11-.03-.46,0-.9,0-1.32.03v-.25ZM152.01,61.95c.14.04.28.06.42.06.43.03.86-.1,1.2-.37.28-.25.44-.61.42-.99,0-.92-.54-1.38-1.61-1.38-.15,0-.29,0-.43.03v2.65h0Z"/><path class="cls-2" d="M160.01,65.42c-.83.02-1.63-.3-2.23-.88-.33-.31-.59-.68-.76-1.09-.34-.82-.35-1.74-.03-2.57.16-.39.39-.75.69-1.05.57-.63,1.39-.98,2.24-.96.84-.02,1.66.3,2.26.9.66.61,1.03,1.47,1.02,2.37,0,.71-.22,1.4-.63,1.97-.57.85-1.54,1.34-2.56,1.31ZM157.73,61.97c0,.77.23,1.51.66,2.14.2.31.46.57.77.76.3.16.63.24.97.23.29,0,.57-.07.83-.2.26-.13.49-.32.67-.55.2-.25.35-.54.44-.85.11-.35.16-.72.16-1.09,0-.65-.15-1.29-.44-1.87-.19-.4-.49-.74-.86-1-.33-.22-.72-.34-1.12-.34-.28,0-.56.07-.81.2-.26.13-.48.32-.66.56-.2.26-.35.56-.44.87-.12.38-.17.77-.17,1.16h0Z"/><path class="cls-2" d="M166.85,65.42l-2.23-5.46c-.04-.11-.09-.21-.15-.31-.05-.08-.11-.16-.18-.22-.07-.06-.16-.1-.25-.13-.12-.03-.25-.06-.38-.06v-.23c.22.02.5.03.84.03.49,0,.97,0,1.46-.03v.23c-.14,0-.28.03-.42.07-.08.02-.14.09-.14.18,0,.08.02.16.06.23.04.09.08.2.13.33l1.69,4.25.9-2-1.05-2.45c-.04-.1-.09-.19-.14-.28-.04-.07-.09-.13-.15-.18-.06-.05-.13-.08-.21-.1-.1-.02-.2-.03-.3-.03h-.09v-.23h.66s.44.01.44.01h1.09s0,.22,0,.22c-.12,0-.25.03-.36.07-.07.03-.12.1-.12.18,0,.05.01.1.03.14.02.05.04.11.07.18l.6,1.45.62-1.38c.05-.11.08-.23.08-.34,0-.19-.2-.28-.61-.28v-.23h.46s.4.01.4.01h.94s0,.22,0,.22c-.19-.01-.38.06-.52.2-.15.17-.28.37-.37.58l-.81,1.72,1.05,2.43,1.45-3.9c.06-.16.11-.33.15-.5.02-.1.04-.19.05-.29,0-.15-.23-.23-.69-.24v-.26c.15.01.31.02.46.03.15,0,.29,0,.41,0h.38l.48-.03v.23c-.09,0-.18.03-.27.07-.07.04-.13.09-.18.15-.05.07-.09.15-.13.23-.04.09-.08.19-.12.3l-2.07,5.45h-.28l-1.15-2.68-1.28,2.68h-.29Z"/><path class="cls-2" d="M171.24,66.78c.29-.05.55-.18.76-.38.17-.19.26-.43.26-.69.02-.11-.02-.22-.08-.31-.1-.06-.21-.1-.33-.1-.39-.05-.58-.22-.58-.52,0-.15.06-.29.18-.38.13-.11.29-.16.46-.15.25,0,.5.1.66.29.18.22.27.5.25.78,0,.39-.13.78-.39,1.08-.3.32-.69.53-1.12.62l-.07-.24Z"/><path class="cls-2" d="M176.13,65.09h.1c.14,0,.29-.01.42-.05.09-.02.18-.07.23-.15.05-.09.08-.18.08-.28,0-.12.01-.27.01-.45v-4.32c0-.1,0-.2-.03-.29-.01-.07-.05-.13-.11-.18-.07-.05-.15-.08-.23-.09-.11-.02-.24-.03-.41-.05v-.23c.49.02.96.03,1.42.03h.66c.17,0,.29-.01.36-.02v.23c-.15,0-.31.02-.46.06-.09.02-.17.08-.23.16-.05.09-.08.19-.09.29-.01.12-.02.27-.02.46v3.82c0,.16.01.32.05.48.03.11.09.22.17.3.1.08.21.13.34.15.18.03.37.05.56.05.29,0,.54,0,.76-.03.19-.01.38-.06.55-.14.16-.08.29-.19.39-.34.12-.19.21-.39.26-.6l.21.05-.34,1.38c-1.54-.02-2.49-.03-2.85-.03-.33,0-.64,0-.94,0-.3,0-.59,0-.86.03v-.23h-.02Z"/><path class="cls-2" d="M181.49,65.09h.09c.14,0,.29-.01.42-.05.09-.02.18-.07.23-.15.05-.09.08-.18.08-.28,0-.12.01-.27.01-.45v-4.32c0-.1,0-.2-.03-.29-.01-.07-.05-.13-.11-.18-.07-.05-.15-.08-.23-.09-.11-.02-.24-.03-.41-.05v-.23c.49.02.96.03,1.42.03h.66c.17,0,.29-.01.36-.02v.23c-.15,0-.31.02-.46.06-.09.02-.17.08-.23.16-.05.09-.08.19-.09.29-.01.12-.02.27-.02.46v3.82c0,.16.01.32.05.48.03.11.09.22.17.3.1.08.21.13.34.15.18.03.37.05.56.05.29,0,.54,0,.76-.03.19-.01.38-.06.55-.14.16-.08.29-.19.39-.34.12-.19.21-.39.26-.6l.21.05-.34,1.38c-1.54-.02-2.49-.03-2.85-.03-.33,0-.64,0-.94,0-.3,0-.59,0-.86.03v-.23h0Z"/><path class="cls-2" d="M192.52,64.94c-.64.32-1.35.48-2.07.48-.87.04-1.72-.27-2.36-.86-.31-.3-.56-.66-.73-1.06-.18-.42-.27-.86-.27-1.32,0-.45.09-.9.27-1.31.19-.42.45-.79.79-1.1.65-.6,1.51-.91,2.39-.88.71.01,1.41.17,2.05.46.02.19.04.4.06.61.01.21.02.44.04.67h-.17c-.08-.43-.3-.82-.63-1.1-.37-.25-.81-.38-1.26-.35-.56-.02-1.1.17-1.54.52-.33.26-.59.6-.76.98-.18.4-.27.83-.26,1.26,0,.59.14,1.17.42,1.69.22.43.54.8.94,1.08.37.25.81.37,1.26.36.91.05,1.7-.6,1.84-1.5l.2.05-.2,1.32Z"/><path class="cls-2" d="M124.46,14.9c2.77-1.87,4.35-2.8,4.73-2.8.09,0,.19.04.25.11.06.07.1.17.09.26,0,.2-.2.42-.61.64-.65.36-1.81,1.1-3.48,2.23,1.92,1.08,3.42,2.18,4.52,3.27,1.16,1.2,2.08,2.61,2.7,4.16.69,1.58,1.05,3.29,1.06,5.01,0,2.69-.87,5.31-2.49,7.47-1.51,2.15-3.46,3.95-5.74,5.26-2.21,1.23-4.71,1.87-7.24,1.84-1.84.04-3.64-.48-5.18-1.48-1.01-.65-1.51-1.12-1.51-1.4,0-.11.04-.21.11-.28.06-.08.16-.13.26-.13.14.03.27.09.38.19,1.53,1.21,3.14,1.82,4.84,1.82,2.04,0,3.98-.67,5.83-2.02,1.84-1.35,3.37-3.35,4.58-5.99,1.19-2.55,1.81-5.32,1.82-8.13.01-1.71-.41-3.4-1.23-4.9-.82-1.5-2.1-2.75-3.84-3.76-1.31.98-2.53,2.08-3.63,3.29-1.39,1.56-3.13,4.01-5.22,7.35-1.52,2.39-3.33,5.63-5.45,9.71-2.55,4.92-4.79,8.75-6.73,11.5-3.08,4.39-6.37,8.01-9.87,10.88-3.5,2.86-6.81,4.88-9.91,6.04-2.28.85-4.69,1.29-7.12,1.29-3.18,0-5.57-.64-7.17-1.91s-2.4-2.75-2.4-4.44c0-1.01.28-1.8.83-2.38.59-.59,1.4-.91,2.23-.87.96,0,1.7.26,2.23.79s.79,1.26.79,2.19c0,.52-.13,1.03-.36,1.49-.2.38-.33.8-.36,1.23,0,.81.37,1.49,1.12,2.04.74.55,2.02.83,3.84.83,1.91-.01,3.8-.34,5.6-.98,1.89-.65,3.8-1.76,5.74-3.33,1.93-1.56,3.91-3.77,5.92-6.62,2.7-3.86,5.69-8.8,8.97-14.83,1.87-3.43,3.18-5.75,3.93-6.96,1.6-2.49,3.36-4.87,5.26-7.13,1.7-2.06,3.56-3.99,5.56-5.77,1.67-1.42,3.43-2.75,5.26-3.97-2.05-.94-4.21-1.61-6.43-2-2.42-.46-4.88-.69-7.35-.69-2.93,0-5.85.34-8.7,1.02,2.04,2.24,3.06,5.27,3.06,9.08s-1.09,7.52-3.27,11.44c-2.18,3.92-5.09,6.99-8.72,9.21-3.63,2.22-7.23,3.33-10.79,3.33-2.42,0-4.44-.67-6.05-2-1.61-1.34-2.42-3.44-2.42-6.32,0-2.42.64-4.89,1.93-7.41,1.29-2.52,3.18-5.01,5.68-7.45,2.37-2.36,5.01-4.43,7.87-6.17,2.75-1.66,6.34-3.08,10.74-4.24-2.45-1.87-5.34-2.8-8.66-2.8-3.24,0-6.44.75-9.36,2.16-2.93,1.36-5.57,3.29-7.75,5.68-2.13,2.35-4.22,5.73-6.26,10.14-.04.15-.18.26-.34.26-.07,0-.14-.03-.19-.09-.05-.07-.08-.16-.08-.25,0-.47.55-1.78,1.66-3.93,1-2,2.2-3.89,3.59-5.64,1.38-1.65,2.95-3.12,4.69-4.39,1.93-1.42,4.06-2.54,6.32-3.33,2.43-.88,4.99-1.33,7.57-1.32,1.72-.03,3.43.21,5.07.72,1.46.48,3.06,1.31,4.8,2.5,2.24-.43,3.86-.69,4.84-.79,1.8-.2,3.6-.31,5.41-.3,2.51-.02,5.02.21,7.49.69,2.3.5,4.56,1.2,6.73,2.11ZM99.83,14.18c-2.1.44-4.16,1.04-6.17,1.82-2.84,1.21-5.53,2.74-8.02,4.58-2.59,1.84-4.93,4.02-6.96,6.47-1.94,2.37-3.27,4.55-3.97,6.54-.73,2.02-1.09,3.83-1.09,5.45-.03,1.73.51,3.41,1.53,4.8,1.02,1.39,2.72,2.08,5.09,2.08,2.07.01,4.12-.47,5.97-1.4,2.7-1.36,5.23-3.3,7.6-5.83,2.28-2.42,4.21-5.15,5.74-8.1,1.49-2.85,2.23-6.13,2.23-9.84.03-1.37-.16-2.74-.57-4.05-.37-1.13-.83-1.98-1.39-2.53Z"/></g></svg>