<?xml version="1.0" encoding="UTF-8"?><svg xmlns="http://www.w3.org/2000/svg" xmlns:xlink="http://www.w3.org/1999/xlink" viewBox="0 0 257 91"><defs><style>.cls-1{fill:url(#linear-gradient-6);}.cls-1,.cls-2,.cls-3,.cls-4,.cls-5{mix-blend-mode:multiply;}.cls-1,.cls-2,.cls-3,.cls-4,.cls-5,.cls-6,.cls-7,.cls-8,.cls-9,.cls-10,.cls-11,.cls-12,.cls-13,.cls-14,.cls-15,.cls-16,.cls-17,.cls-18,.cls-19,.cls-20,.cls-21{stroke-width:0px;}.cls-2{fill:url(#linear-gradient-12);}.cls-3{fill:url(#linear-gradient-14);}.cls-4{fill:url(#linear-gradient-15);}.cls-5{fill:url(#linear-gradient-17);}.cls-6{fill:url(#linear-gradient-7);}.cls-6,.cls-13{mix-blend-mode:soft-light;}.cls-7{fill:url(#linear-gradient);}.cls-8{fill:url(#linear-gradient-13);}.cls-9{fill:url(#linear-gradient-10);}.cls-10{fill:url(#linear-gradient-19);}.cls-11{fill:url(#linear-gradient-18);}.cls-12{fill:url(#linear-gradient-5);mix-blend-mode:screen;}.cls-13{fill:url(#linear-gradient-16);}.cls-14{fill:url(#linear-gradient-8);mix-blend-mode:color-burn;}.cls-15{fill:url(#linear-gradient-4);}.cls-16{fill:url(#linear-gradient-2);}.cls-17{fill:url(#linear-gradient-3);}.cls-18{fill:url(#linear-gradient-9);}.cls-22{isolation:isolate;}.cls-19{fill:url(#linear-gradient-11);mix-blend-mode:overlay;}.cls-20{fill:rgba(15,3,42,.24);}.cls-21{fill:#fff;}.cls-23{fill:none;stroke:rgba(255,255,255,.2);}</style><linearGradient id="linear-gradient" x1="-1139.93" y1="1208.68" x2="-1138.68" y2="1208.68" gradientTransform="translate(-808.03 -1326.46) rotate(-77.46)" gradientUnits="userSpaceOnUse"><stop offset=".33" stop-color="#a1a1a1"/><stop offset=".77" stop-color="#40463d"/><stop offset="1" stop-color="#40463d"/></linearGradient><linearGradient id="linear-gradient-2" x1="-1177.14" y1="-1578.3" x2="-1169.8" y2="-1578.3" gradientTransform="translate(-1498.72 1135.42) rotate(92.73)" gradientUnits="userSpaceOnUse"><stop offset="0" stop-color="#cbcac8"/><stop offset="1" stop-color="#94908e"/></linearGradient><linearGradient id="linear-gradient-3" x1="-1946.34" y1="-1414.17" x2="-1940.2" y2="-1414.17" gradientTransform="translate(-2222.43 524.55) rotate(132.41)" gradientUnits="userSpaceOnUse"><stop offset="0" stop-color="#b4b4b5"/><stop offset=".28" stop-color="#d2d5d5"/><stop offset="1" stop-color="#999"/></linearGradient><linearGradient id="linear-gradient-4" x1="-1946.28" y1="-1414.19" x2="-1940.3" y2="-1414.19" gradientTransform="translate(-2222.43 524.55) rotate(132.41)" gradientUnits="userSpaceOnUse"><stop offset="0" stop-color="#dddcda"/><stop offset=".2" stop-color="#eceae7"/><stop offset=".52" stop-color="#dbd9d5"/><stop offset="1" stop-color="#a6a4a1"/></linearGradient><linearGradient id="linear-gradient-5" x1="-1946.28" xlink:href="#linear-gradient-4"/><linearGradient id="linear-gradient-6" x1="-1946.28" y1="-1414.19" x2="-1940.3" y2="-1414.19" gradientTransform="translate(-2222.43 524.55) rotate(132.41)" gradientUnits="userSpaceOnUse"><stop offset="0" stop-color="#dddcda"/><stop offset=".88" stop-color="#a6a4a1"/></linearGradient><linearGradient id="linear-gradient-7" x1="-1949.26" y1="-1416.36" x2="-1924.58" y2="-1416.36" xlink:href="#linear-gradient-4"/><linearGradient id="linear-gradient-8" x1="-1946.4" y1="-1410.96" x2="-1940.25" y2="-1410.96" gradientTransform="translate(-2222.43 524.55) rotate(132.41)" gradientUnits="userSpaceOnUse"><stop offset="0" stop-color="#b4b4b5"/><stop offset="1" stop-color="#d2d5d5"/></linearGradient><linearGradient id="linear-gradient-9" x1="-1177.02" y1="-1576.44" x2="-1166.08" y2="-1576.44" gradientTransform="translate(-1498.72 1135.42) rotate(92.73)" gradientUnits="userSpaceOnUse"><stop offset="0" stop-color="#b2b1af"/><stop offset=".33" stop-color="#dcdbda"/><stop offset="1" stop-color="#848381"/></linearGradient><linearGradient id="linear-gradient-10" x1="-1176.98" y1="-1575.96" x2="-1166.04" y2="-1575.96" gradientTransform="translate(-1498.72 1135.42) rotate(92.73)" gradientUnits="userSpaceOnUse"><stop offset="0" stop-color="#d0cecb"/><stop offset=".24" stop-color="#f7f6f5"/><stop offset="1" stop-color="#d5d4d1"/></linearGradient><linearGradient id="linear-gradient-11" x1="-1177.02" y1="-1575.96" x2="-1166.08" y2="-1575.96" gradientTransform="translate(-1498.72 1135.42) rotate(92.73)" gradientUnits="userSpaceOnUse"><stop offset="0" stop-color="#d0cecb"/><stop offset=".24" stop-color="#f7f6f5"/><stop offset="1" stop-color="#9f9b98"/></linearGradient><linearGradient id="linear-gradient-12" x1="-1175.85" y1="-1575.96" x2="-1166.17" y2="-1575.96" gradientTransform="translate(-1498.72 1135.42) rotate(92.73)" gradientUnits="userSpaceOnUse"><stop offset="0" stop-color="#e1e0df"/><stop offset=".99" stop-color="#a4a3a1"/></linearGradient><linearGradient id="linear-gradient-13" x1="-1941.75" y1="-1412.14" x2="-1942.43" y2="-1411.46" gradientTransform="translate(-2222.43 524.55) rotate(132.41)" xlink:href="#linear-gradient-11"/><linearGradient id="linear-gradient-14" x1="-1941.75" y1="-1412.09" x2="-1942.44" y2="-1411.4" gradientTransform="translate(-2222.43 524.55) rotate(132.41)" xlink:href="#linear-gradient-11"/><linearGradient id="linear-gradient-15" x1="-1941.73" y1="-1412.12" x2="-1942.41" y2="-1411.44" gradientTransform="translate(-2222.43 524.55) rotate(132.41)" gradientUnits="userSpaceOnUse"><stop offset="0" stop-color="#dbd9d8"/><stop offset=".24" stop-color="#f7f6f5"/><stop offset=".98" stop-color="#bab9b6"/></linearGradient><linearGradient id="linear-gradient-16" x1="-1941.77" y1="-1412.16" x2="-1942.45" y2="-1411.48" gradientTransform="translate(-2222.43 524.55) rotate(132.41)" xlink:href="#linear-gradient-11"/><linearGradient id="linear-gradient-17" x1="-1170.03" y1="-1574.04" x2="-1165.99" y2="-1574.04" gradientTransform="translate(-1498.72 1135.42) rotate(92.73)" gradientUnits="userSpaceOnUse"><stop offset="0" stop-color="#dddcda"/><stop offset=".43" stop-color="#eceae7"/><stop offset="1" stop-color="#dbd9d5"/></linearGradient><linearGradient id="linear-gradient-18" x1="132.88" y1="-175.52" x2="134.7" y2="-177.34" gradientTransform="translate(-30.2 195.15) rotate(9.18)" gradientUnits="userSpaceOnUse"><stop offset="0" stop-color="#a1a1a1"/><stop offset=".64" stop-color="#40463d"/><stop offset="1" stop-color="#000"/></linearGradient><linearGradient id="linear-gradient-19" x1="132.88" y1="-175.51" x2="134.7" y2="-177.34" xlink:href="#linear-gradient-18"/></defs><g class="cls-22"><g id="Layer_2"><g id="Layer_1-2"><path class="cls-20" d="M45.5.5h166c24.85,0,45,20.15,45,45h0c0,24.85-20.15,45-45,45H45.5C20.65,90.5.5,70.35.5,45.5h0C.5,20.65,20.65.5,45.5.5Z"/><path class="cls-23" d="M45.5.5h166c24.85,0,45,20.15,45,45h0c0,24.85-20.15,45-45,45H45.5C20.65,90.5.5,70.35.5,45.5h0C.5,20.65,20.65.5,45.5.5Z"/><path class="cls-21" d="M82.02,27.74v-14.42h11.48c1.05,0,1.81.22,2.29.66.48.44.72,1.15.72,2.14v3.21c0,.99-.24,1.7-.72,2.14-.48.44-1.24.66-2.29.66h-9.1v5.62h-2.38ZM92.58,15.2h-8.19v5h8.19c.57,0,.97-.11,1.2-.32.23-.21.35-.61.35-1.18v-2c0-.57-.12-.97-.36-1.18-.24-.21-.64-.32-1.19-.32Z"/><path class="cls-21" d="M102.93,27.74v-14.42h11.48c1.05,0,1.81.22,2.29.66.48.44.72,1.15.72,2.14v3.21c0,.99-.24,1.7-.72,2.14-.48.44-1.24.66-2.29.66h-2.1l5.19,4.47-1.96,1.25-6.05-5.72h-4.19v5.62h-2.38ZM113.49,15.2h-8.19v5.06h8.19c.57,0,.97-.1,1.2-.31.23-.21.35-.6.35-1.17v-2.09c0-.56-.12-.95-.35-1.16-.23-.21-.63-.32-1.2-.32Z"/><path class="cls-21" d="M125.1,23.34v-10.01h2.38v9.61"/><path class="cls-21" d="M136,24.28v-10.96h1.94l6.94,9.39,6.47-9.39h2.21v14.42h-2.21v-9.72l.11-2.12c-.31.67-.6,1.19-.86,1.56l-5.45,8.02h-.61l-5.67-7.79c-.22-.3-.54-.89-.97-1.79.07.56.11,1.27.11,2.12v7.21"/><path class="cls-21" d="M162.07,27.74v-14.42h13.75v1.93h-11.37v4.02h6.94v1.9h-6.94v4.58h11.48v1.98h-13.86Z"/><path class="cls-21" d="M82.02,27.74v-14.42h11.48c1.05,0,1.81.22,2.29.66.48.44.72,1.15.72,2.14v3.21c0,.99-.24,1.7-.72,2.14-.48.44-1.24.66-2.29.66h-9.1v5.62h-2.38ZM92.58,15.2h-8.19v5h8.19c.57,0,.97-.11,1.2-.32.23-.21.35-.61.35-1.18v-2c0-.57-.12-.97-.36-1.18-.24-.21-.64-.32-1.19-.32Z"/><path class="cls-21" d="M102.93,27.74v-14.42h11.48c1.05,0,1.81.22,2.29.66.48.44.72,1.15.72,2.14v3.21c0,.99-.24,1.7-.72,2.14-.48.44-1.24.66-2.29.66h-2.1l5.19,4.47-1.96,1.25-6.05-5.72h-4.19v5.62h-2.38ZM113.49,15.2h-8.19v5.06h8.19c.57,0,.97-.1,1.2-.31.23-.21.35-.6.35-1.17v-2.09c0-.56-.12-.95-.35-1.16-.23-.21-.63-.32-1.2-.32Z"/><path class="cls-21" d="M125.1,23.34v-10.01h2.38v9.61"/><path class="cls-21" d="M136,24.28v-10.96h1.94l6.94,9.39,6.47-9.39h2.21v14.42h-2.21v-9.72l.11-2.12c-.31.67-.6,1.19-.86,1.56l-5.45,8.02h-.61l-5.67-7.79c-.22-.3-.54-.89-.97-1.79.07.56.11,1.27.11,2.12v7.21"/><path class="cls-21" d="M162.07,27.74v-14.42h13.75v1.93h-11.37v4.02h6.94v1.9h-6.94v4.58h11.48v1.98h-13.86Z"/><path class="cls-21" d="M91.04,59.8v12.46h-2.41v-12.46h-6.6v-1.96h15.64v1.96h-6.63Z"/><path class="cls-21" d="M110.13,72.27v-14.42h2.41v14.42h-2.41Z"/><path class="cls-21" d="M130.43,61.24c.02.39.04.82.04,1.31v9.72h-2.04v-10.76M132.73,60.99l.11.15,4.56,6.1,6.55-9.39h2.24v14.42h-2.24v-9.72l.11-2.12c-.32.67-.61,1.19-.87,1.56l-5.51,8.02h-.62l-5.74-7.79c-.15-.21-.36-.55-.61-1.04"/><path class="cls-21" d="M162.09,72.27v-14.42h13.91v1.93h-11.5v4.02h7.02v1.9h-7.02v4.58h11.61v1.98h-14.02Z"/><path class="cls-21" d="M82.89,80.62c-.38,0-.64-.07-.79-.23-.15-.15-.23-.41-.23-.79v-1.9c0-.38.07-.64.23-.79.15-.15.41-.23.79-.23h2.03c.38,0,.63.07.79.22.15.15.23.41.23.79v.48l-.94.17v-.85h-2.18v2.28h2.18v-.94l.94.2v.56c0,.39-.07.65-.23.8s-.41.22-.79.22h-2.03Z"/><path class="cls-21" d="M82.89,80.53c-.35,0-.59-.07-.72-.2-.14-.13-.2-.37-.2-.73v-1.9c0-.36.07-.59.2-.73.14-.13.37-.2.72-.2h2.03c.35,0,.59.06.72.19.13.13.2.37.2.73v.4l-.75.14v-.83h-2.37v2.47h2.37v-.92l.75.16v.49c0,.36-.06.6-.2.73-.13.13-.37.2-.72.2h-2.03Z"/><path class="cls-21" d="M82.89,80.55c-.36,0-.6-.07-.74-.21-.14-.14-.21-.38-.21-.74v-1.9c0-.36.07-.6.21-.74.14-.14.38-.21.74-.21h2.03c.36,0,.6.07.73.2.14.13.2.38.2.74v.42l-.79.15v-.84h-2.33v2.43h2.33v-.92l.79.17v.5c0,.36-.07.61-.2.74-.14.14-.38.2-.73.2h-2.03Z"/><path class="cls-21" d="M85.16,77.33h-2.52v2.62h2.52v-.9l.61.13v.43c0,.33-.06.56-.18.68-.12.12-.34.17-.67.17h-2.03c-.33,0-.55-.06-.67-.18-.12-.12-.18-.34-.18-.67v-1.9c0-.33.06-.56.18-.67.12-.12.34-.18.67-.18h2.03c.33,0,.55.06.67.17.12.11.18.34.18.67v.34l-.61.11v-.82Z"/><path class="cls-21" d="M91.17,80.62c-.38,0-.64-.07-.79-.23-.15-.15-.23-.41-.23-.79v-2.92h.94v3.1h2.31v-3.1h.94v2.92c0,.38-.07.64-.22.79-.15.15-.41.23-.79.23h-2.16Z"/><path class="cls-21" d="M91.17,80.53c-.35,0-.59-.07-.72-.2-.14-.13-.2-.37-.2-.73v-2.83h.75v3.1h2.5v-3.1h.75v2.83c0,.35-.06.59-.2.73-.13.13-.37.2-.72.2h-2.16Z"/><path class="cls-21" d="M91.17,80.55c-.36,0-.6-.07-.74-.21-.14-.14-.21-.38-.21-.74v-2.85h.79v3.1h2.46v-3.1h.79v2.85c0,.36-.07.6-.2.74-.14.14-.38.21-.74.21h-2.16Z"/><path class="cls-21" d="M90.92,76.85v3.1h2.65v-3.1h.61v2.75c0,.33-.06.55-.18.67-.12.12-.34.18-.67.18h-2.16c-.33,0-.55-.06-.67-.18-.12-.12-.18-.34-.18-.67v-2.75h.6Z"/><polygon class="cls-21" points="99.65 80.62 99.65 77.51 97.99 77.51 97.99 76.68 102.26 76.68 102.26 77.51 100.59 77.51 100.59 80.62 99.65 80.62"/><polygon class="cls-21" points="99.74 80.53 99.74 77.41 98.08 77.41 98.08 76.78 102.16 76.78 102.16 77.41 100.49 77.41 100.49 80.53 99.74 80.53"/><polygon class="cls-21" points="99.72 80.55 99.72 77.43 98.06 77.43 98.06 76.76 102.18 76.76 102.18 77.43 100.51 77.43 100.51 80.55 99.72 80.55"/><path class="cls-21" d="M100.42,77.34v3.11h-.6v-3.11h-1.66v-.49h3.93v.49h-1.67Z"/><path class="cls-21" d="M106.76,80.62c-.38,0-.64-.07-.79-.23-.15-.15-.23-.41-.23-.79v-.23l.9-.21v.62h2.37v-.75h-2.11c-.37,0-.63-.07-.78-.23-.15-.15-.23-.41-.23-.79v-.31c0-.39.08-.65.23-.8.15-.15.41-.22.78-.22h1.94c.35,0,.6.07.77.21.17.14.25.39.25.74v.2l-.85.24v-.58h-2.23v.68h2.12c.38,0,.64.08.79.23.15.16.22.41.22.79v.41c0,.38-.07.64-.22.79-.15.15-.41.23-.79.23h-2.12Z"/><path class="cls-21" d="M106.76,80.53c-.35,0-.59-.07-.72-.2-.14-.13-.2-.37-.2-.73v-.16l.71-.17v.6h2.55v-.93h-2.21c-.35,0-.58-.07-.72-.2-.14-.13-.2-.37-.2-.73v-.31c0-.36.07-.6.2-.73.14-.13.37-.2.72-.2h1.94c.33,0,.56.06.71.18.15.13.22.35.22.67v.13l-.67.19v-.55h-2.42v.86h2.21c.35,0,.59.07.72.2.13.14.2.37.2.72v.41c0,.35-.06.59-.2.73-.13.13-.37.2-.72.2h-2.12Z"/><path class="cls-21" d="M106.76,80.55c-.36,0-.6-.07-.74-.21s-.21-.38-.21-.74v-.17l.75-.18v.6h2.52v-.9h-2.19c-.35,0-.59-.07-.73-.2-.14-.14-.21-.38-.21-.74v-.31c0-.37.07-.61.21-.74.14-.14.38-.2.73-.2h1.94c.34,0,.57.06.72.19.15.13.23.36.23.69v.15l-.71.2v-.55h-2.38v.83h2.19c.36,0,.6.07.74.21.14.14.2.38.2.74v.41c0,.36-.07.6-.2.74s-.38.21-.73.21h-2.12Z"/><path class="cls-21" d="M109.16,77.33h-2.57v1.01h2.29c.33,0,.55.06.67.18.12.12.18.34.18.67v.41c0,.33-.06.55-.18.67-.12.12-.34.18-.67.18h-2.12c-.33,0-.55-.06-.67-.18-.12-.12-.18-.34-.18-.67v-.1l.56-.13v.58h2.7v-1.08h-2.28c-.32,0-.55-.06-.66-.18-.12-.12-.18-.34-.18-.67v-.31c0-.34.06-.56.18-.68.12-.12.34-.17.66-.17h1.94c.31,0,.53.06.66.17.13.11.19.32.19.62v.08l-.52.15v-.52Z"/><path class="cls-21" d="M123.53,80.62l-.7-.55-.3.29c-.12.11-.24.19-.36.22-.09.03-.22.04-.4.04h-1.19c-.38,0-.64-.07-.79-.23-.15-.15-.23-.41-.23-.79v-.24c0-.21.04-.37.13-.49.06-.1.19-.2.37-.32l.52-.33c-.13-.16-.2-.34-.2-.51v-.2c0-.3.09-.52.27-.65.16-.12.41-.17.75-.17h.68c.36,0,.61.06.77.19.16.14.24.37.24.71v.33l-.81.16v-.6h-1.05v.28l1.58,1.29.85-.8.55.52-.81.76,1.37,1.11h-1.26ZM121.96,79.83l.26-.25-1.06-.84-.76.53v.56h1.55Z"/><path class="cls-21" d="M123.56,80.53l-.74-.58-.36.35c-.11.1-.21.17-.32.2-.08.03-.2.04-.37.04h-1.19c-.35,0-.59-.07-.72-.2-.14-.13-.2-.37-.2-.73v-.24c0-.19.04-.33.11-.44.06-.09.17-.18.34-.29l.62-.39c-.17-.17-.25-.35-.25-.53v-.2c0-.27.08-.46.23-.57.15-.11.38-.16.69-.16h.68c.34,0,.57.06.71.17.14.12.21.32.21.63v.25l-.63.12v-.58h-1.24v.41l1.68,1.37.85-.79.42.39-.81.76,1.25,1.01h-.96ZM122,79.92l.36-.35-1.19-.95-.85.6v.7h1.68Z"/><path class="cls-21" d="M123.53,80.55l-.71-.58-.35.33c-.11.1-.22.17-.33.2-.08.03-.21.04-.38.04h-1.19c-.36,0-.6-.07-.74-.21-.14-.14-.21-.38-.21-.74v-.24c0-.19.04-.34.12-.45.06-.09.17-.19.35-.3l.6-.38c-.16-.17-.24-.35-.24-.53v-.2c0-.28.08-.48.24-.59.15-.11.38-.16.71-.16h.68c.34,0,.58.06.72.17.15.12.22.33.22.65v.27l-.67.13v-.59h-1.2v.39l1.66,1.35.85-.79.45.42-.81.76,1.28,1.03h-1.05ZM121.96,79.9l.36-.33-1.16-.92-.83.59v.67h1.63Z"/><path class="cls-21" d="M122.41,80.24c-.1.09-.19.15-.29.18-.08.02-.19.03-.35.03h-1.19c-.33,0-.55-.06-.67-.18-.12-.12-.18-.34-.18-.67v-.24c0-.17.03-.3.1-.4.05-.08.16-.17.32-.27l.7-.44c-.2-.18-.3-.36-.3-.54v-.2c0-.25.07-.42.2-.51.13-.1.35-.14.65-.14h.68c.32,0,.54.05.66.15.12.1.18.29.18.58v.19l-.48.09v-.57h-1.39v.52l1.76,1.43.84-.79.31.29-.82.77,1.15.94h-.75l-.75-.61-.41.39ZM120.24,79.99h1.76l.47-.43-1.3-1.03-.93.66v.81Z"/><path class="cls-21" d="M134.77,80.62c-.38,0-.64-.07-.79-.23-.15-.15-.23-.41-.23-.79v-.23l.9-.21v.62h2.37v-.75h-2.11c-.37,0-.63-.07-.78-.23-.15-.15-.23-.41-.23-.79v-.31c0-.39.08-.65.23-.8.15-.15.41-.22.78-.22h1.94c.35,0,.6.07.77.21.17.15.25.39.25.74v.2l-.85.24v-.58h-2.23v.68h2.12c.38,0,.64.08.79.23.15.16.22.41.22.79v.41c0,.38-.07.64-.22.79s-.41.23-.79.23h-2.12Z"/><path class="cls-21" d="M134.77,80.53c-.35,0-.59-.07-.72-.2-.14-.13-.2-.37-.2-.73v-.16l.71-.17v.6h2.55v-.93h-2.21c-.35,0-.58-.07-.72-.2-.14-.14-.2-.37-.2-.73v-.31c0-.36.07-.6.2-.73.14-.13.37-.2.72-.2h1.94c.33,0,.56.06.71.18.15.13.22.35.22.67v.13l-.67.19v-.55h-2.42v.86h2.21c.35,0,.59.07.72.2.13.14.2.37.2.72v.41c0,.35-.06.59-.2.73-.13.13-.37.2-.72.2h-2.12Z"/><path class="cls-21" d="M134.77,80.55c-.36,0-.6-.07-.74-.21-.14-.14-.21-.38-.21-.74v-.17l.75-.18v.6h2.52v-.9h-2.19c-.35,0-.59-.07-.73-.2-.14-.14-.21-.38-.21-.74v-.31c0-.36.07-.61.21-.74.14-.14.38-.2.73-.2h1.94c.34,0,.57.06.72.19.15.13.23.35.23.69v.15l-.71.2v-.55h-2.38v.83h2.19c.36,0,.6.07.74.21.14.14.2.38.2.74v.41c0,.36-.07.6-.2.74-.14.14-.38.21-.74.21h-2.12Z"/><path class="cls-21" d="M137.17,77.33h-2.57v1.01h2.29c.33,0,.55.06.67.18.12.12.18.34.18.67v.41c0,.33-.06.55-.18.67-.12.12-.34.18-.67.18h-2.12c-.33,0-.55-.06-.67-.18-.12-.12-.18-.34-.18-.67v-.1l.56-.13v.58h2.7v-1.08h-2.28c-.32,0-.55-.06-.67-.18-.12-.12-.18-.34-.18-.67v-.31c0-.34.06-.56.18-.68.12-.12.34-.17.67-.17h1.94c.31,0,.53.06.66.17.13.11.19.32.19.62v.08l-.52.15v-.52Z"/><polygon class="cls-21" points="143.16 80.62 143.16 77.51 141.5 77.51 141.5 76.68 145.77 76.68 145.77 77.51 144.1 77.51 144.1 80.62 143.16 80.62"/><polygon class="cls-21" points="143.25 80.53 143.25 77.41 141.59 77.41 141.59 76.78 145.67 76.78 145.67 77.41 144.01 77.41 144.01 80.53 143.25 80.53"/><polygon class="cls-21" points="143.23 80.55 143.23 77.43 141.57 77.43 141.57 76.76 145.69 76.76 145.69 77.43 144.03 77.43 144.03 80.55 143.23 80.55"/><path class="cls-21" d="M143.93,77.34v3.11h-.6v-3.11h-1.66v-.49h3.93v.49h-1.67Z"/><polygon class="cls-21" points="150.53 80.62 150.53 78.92 148.48 76.68 149.69 76.68 151.03 78.2 152.31 76.68 153.51 76.68 151.46 78.95 151.48 80.62 150.53 80.62"/><polygon class="cls-21" points="150.63 80.53 150.63 78.88 148.69 76.78 149.65 76.78 151.03 78.34 152.36 76.78 153.3 76.78 151.36 78.92 151.38 80.53 150.63 80.53"/><polygon class="cls-21" points="150.61 80.55 150.61 78.92 148.65 76.76 149.65 76.76 151.03 78.31 152.35 76.76 153.34 76.76 151.4 78.9 151.4 80.55 150.61 80.55"/><path class="cls-21" d="M150.7,80.45v-1.57l-1.84-2.03h.75l1.42,1.61,1.36-1.61h.74l-1.82,2.02v1.59h-.61Z"/><polygon class="cls-21" points="157.08 80.62 157.08 76.68 158.02 76.68 158.02 79.78 160.78 79.78 160.78 80.62 157.08 80.62"/><polygon class="cls-21" points="157.18 80.53 157.18 76.78 157.93 76.78 157.93 79.88 160.68 79.88 160.68 80.53 157.18 80.53"/><polygon class="cls-21" points="157.16 80.55 157.16 76.76 157.95 76.76 157.95 79.86 160.7 79.86 160.7 80.55 157.16 80.55"/><path class="cls-21" d="M157.25,80.45v-3.6h.61v3.1h2.75v.5h-3.36Z"/><polygon class="cls-21" points="164.64 80.62 164.64 76.68 168.47 76.68 168.47 77.5 165.57 77.5 165.57 78.17 167.34 78.17 167.34 78.98 165.57 78.98 165.57 79.79 168.49 79.79 168.49 80.62 164.64 80.62"/><polygon class="cls-21" points="164.73 80.53 164.73 76.78 168.37 76.78 168.37 77.41 165.48 77.41 165.48 78.26 167.25 78.26 167.25 78.89 165.48 78.89 165.48 79.88 168.4 79.88 168.4 80.53 164.73 80.53"/><polygon class="cls-21" points="164.71 80.55 164.71 76.76 168.39 76.76 168.39 77.43 165.5 77.43 165.5 78.24 167.27 78.24 167.27 78.91 165.5 78.91 165.5 79.86 168.42 79.86 168.42 80.55 164.71 80.55"/><path class="cls-21" d="M164.8,80.45v-3.6h3.5v.48h-2.89v1.01h1.77v.48h-1.77v1.15h2.92v.5h-3.52Z"/><path class="cls-21" d="M173.42,80.62c-.38,0-.64-.07-.79-.23-.15-.15-.23-.41-.23-.79v-.23l.9-.21v.62h2.37v-.75h-2.11c-.37,0-.63-.07-.78-.23-.15-.15-.23-.41-.23-.79v-.31c0-.39.08-.65.23-.8.15-.15.41-.22.78-.22h1.93c.35,0,.6.07.77.21.17.14.25.39.25.74v.2l-.85.24v-.58h-2.23v.68h2.12c.38,0,.64.08.79.23.15.16.22.41.22.79v.41c0,.38-.07.64-.22.79-.15.15-.41.23-.79.23h-2.12Z"/><path class="cls-21" d="M173.42,80.53c-.35,0-.59-.07-.72-.2-.14-.13-.2-.37-.2-.73v-.16l.71-.17v.6h2.55v-.93h-2.21c-.35,0-.58-.07-.72-.2-.14-.13-.2-.37-.2-.73v-.31c0-.36.07-.6.2-.73.14-.13.37-.2.72-.2h1.93c.33,0,.56.06.71.18.15.13.22.35.22.67v.13l-.67.19v-.55h-2.42v.86h2.21c.35,0,.59.07.72.2.13.14.2.37.2.72v.41c0,.35-.06.59-.2.73-.13.13-.37.2-.72.2h-2.12Z"/><path class="cls-21" d="M173.42,80.55c-.36,0-.6-.07-.74-.21-.14-.14-.21-.38-.21-.74v-.17l.75-.18v.6h2.52v-.9h-2.19c-.35,0-.59-.07-.73-.21-.14-.14-.21-.38-.21-.74v-.31c0-.37.07-.61.21-.74.14-.14.38-.2.73-.2h1.93c.33,0,.57.06.72.19.15.13.23.36.23.69v.15l-.71.2v-.55h-2.38v.83h2.19c.36,0,.6.07.74.21.14.14.2.38.2.74v.41c0,.36-.07.6-.2.74s-.38.21-.74.21h-2.12Z"/><path class="cls-21" d="M175.82,77.33h-2.57v1.01h2.29c.33,0,.55.06.67.18.12.12.18.34.18.67v.41c0,.33-.06.55-.18.67-.12.12-.34.18-.67.18h-2.12c-.33,0-.55-.06-.67-.18-.12-.12-.18-.34-.18-.67v-.1l.56-.13v.58h2.7v-1.08h-2.28c-.32,0-.55-.06-.67-.18-.12-.12-.18-.34-.18-.67v-.31c0-.34.06-.56.18-.68.12-.12.34-.17.67-.17h1.93c.31,0,.53.06.66.17.13.11.19.32.19.62v.08l-.52.15v-.52Z"/><polyline class="cls-21" points="147.88 47.52 176.34 47.52 176.34 39.03 147.9 39.03"/><polyline class="cls-21" points="109.8 39.03 82.01 39.03 82.01 47.52 110.12 47.52"/><path class="cls-21" d="M128.94,23.95c-10.08,0-18.27,8.2-18.27,18.27s8.2,18.27,18.27,18.27,18.27-8.2,18.27-18.27-8.2-18.27-18.27-18.27ZM128.94,59.74c-9.66,0-17.52-7.86-17.52-17.52s7.86-17.52,17.52-17.52,17.52,7.86,17.52,17.52-7.86,17.52-17.52,17.52Z"/><path class="cls-21" d="M128.94,22.56c-10.84,0-19.66,8.82-19.66,19.66s8.82,19.66,19.66,19.66,19.66-8.82,19.66-19.66-8.82-19.66-19.66-19.66ZM128.94,61.13c-10.43,0-18.91-8.48-18.91-18.91s8.48-18.91,18.91-18.91,18.91,8.48,18.91,18.91-8.48,18.91-18.91,18.91Z"/><path class="cls-21" d="M129.43,25.09l-.07,2.76h-.15s.07-2.76.07-2.76h.15Z"/><path class="cls-21" d="M137.8,27.94l-1.2,1.96-.1-.06,1.2-1.96.1.06Z"/><path class="cls-21" d="M144.27,34.35l-2.44,1.29-.07-.13,2.43-1.3.07.13Z"/><path class="cls-21" d="M146.15,44.33l-2.74-.29.02-.14,2.74.29v.15Z"/><path class="cls-21" d="M141.57,53.75l-1.72-1.53.08-.09,1.72,1.53-.08.09Z"/><path class="cls-21" d="M129.02,59.76v-2.76s.15,0,.15,0v2.76h-.15Z"/><path class="cls-21" d="M120.47,27.87l1.2,1.96-.1.06-1.2-1.96.1-.06Z"/><path class="cls-21" d="M113.97,34.22l2.43,1.3-.07.13-2.44-1.29.07-.13Z"/><path class="cls-21" d="M112,44.19l2.74-.29v.14s-2.73.29-2.73.29v-.15Z"/><path class="cls-21" d="M116.51,53.66l1.72-1.53.08.09-1.72,1.53-.08-.09Z"/><path class="cls-7" d="M125.47,47.79s-.26.27-.6.31c-.34.04-.94-.06-1.6.36-.21.13-.12,0-.12,0,0,0,.25-.19.44-.26.19-.08.8-.16.92-.16.13,0,.45-.03.57-.1.11-.07.32-.22.38-.18.02.01.02.03.02.03Z"/><path class="cls-16" d="M131.3,41.87c.07.08.1.15.11.21.81-1.02,5.16-6.51,5.38-6.79.21-.28.03-.37-.15-.22,0,0-.02.02-.04.03l-5.84,6.18.53.58Z"/><path class="cls-21" d="M125.1,47.87c-.6.26-1.29-.02-2.01.61,0,0-.64.33-.81,1.4-.06.42.05.89.3,1.25,0,0,0,0,0,0,.13.12.23.23.34.34,0,0,0,0,.01,0,.44.29,1.07.3,1.88-.25,1.01-.75.82-2.23.82-2.23,0,0-.05-.47.34-.87.39-.4,1.66-2.16,1.66-2.16l.37.31.93-1.35c-.22-.47-.48-.34-.68-.82,0,0-2.55,3.51-3.14,3.78ZM125.15,50.21c-.25.78-1.01,1.23-1.69,1-.68-.22-1.03-1.03-.78-1.81.25-.78,1.01-1.23,1.7-1,.68.22,1.03,1.03.78,1.81Z"/><path class="cls-21" d="M123.11,38.78c-.4-.52-.3-1.26-1.07-1.81,0,0-.48-.54-1.56-.44-.42.04-.86.26-1.14.6,0,0,0,0-.01,0,0,0,0,.01-.01.02-.2-.08-.43-.32-.57-.87-.05-.2.19-.62-.09-.61-.03,0-.68.59.17,1.59.1.12.19.2.27.26,0,0,0,.01-.01.02,0,0,0,0,.01.01-.17.49-.04,1.12.7,1.76.97.8,2.37.26,2.37.26,0,0,.45-.17.93.12.48.28,2.49,1.08,2.49,1.08l-.22.43.76.35c.4-.33.99-.32,1.4-.63,0,0-4.02-1.62-4.42-2.14ZM120.86,39.39c-.82-.06-1.43-.69-1.38-1.4.05-.72.75-1.25,1.57-1.19.82.06,1.43.69,1.38,1.4-.05.72-.75,1.25-1.57,1.19Z"/><path class="cls-17" d="M125.47,41.25s1.94.87,2.13,1.04c.2.18,1.5,1.13,2.43,1.42l8.85,1.86s.56-.02.08-.29l-12.13-4.64-1.36.6Z"/><path class="cls-15" d="M139.1,45.46h0s0-.01-.03-.03c-.02-.02-.06-.05-.13-.09-.01,0-12.06-4.61-12.1-4.63-.04.02-1.02.45-1.22.54.43.19,1.85.84,2.03,1,.22.2,1.51,1.13,2.41,1.41,0,0,8.82,1.85,8.83,1.86.09,0,.2-.03.21-.05Z"/><path class="cls-12" d="M130.09,43.61c-.9-.28-2.2-1.21-2.41-1.41-.17-.16-1.54-.78-2-.99-.03.01-.05.02-.07.03.43.19,1.85.84,2.03,1,.22.2,1.51,1.13,2.41,1.41,0,0,8.82,1.85,8.83,1.86.09,0,.2-.03.21-.05h0s0,0-.01-.02c-.04.01-.1.02-.16.02-.02,0-8.83-1.86-8.83-1.86Z"/><path class="cls-1" d="M126.79,40.76s12.09,4.62,12.1,4.62c.07.04.11.07.13.09,0,0,.01.01.02.02.03,0,.05-.02.05-.03h0s0-.01-.03-.03c-.02-.02-.06-.05-.13-.09-.01,0-12.06-4.61-12.1-4.63-.04.02-1.02.45-1.22.54,0,0,.02,0,.03.01.29-.13,1.11-.49,1.15-.5Z"/><path class="cls-6" d="M129.89,43.35l3.42.82-3.46-.61-.02.06c.07.03.14.05.21.07,0,0,7.47,1.57,8.67,1.82l-8.57-2.45-.25.27Z"/><path class="cls-14" d="M130.04,43.71l-.24-1.93-.86-.33.09.44-.34-.53-.94-.36.34,1.62c.47.34,1.28.86,1.95,1.1Z"/><path class="cls-18" d="M128.55,45.32l2.8-2.99s.09-.1.07-.25c-.01-.06-.04-.14-.11-.21l-.53-.58,5.84-6.18h0s0,0,0,0c0,0-7.94,7.25-7.97,7.28-.03.03-.05.08-.05.12.02.21.05.82-.17,1.22l-1.3,1.89,1.42-.29Z"/><path class="cls-9" d="M128.68,42.46s-.03.04-.02.07c.02.24.05.85-.18,1.26,0,0-1.07,1.56-1.22,1.77.23-.05,1.22-.25,1.26-.26.02-.03,2.79-2.98,2.79-2.98,0,0,.07-.08.05-.2-.01-.06-.04-.12-.1-.18l-.57-.62s3.34-3.53,4.78-5.06c-1.71,1.56-6.79,6.2-6.79,6.2Z"/><path class="cls-19" d="M131.14,41.91c.06.06.09.12.1.18.02.11-.05.19-.05.2,0,0-2.76,2.95-2.79,2.97-.03,0-.76.16-1.11.23-.01.01-.02.03-.03.03.23-.05,1.22-.25,1.25-.26.03-.03,2.79-2.97,2.79-2.97,0,0,.07-.08.05-.2,0-.06-.04-.12-.1-.18l-.57-.62s3.33-3.53,4.78-5.06c-.24.22-.55.5-.9.82-1.61,1.71-4,4.24-4,4.24l.57.63Z"/><path class="cls-2" d="M128.6,43.76c.23-.41.2-1.02.18-1.26,0-.03.01-.06.03-.07,0,0,3.75-3.42,5.89-5.38.29-.31.56-.59.78-.82-1.71,1.56-6.79,6.2-6.79,6.2-.02.01-.03.04-.03.07.02.24.05.85-.18,1.26,0,0-1.07,1.56-1.22,1.77.03,0,.08-.02.14-.03.21-.31,1.19-1.73,1.19-1.73Z"/><path class="cls-8" d="M129.46,42.98c-.2-.18-.21-.48-.03-.68.18-.2.48-.21.68-.03.2.18.21.48.03.68-.18.2-.48.21-.68.03Z"/><path class="cls-3" d="M129.43,42.3c.18-.2.48-.21.68-.03.04.04.07.08.09.12-.03-.06-.06-.12-.11-.16-.2-.18-.51-.17-.69.03-.14.16-.16.39-.06.56-.08-.17-.05-.38.08-.52Z"/><path class="cls-4" d="M129.44,42.32c.18-.2.48-.21.68-.03.03.03.06.07.09.11-.02-.05-.06-.09-.1-.13-.2-.18-.5-.17-.68.03-.15.16-.16.4-.06.57-.09-.17-.07-.4.07-.55Z"/><path class="cls-13" d="M130.13,42.93c-.18.2-.48.21-.68.03-.04-.03-.06-.07-.09-.11.02.05.06.09.1.13.2.18.5.17.68-.03.15-.16.16-.4.06-.57.09.18.07.4-.07.55Z"/><path class="cls-5" d="M127.46,45.51l1.59-1.37-1.2,1.22,2.66-2.32-.65.69.07.06c.69-.74,1.37-1.47,1.37-1.47,0,0,.07-.08.05-.2-.01-.06-.04-.12-.09-.18l-3.42,2.77c-.26.38-.51.75-.58.84.04,0,.11-.02.2-.04Z"/><path class="cls-11" d="M129.89,42.96s-.04-.06-.11-.08c-.07-.02-.34-.11-.39-.34-.02-.1,0-.22.02-.26.02-.04-.1.07-.14.26,0,.53.57.45.58.44,0,0,.04-.02.04-.02Z"/><path class="cls-10" d="M130.02,42.7s-.03-.02-.07-.04c-.2-.11-.32-.28-.37-.3-.05-.02-.07.01-.07.01,0,0,.36.3.43.39.04.06.02.12,0,.15-.01.01.07-.03.12-.13.06-.12.09-.35-.09-.52-.05-.04-.11-.09-.19-.1-.55-.03,0,.05.05.09.27.16.25.48.18.44Z"/></g></g></g></svg>