<svg width="288" height="113" viewBox="0 0 288 113" fill="none" xmlns="http://www.w3.org/2000/svg">
<path d="M15.9628 107.662C15.9628 110.845 14.3841 112.223 10.4498 112.223H1.6038V94.6817H10.1992C14.2087 94.6817 15.7373 95.8846 15.7373 98.9418V99.3678C15.7373 101.723 14.9103 102.826 13.1061 103.077V103.227C15.0356 103.427 15.9628 104.505 15.9628 106.961V107.662ZM9.54762 97.338H4.63598V102.049H9.67292C11.9533 102.049 12.68 101.698 12.68 99.869V99.7437C12.68 97.9144 11.9533 97.338 9.54762 97.338ZM9.54762 104.505H4.63598V109.567H9.6228C12.1287 109.567 12.8805 108.991 12.8805 107.111V106.911C12.8805 104.856 12.1037 104.505 9.54762 104.505ZM27.6771 112.223H24.6199V104.68L18.0292 94.6817H21.5877L26.2237 101.824H26.349L31.01 94.6817H34.2928L27.6771 104.63V112.223ZM47.3387 112.223H44.3065V94.6817H56.8112V97.338H47.3387V102.099H56.8112V104.781H47.3387V112.223ZM68.6521 112.474H68.2762C62.9386 112.474 60.5078 109.968 60.5078 104.38V102.55C60.5078 96.9621 62.9386 94.4311 68.2762 94.4311H68.6521C73.9647 94.4311 76.4205 96.9621 76.4205 102.55V104.38C76.4205 109.968 73.9647 112.474 68.6521 112.474ZM68.7022 109.717C72.411 109.692 73.3132 107.637 73.3132 104.054V102.851C73.3132 99.2676 72.411 97.1876 68.7022 97.1876H68.2261C64.4923 97.1876 63.5901 99.2676 63.5901 102.851V104.054C63.5901 107.637 64.4923 109.717 68.2261 109.717H68.7022ZM83.7443 112.223H80.7121V94.6817H89.533C93.4674 94.6817 95.021 95.8846 95.021 99.2174V99.7186C95.021 102.375 94.2191 103.427 92.465 103.753V103.878C94.2191 104.204 95.021 104.881 95.021 107.838V112.223H91.9638V108.164C91.9638 105.908 91.3373 105.382 88.8063 105.382H83.7443V112.223ZM88.7061 97.338H83.7443V102.726H89.082C91.2621 102.726 91.9638 102.074 91.9638 100.145V99.9692C91.9638 97.9895 91.187 97.338 88.7061 97.338ZM107.236 112.474H106.86C101.522 112.474 99.0914 109.968 99.0914 104.38V102.55C99.0914 96.9621 101.522 94.4311 106.86 94.4311H107.236C111.446 94.4311 113.952 96.0099 114.728 99.6435H111.521C111.045 97.9895 109.666 97.1876 107.286 97.1876H106.81C103.076 97.1876 102.174 99.2676 102.174 102.851V104.054C102.174 107.637 103.076 109.717 106.81 109.717H107.386C110.894 109.692 111.872 108.189 111.872 104.906H106.609V102.25H114.954V104.38C114.954 109.968 112.548 112.474 107.236 112.474ZM131.751 112.223H119.247V94.6817H131.751V97.338H122.279V102.099H131.751V104.781H122.279V109.567H131.751V112.223ZM151.733 112.223H146.921L139.078 97.9144H138.952V112.223H135.92V94.6817H140.706L148.55 109.016H148.7V94.6817H151.733V112.223ZM163.756 112.223H160.699V97.338H155.11V94.6817H169.394V97.338H163.756V112.223Z" fill="white"/>
<g clip-path="url(#clip0_2263_1028)">
<path d="M247.157 0.0377197C226.844 0.0377197 210.311 16.5715 210.311 36.8837C210.311 50.0938 217.311 61.7149 227.798 68.2194L232.264 60.1756L232.582 59.6158C225.098 54.8169 220.136 46.4174 220.136 36.8837C220.136 21.9797 232.264 9.86293 247.157 9.86293C251.09 9.86293 254.818 10.7026 258.192 12.2303L265.483 4.93866C260.087 1.81909 253.827 0.0377197 247.157 0.0377197ZM272.218 63.9045C272.638 63.5109 273.058 63.1027 273.466 62.6829C275.758 60.3534 277.69 57.7703 279.256 54.9947C282.361 49.5224 284.003 43.324 284.003 36.8837C284.003 23.557 276.889 11.8746 266.273 5.39639L261.856 13.2741L261.463 13.9738C269.099 18.7464 274.177 27.2218 274.177 36.8837C274.177 51.4816 262.303 63.5983 247.716 63.8928V63.9045H247.157C243.046 63.9045 239.151 62.989 235.664 61.3213L228.41 68.5751C233.909 71.8579 240.323 73.7297 247.157 73.7297H287.682V63.9045H272.218Z" fill="url(#paint0_linear_2263_1028)"/>
<path d="M249.078 9.11377C232.521 7.99422 218.748 21.4463 219.334 37.9042C219.678 47.3096 224.795 55.4176 232.265 60.1786L232.582 59.6188L236.973 51.7266C232.25 48.4816 229.145 43.0472 229.145 36.8867C229.145 26.9595 237.227 18.8777 247.154 18.8777C248.504 18.8777 249.828 19.0294 251.099 19.3238L258.799 11.624C255.796 10.2246 252.51 9.34701 249.075 9.11668L249.078 9.11377ZM287.644 63.9046C287.274 59.336 283.764 55.645 279.257 54.9949C278.799 54.9307 278.327 54.8928 277.857 54.8928H268.388C273.364 49.0385 275.717 41.4262 274.802 33.5747C273.822 25.0207 268.845 17.6387 261.857 13.2742L261.463 13.9739L257.061 21.8515C261.947 25.0703 265.169 30.6097 265.169 36.8838C265.169 41.7964 263.248 46.2251 260.105 49.47C256.962 52.7033 252.583 54.7529 247.682 54.8928H247.16C245.606 54.8928 244.104 54.6887 242.667 54.3214L235.183 61.8054C239.014 63.6772 243.303 64.7209 247.81 64.7209H287.685C287.685 64.4411 287.674 64.1728 287.647 63.9075L287.644 63.9046Z" fill="url(#paint1_linear_2263_1028)"/>
<path d="M58.3054 9.40537C52.4511 3.13124 45.3752 0 37.0894 0C28.8036 0 21.8414 2.99129 17.1708 8.98554V1.71722H1.29883V73.7678H17.1708V55.9629C21.8414 61.9571 28.4858 64.9484 37.0894 64.9484C45.693 64.9484 52.4511 61.8055 58.3054 55.5314C64.1714 49.2689 67.1015 41.5807 67.1015 32.4698C67.1015 23.3589 64.1743 15.6824 58.3054 9.40829V9.40537ZM46.3782 44.954C43.1332 48.1989 39.0603 49.817 34.1331 49.817C29.2059 49.817 25.1592 48.2018 21.9667 44.954C18.7597 41.7207 17.1678 37.5603 17.1678 32.4669C17.1678 27.3735 18.7597 23.2277 21.9667 19.9799C25.1621 16.7466 29.2205 15.1314 34.1331 15.1314C39.0457 15.1314 43.1303 16.7466 46.3782 19.9799C49.6114 23.2248 51.2412 27.3881 51.2412 32.4669C51.2412 37.5457 49.6114 41.7207 46.3782 44.954Z" fill="white"/>
<path d="M145.082 1.71716L134.659 39.6186L123.458 1.71716H108.44L97.2391 39.4786L86.7142 1.71716H69.9385L88.0116 63.2165H103.566L115.199 25.9507L126.831 63.2165H142.386L160.316 1.71716H145.082Z" fill="white"/>
<path d="M193.739 3.44906C190.328 5.40827 187.896 8.36166 186.421 12.2947V1.71726H170.549V63.2166H186.421V33.8285C186.421 27.9217 188.316 23.6972 192.135 21.1519C195.954 18.6184 200.269 17.6271 205.103 18.1985V0.495667C200.928 0.495667 197.135 1.47527 193.739 3.44906Z" fill="white"/>
</g>
<defs>
<linearGradient id="paint0_linear_2263_1028" x1="210.311" y1="36.8837" x2="287.682" y2="36.8837" gradientUnits="userSpaceOnUse">
<stop stop-color="#00D69E"/>
<stop offset="1" stop-color="#00AA7D"/>
</linearGradient>
<linearGradient id="paint1_linear_2263_1028" x1="219.317" y1="36.8838" x2="287.682" y2="36.8838" gradientUnits="userSpaceOnUse">
<stop stop-color="#00AA7D"/>
<stop offset="1" stop-color="#00D69E"/>
</linearGradient>
<clipPath id="clip0_2263_1028">
<rect width="286.383" height="73.7678" fill="white" transform="translate(1.29883)"/>
</clipPath>
</defs>
</svg>
