<?xml version="1.0" encoding="UTF-8"?><svg id="Layer_2" xmlns="http://www.w3.org/2000/svg" viewBox="0 0 257 91"><defs><style>.cls-1{fill:rgba(15,3,42,.24);}.cls-1,.cls-2{stroke-width:0px;}.cls-2{fill:#fff;}.cls-3{fill:none;stroke:rgba(255,255,255,.2);}</style></defs><g id="Layer_1-2"><path class="cls-1" d="M45.5.5h166c24.85,0,45,20.15,45,45h0c0,24.85-20.15,45-45,45H45.5C20.65,90.5.5,70.35.5,45.5h0C.5,20.65,20.65.5,45.5.5Z"/><path class="cls-3" d="M45.5.5h166c24.85,0,45,20.15,45,45h0c0,24.85-20.15,45-45,45H45.5C20.65,90.5.5,70.35.5,45.5h0C.5,20.65,20.65.5,45.5.5Z"/><polygon class="cls-2" points="71.38 63.32 71.37 63.32 60.95 69.33 71.38 75.35 81.81 69.33 71.4 63.32 71.38 63.32"/><path class="cls-2" d="M97.24,42.6v-12.03l-25.85-14.93-25.85,14.93v12.03l10.42,6.01v-12.03l15.44-8.91,15.44,8.91h0s-15.44,8.91-15.44,8.91h0l-15.44,8.91-10.42,6.01,10.41,6.01,10.42-6.01,5.02-2.9h0l5.02,2.9,10.42,6.01,10.42-6.01-10.42-6.01-5.02-2.9,5.02-2.9,10.42-6.01Z"/><polygon class="cls-2" points="71.38 63.32 71.4 63.32 81.81 69.33 71.38 75.35 60.95 69.33 71.37 63.32 71.38 63.32"/><path class="cls-2" d="M116.19,43.58l-1.7-3.3h-3.05v3.3h-4.84v-13.47h7.92c3.78,0,5.93,1.57,5.93,5.26,0,1.76-.77,3.05-1.84,3.85l2.34,4.36h-4.76ZM111.44,36.67h2.73c.96,0,1.43-.48,1.43-1.27s-.46-1.27-1.43-1.27h-2.73v2.53Z"/><path class="cls-2" d="M121.14,36.85c0-4.34,3-7.18,7.69-7.18s7.71,2.84,7.71,7.18-3,7.18-7.71,7.18-7.69-2.84-7.69-7.18ZM131.72,36.85c0-1.96-1.33-3-2.89-3s-2.89,1.04-2.89,3,1.35,3,2.89,3,2.89-1.04,2.89-3Z"/><path class="cls-2" d="M137.3,36.85c0-4.34,3.03-7.18,7.63-7.18,3.38,0,6.88,1.49,7.25,6.24h-4.62c-.3-1.39-1.25-2.05-2.63-2.05-1.55,0-2.82,1.14-2.82,3s1.27,3,2.82,3c1.38,0,2.32-.66,2.63-2.08h4.62c-.37,4.78-3.82,6.27-7.25,6.27-4.6,0-7.63-2.84-7.63-7.18Z"/><path class="cls-2" d="M163.14,43.58l-3.33-4.54h-.3l-1.68,1.81v2.73h-4.83v-13.47h4.83v4.97h.32l4.42-4.97h5.39l-5.43,6,5.56,7.47h-4.94Z"/><path class="cls-2" d="M168.43,30.12h12.39v3.86h-7.55v1.31h7.26v3.11h-7.26v1.3h7.55v3.88h-12.39v-13.47Z"/><path class="cls-2" d="M196.19,34.16h-4.78v9.43h-4.86v-9.43h-4.76v-4.04h14.39v4.04Z"/><path class="cls-2" d="M211.47,34.16h-4.78v9.43h-4.86v-9.43h-4.76v-4.04h14.39v4.04Z"/><path class="cls-2" d="M106.28,58.65h4.34c.03.8.71,1.27,2.53,1.3,1.57.02,2.24-.4,2.24-.88,0-.26-.06-.71-1.28-.87l-1.76-.27c-2.53-.4-5.77-.58-5.77-4.2,0-2.71,2.16-4.38,6.62-4.38,3.98,0,6.75,1.03,6.64,5.03h-4.33c-.14-.79-.83-1.27-2.42-1.27-1.36,0-1.86.38-1.86.87,0,.22.11.67,1.03.82l1.41.22c2.71.45,6.56.4,6.56,4.25,0,3.01-2.31,4.46-7.07,4.44-4.83-.02-7.02-1.46-6.88-5.07Z"/><path class="cls-2" d="M134.91,53.84h-4.78v9.43h-4.86v-9.43h-4.76v-4.04h14.39v4.04Z"/><path class="cls-2" d="M143.66,61.64h-5.48l-.51,1.62h-5l4.86-13.47h6.8l4.87,13.47h-5.02l-.51-1.62ZM142.52,58.07l-1.19-3.72h-.83l-1.19,3.72h3.21Z"/><path class="cls-2" d="M149.75,49.8h12.36v4.04h-7.52v1.38h7.21v3.48h-7.21v4.57h-4.84v-13.47Z"/><path class="cls-2" d="M163.15,49.8h12.36v4.04h-7.52v1.38h7.21v3.48h-7.21v4.57h-4.84v-13.47Z"/></g></svg>