<?xml version="1.0" encoding="UTF-8"?><svg id="Layer_2" xmlns="http://www.w3.org/2000/svg" viewBox="0 0 257 91"><defs><style>.cls-1{fill-rule:evenodd;}.cls-1,.cls-2,.cls-3{stroke-width:0px;}.cls-1,.cls-3{fill:#fff;}.cls-2{fill:rgba(15,3,42,.24);}.cls-4{fill:none;stroke:rgba(255,255,255,.2);}</style></defs><g id="Layer_1-2"><path class="cls-2" d="M45.5.5h166c24.85,0,45,20.15,45,45h0c0,24.85-20.15,45-45,45H45.5C20.65,90.5.5,70.35.5,45.5h0C.5,20.65,20.65.5,45.5.5Z"/><path class="cls-4" d="M45.5.5h166c24.85,0,45,20.15,45,45h0c0,24.85-20.15,45-45,45H45.5C20.65,90.5.5,70.35.5,45.5h0C.5,20.65,20.65.5,45.5.5Z"/><path class="cls-3" d="M83.5,28.36h.96v-5.13h5.57v6c1.14.21,2.26.46,3.36.73v.64h1.42v-1.75l-1.08-.27c-.75-.19-1.51-.36-2.28-.52v-6.25h-8.41v5.09c-.25-.02-.5-.03-.75-.05v-5.04h-7.97v5.01c-.32.02-.65.04-.97.06v-5.07h-8.71v6.25c-.77.16-1.53.33-2.28.52l-1.08.27v11.84h1.42v-10.73c1.1-.27,2.22-.52,3.36-.73v-6h5.86v5.13h.67c1.04-.09,2.09-.14,3.14-.18v-4.95h5.13v4.97c.88.04,1.76.09,2.63.16Z"/><path class="cls-3" d="M93.39,48.89v.11c0,2.4-.8,4.87-2.39,7.34-1.35,2.11-3.27,4.21-5.69,6.24-2.21,1.86-4.42,3.31-5.89,4.19-.52.31-.98.58-1.36.79-.39-.21-.85-.48-1.37-.79-1.47-.89-3.68-2.33-5.89-4.19-1.07-.9-2.05-1.82-2.92-2.74-.05,0-.1,0-.15,0h-1.76c1.12,1.29,2.42,2.57,3.91,3.82,2.27,1.91,4.56,3.4,6.07,4.32.47.28.94.56,1.41.82l.69.39.69-.39c.46-.26.93-.53,1.41-.82,1.51-.91,3.79-2.4,6.07-4.32,2.53-2.13,4.54-4.34,5.97-6.56,1.74-2.7,2.62-5.43,2.62-8.11v-.11h-1.42Z"/><path class="cls-1" d="M97.26,38.74l.44-.19,6.53-5.02-6.98,2.46-1.54.54-27.08,9.54,27.08-11.64,1.54-.66,2.55-1.1,7.91-5.96-10.46,3.98-1.54.59-33.27,12.64-.66.25.66.79,4.2,5.05-3.51,1.35c-.47-.08-1.3-.17-1.88-.03-.86.21-2.17.67-2.93,1.65-.75.98-.65,2.23-.65,2.23,0,0-.79,1.18-1.04,2.34-.26,1.16.12,2.4.12,2.4l.12-.04c.12-.04,1.94-2.7,2.75-3.21.31-.2,1.37-.1,2.34-.08,0,0,0,0,0,0,0,0,0,0,0,0,.52,0,1.01-.01,1.33-.12.36.01.73.03,1.05.03,1.06-.02,2.13.03,3.18.13,2,.19,4.02.58,5.96,1.02.15.03.3.07.45.11.23.05.45.1.67.16,2.31.55,4.52,1.11,6.25,1.42l-5.96-6.08,19.27-8.28,1.56-1.26,1.54-1.25,3.14-2.55-3.14,1.08-1.54.53-23.91,8.2,23.91-10.32,1.54-.67Z"/><path class="cls-3" d="M117.86,55.2l-5.86-7.83h1.68c3.06,0,4.88-1.57,4.88-3.93,0-1.64-1-3.97-4.98-3.97h-3.29v15.72h-1.73v-17.29h5.21c4.51,0,6.52,2.66,6.52,5.58s-2.1,5.02-5.14,5.26l4.88,6.45h-2.17Z"/><path class="cls-3" d="M131.25,55.5c-4.72,0-9.14-3.83-9.14-8.86s4.07-9.04,9.14-9.04,9.16,4.02,9.16,8.95-4.14,8.95-9.16,8.95ZM131.22,39.17c-4.09,0-7.38,3.46-7.38,7.48s3.39,7.29,7.41,7.29,7.43-3.39,7.43-7.36-3.29-7.41-7.45-7.41Z"/><path class="cls-3" d="M151.55,55.5c-4.72,0-9.14-3.83-9.14-8.86s4.07-9.04,9.14-9.04,9.16,4.02,9.16,8.95-4.14,8.95-9.16,8.95ZM151.53,39.17c-4.09,0-7.38,3.46-7.38,7.48s3.39,7.29,7.41,7.29,7.43-3.39,7.43-7.36-3.29-7.41-7.45-7.41Z"/><path class="cls-3" d="M173.35,55.2l-5.77-7.5-2.24,2.76v4.74h-1.73v-17.29h1.73v9.93h.05l7.92-9.93h2.22l-6.85,8.43,6.85,8.86h-2.17Z"/><path class="cls-3" d="M181.64,55.2v-15.72h-2.97v-1.57h4.7v17.29h-1.73Z"/><path class="cls-3" d="M200.45,50.17c0,2.87-2.43,5.33-5.49,5.33s-5.54-2.29-5.54-5.33c0-2.01,1.21-3.93,2.97-4.63-1.28-.82-2.03-2.08-2.03-3.46,0-2.5,1.99-4.49,4.58-4.49s4.58,2.1,4.58,4.53c0,1.33-.77,2.69-2.06,3.41,1.94.96,2.99,2.66,2.99,4.63ZM198.72,50.17c0-1.99-1.61-3.74-3.83-3.74-1.92,0-3.74,1.66-3.74,3.67,0,2.2,1.64,3.83,3.83,3.83s3.74-1.73,3.74-3.76ZM194.96,39.17c-1.64,0-2.87,1.31-2.87,2.85s1.33,2.8,2.87,2.8,2.83-1.26,2.83-2.8-1.24-2.85-2.83-2.85Z"/></g></svg>