<?xml version="1.0" encoding="UTF-8"?><svg id="Layer_2" xmlns="http://www.w3.org/2000/svg" viewBox="0 0 257 91"><defs><style>.cls-1{fill-rule:evenodd;}.cls-1,.cls-2,.cls-3{stroke-width:0px;}.cls-1,.cls-3{fill:#fff;}.cls-2{fill:rgba(15,3,42,.24);}.cls-4{fill:none;stroke:rgba(255,255,255,.2);}</style></defs><g id="Layer_1-2"><path class="cls-2" d="M45.5.5h166c24.85,0,45,20.15,45,45h0c0,24.85-20.15,45-45,45H45.5C20.65,90.5.5,70.35.5,45.5h0C.5,20.65,20.65.5,45.5.5Z"/><path class="cls-4" d="M45.5.5h166c24.85,0,45,20.15,45,45h0c0,24.85-20.15,45-45,45H45.5C20.65,90.5.5,70.35.5,45.5h0C.5,20.65,20.65.5,45.5.5Z"/><path class="cls-3" d="M79.62,43.34c-.18-.09-.2-.14-.2-.5,0-.65.05-1.18.07-1.38.01-.14.04-.21.1-.21.08,0,.09.04.09.14,0,.12,0,.3.04.48.2.97,1.06,1.33,1.93,1.33,1.25,0,1.87-.9,1.87-1.74,0-.9-.38-1.42-1.5-2.35l-.59-.48c-1.38-1.14-1.7-1.95-1.7-2.83,0-1.4,1.04-2.35,2.7-2.35.51,0,.89.05,1.21.13.25.05.35.07.46.07s.13.03.13.09-.05.5-.05,1.38c0,.21-.03.3-.09.3-.08,0-.09-.07-.1-.17-.01-.16-.09-.51-.17-.65-.08-.14-.43-.69-1.63-.69-.9,0-1.61.56-1.61,1.51,0,.74.34,1.21,1.59,2.19l.37.29c1.54,1.21,1.91,2.02,1.91,3.07,0,.54-.21,1.53-1.11,2.17-.56.39-1.27.55-1.97.55-.61,0-1.21-.09-1.75-.35Z"/><path class="cls-3" d="M89.78,33.97c.16-.43.21-.51.29-.51s.13.07.29.47c.2.5,2.25,5.89,3.04,7.87.47,1.16.85,1.37,1.12,1.45.2.07.39.08.52.08.08,0,.13.01.13.08,0,.08-.12.1-.26.1-.2,0-1.15,0-2.05-.03-.25-.01-.39-.01-.39-.09,0-.05.04-.08.09-.09.08-.03.16-.14.08-.35l-1.21-3.21c-.03-.05-.05-.08-.12-.08h-2.81c-.07,0-.1.04-.13.1l-.78,2.31c-.12.33-.18.64-.18.87,0,.26.27.38.5.38h.13c.09,0,.13.03.13.08,0,.08-.08.1-.2.1-.31,0-.87-.04-1.02-.04s-.86.04-1.48.04c-.17,0-.25-.03-.25-.1,0-.05.05-.08.12-.08.09,0,.27-.01.38-.03.6-.08.86-.57,1.1-1.23l2.96-8.11ZM91.14,39.19c.07,0,.07-.04.05-.09l-1.24-3.53c-.07-.2-.13-.2-.2,0l-1.15,3.53c-.03.07,0,.09.04.09h2.49Z"/><path class="cls-3" d="M97.04,37.43c0-2.04,0-2.4-.03-2.82-.03-.44-.13-.65-.56-.74-.1-.03-.33-.04-.44-.04-.05,0-.1-.03-.1-.08,0-.08.07-.1.21-.1.3,0,.65,0,.94.01l.54.03c.26.01,2.91,0,3.21-.01.25-.01.46-.01.57-.05.08-.03.13-.08.18-.08s.08.05.08.12c0,.09-.07.25-.1.61-.01.13-.04.71-.07.86-.01.07-.04.14-.1.14s-.09-.07-.09-.16c0-.1-.04-.33-.12-.5-.08-.17-.38-.4-.89-.42l-2.01-.04c-.08,0-.12.04-.12.14v3.6c0,.08.01.12.09.12h1.67c.22-.01.4-.01.59-.03.31-.03.48-.07.6-.23.05-.07.09-.13.14-.13s.07.04.07.1c0,.08-.07.3-.1.73-.03.26-.05.78-.05.87,0,.12,0,.25-.09.25-.07,0-.09-.05-.09-.12-.01-.13-.03-.31-.08-.47-.07-.18-.27-.42-.68-.47-.33-.04-1.75-.04-1.97-.04-.07,0-.09.03-.09.12v1.11c0,1.25,0,2.29.07,2.83.04.38.12.67.51.72.18.03.47.05.59.05.08,0,.1.04.1.08,0,.07-.07.1-.21.1-.72,0-1.54-.04-1.61-.04s-.89.04-1.28.04c-.14,0-.21-.03-.21-.1,0-.04.03-.08.1-.08.12,0,.27-.03.39-.05.26-.05.33-.34.38-.72.07-.55.07-1.58.07-2.83v-2.3Z"/><path class="cls-3" d="M104.77,37.43c0-2.04,0-2.4-.03-2.82-.03-.44-.13-.65-.56-.74-.1-.03-.33-.04-.44-.04-.05,0-.1-.03-.1-.08,0-.08.07-.1.21-.1.3,0,.65,0,.94.01l.54.03c.09,0,2.69,0,2.99-.01.25-.01.46-.04.56-.07.07-.01.12-.07.18-.07.04,0,.05.05.05.12,0,.09-.07.25-.1.61-.01.13-.04.71-.07.86-.01.07-.04.14-.09.14-.08,0-.1-.07-.1-.17,0-.09-.01-.31-.08-.47-.09-.21-.22-.37-.93-.44-.22-.03-1.65-.04-1.79-.04-.05,0-.08.04-.08.13v3.6c0,.09.01.13.08.13.17,0,1.78,0,2.08-.03.31-.03.5-.05.61-.18.09-.1.14-.17.2-.17.04,0,.07.03.07.1s-.07.3-.1.73c-.03.26-.05.74-.05.84,0,.1,0,.25-.09.25-.07,0-.09-.05-.09-.12,0-.13,0-.26-.05-.43-.05-.18-.17-.4-.68-.46-.35-.04-1.65-.07-1.87-.07-.07,0-.09.04-.09.09v1.15c0,.44-.01,1.96,0,2.23.04.9.24,1.07,1.51,1.07.34,0,.91,0,1.25-.14.34-.14.5-.4.59-.94.03-.14.05-.2.12-.2.08,0,.08.1.08.2,0,.1-.1.99-.17,1.27-.09.34-.2.34-.71.34-.98,0-1.7-.03-2.21-.04-.51-.03-.82-.04-1.02-.04-.03,0-.25,0-.52.01-.26,0-.56.03-.76.03-.14,0-.21-.03-.21-.1,0-.04.03-.08.1-.08.12,0,.27-.03.39-.05.26-.05.33-.34.38-.72.07-.55.07-1.58.07-2.83v-2.3Z"/><path class="cls-3" d="M115.52,39.73c0,1.25,0,2.29.07,2.83.04.38.12.67.51.72.18.03.47.05.59.05.08,0,.1.04.1.08,0,.07-.07.1-.21.1-.72,0-1.54-.04-1.61-.04s-.89.04-1.28.04c-.14,0-.21-.03-.21-.1,0-.04.03-.08.1-.08.12,0,.27-.03.39-.05.26-.05.33-.34.38-.72.07-.55.07-1.58.07-2.83v-5.52l-1.93.03c-.81.01-1.12.1-1.33.42-.14.22-.18.31-.22.4-.04.1-.08.13-.13.13-.04,0-.07-.04-.07-.12,0-.13.26-1.25.29-1.36.03-.08.08-.25.13-.25.09,0,.22.13.57.16.38.04.88.07,1.03.07h4.9c.42,0,.72-.03.93-.07.2-.03.31-.07.37-.07.07,0,.07.08.07.16,0,.39-.04,1.29-.04,1.44,0,.12-.04.17-.09.17-.07,0-.09-.04-.1-.22v-.14c-.05-.39-.37-.69-1.62-.72l-1.65-.03v5.52Z"/><path class="cls-3" d="M123.5,40.13c0-.71-.13-.99-.3-1.37-.09-.21-1.84-3.08-2.3-3.76-.33-.48-.65-.81-.89-.97-.2-.13-.44-.21-.56-.21-.07,0-.13-.03-.13-.09,0-.05.05-.09.17-.09.25,0,1.23.04,1.29.04.09,0,.59-.04,1.1-.04.14,0,.17.04.17.09s-.08.07-.2.12c-.1.05-.17.13-.17.24,0,.16.07.31.17.51.21.38,2.17,3.75,2.4,4.13.25-.55,1.91-3.41,2.17-3.84.17-.27.22-.5.22-.67,0-.18-.05-.33-.21-.37-.12-.04-.2-.07-.2-.13,0-.05.08-.08.21-.08.34,0,.76.04.86.04.08,0,1.02-.04,1.27-.04.09,0,.17.03.17.08,0,.07-.07.1-.17.1-.14,0-.39.05-.6.18-.26.16-.4.31-.69.67-.43.52-2.26,3.59-2.49,4.15-.2.47-.2.87-.2,1.31v1.12c0,.21,0,.76.04,1.31.03.38.14.67.54.72.18.03.47.05.59.05.08,0,.1.04.1.08,0,.07-.07.1-.21.1-.72,0-1.54-.04-1.61-.04s-.89.04-1.28.04c-.14,0-.21-.03-.21-.1,0-.04.03-.08.1-.08.12,0,.27-.03.39-.05.26-.05.38-.34.4-.72.04-.55.04-1.1.04-1.31v-1.12Z"/><path class="cls-3" d="M133.17,40.81c0-1.53.98-2.55,2-3.15-.48-.68-.64-1.21-.64-1.8,0-1.03,1.06-2.4,2.81-2.4.67,0,1.23.13,1.58.33.16.09.17.17.17.33,0,.39-.05,1.31-.09,1.5-.04.2-.08.22-.13.22-.07,0-.08-.05-.08-.25,0-.34-.08-.77-.4-1.11-.29-.3-.73-.57-1.31-.57-.78,0-1.66.48-1.66,1.71,0,1.02.71,1.87,2.06,3.34.44.48,2.05,1.98,2.47,2.34.37-.5.67-1.37.67-2.17,0-.2-.05-.44-.25-.64-.17-.17-.44-.21-.64-.21-.08,0-.16-.03-.16-.09s.1-.09.21-.09c.31,0,.84.01,1.57.09.2.03.24.13.24.26,0,1.06-.72,2.38-1.29,3.08.86.73,1.44,1.08,1.8,1.29.42.25,1.08.51,1.55.51.12,0,.18.01.18.09,0,.05-.1.09-.22.09h-1.28c-.97,0-1.28-.09-2.72-1.23-.3.3-1.33,1.41-3.26,1.41-2.29,0-3.17-1.75-3.17-2.89ZM139.26,42.04c-.73-.6-2.02-1.84-2.36-2.21-.34-.37-1.18-1.29-1.54-1.83-.68.44-1.18,1.15-1.18,2.19,0,1.63,1.15,2.81,2.61,2.81,1.21,0,2.02-.51,2.47-.97Z"/><path class="cls-3" d="M148.37,43.34c-.18-.09-.2-.14-.2-.5,0-.65.05-1.18.07-1.38.01-.14.04-.21.1-.21.08,0,.09.04.09.14,0,.12,0,.3.04.48.2.97,1.06,1.33,1.93,1.33,1.25,0,1.87-.9,1.87-1.74,0-.9-.38-1.42-1.5-2.35l-.59-.48c-1.38-1.14-1.7-1.95-1.7-2.83,0-1.4,1.04-2.35,2.7-2.35.51,0,.89.05,1.21.13.25.05.35.07.46.07s.13.03.13.09-.05.5-.05,1.38c0,.21-.03.3-.09.3-.08,0-.09-.07-.1-.17-.01-.16-.09-.51-.17-.65-.08-.14-.43-.69-1.63-.69-.9,0-1.61.56-1.61,1.51,0,.74.34,1.21,1.59,2.19l.37.29c1.54,1.21,1.91,2.02,1.91,3.07,0,.54-.21,1.53-1.11,2.17-.56.39-1.27.55-1.97.55-.61,0-1.21-.09-1.75-.35Z"/><path class="cls-3" d="M156.65,37.43c0-2.04,0-2.4-.03-2.82-.03-.44-.13-.65-.56-.74-.1-.03-.33-.04-.44-.04-.05,0-.1-.03-.1-.08,0-.08.07-.1.21-.1.3,0,.65,0,.94.01l.54.03c.09,0,2.69,0,2.99-.01.25-.01.46-.04.56-.07.07-.01.12-.07.18-.07.04,0,.05.05.05.12,0,.09-.07.25-.1.61-.01.13-.04.71-.07.86-.01.07-.04.14-.09.14-.08,0-.1-.07-.1-.17,0-.09-.01-.31-.08-.47-.09-.21-.22-.37-.93-.44-.22-.03-1.65-.04-1.79-.04-.05,0-.08.04-.08.13v3.6c0,.09.01.13.08.13.17,0,1.78,0,2.08-.03.31-.03.5-.05.61-.18.09-.1.14-.17.2-.17.04,0,.07.03.07.1s-.07.3-.1.73c-.03.26-.05.74-.05.84,0,.1,0,.25-.09.25-.07,0-.09-.05-.09-.12,0-.13,0-.26-.05-.43-.05-.18-.17-.4-.68-.46-.35-.04-1.65-.07-1.87-.07-.07,0-.09.04-.09.09v1.15c0,.44-.01,1.96,0,2.23.04.9.23,1.07,1.51,1.07.34,0,.91,0,1.25-.14.34-.14.5-.4.59-.94.03-.14.05-.2.12-.2.08,0,.08.1.08.2,0,.1-.1.99-.17,1.27-.09.34-.2.34-.71.34-.98,0-1.7-.03-2.21-.04-.51-.03-.82-.04-1.02-.04-.03,0-.25,0-.52.01-.26,0-.56.03-.76.03-.14,0-.21-.03-.21-.1,0-.04.03-.08.1-.08.12,0,.27-.03.39-.05.26-.05.33-.34.38-.72.07-.55.07-1.58.07-2.83v-2.3Z"/><path class="cls-3" d="M164.71,42.29c-1.27-1.14-1.58-2.62-1.58-3.87,0-.87.3-2.4,1.46-3.56.78-.78,1.97-1.4,3.98-1.4.52,0,1.25.04,1.89.16.5.09.91.17,1.33.2.14.01.17.07.17.14,0,.1-.04.26-.07.73-.03.43-.03,1.15-.04,1.35-.01.2-.04.27-.12.27-.09,0-.1-.09-.1-.27,0-.51-.21-1.04-.55-1.33-.46-.39-1.46-.74-2.61-.74-1.74,0-2.55.51-3,.95-.95.91-1.18,2.08-1.18,3.41,0,2.49,1.92,4.78,4.71,4.78.98,0,1.75-.12,2.27-.65.27-.29.44-.86.48-1.1.03-.14.05-.2.13-.2.07,0,.09.09.09.2,0,.09-.16,1.23-.29,1.67-.08.25-.1.27-.34.38-.52.21-1.51.3-2.35.3-1.96,0-3.28-.48-4.31-1.41Z"/><path class="cls-3" d="M174.37,37.43c0-2.04,0-2.4-.03-2.82-.03-.44-.13-.65-.56-.74-.1-.03-.33-.04-.44-.04-.05,0-.1-.03-.1-.08,0-.08.07-.1.21-.1.59,0,1.38.04,1.5.04s.9-.04,1.29-.04c.14,0,.21.03.21.1,0,.05-.05.08-.1.08-.09,0-.17.01-.33.04-.35.05-.46.29-.48.74-.03.42-.03.78-.03,2.82v1.83c0,1.88.42,2.69.98,3.23.64.6,1.23.72,1.97.72.8,0,1.58-.38,2.05-.94.6-.74.76-1.85.76-3.2v-1.63c0-2.04,0-2.4-.03-2.82-.03-.44-.13-.65-.56-.74-.1-.03-.33-.04-.44-.04-.05,0-.1-.03-.1-.08,0-.08.07-.1.21-.1.59,0,1.31.04,1.38.04.09,0,.71-.04,1.1-.04.14,0,.21.03.21.1,0,.05-.05.08-.1.08-.09,0-.17.01-.33.04-.35.08-.46.29-.48.74-.03.42-.03.78-.03,2.82v1.4c0,1.41-.16,2.98-1.2,3.9-.94.84-1.92.97-2.69.97-.44,0-1.76-.05-2.69-.93-.64-.61-1.14-1.53-1.14-3.43v-1.91Z"/><path class="cls-3" d="M185.97,37.43c0-2.04,0-2.4-.03-2.82-.03-.44-.13-.65-.56-.74-.1-.03-.33-.04-.44-.04-.05,0-.1-.03-.1-.08,0-.08.07-.1.21-.1.59,0,1.41.04,1.48.04.14,0,1.14-.04,1.54-.04.82,0,1.7.08,2.39.57.33.23.9.87.9,1.78,0,.97-.4,1.93-1.58,3.02,1.07,1.37,1.96,2.53,2.72,3.34.71.74,1.27.89,1.59.94.25.04.43.04.51.04.07,0,.12.04.12.08,0,.08-.08.1-.31.1h-.93c-.73,0-1.06-.07-1.4-.25-.56-.3-1.02-.94-1.76-1.92-.55-.72-1.16-1.59-1.42-1.93-.05-.05-.09-.08-.17-.08l-1.61-.03c-.07,0-.09.04-.09.1v.31c0,1.25,0,2.29.07,2.83.04.38.12.67.51.72.18.03.47.05.59.05.08,0,.1.04.1.08,0,.07-.07.1-.21.1-.72,0-1.54-.04-1.61-.04-.01,0-.84.04-1.23.04-.14,0-.21-.03-.21-.1,0-.04.03-.08.1-.08.12,0,.27-.03.39-.05.26-.05.33-.34.38-.72.07-.55.07-1.58.07-2.83v-2.3ZM187.01,38.56c0,.07.03.12.09.16.2.12.8.21,1.37.21.31,0,.68-.04.98-.25.46-.31.8-1.02.8-2.01,0-1.63-.86-2.61-2.26-2.61-.39,0-.74.04-.88.08-.07.03-.1.08-.1.16v4.27Z"/><path class="cls-3" d="M196.91,39.73c0,1.25,0,2.29.07,2.83.04.38.12.67.51.72.18.03.47.05.59.05.08,0,.1.04.1.08,0,.07-.07.1-.21.1-.72,0-1.54-.04-1.61-.04s-.89.04-1.28.04c-.14,0-.21-.03-.21-.1,0-.04.03-.08.1-.08.12,0,.27-.03.39-.05.26-.05.33-.34.38-.72.07-.55.07-1.58.07-2.83v-2.3c0-2.04,0-2.4-.03-2.82-.03-.44-.16-.67-.44-.73-.14-.04-.31-.05-.4-.05-.05,0-.1-.03-.1-.08,0-.08.07-.1.21-.1.43,0,1.25.04,1.32.04s.89-.04,1.28-.04c.14,0,.21.03.21.1,0,.05-.05.08-.1.08-.09,0-.17.01-.33.04-.35.07-.46.29-.48.74-.03.42-.03.78-.03,2.82v2.3Z"/><path class="cls-3" d="M204.34,39.73c0,1.25,0,2.29.07,2.83.04.38.12.67.51.72.18.03.47.05.59.05.08,0,.1.04.1.08,0,.07-.07.1-.21.1-.72,0-1.54-.04-1.61-.04s-.89.04-1.28.04c-.14,0-.21-.03-.21-.1,0-.04.03-.08.1-.08.12,0,.27-.03.39-.05.26-.05.33-.34.38-.72.07-.55.07-1.58.07-2.83v-5.52l-1.93.03c-.81.01-1.12.1-1.33.42-.14.22-.18.31-.22.4-.04.1-.08.13-.13.13-.04,0-.07-.04-.07-.12,0-.13.26-1.25.29-1.36.03-.08.08-.25.13-.25.09,0,.22.13.57.16.38.04.88.07,1.03.07h4.9c.42,0,.72-.03.93-.07.2-.03.31-.07.37-.07.07,0,.07.08.07.16,0,.39-.04,1.29-.04,1.44,0,.12-.04.17-.09.17-.07,0-.09-.04-.1-.22v-.14c-.05-.39-.37-.69-1.62-.72l-1.65-.03v5.52Z"/><path class="cls-3" d="M212.32,40.13c0-.71-.13-.99-.3-1.37-.09-.21-1.84-3.08-2.3-3.76-.33-.48-.65-.81-.89-.97-.2-.13-.44-.21-.56-.21-.07,0-.13-.03-.13-.09,0-.05.05-.09.17-.09.25,0,1.23.04,1.29.04.09,0,.59-.04,1.1-.04.14,0,.17.04.17.09s-.08.07-.2.12c-.1.05-.17.13-.17.24,0,.16.07.31.17.51.21.38,2.17,3.75,2.4,4.13.25-.55,1.91-3.41,2.17-3.84.17-.27.22-.5.22-.67,0-.18-.05-.33-.21-.37-.12-.04-.2-.07-.2-.13,0-.05.08-.08.21-.08.34,0,.76.04.86.04.08,0,1.02-.04,1.27-.04.09,0,.17.03.17.08,0,.07-.07.1-.17.1-.14,0-.39.05-.6.18-.26.16-.4.31-.69.67-.43.52-2.26,3.59-2.49,4.15-.2.47-.2.87-.2,1.31v1.12c0,.21,0,.76.04,1.31.03.38.14.67.54.72.18.03.47.05.59.05.08,0,.1.04.1.08,0,.07-.07.1-.21.1-.72,0-1.54-.04-1.61-.04s-.89.04-1.28.04c-.14,0-.21-.03-.21-.1,0-.04.03-.08.1-.08.12,0,.27-.03.39-.05.26-.05.38-.34.4-.72.04-.55.04-1.1.04-1.31v-1.12Z"/><path class="cls-1" d="M59.07,65.71c.38.36-2.37-.4-3.21-.68-1.2-.39-2.59-.82-3.38-1.35-.25-.17.85.22,1.18.34,1.61.56,3.41,1.3,5.4,1.69Z"/><polygon class="cls-3" points="72.42 43.48 73.43 43.08 72.78 43.94 73.69 44.49 72.7 44.62 72.83 45.59 72.17 44.88 71.46 45.56 71.51 44.67 70.55 44.52 71.34 43.94 70.76 43.1 71.71 43.46 72.04 42.49 72.42 43.48"/><path class="cls-1" d="M51.81,30.27c-5.98,2.86-12.25,8.1-11.65,17.37.32,4.87,2.48,8.61,5.23,11.31.91.89,2.05,1.56,2.7,2.7-2.5-.79-4.38-2.99-5.74-5.07-1.52-2.32-2.63-5.21-2.87-8.27-.67-8.66,4.61-15,11.15-17.9,1.01-.42,1.64-.24,1.18-.15Z"/><path class="cls-1" d="M63.18,30.23c5.98,2.86,11.92,7.96,11.31,17.22-.32,4.87-2.48,8.61-5.23,11.31-.91.89-3.9,3.01-4.55,4.16,2.5-.79,6.24-4.44,7.59-6.52,1.52-2.32,2.63-5.21,2.87-8.27.67-8.66-4.61-15-11.15-17.9-1.01-.42-1.3-.09-.84,0Z"/><path class="cls-3" d="M59.47,57.88c-6.23,0-11.27-5.05-11.27-11.27,0-1.41.26-2.76.73-4-.98,1.67-1.55,3.62-1.55,5.69,0,6.23,5.05,11.27,11.27,11.27,4.82,0,8.93-3.02,10.54-7.27-1.96,3.34-5.58,5.58-9.73,5.58"/><path class="cls-3" d="M58.99,37.96c-.21,0-.43,0-.64.02,4.96.33,8.89,4.45,8.89,9.5s-3.92,9.17-8.89,9.5c.21.01.42.02.64.02,5.26,0,9.52-4.26,9.52-9.52s-4.26-9.52-9.52-9.52"/><path class="cls-3" d="M54.09,27.66c.85-.28,1.54.14,2.53.17.07-.32.48-.31.34-.84-.57-.48-1.1.06-1.52-.51-.04-.53.99-.86.17-1.18-.53.38-1.1.38-1.86.34.1.69.52,1.06.34,2.03Z"/><path class="cls-3" d="M61.69,27.66c-.07-.8,0-1.47.34-1.86-.72-.29-1.49-.06-2.2-.51-.22.79.56.57.34,1.35-.25.26-.86.15-1.35.17-.02.42-.03.81.17,1.01,1.03-.03,1.79-.49,2.7-.17Z"/><path class="cls-3" d="M57.43,26.32c.1-.06.66,0,.87.06,0,.45-.05.89.19,1.11-.2-.92.52-2.16.17-3.21-.28.45-1.34.41-1.69,0,0,.56.16,2.28.34,3.21.21-.25-.17-.99.12-1.17Z"/><path class="cls-3" d="M49.37,62.95c.35-1.26,1.43-2.01.51-3.21.35-.37.48.08,1.01,0,.36-.88.63-1.85,1.35-2.36,1.17.35,1.89,1.15,3.04,1.52-.44-1.73-2.29-2.84-4.39-2.36-.84,2.31-2.26,4.05-2.87,6.59.73,1.19,2.89,1.83,4.39,1.69-1.15-.48-2.67-.6-3.04-1.86Z"/><path class="cls-3" d="M52.07,57.72c2.73,2.32,6.81,4.43,10.64,5.57.91.27,2.3,1.06,3.21,0-6.18-.29-9.14-3.81-13.85-5.57Z"/><path class="cls-3" d="M50.21,59.91c.13.72.94.75,1.52,1.01.03-.88-1-.68-1.52-1.01Z"/><path class="cls-3" d="M52.07,61.43c.7-.39-.17-1.43,0-1.01,0,.17.14.2.17.34-.24.72-1.82.38-.17.68Z"/><path class="cls-3" d="M62.2,66.16c-.7.41-2.05.03-2.7-.17,2.65.78,3.4-1.01,4.73-2.03-4.93-1.15-8.45-3.7-12.5-5.74,0,.85-.68,1.01-.68,1.86.44-.17,1.13-.3,1.35.17.34.42.14,1.39-.51,1.35-.95.22-.84-.63-1.35-.84-.19.71-.61,1.19-.84,1.86.65.42,1.55.58,2.2,1.01-.95.11-1.89-1.21-2.36-.51,3.6,1.75,7.2,3.5,12.5,3.55-.09-.24.66-.41.17-.51ZM55.54,63.19c-.36,0-.65-.29-.65-.65s.29-.65.65-.65.65.29.65.65-.29.65-.65.65ZM58.87,64.62c-.32,0-.57-.26-.57-.57s.26-.57.57-.57.57.26.57.57-.26.57-.57.57Z"/><polygon class="cls-3" points="66.98 34.31 67.98 33.91 67.34 34.77 68.25 35.32 67.26 35.45 67.39 36.42 66.73 35.71 66.02 36.39 66.07 35.5 65.11 35.35 65.9 34.77 65.32 33.93 66.27 34.29 66.6 33.32 66.98 34.31"/><polygon class="cls-3" points="48.27 34.31 47.26 33.91 47.9 34.77 46.99 35.32 47.98 35.45 47.85 36.42 48.51 35.71 49.22 36.39 49.18 35.5 50.13 35.35 49.34 34.77 49.92 33.93 48.98 34.29 48.65 33.32 48.27 34.31"/><polygon class="cls-3" points="42.82 43.48 41.82 43.08 42.46 43.94 41.55 44.49 42.54 44.62 42.41 45.59 43.07 44.88 43.78 45.56 43.73 44.67 44.69 44.52 43.9 43.94 44.48 43.1 43.53 43.46 43.2 42.49 42.82 43.48"/><path class="cls-3" d="M57.94,39.67c-4.22,0-7.65,3.42-7.65,7.65s3.42,7.65,7.65,7.65,7.65-3.42,7.65-7.65-3.42-7.65-7.65-7.65ZM60.27,51.15l-1.82-1.96-1.96,1.86.14-2.46-2.64-.41,2.18-1.59-1.59-2.32,2.59,1,.91-2.68,1.05,2.73,2.77-1.09-1.77,2.36,2.5,1.5-2.73.36.36,2.68Z"/><path class="cls-3" d="M64.23,29.18c-1.66-.3-3.23-2.25-5.07-.84-.21-.49-.78-.68-1.36-.66-.62.02-1.25.28-1.51.66-1.77-1.18-3.31.71-4.73.51,0,.4-.29.5-.17,1.01.36.5,1.07.29,1.69.17.57.61,1.01,1.35.84,2.7-.42-.02-.81-.03-1.01.17-.13.84.59.83.17,1.52,1.19.16,1.22,1.49,1.86,2.2h1.18c.05,1.02.95,1.43,1.68,1.96,1.32-1.11,1.45-1.18,1.37-2.03.25-.09.7,0,1.53-.05.27-.4.57-2.14,1.49-2.17-.37-1.04.73-1.28.46-1.59-.53-.65-1.13.17-1.13-.34-.2-3.22,2.68-1.09,2.7-3.21ZM59.64,28.92c.51,0,.92.41.92.92s-.41.92-.92.92-.92-.41-.92-.92.41-.92.92-.92ZM58.07,32.09v.69h.57v.69h-.69v-.69h-.57v-.61h-.53v-.69h.69v.61h.53ZM56.31,28.92c.51,0,.92.41.92.92s-.41.92-.92.92-.92-.41-.92-.92.41-.92.92-.92ZM56.02,33.48h-.69v-.69h-.5v-.69h.69v.69h.5v.69ZM56.58,33.48v-.69h-.45v-.61h-.6v-.69h.69v.61h.6v.69h.45v.69h-.69ZM57.83,35.61c-.51,0-.92-.41-.92-.92s.41-.92.92-.92.92.41.92.92-.41.92-.92.92ZM59.86,33.48h-.69v-.69h-.36v-.61h-.63v-.69h.69v.61h.63v.69h.36v.69ZM60.88,32.78h-.69v-.61h-.58v-.69h.69v.61h.58v.69Z"/><path class="cls-3" d="M58.81,34.5c.09.52-.3,1.12-.98,1.12s-1.04-.56-.96-1.08c-6.68.49-11.87,6.04-11.87,12.84,0,1.91.42,3.72,1.16,5.35-.25-1-.38-2.05-.38-3.13,0-7.13,5.78-12.91,12.91-12.91,5.22,0,9.72,3.1,11.75,7.56-1.34-5.37-5.93-9.4-11.62-9.75Z"/><rect class="cls-3" x="77" y="29.93" width=".3" height="36.12"/><path class="cls-3" d="M79.11,65.62v-3.73h.35v1.6h2.2v-1.6h.35v3.73h-.35v-1.83h-2.2v1.83h-.35Z"/><path class="cls-3" d="M83,64.35c0,.15.02.28.06.41.04.13.09.24.17.34.07.09.17.17.28.23.11.06.24.09.39.09.2,0,.38-.05.52-.16.14-.11.24-.26.29-.46h.35c-.04.13-.09.25-.15.35-.06.11-.14.2-.23.28-.09.08-.2.14-.33.19-.13.04-.28.07-.45.07-.21,0-.4-.04-.55-.11-.16-.07-.28-.17-.38-.3-.1-.13-.17-.27-.22-.45-.05-.17-.07-.35-.07-.55s.03-.38.09-.55c.06-.17.14-.32.24-.45.11-.13.23-.23.39-.31.15-.07.32-.11.52-.11.37,0,.66.13.87.38.21.25.31.62.31,1.11h-2.08ZM84.75,64.1c0-.13-.02-.25-.05-.37-.04-.12-.09-.22-.16-.3-.07-.09-.16-.15-.27-.2-.11-.05-.23-.08-.37-.08s-.26.03-.36.08c-.11.05-.19.12-.27.21-.07.09-.13.19-.18.3-.04.11-.07.23-.09.36h1.75Z"/><path class="cls-3" d="M85.73,65.62v-3.73h.31v3.73h-.31Z"/><path class="cls-3" d="M87.18,66.68h-.31v-3.74h.31v.47h.01c.04-.09.1-.16.17-.23.07-.07.15-.13.23-.17.08-.04.17-.08.26-.1.09-.02.18-.04.26-.04.22,0,.4.04.55.11.15.07.28.17.38.3.1.13.17.28.21.45.04.17.07.36.07.55,0,.19-.02.37-.07.54-.05.17-.12.32-.22.45-.1.13-.22.23-.37.31-.15.08-.33.12-.53.12-.19,0-.37-.04-.55-.13-.17-.08-.31-.21-.41-.38v1.49ZM87.18,64.29c0,.15.02.3.06.43.04.14.1.26.18.36.08.1.17.18.28.24.11.06.24.09.38.09.16,0,.3-.03.42-.1.12-.06.22-.15.29-.26.08-.11.13-.24.17-.39.03-.15.05-.3.04-.47,0-.17-.02-.32-.07-.45-.05-.13-.11-.24-.19-.33-.08-.09-.18-.16-.29-.2-.11-.05-.23-.07-.36-.07-.15,0-.27.03-.39.09-.11.06-.21.14-.28.24-.08.1-.13.22-.17.36-.04.14-.06.29-.06.45Z"/><path class="cls-3" d="M90.03,62.36v-.46h.34v.46h-.34ZM90.04,65.62v-2.68h.31v2.68h-.31Z"/><path class="cls-3" d="M91.46,65.62h-.31v-2.68h.31v.37c.12-.13.25-.24.39-.32.13-.08.29-.12.48-.12.17,0,.32.03.46.09.14.06.26.16.36.3.07.1.1.2.12.3.01.1.02.21.02.32v1.76h-.31v-1.75c0-.24-.05-.42-.16-.54-.11-.12-.28-.18-.53-.18-.1,0-.18.01-.26.04-.08.03-.15.07-.21.12-.06.05-.12.1-.16.17-.04.06-.08.13-.1.2-.03.09-.05.17-.06.25,0,.08-.01.17-.01.26v1.44Z"/><path class="cls-3" d="M96.09,62.94h.31v2.42c0,.18-.02.35-.05.52-.04.16-.1.31-.19.43-.09.12-.22.22-.38.3-.16.07-.37.11-.63.11-.2,0-.37-.02-.51-.08-.14-.05-.26-.11-.35-.19-.09-.08-.16-.16-.2-.25-.05-.09-.07-.18-.07-.26h.33c.02.1.06.18.11.25.05.06.11.11.18.15.07.04.15.06.24.07.09.01.18.02.27.02.21,0,.38-.04.51-.11.13-.07.22-.17.29-.28.07-.12.11-.25.13-.4.02-.15.03-.3.02-.46-.1.17-.24.29-.41.38s-.36.13-.55.13c-.2,0-.38-.04-.53-.12-.15-.08-.27-.18-.37-.31-.1-.13-.17-.28-.22-.45-.05-.17-.07-.35-.07-.54,0-.2.02-.38.07-.55.04-.17.12-.32.21-.45.1-.13.22-.22.38-.3.15-.07.34-.11.55-.11.09,0,.17.01.26.04.09.02.18.06.26.1.08.04.16.1.23.17.07.07.13.15.17.23h.01v-.47ZM96.09,64.29c0-.16-.02-.31-.06-.45-.04-.14-.1-.26-.17-.36-.08-.1-.17-.18-.28-.24-.11-.06-.24-.09-.39-.09-.13,0-.25.02-.36.07-.11.05-.21.12-.29.2-.08.09-.15.2-.19.33-.05.13-.07.28-.07.45,0,.17,0,.33.04.47.03.15.09.28.17.39.08.11.17.2.29.26.12.06.26.1.42.1.14,0,.27-.03.38-.09.11-.06.21-.14.28-.24.08-.1.14-.22.18-.36.04-.14.06-.28.06-.43Z"/><path class="cls-3" d="M99.81,63.69l1.12-1.8h.41l-1.35,2.1v1.63h-.35v-1.6l-1.33-2.13h.4l1.1,1.8Z"/><path class="cls-3" d="M102.38,65.69c-.17,0-.33-.03-.48-.09-.15-.06-.28-.15-.39-.26-.11-.12-.2-.26-.27-.44-.07-.18-.1-.38-.1-.62,0-.2.03-.38.08-.55.05-.17.13-.32.23-.45.1-.13.23-.23.39-.3.16-.07.34-.11.54-.11s.39.04.55.11c.16.07.28.17.39.3.1.13.18.28.23.45.05.17.08.36.08.55,0,.21-.03.41-.09.58-.06.17-.14.32-.25.44-.11.12-.24.22-.39.29-.15.07-.32.1-.51.1ZM103.29,64.28c0-.16-.02-.31-.05-.45-.03-.14-.09-.26-.16-.36-.07-.1-.17-.18-.28-.24-.11-.06-.25-.09-.42-.09s-.3.03-.42.1c-.12.06-.21.15-.28.25-.07.11-.13.23-.16.36-.03.14-.05.28-.05.42,0,.17.02.32.06.46.04.14.1.26.17.36.08.1.17.18.28.23.11.06.24.08.39.08.16,0,.3-.03.42-.1.12-.06.21-.15.28-.26.07-.11.13-.23.16-.36.03-.13.05-.27.05-.42Z"/><path class="cls-3" d="M106,62.94h.31v2.68h-.31v-.37s-.09.1-.14.15c-.05.05-.11.1-.18.14-.07.04-.15.08-.24.11-.09.03-.19.04-.31.04-.18,0-.33-.03-.45-.08-.12-.05-.22-.12-.29-.21-.07-.09-.13-.19-.16-.31-.03-.12-.05-.25-.05-.39v-1.77h.31v1.76c0,.23.05.41.16.53.11.12.28.18.53.18.13,0,.24-.03.34-.08.1-.05.19-.12.26-.21.07-.09.12-.2.16-.32.04-.12.06-.26.06-.41v-1.46Z"/><path class="cls-3" d="M108.54,65.62v-3.73h1.36c.24,0,.44.03.6.08.16.05.28.13.37.23.09.1.16.21.19.33.04.13.05.26.05.4,0,.21-.04.38-.13.51-.08.14-.19.24-.33.32-.13.08-.29.13-.46.16-.17.03-.34.05-.51.05h-.8v1.65h-.35ZM109.7,63.68c.17,0,.31-.01.44-.03.13-.02.24-.06.33-.12.09-.06.16-.13.21-.23.05-.1.08-.23.08-.39,0-.23-.08-.41-.23-.53-.15-.12-.4-.18-.73-.18h-.91v1.48h.81Z"/><path class="cls-3" d="M111.71,65.62v-3.73h.31v3.73h-.31Z"/><path class="cls-3" d="M114.05,64.06c.06,0,.13-.02.21-.03.08-.01.15-.03.2-.06.05-.02.08-.06.1-.12.01-.06.02-.11.02-.16,0-.16-.05-.29-.15-.39-.1-.1-.27-.15-.52-.15-.11,0-.21,0-.3.03-.09.02-.17.05-.24.1-.07.05-.12.11-.17.19-.04.08-.07.17-.09.29h-.32c.01-.16.05-.29.11-.41.06-.11.14-.2.24-.27.1-.07.21-.12.34-.16.13-.03.27-.05.41-.05.13,0,.26.01.38.04.12.03.22.08.31.14.09.06.16.15.21.26.05.11.07.24.07.39v1.46c0,.12.02.2.06.23.04.03.13.03.26-.02v.24s-.06.02-.11.03c-.05.01-.09.02-.14.02-.05,0-.09,0-.14-.01-.05,0-.09-.02-.12-.05-.03-.03-.06-.06-.07-.09-.02-.04-.03-.08-.04-.12,0-.04-.01-.09-.01-.14-.13.14-.28.26-.45.33-.17.08-.35.11-.55.11-.12,0-.23-.02-.34-.05-.11-.03-.2-.08-.29-.15-.08-.07-.15-.15-.2-.24-.05-.09-.07-.21-.07-.34,0-.46.31-.72.94-.81l.43-.06ZM114.57,64.21c-.13.06-.26.09-.4.11-.13.02-.27.03-.4.04-.24.02-.42.07-.56.16-.13.09-.2.23-.2.41,0,.08.02.15.05.22.03.06.08.11.13.15.05.04.12.07.19.09.07.02.14.03.21.03.12,0,.25-.02.36-.05.12-.03.22-.08.31-.14.09-.06.16-.14.22-.24.06-.1.08-.21.08-.35v-.42Z"/><path class="cls-3" d="M116,65.62h-.31v-2.68h.31v.37c.12-.13.25-.24.39-.32.13-.08.29-.12.48-.12.17,0,.32.03.46.09.14.06.26.16.36.3.07.1.1.2.12.3.01.1.02.21.02.32v1.76h-.31v-1.75c0-.24-.05-.42-.16-.54-.11-.12-.28-.18-.53-.18-.1,0-.18.01-.26.04-.08.03-.15.07-.21.12s-.12.1-.16.17c-.04.06-.08.13-.1.2-.03.09-.05.17-.06.25,0,.08-.01.17-.01.26v1.44Z"/><path class="cls-3" d="M121.24,64.06c.06,0,.13-.02.21-.03.08-.01.15-.03.2-.06.05-.02.08-.06.1-.12.01-.06.02-.11.02-.16,0-.16-.05-.29-.15-.39-.1-.1-.27-.15-.52-.15-.11,0-.21,0-.29.03-.09.02-.17.05-.24.1-.07.05-.12.11-.17.19-.04.08-.07.17-.09.29h-.32c.01-.16.05-.29.11-.41.06-.11.14-.2.24-.27.1-.07.21-.12.34-.16.13-.03.27-.05.41-.05.13,0,.26.01.38.04.12.03.22.08.31.14.09.06.16.15.21.26.05.11.08.24.08.39v1.46c0,.12.02.2.06.23.04.03.13.03.26-.02v.24s-.06.02-.11.03c-.05.01-.09.02-.14.02-.05,0-.09,0-.14-.01-.05,0-.09-.02-.12-.05-.03-.03-.06-.06-.08-.09-.02-.04-.03-.08-.04-.12,0-.04-.01-.09-.01-.14-.13.14-.28.26-.45.33-.17.08-.35.11-.55.11-.12,0-.23-.02-.34-.05-.11-.03-.2-.08-.29-.15-.08-.07-.15-.15-.2-.24-.05-.09-.07-.21-.07-.34,0-.46.31-.72.94-.81l.43-.06ZM121.76,64.21c-.13.06-.26.09-.4.11-.13.02-.27.03-.4.04-.24.02-.42.07-.56.16-.13.09-.2.23-.2.41,0,.08.02.15.05.22.03.06.08.11.13.15.05.04.12.07.19.09.07.02.14.03.21.03.12,0,.24-.02.36-.05.12-.03.22-.08.31-.14.09-.06.16-.14.22-.24.05-.1.08-.21.08-.35v-.42Z"/><path class="cls-3" d="M124.52,64.51c.01.17.05.31.11.42.06.12.14.21.23.28.09.07.2.12.33.16.12.03.26.05.4.05.17,0,.31-.02.43-.06.12-.04.22-.1.29-.17.08-.07.13-.15.17-.25.04-.09.05-.19.05-.3,0-.15-.03-.26-.1-.35-.07-.09-.15-.16-.26-.22-.1-.06-.23-.1-.36-.14-.14-.03-.28-.07-.42-.1-.14-.03-.28-.07-.42-.12-.14-.04-.26-.11-.36-.18-.11-.08-.19-.17-.26-.29-.07-.12-.1-.27-.1-.45,0-.13.03-.25.08-.37.05-.12.13-.23.24-.32.1-.09.24-.17.4-.22.16-.06.34-.08.55-.08s.39.03.55.09c.16.06.29.14.39.24.1.1.18.22.23.35.05.13.08.28.08.43h-.34c0-.14-.03-.26-.07-.37-.05-.1-.12-.19-.2-.25-.09-.07-.18-.11-.3-.15-.11-.03-.22-.05-.34-.05-.18,0-.33.03-.45.08-.12.05-.22.12-.29.19-.07.08-.12.17-.15.26-.03.1-.03.19-.02.29.02.12.07.22.15.29.08.07.17.13.28.18.11.05.23.08.36.11.13.03.27.06.41.09.14.03.27.07.4.12.13.04.24.1.34.18.1.08.18.17.24.29.06.12.09.27.09.45,0,.34-.12.61-.36.8-.24.19-.57.28-1,.28-.19,0-.37-.03-.54-.07-.17-.05-.31-.13-.43-.23-.12-.1-.22-.23-.28-.38-.07-.15-.1-.33-.1-.53h.34Z"/><path class="cls-3" d="M127.68,64.35c0,.15.02.28.06.41.04.13.09.24.17.34.07.09.17.17.28.23.11.06.25.09.39.09.2,0,.38-.05.52-.16.15-.11.24-.26.29-.46h.35c-.04.13-.09.25-.15.35-.06.11-.14.2-.23.28-.09.08-.2.14-.33.19-.13.04-.28.07-.44.07-.21,0-.4-.04-.55-.11-.16-.07-.28-.17-.38-.3-.1-.13-.17-.27-.22-.45-.05-.17-.07-.35-.07-.55s.03-.38.09-.55c.06-.17.14-.32.24-.45.1-.13.23-.23.39-.31.15-.07.32-.11.52-.11.37,0,.66.13.87.38.21.25.31.62.31,1.11h-2.08ZM129.43,64.1c0-.13-.02-.25-.05-.37-.04-.12-.09-.22-.16-.3-.07-.09-.16-.15-.27-.2-.11-.05-.23-.08-.37-.08s-.26.03-.37.08c-.11.05-.2.12-.27.21-.07.09-.13.19-.18.3-.05.11-.07.23-.09.36h1.75Z"/><path class="cls-3" d="M132.27,63.78c-.06-.2-.15-.36-.28-.47-.13-.11-.31-.17-.51-.17-.16,0-.29.03-.41.1-.11.07-.21.15-.28.26-.07.11-.13.23-.16.37-.03.14-.05.27-.05.41s.02.28.05.41c.03.13.09.26.16.36.07.11.17.19.28.26.11.06.25.1.41.1.23,0,.42-.06.56-.19.14-.13.23-.3.27-.53h.33c-.03.15-.07.28-.13.41-.06.12-.14.23-.23.32-.1.09-.21.16-.34.2-.13.05-.28.07-.45.07-.21,0-.4-.04-.55-.11-.16-.07-.28-.17-.38-.3-.1-.13-.17-.28-.22-.45-.05-.17-.07-.36-.07-.55,0-.19.03-.36.08-.54.05-.17.13-.32.24-.45.1-.13.23-.24.39-.31.15-.08.33-.12.53-.12.31,0,.56.07.75.22.19.15.31.38.36.69h-.32Z"/><path class="cls-3" d="M135.06,62.94h.31v2.68h-.31v-.37s-.09.1-.14.15c-.05.05-.11.1-.18.14-.07.04-.15.08-.24.11-.09.03-.19.04-.31.04-.18,0-.33-.03-.45-.08s-.22-.12-.29-.21c-.07-.09-.13-.19-.16-.31-.03-.12-.05-.25-.05-.39v-1.77h.31v1.76c0,.23.05.41.16.53.11.12.28.18.53.18.13,0,.24-.03.34-.08.1-.05.19-.12.26-.21.07-.09.12-.2.16-.32.04-.12.06-.26.06-.41v-1.46Z"/><path class="cls-3" d="M136.45,65.62h-.31v-2.68h.31v.5h.01c.09-.21.2-.36.33-.45.14-.08.32-.13.54-.13v.34c-.18,0-.32.02-.43.08-.11.06-.2.14-.27.24-.07.1-.11.22-.14.35-.03.14-.04.28-.04.43v1.31Z"/><path class="cls-3" d="M137.94,64.35c0,.15.02.28.06.41.04.13.09.24.17.34.07.09.17.17.28.23.11.06.24.09.39.09.2,0,.38-.05.52-.16.14-.11.24-.26.29-.46h.35c-.04.13-.09.25-.15.35-.06.11-.14.2-.23.28-.09.08-.2.14-.33.19-.13.04-.28.07-.44.07-.21,0-.4-.04-.55-.11-.15-.07-.28-.17-.38-.3-.1-.13-.17-.27-.22-.45-.05-.17-.07-.35-.07-.55s.03-.38.09-.55c.06-.17.14-.32.24-.45.11-.13.23-.23.39-.31.15-.07.32-.11.52-.11.37,0,.66.13.87.38.21.25.31.62.31,1.11h-2.08ZM139.69,64.1c0-.13-.02-.25-.05-.37-.04-.12-.09-.22-.16-.3-.07-.09-.16-.15-.27-.2-.11-.05-.23-.08-.37-.08s-.26.03-.37.08c-.11.05-.19.12-.27.21-.07.09-.13.19-.18.3-.04.11-.07.23-.09.36h1.75Z"/><path class="cls-3" d="M142.08,65.62v-3.73h2.4v.3h-2.05v1.35h1.86v.3h-1.86v1.78h-.35Z"/><path class="cls-3" d="M146.76,62.94h.31v2.68h-.31v-.37s-.09.1-.14.15c-.05.05-.11.1-.18.14-.07.04-.15.08-.23.11-.09.03-.19.04-.31.04-.18,0-.33-.03-.45-.08s-.22-.12-.29-.21c-.07-.09-.13-.19-.16-.31-.03-.12-.05-.25-.05-.39v-1.77h.31v1.76c0,.23.05.41.16.53.11.12.28.18.53.18.13,0,.24-.03.34-.08.1-.05.19-.12.26-.21.07-.09.12-.2.16-.32.04-.12.06-.26.06-.41v-1.46Z"/><path class="cls-3" d="M148.77,65.63s-.09.02-.15.04c-.06.02-.13.03-.21.03-.16,0-.27-.04-.35-.12-.08-.08-.12-.22-.12-.42v-1.96h-.38v-.26h.38v-.74h.31v.74h.5v.26h-.5v1.84c0,.07,0,.12,0,.17,0,.05.01.09.03.12.02.03.04.05.08.07.04.01.09.02.15.02.04,0,.08,0,.13-.01.04,0,.09-.01.13-.03v.25Z"/><path class="cls-3" d="M151.08,62.94h.31v2.68h-.31v-.37s-.09.1-.14.15c-.05.05-.11.1-.18.14-.07.04-.15.08-.24.11-.09.03-.19.04-.31.04-.18,0-.33-.03-.45-.08-.12-.05-.22-.12-.29-.21-.07-.09-.13-.19-.16-.31-.03-.12-.05-.25-.05-.39v-1.77h.31v1.76c0,.23.05.41.16.53.11.12.28.18.53.18.13,0,.24-.03.34-.08.1-.05.19-.12.26-.21.07-.09.12-.2.16-.32.04-.12.06-.26.06-.41v-1.46Z"/><path class="cls-3" d="M152.47,65.62h-.31v-2.68h.31v.5h.01c.09-.21.2-.36.33-.45.14-.08.32-.13.54-.13v.34c-.18,0-.32.02-.43.08-.11.06-.2.14-.27.24-.07.1-.11.22-.14.35-.03.14-.04.28-.04.43v1.31Z"/><path class="cls-3" d="M153.96,64.35c0,.15.02.28.06.41.04.13.09.24.17.34.07.09.17.17.28.23.11.06.25.09.39.09.2,0,.38-.05.52-.16.15-.11.24-.26.29-.46h.35c-.04.13-.09.25-.15.35-.06.11-.14.2-.23.28-.09.08-.2.14-.33.19-.13.04-.28.07-.44.07-.21,0-.4-.04-.55-.11-.16-.07-.28-.17-.38-.3-.1-.13-.17-.27-.22-.45-.05-.17-.07-.35-.07-.55s.03-.38.09-.55c.06-.17.14-.32.24-.45.11-.13.23-.23.39-.31.15-.07.32-.11.52-.11.37,0,.66.13.87.38.21.25.31.62.31,1.11h-2.08ZM155.71,64.1c0-.13-.02-.25-.05-.37-.04-.12-.09-.22-.16-.3-.07-.09-.16-.15-.27-.2-.11-.05-.23-.08-.37-.08s-.26.03-.37.08c-.11.05-.2.12-.27.21-.07.09-.13.19-.18.3-.05.11-.07.23-.09.36h1.75Z"/><path class="cls-3" d="M80.26,57.91c-1.25-1.12-1.56-2.59-1.56-3.81,0-.86.3-2.37,1.44-3.51.77-.77,1.94-1.38,3.93-1.38.51,0,1.24.04,1.87.15.49.09.9.17,1.31.19.14.01.17.06.17.14,0,.1-.04.26-.06.72-.03.42-.03,1.13-.04,1.33-.01.19-.04.27-.12.27-.09,0-.1-.09-.1-.27,0-.5-.21-1.03-.54-1.31-.45-.39-1.44-.73-2.57-.73-1.71,0-2.51.5-2.96.94-.94.9-1.16,2.05-1.16,3.36,0,2.46,1.89,4.71,4.65,4.71.97,0,1.72-.12,2.24-.64.27-.28.44-.85.48-1.08.03-.14.05-.19.13-.19.06,0,.09.09.09.19,0,.09-.15,1.21-.28,1.65-.08.24-.1.27-.33.37-.51.21-1.49.3-2.32.3-1.93,0-3.23-.48-4.25-1.39Z"/><path class="cls-3" d="M93.3,50.69c2.55,0,4.48,1.56,4.48,4.11s-1.82,4.47-4.54,4.47c-3.1,0-4.43-2.33-4.43-4.3,0-1.76,1.36-4.27,4.49-4.27ZM93.56,58.81c1.02,0,3.06-.54,3.06-3.71,0-2.63-1.6-4-3.39-4-1.89,0-3.26,1.18-3.26,3.57,0,2.55,1.53,4.15,3.58,4.15Z"/><path class="cls-3" d="M100.62,57.63c.03.9.13,1.17.44,1.25.21.05.46.06.57.06.05,0,.09.04.09.09,0,.06-.08.09-.21.09-.64,0-1.09-.04-1.2-.04s-.58.04-1.09.04c-.12,0-.18-.01-.18-.09,0-.05.04-.09.09-.09.09,0,.3-.01.46-.06.28-.08.32-.37.32-1.37v-6.27c0-.44.06-.55.15-.55.13,0,.32.22.44.33.18.18,1.83,1.93,3.58,3.73,1.12,1.16,2.33,2.46,2.68,2.82l-.12-5.48c-.01-.71-.08-.95-.42-1.02-.21-.04-.46-.05-.55-.05-.08,0-.09-.06-.09-.1,0-.06.09-.08.22-.08.51,0,1.06.03,1.18.03s.5-.03.97-.03c.12,0,.21.01.21.08,0,.04-.05.1-.13.1-.05,0-.14,0-.27.03-.37.08-.4.3-.4.95l-.03,6.41c0,.72-.01.79-.09.79-.12,0-.23-.09-.86-.67-.12-.1-1.75-1.71-2.95-2.96-1.31-1.38-2.59-2.72-2.93-3.1l.13,5.16Z"/><path class="cls-3" d="M109.92,58.97c-.15-.08-.17-.12-.17-.41,0-.54.05-.98.06-1.16,0-.12.03-.18.09-.18s.1.04.1.13,0,.24.04.4c.18.8,1.03,1.08,1.79,1.08,1.12,0,1.7-.63,1.7-1.45s-.42-1.16-1.43-1.91l-.51-.39c-1.22-.91-1.62-1.58-1.62-2.34,0-1.29,1.02-2.06,2.51-2.06.45,0,.9.06,1.17.13.22.05.31.05.4.05s.12.01.12.08c0,.05-.05.41-.05,1.16,0,.17-.01.24-.09.24s-.09-.05-.1-.14c-.01-.13-.1-.42-.17-.54-.08-.13-.45-.54-1.47-.54-.82,0-1.51.41-1.51,1.18,0,.69.35,1.09,1.47,1.85l.32.22c1.38.94,1.85,1.7,1.85,2.64,0,.64-.24,1.34-1.06,1.87-.48.31-1.18.39-1.8.39-.53,0-1.18-.08-1.65-.3Z"/><path class="cls-3" d="M117.03,54.01c0-1.7,0-2.01-.03-2.36-.03-.35-.09-.55-.46-.61-.09-.01-.28-.03-.39-.03-.04,0-.09-.05-.09-.09,0-.06.05-.09.18-.09.51,0,1.2.03,1.3.03s.81-.03,1.15-.03c.13,0,.19.03.19.09,0,.04-.05.09-.1.09-.08,0-.14,0-.28.03-.3.05-.36.24-.39.61-.03.35-.03.66-.03,2.36v1.53c0,1.58.35,2.24.84,2.68.55.5,1.04.59,1.69.59.7,0,1.36-.31,1.75-.77.53-.63.64-1.53.64-2.65v-1.38c0-1.7-.01-2.01-.03-2.36-.01-.35-.08-.55-.45-.61-.09-.01-.28-.03-.39-.03-.05,0-.09-.05-.09-.09,0-.06.05-.09.18-.09.5,0,1.16.03,1.22.03.08,0,.62-.03.95-.03.13,0,.18.03.18.09,0,.04-.04.09-.09.09-.08,0-.14,0-.28.03-.31.06-.37.24-.4.61-.03.35-.01.66-.01,2.36v1.17c0,1.18-.15,2.51-1.06,3.28-.82.71-1.7.8-2.37.8-.37,0-1.56-.03-2.36-.77-.55-.51-.99-1.27-.99-2.87v-1.61Z"/><path class="cls-3" d="M128.06,55.97c0,1.61.03,2.27.23,2.46.18.18.62.26,1.51.26.59,0,1.09-.01,1.36-.33.14-.17.23-.4.27-.62.01-.08.05-.14.12-.14.05,0,.08.05.08.17s-.08.77-.17,1.09c-.08.26-.12.3-.72.3-.81,0-1.44-.01-1.97-.04-.51-.01-.9-.03-1.24-.03-.05,0-.24,0-.46.01-.23.01-.48.03-.66.03-.12,0-.18-.03-.18-.09,0-.04.03-.09.09-.09.1,0,.24-.03.35-.05.22-.05.24-.26.3-.58.06-.45.06-1.31.06-2.37v-1.93c0-1.7,0-2.01-.03-2.36-.03-.37-.09-.55-.46-.61-.09-.01-.28-.03-.39-.03-.04,0-.09-.05-.09-.09,0-.06.05-.09.18-.09.51,0,1.22.03,1.29.03.05,0,.9-.03,1.25-.03.12,0,.18.03.18.09,0,.04-.05.08-.09.08-.08,0-.24.01-.37.03-.33.06-.4.23-.42.62-.01.35-.01.66-.01,2.36v1.96Z"/><path class="cls-3" d="M135.68,55.94c0,1.06,0,1.92.05,2.37.04.32.09.53.44.58.15.03.41.05.51.05.08,0,.09.05.09.09,0,.05-.05.09-.18.09-.62,0-1.34-.04-1.4-.04-.05,0-.84.04-1.17.04-.13,0-.18-.03-.18-.09,0-.04.03-.08.09-.08.1,0,.23-.03.33-.05.23-.05.3-.27.33-.59.05-.45.05-1.31.05-2.37v-4.6l-1.63.03c-.71.01-.98.09-1.15.35-.13.19-.14.27-.18.35-.03.09-.06.1-.12.1-.03,0-.08-.03-.08-.09,0-.12.22-1.09.24-1.18.01-.06.08-.21.12-.21.08,0,.19.09.5.13.32.04.76.05.89.05h4.27c.37,0,.63-.03.81-.05.17-.03.27-.05.32-.05s.05.06.05.13c0,.33-.04,1.12-.04,1.25,0,.09-.05.14-.1.14s-.08-.04-.09-.19v-.12c-.05-.33-.3-.58-1.38-.61l-1.42-.03v4.6Z"/><path class="cls-3" d="M142.26,51.06c.14-.36.19-.42.27-.42.12,0,.15.15.27.4.21.46,2.02,4.98,2.72,6.64.41.98.72,1.12.97,1.2.17.05.33.06.45.06.06,0,.14.03.14.09s-.13.09-.26.09c-.17,0-1,0-1.79-.03-.22-.01-.4-.01-.4-.08,0-.05.03-.05.08-.08.06-.03.18-.12.1-.3l-1.02-2.51c-.03-.05-.04-.06-.1-.06h-2.61c-.05,0-.09.03-.12.09l-.64,1.75c-.1.27-.17.54-.17.73,0,.22.19.3.39.3h.1c.09,0,.12.04.12.09,0,.06-.06.09-.17.09-.27,0-.89-.04-1.02-.04-.12,0-.68.04-1.15.04-.14,0-.22-.03-.22-.09,0-.05.05-.09.1-.09.08,0,.24-.01.33-.03.51-.06.73-.45.95-1l2.66-6.85ZM143.52,55.62c.05,0,.05-.03.04-.08l-1.12-3c-.06-.17-.13-.17-.19,0l-1.06,3c-.01.05,0,.08.04.08h2.29Z"/><path class="cls-3" d="M149.05,57.63c.03.9.13,1.17.44,1.25.21.05.46.06.57.06.05,0,.09.04.09.09,0,.06-.08.09-.21.09-.64,0-1.09-.04-1.2-.04s-.58.04-1.09.04c-.12,0-.18-.01-.18-.09,0-.05.04-.09.09-.09.09,0,.3-.01.46-.06.28-.08.32-.37.32-1.37v-6.27c0-.44.06-.55.15-.55.13,0,.32.22.44.33.18.18,1.83,1.93,3.58,3.73,1.12,1.16,2.33,2.46,2.68,2.82l-.12-5.48c-.01-.71-.08-.95-.42-1.02-.21-.04-.46-.05-.55-.05-.08,0-.09-.06-.09-.1,0-.06.09-.08.22-.08.51,0,1.06.03,1.18.03s.5-.03.97-.03c.12,0,.21.01.21.08,0,.04-.05.1-.13.1-.05,0-.14,0-.27.03-.37.08-.4.3-.4.95l-.03,6.41c0,.72-.01.79-.09.79-.12,0-.23-.09-.86-.67-.12-.1-1.75-1.71-2.95-2.96-1.31-1.38-2.59-2.72-2.93-3.1l.13,5.16Z"/><path class="cls-3" d="M161.76,55.94c0,1.06,0,1.92.05,2.37.04.32.09.53.44.58.15.03.41.05.51.05.08,0,.09.05.09.09,0,.05-.05.09-.18.09-.62,0-1.34-.04-1.4-.04-.05,0-.84.04-1.17.04-.13,0-.18-.03-.18-.09,0-.04.03-.08.09-.08.1,0,.23-.03.33-.05.23-.05.3-.27.33-.59.05-.45.05-1.31.05-2.37v-4.6l-1.64.03c-.71.01-.98.09-1.15.35-.13.19-.14.27-.18.35-.03.09-.06.1-.12.1-.03,0-.08-.03-.08-.09,0-.12.22-1.09.24-1.18.01-.06.08-.21.12-.21.08,0,.19.09.5.13.32.04.76.05.89.05h4.27c.37,0,.63-.03.81-.05.17-.03.27-.05.32-.05s.05.06.05.13c0,.33-.04,1.12-.04,1.25,0,.09-.05.14-.1.14s-.08-.04-.09-.19v-.12c-.05-.33-.3-.58-1.38-.61l-1.42-.03v4.6Z"/><path class="cls-3" d="M166.05,58.97c-.15-.08-.17-.12-.17-.41,0-.54.05-.98.06-1.16,0-.12.03-.18.09-.18s.1.04.1.13,0,.24.04.4c.18.8,1.03,1.08,1.79,1.08,1.12,0,1.7-.63,1.7-1.45s-.42-1.16-1.43-1.91l-.51-.39c-1.22-.91-1.62-1.58-1.62-2.34,0-1.29,1.02-2.06,2.51-2.06.45,0,.9.06,1.17.13.22.05.31.05.4.05s.12.01.12.08c0,.05-.05.41-.05,1.16,0,.17-.01.24-.09.24s-.09-.05-.1-.14c-.01-.13-.1-.42-.17-.54-.08-.13-.45-.54-1.47-.54-.82,0-1.51.41-1.51,1.18,0,.69.35,1.09,1.47,1.85l.32.22c1.38.94,1.85,1.7,1.85,2.64,0,.64-.24,1.34-1.06,1.87-.48.31-1.18.39-1.8.39-.53,0-1.18-.08-1.65-.3Z"/><path class="cls-3" d="M173.85,57.01c0,1.04.03,1.49.15,1.61.11.11.3.16.85.16.37,0,.68,0,.85-.21.09-.11.16-.29.18-.42,0-.06.02-.09.06-.09.04,0,.04.03.04.11s-.05.5-.11.7c-.05.16-.07.19-.44.19-.51,0-.87-.01-1.17-.02-.3-.01-.51-.02-.72-.02-.03,0-.15,0-.29,0-.14,0-.3.01-.4.01-.08,0-.11-.01-.11-.06,0-.02.01-.04.06-.04.06,0,.15-.01.21-.03.14-.03.18-.18.2-.39.03-.3.03-.85.03-1.53v-1.24c0-1.1,0-1.3-.01-1.52-.01-.24-.07-.35-.3-.4-.06-.01-.18-.02-.24-.02-.03,0-.06-.01-.06-.04,0-.04.04-.06.11-.06.32,0,.76.02.8.02s.55-.02.76-.02c.08,0,.11.01.11.06,0,.03-.03.04-.06.04-.05,0-.15,0-.23.02-.2.04-.26.15-.27.4-.01.23-.01.42-.01,1.52v1.25Z"/><path class="cls-3" d="M178.02,57.01c0,1.04.03,1.49.15,1.61.11.11.3.16.85.16.37,0,.68,0,.85-.21.09-.11.16-.29.18-.42,0-.06.02-.09.06-.09.04,0,.04.03.04.11s-.05.5-.11.7c-.05.16-.07.19-.44.19-.51,0-.87-.01-1.17-.02-.3-.01-.51-.02-.72-.02-.03,0-.15,0-.29,0-.14,0-.3.01-.4.01-.08,0-.11-.01-.11-.06,0-.02.01-.04.06-.04.06,0,.15-.01.21-.03.14-.03.18-.18.2-.39.04-.3.04-.85.04-1.53v-1.24c0-1.1,0-1.3-.01-1.52-.01-.24-.07-.35-.3-.4-.06-.01-.18-.02-.24-.02-.03,0-.06-.01-.06-.04,0-.04.03-.06.11-.06.32,0,.76.02.8.02s.55-.02.76-.02c.08,0,.11.01.11.06,0,.03-.03.04-.06.04-.05,0-.15,0-.23.02-.2.04-.26.15-.27.4-.01.23-.01.42-.01,1.52v1.25Z"/><path class="cls-3" d="M181.48,58.38c-.68-.61-.85-1.42-.85-2.09,0-.47.16-1.3.79-1.92.42-.42,1.06-.75,2.15-.75.28,0,.68.02,1.02.08.27.05.49.09.72.11.08,0,.09.04.09.08,0,.06-.02.14-.04.39-.01.23-.01.62-.02.73,0,.11-.02.15-.06.15-.05,0-.06-.05-.06-.15,0-.28-.11-.56-.3-.72-.25-.21-.79-.4-1.41-.4-.94,0-1.37.27-1.62.51-.51.49-.63,1.12-.63,1.84,0,1.35,1.04,2.58,2.54,2.58.53,0,.94-.06,1.23-.35.15-.16.24-.47.26-.59.01-.08.03-.11.07-.11.04,0,.05.05.05.11,0,.05-.08.66-.16.9-.04.13-.06.15-.18.2-.28.11-.82.16-1.27.16-1.06,0-1.77-.26-2.33-.76Z"/></g></svg>