<?xml version="1.0" encoding="UTF-8"?><svg id="Layer_2" xmlns="http://www.w3.org/2000/svg" viewBox="0 0 257 91"><defs><style>.bg{fill:rgba(15,3,42,.24);stroke-width:0px;}.border{fill:none;stroke:rgba(255,255,255,.2);}.w{fill:#fff;stroke-width:0px;}</style></defs><g id="Layer_1-2"><path class="bg" d="M45.5.5h166c24.85,0,45,20.15,45,45h0c0,24.85-20.15,45-45,45H45.5C20.65,90.5.5,70.35.5,45.5h0C.5,20.65,20.65.5,45.5.5Z"/><path class="border" d="M45.5.5h166c24.85,0,45,20.15,45,45h0c0,24.85-20.15,45-45,45H45.5C20.65,90.5.5,70.35.5,45.5h0C.5,20.65,20.65.5,45.5.5Z"/><g transform="translate(63, 19.5) scale(0.164)"><polygon class="w" points="114.15 0 56.14 100.49 0 0 114.15 0"/><polygon class="w" points="175.66 100.94 62.75 100.94 119.49 2.67 175.66 100.94"/><polygon class="w" points="173.66 106.89 115.75 207.2 59.71 106.89 173.66 106.89"/><polygon class="w" points="119.34 213.62 236.21 213.62 177.53 317.79 119.34 213.62"/><polygon class="w" points="236.67 207.66 122.36 207.66 179.8 108.17 236.67 207.66"/><polygon class="w" points="239.15 3.44 297.16 103.92 181.38 103.92 239.15 3.44"/><polygon class="w" points="358.92 0 301.97 100.34 244.04 0 358.92 0"/><rect class="w" x="248.5" y="134.36" width="103.58" height="29.97"/><path class="w" d="M353,77.16h103.6v21.18h-39.9v103.42h-23.8v-103.42h-39.9v-21.18h0Z"/><path class="w" d="M557.92,77.16v21.18h-68.25v29.4h61.77v20.3h-61.77v32.55h67.9v21.17h-91.52v-124.6h91.88-.01Z"/><path class="w" d="M624.07,204.56c-17.97,0-32.49-5.89-43.58-17.67-11.2-11.78-16.8-27.59-16.8-47.42s5.54-35.81,16.62-47.6c10.96-11.67,25.55-17.5,43.75-17.5,14.58,0,27.01,3.91,37.27,11.73s16.68,19.13,19.25,33.95h-23.97c-2.1-8.16-5.98-14.38-11.64-18.64-5.66-4.26-12.63-6.39-20.91-6.39-11.09,0-19.81,3.94-26.16,11.81-6.36,7.88-9.54,18.75-9.54,32.64s3.15,24.91,9.45,32.72c6.3,7.82,15.05,11.73,26.25,11.73,8.63,0,16.04-2.57,22.22-7.7,6.18-5.13,9.92-12.25,11.2-21.35h23.62c-1.52,15.87-7.7,28.12-18.55,36.75-10.74,8.64-23.57,12.95-38.5,12.95h.02Z"/><path class="w" d="M773.87,127.21v-50.05h23.62v124.6h-23.62v-53.2h-57.92v53.2h-23.62v-124.6h23.62v50.05s57.92,0,57.92,0Z"/><path class="w" d="M403.36,264.44c-4.26,0-7.59-.97-9.98-2.9s-3.6-4.81-3.63-8.65h4c.09,5.37,3.3,8.05,9.61,8.05,2.67,0,4.71-.52,6.14-1.56,1.43-1.04,2.14-2.56,2.14-4.55,0-1.56-.59-2.78-1.77-3.66s-3.24-1.63-6.19-2.28l-2.9-.64c-3.31-.77-5.8-1.88-7.45-3.33-1.66-1.46-2.48-3.5-2.48-6.14s1.01-4.68,3.04-6.23c2.02-1.55,4.74-2.32,8.14-2.32,2.3,0,4.3.28,6,.83s3.03,1.33,3.98,2.32c.95,1,1.65,2.08,2.09,3.24.44,1.17.68,2.45.71,3.86h-3.96c-.18-2.33-.94-4.04-2.28-5.13-1.33-1.09-3.52-1.63-6.55-1.63-2.3,0-4.07.45-5.31,1.33-1.24.89-1.86,2.13-1.86,3.73s.54,2.84,1.61,3.73c1.04.89,3.07,1.67,6.07,2.35l2.9.64c3.62.8,6.22,1.94,7.82,3.43,1.59,1.49,2.39,3.46,2.39,5.91,0,2.97-1.09,5.32-3.27,7.04s-5.18,2.58-9.02,2.58v-.02Z"/><path class="w" d="M465.69,259.7c-2.88,3.16-6.69,4.74-11.41,4.74s-8.51-1.58-11.36-4.74c-2.88-3.1-4.32-7.22-4.32-12.37s1.44-9.26,4.32-12.42c2.85-3.13,6.64-4.69,11.36-4.69s8.53,1.56,11.41,4.69c2.85,3.19,4.28,7.33,4.28,12.42s-1.43,9.25-4.28,12.37ZM445.82,257.22c2.12,2.45,4.94,3.68,8.46,3.68s6.35-1.23,8.46-3.68c2.12-2.42,3.17-5.72,3.17-9.89s-1.06-7.47-3.17-9.89c-2.12-2.45-4.94-3.68-8.46-3.68s-6.35,1.23-8.46,3.68c-2.12,2.42-3.17,5.72-3.17,9.89s1.06,7.47,3.17,9.89Z"/><path class="w" d="M498.62,230.95v29.26h16.47v3.5h-20.33v-32.75h3.86Z"/><path class="w" d="M561.14,261.04c-2.24,2.24-5.41,3.36-9.52,3.36s-7.28-1.12-9.52-3.36-3.36-5.4-3.36-9.48v-20.61h3.86v20.61c0,6.23,3.01,9.34,9.02,9.34s9.02-3.11,9.02-9.34v-20.61h3.86v20.61c0,4.08-1.12,7.24-3.36,9.48h0Z"/><path class="w" d="M588.14,230.95h26.27v3.5h-11.13v29.26h-4v-29.26h-11.13v-3.5h-.01Z"/><path class="w" d="M642.37,263.7h-3.86v-32.75h3.86v32.75Z"/><path class="w" d="M694.26,259.7c-2.88,3.16-6.69,4.74-11.41,4.74s-8.51-1.58-11.36-4.74c-2.88-3.1-4.32-7.22-4.32-12.37s1.44-9.26,4.32-12.42c2.85-3.13,6.64-4.69,11.36-4.69s8.53,1.56,11.41,4.69c2.85,3.19,4.28,7.33,4.28,12.42s-1.43,9.25-4.28,12.37ZM674.39,257.22c2.12,2.45,4.94,3.68,8.46,3.68s6.35-1.23,8.46-3.68c2.12-2.42,3.17-5.72,3.17-9.89s-1.06-7.47-3.17-9.89c-2.12-2.45-4.94-3.68-8.46-3.68s-6.35,1.23-8.46,3.68c-2.12,2.42-3.17,5.72-3.17,9.89s1.06,7.47,3.17,9.89Z"/><path class="w" d="M745.55,241.99v-11.04h3.82v32.75h-4.69l-10.86-16.88c-3.13-4.97-5.4-8.66-6.81-11.09.09,4.29.14,9.94.14,16.93v11.04h-3.82v-32.75h4.69l10.86,16.88c3.13,4.97,5.4,8.66,6.81,11.09-.09-4.29-.14-9.94-.14-16.93h0Z"/><path class="w" d="M787.55,264.44c-4.26,0-7.59-.97-9.98-2.9-2.39-1.93-3.6-4.81-3.63-8.65h4c.09,5.37,3.3,8.05,9.61,8.05,2.67,0,4.71-.52,6.14-1.56s2.14-2.56,2.14-4.55c0-1.56-.59-2.78-1.77-3.66s-3.24-1.63-6.19-2.28l-2.9-.64c-3.31-.77-5.8-1.88-7.45-3.33-1.66-1.46-2.48-3.5-2.48-6.14s1.01-4.68,3.04-6.23c2.02-1.55,4.74-2.32,8.14-2.32,2.3,0,4.3.28,6,.83s3.03,1.33,3.98,2.32c.95,1,1.65,2.08,2.09,3.24.44,1.17.68,2.45.71,3.86h-3.96c-.18-2.33-.94-4.04-2.28-5.13-1.33-1.09-3.52-1.63-6.55-1.63-2.3,0-4.07.45-5.31,1.33-1.24.89-1.86,2.13-1.86,3.73s.54,2.84,1.61,3.73c1.04.89,3.07,1.67,6.07,2.35l2.9.64c3.62.8,6.22,1.94,7.82,3.43,1.59,1.49,2.39,3.46,2.39,5.91,0,2.97-1.09,5.32-3.27,7.04s-5.18,2.58-9.02,2.58v-.02Z"/></g></g></svg>