<?xml version="1.0" encoding="UTF-8"?><svg id="Layer_2" xmlns="http://www.w3.org/2000/svg" viewBox="0 0 257 91"><defs><style>.cls-1{fill:rgba(15,3,42,.24);}.cls-1,.cls-2{stroke-width:0px;}.cls-2{fill:#fff;}.cls-3{fill:none;stroke:rgba(255,255,255,.2);}</style></defs><g id="Layer_1-2"><path class="cls-1" d="M45.5.5h166c24.85,0,45,20.15,45,45h0c0,24.85-20.15,45-45,45H45.5C20.65,90.5.5,70.35.5,45.5h0C.5,20.65,20.65.5,45.5.5Z"/><path class="cls-3" d="M45.5.5h166c24.85,0,45,20.15,45,45h0c0,24.85-20.15,45-45,45H45.5C20.65,90.5.5,70.35.5,45.5h0C.5,20.65,20.65.5,45.5.5Z"/><g id="Layer_1-2"><path class="cls-2" d="M84.79,30.85l-3.29-12.37h1.72l1.88,8.11c.2.85.38,1.69.54,2.53.33-1.32.52-2.08.58-2.28l2.36-8.36h2l1.79,6.26c.44,1.56.77,3.01.97,4.38.17-.78.38-1.68.64-2.69l1.96-7.95h1.66l-3.42,12.37h-1.61l-2.62-9.42c-.22-.79-.35-1.27-.41-1.45-.14.56-.27,1.05-.38,1.45l-2.62,9.43h-1.73Z"/><path class="cls-2" d="M100.33,24.86c0,1.49.41,2.66,1.21,3.52.81.86,1.83,1.28,3.05,1.28s2.27-.43,3.08-1.3c.8-.86,1.21-2.09,1.21-3.68,0-1-.17-1.88-.52-2.63-.34-.75-.85-1.33-1.51-1.74-.66-.41-1.41-.62-2.23-.62-1.17,0-2.18.4-3.02,1.19-.84.8-1.27,2.12-1.27,3.98M98.62,24.83c0-2.05.56-3.66,1.68-4.82,1.12-1.16,2.55-1.74,4.32-1.74,1.16,0,2.2.27,3.13.82.93.54,1.63,1.3,2.12,2.28.49.97.73,2.08.73,3.31s-.26,2.38-.77,3.36c-.51.99-1.24,1.74-2.18,2.25-.94.51-1.95.76-3.04.76-1.18,0-2.23-.28-3.16-.84-.93-.56-1.63-1.33-2.11-2.3-.48-.97-.72-2-.72-3.08h0Z"/><path class="cls-2" d="M114.41,23.94h3.55c.76,0,1.35-.08,1.77-.23.43-.15.75-.4.97-.74.22-.34.33-.71.33-1.11,0-.59-.21-1.07-.64-1.44-.43-.38-1.1-.56-2.03-.56h-3.95v4.09h0ZM112.75,30.85v-12.37h5.54c1.12,0,1.96.11,2.54.33.58.22,1.04.61,1.39,1.18s.52,1.18.52,1.86c0,.88-.29,1.62-.86,2.22-.57.6-1.46.98-2.66,1.15.44.21.77.41,1,.62.48.44.94.99,1.37,1.65l2.16,3.37h-2.07l-1.65-2.57c-.48-.75-.88-1.31-1.19-1.71-.31-.39-.59-.67-.84-.83-.24-.16-.5-.27-.75-.33-.19-.04-.49-.06-.92-.06h-1.92v5.49h-1.66Z"/><polygon class="cls-2" points="125.27 30.85 125.27 18.48 126.93 18.48 126.93 24.61 133.14 18.48 135.38 18.48 130.14 23.5 135.61 30.85 133.43 30.85 128.97 24.61 126.93 26.57 126.93 30.85 125.27 30.85"/><path class="cls-2" d="M143.11,25.77h4.26l-1.3-3.43c-.39-1.04-.69-1.9-.9-2.58-.17.81-.4,1.6-.69,2.38l-1.37,3.63h0ZM139.51,30.85l4.8-12.37h1.82l5.09,12.37h-1.88l-1.45-3.75h-5.27l-1.36,3.75h-1.76Z"/><polygon class="cls-2" points="152.52 30.85 152.52 18.48 154.22 18.48 160.79 28.19 160.79 18.48 162.38 18.48 162.38 30.85 160.67 30.85 154.11 21.14 154.11 30.85 152.52 30.85"/><path class="cls-2" d="M166.82,29.4h2.67c.82,0,1.47-.07,1.94-.23s.84-.37,1.12-.64c.39-.39.7-.91.91-1.57.22-.66.33-1.45.33-2.39,0-1.3-.22-2.29-.64-2.99-.43-.7-.95-1.16-1.56-1.4-.44-.17-1.16-.25-2.14-.25h-2.62v9.47h0ZM165.16,30.85v-12.37h4.31c.97,0,1.71.06,2.23.18.72.16,1.33.46,1.83.89.66.55,1.15,1.26,1.48,2.11.33.86.49,1.84.49,2.94,0,.94-.11,1.77-.33,2.5-.22.73-.51,1.33-.85,1.8-.35.47-.73.85-1.14,1.12-.41.27-.91.48-1.49.62-.59.14-1.26.21-2.01.21h-4.51,0Z"/><path class="cls-2" d="M112.98,45.73l-4.33,4.03c-2.95-3.04-6.26-4.56-9.94-4.56-3.11,0-5.73,1.04-7.85,3.11-2.13,2.07-3.2,4.63-3.2,7.66,0,2.12.47,4,1.42,5.63.94,1.65,2.28,2.94,4,3.87,1.73.94,3.64,1.4,5.75,1.4,1.79,0,3.44-.32,4.92-.98,1.49-.66,3.13-1.85,4.91-3.58l4.2,4.29c-2.4,2.29-4.67,3.89-6.8,4.77-2.13.89-4.57,1.33-7.31,1.33-5.05,0-9.19-1.56-12.41-4.7-3.22-3.12-4.82-7.14-4.82-12.03,0-3.17.73-5.98,2.2-8.45,1.46-2.46,3.56-4.44,6.29-5.94,2.73-1.5,5.67-2.25,8.83-2.25,2.68,0,5.25.55,7.74,1.66,2.48,1.11,4.62,2.68,6.41,4.71"/><path class="cls-2" d="M118.66,39.36h6.02v11.48c1.18-1,2.35-1.74,3.54-2.24,1.18-.49,2.39-.74,3.6-.74,2.37,0,4.38.8,6.01,2.42,1.39,1.39,2.09,3.45,2.09,6.14v15.51h-5.93v-10.29c0-2.71-.13-4.56-.39-5.52-.26-.97-.72-1.68-1.36-2.16-.63-.47-1.42-.71-2.36-.71-1.21,0-2.26.4-3.14,1.19-.87.79-1.47,1.87-1.81,3.23-.17.71-.26,2.32-.26,4.83v9.43h-6.02v-32.57h0Z"/><path class="cls-2" d="M146.02,48.43h6.02v23.5h-6.02v-23.5ZM149.04,38.78c1.06,0,1.96.38,2.71,1.12.76.74,1.14,1.65,1.14,2.71s-.38,1.94-1.12,2.68c-.75.74-1.64,1.11-2.69,1.11s-1.98-.38-2.74-1.13c-.76-.75-1.14-1.67-1.14-2.74s.38-1.91,1.12-2.64c.75-.73,1.65-1.1,2.71-1.1h0Z"/><rect class="cls-2" x="157.75" y="39.36" width="6.02" height="32.57"/><rect class="cls-2" x="169.49" y="39.36" width="6.02" height="32.57"/></g></g></svg>