<?xml version="1.0" encoding="UTF-8"?><svg id="Layer_2" xmlns="http://www.w3.org/2000/svg" viewBox="0 0 257 91"><defs><style>.cls-1{fill:rgba(15,3,42,.24);}.cls-1,.cls-2{stroke-width:0px;}.cls-2{fill:#fff;}.cls-3{fill:none;stroke:rgba(255,255,255,.2);}</style></defs><g id="Layer_1-2"><path class="cls-1" d="M45.5.5h166c24.85,0,45,20.15,45,45h0c0,24.85-20.15,45-45,45H45.5C20.65,90.5.5,70.35.5,45.5h0C.5,20.65,20.65.5,45.5.5Z"/><path class="cls-3" d="M45.5.5h166c24.85,0,45,20.15,45,45h0c0,24.85-20.15,45-45,45H45.5C20.65,90.5.5,70.35.5,45.5h0C.5,20.65,20.65.5,45.5.5Z"/><path class="cls-2" d="M90.28,41.33v3.93c0,.47.08.83.24,1.08.16.25.36.4.61.48.25.07.54.11.86.11v.25h-6.16v-.25c.41,0,.78-.09,1.11-.26.33-.17.49-.57.49-1.19v-9.23c0-.62-.13-1.05-.39-1.31-.26-.25-.66-.38-1.21-.38v-.25h6.83c.94,0,1.72.18,2.32.54s1.03.8,1.28,1.33c.25.53.38,1.08.38,1.64,0,.66-.14,1.22-.42,1.67s-.6.81-.96,1.06c-.42.3-.89.53-1.4.68s-1.2.22-2.06.22c-.38,0-.89-.04-1.5-.11ZM90.28,35.09v5.54c.29.06.57.1.85.1.64,0,1.16-.16,1.56-.47.4-.31.68-.7.83-1.16.16-.46.24-.92.24-1.38,0-.48-.09-.93-.26-1.33-.18-.41-.46-.74-.86-.99s-.92-.38-1.55-.38c-.23,0-.5.03-.8.08Z"/><path class="cls-2" d="M103.49,34.17l4.33,11.14c.23.57.51.96.82,1.18.31.21.7.36,1.16.43v.25h-6.1v-.25c.83-.05,1.25-.31,1.25-.79,0-.08-.01-.18-.04-.32-.03-.14-.06-.28-.1-.44-.04-.15-.07-.25-.08-.28l-1.08-2.74h-3.85l-.92,2.63c-.12.31-.17.6-.17.86,0,.4.12.66.35.8.23.14.51.23.83.28v.25h-3.86v-.25c.4-.04.78-.23,1.13-.56.35-.34.69-.95,1.01-1.85l3.66-10.34h1.67ZM100.1,41.5h3.21l-1.66-4.34-1.55,4.34Z"/><path class="cls-2" d="M115.15,41.14h-.41v4.12c0,.49.07.86.22,1.1.15.24.32.4.53.46.21.07.49.11.84.12v.24h-6.05v-.25c.68,0,1.11-.15,1.3-.45s.29-.71.29-1.21v-9.02c0-.62-.13-1.05-.38-1.31-.25-.25-.66-.38-1.22-.38v-.25h6.68c.88,0,1.65.14,2.32.41.66.27,1.17.66,1.52,1.16.35.5.52,1.08.52,1.72,0,.52-.11.99-.33,1.4s-.52.74-.9,1.01c-.38.26-.79.46-1.26.6.6.38,1.18,1.05,1.75,2.01l1.54,2.61c.26.45.5.8.73,1.05.22.25.42.41.59.49.17.08.35.13.55.16v.25h-4.15c-.4-.73-.71-1.31-.93-1.74-.69-1.35-1.19-2.28-1.5-2.81s-.64-.9-.98-1.14c-.34-.23-.76-.35-1.28-.35ZM115.43,35.01h-.7v5.41h.59c1,0,1.76-.24,2.26-.72.51-.48.76-1.17.76-2.08,0-.56-.11-1.03-.33-1.42-.22-.39-.55-.68-.98-.89-.43-.2-.97-.31-1.6-.31Z"/><path class="cls-2" d="M131.86,34.17l4.33,11.14c.23.57.51.96.82,1.18.31.21.7.36,1.16.43v.25h-6.1v-.25c.83-.05,1.25-.31,1.25-.79,0-.08-.01-.18-.04-.32-.03-.14-.06-.28-.1-.44-.04-.15-.07-.25-.08-.28l-1.08-2.74h-3.85l-.92,2.63c-.12.31-.17.6-.17.86,0,.4.12.66.35.8.23.14.51.23.83.28v.25h-3.86v-.25c.4-.04.78-.23,1.13-.56.35-.34.69-.95,1.01-1.85l3.66-10.34h1.67ZM128.46,41.5h3.21l-1.66-4.34-1.55,4.34Z"/><path class="cls-2" d="M155.03,34.29v.25c-.34.02-.62.07-.83.13-.22.06-.4.2-.55.42-.15.22-.2.54-.16.98l.71,8.65c.05.61.14,1.05.26,1.34.12.29.27.48.45.58.18.1.46.19.84.28v.25h-5.91v-.25c.5-.01.88-.14,1.17-.39.28-.25.39-.75.34-1.49l-.63-8.2h-.04l-4.21,10.34h-.31l-4.34-10h-.03l-.57,7.18c-.06.71,0,1.25.15,1.62.16.38.37.62.63.73.26.11.56.18.9.21v.25h-4.37v-.25c.55-.03.97-.26,1.26-.66s.47-1.09.57-2.04l.87-8.15c-.54-.87-1.28-1.38-2.22-1.52v-.25h4.65l3.73,8.47,3.45-8.47h4.2Z"/><path class="cls-2" d="M156.55,40.69c0-.87.15-1.71.45-2.51.3-.8.74-1.5,1.32-2.1.58-.6,1.29-1.07,2.12-1.41.83-.34,1.77-.5,2.82-.5s2.01.17,2.84.51c.83.34,1.54.81,2.12,1.42.58.61,1.02,1.31,1.32,2.1s.45,1.64.45,2.54-.14,1.73-.43,2.52c-.29.79-.71,1.48-1.27,2.09-.56.61-1.26,1.08-2.11,1.43-.85.35-1.81.52-2.88.52-1.15,0-2.16-.2-3.02-.59-.86-.39-1.56-.91-2.11-1.56-.55-.65-.95-1.36-1.21-2.14-.26-.78-.39-1.56-.39-2.33ZM159.61,40.53c0,.87.07,1.74.2,2.58.13.85.47,1.64,1.02,2.38.55.74,1.37,1.11,2.47,1.11,1.54,0,2.53-.62,2.97-1.87.43-1.24.65-2.51.65-3.81,0-1.01-.09-1.95-.26-2.83-.17-.88-.53-1.63-1.07-2.26-.54-.63-1.3-.94-2.29-.94-1.11,0-1.93.36-2.48,1.07s-.88,1.47-1.01,2.28c-.13.8-.2,1.57-.2,2.29Z"/><path class="cls-2" d="M181.25,47.17v-2.44h-.04c-.94,1.72-2.33,2.58-4.19,2.58-.94,0-1.78-.22-2.52-.66-.74-.44-1.29-.99-1.65-1.67-.37-.7-.56-1.82-.56-3.35v-5.42c0-.55-.11-.96-.33-1.25-.22-.28-.64-.42-1.26-.42v-.25h6.05v.25c-.66,0-1.1.15-1.29.46s-.3.71-.3,1.22v5.75c0,.85.1,1.51.31,2,.15.36.35.66.62.92.26.26.57.45.93.59.35.13.72.2,1.11.2s.79-.07,1.15-.21c.37-.14.7-.35.99-.62.29-.27.52-.57.67-.91.21-.5.31-1.28.31-2.34v-5.37c0-.61-.12-1.05-.37-1.3-.24-.26-.65-.38-1.22-.38v-.24h6.05v.25c-.66,0-1.09.15-1.29.45s-.3.71-.3,1.22v9.04c0,.57.11.99.34,1.27s.64.41,1.25.41v.24h-4.46Z"/><path class="cls-2" d="M190.85,34.29l7.86,8.3v-5.89c0-.78-.16-1.3-.47-1.59-.31-.28-.8-.47-1.44-.56v-.25h4.44v.25c-.49.05-.85.19-1.09.4-.24.21-.39.46-.46.75-.07.29-.1.62-.1,1.01v10.62h-.32l-9.43-9.92v7.25c0,.61.13,1.12.39,1.55.26.43.74.67,1.44.72v.25h-4.6v-.25c1.29-.1,1.93-.74,1.91-1.9v-8.53s-.08-.06-.14-.12c-.05-.05-.14-.14-.26-.25-.12-.12-.23-.22-.33-.31-.78-.75-1.47-1.17-2.06-1.26v-.25h4.67Z"/><path class="cls-2" d="M203.1,34.29h9c.41,0,.76-.05,1.03-.16h.25l.07,3.03h-.25c-.13-.89-.34-1.45-.65-1.69-.31-.24-.68-.36-1.12-.36h-2.4v10.15c0,.34.04.63.11.86.08.24.23.43.46.58.23.15.57.22,1.02.22v.25h-6.06v-.25c.67,0,1.11-.15,1.3-.45s.3-.71.3-1.21v-10.15h-2.41c-.41,0-.74.13-1,.39-.26.26-.51.81-.75,1.67h-.27l.07-3.03h.25c.27.1.62.16,1.03.16Z"/><path class="cls-2" d="M86.63,53.44h2.35c.66,0,1.22.08,1.68.24.46.16.84.37,1.14.62.3.25.54.53.72.83.18.3.3.6.39.88s.13.53.16.76.03.39.03.48-.01.25-.03.48-.07.48-.16.76c-.08.28-.21.57-.39.88-.18.3-.42.58-.72.83-.3.25-.69.46-1.14.62-.46.16-1.02.24-1.68.24h-2.35v-7.61ZM87.34,60.4h1.46c.5,0,.97-.06,1.41-.19.44-.13.82-.32,1.14-.58.32-.26.58-.59.76-.98.19-.4.28-.87.28-1.41s-.09-1.02-.28-1.41c-.19-.4-.44-.73-.76-.98-.32-.26-.7-.45-1.14-.58-.44-.13-.91-.19-1.41-.19h-1.46v6.32Z"/><path class="cls-2" d="M99.42,53.44h4.65v.64h-3.94v2.71h3.7v.64h-3.7v2.97h4.12v.64h-4.82v-7.61Z"/><path class="cls-2" d="M109.44,53.44h.76l2.45,6.67,2.47-6.67h.75l-2.89,7.61h-.71l-2.84-7.61Z"/><path class="cls-2" d="M121.62,53.44h4.65v.64h-3.94v2.71h3.7v.64h-3.7v2.97h4.12v.64h-4.82v-7.61Z"/><path class="cls-2" d="M132.72,53.44h.71v6.96h3.55v.64h-4.26v-7.61Z"/><path class="cls-2" d="M142.32,57.24c0-.58.1-1.11.29-1.6.19-.49.46-.91.81-1.26.34-.35.76-.63,1.24-.83.48-.2,1.02-.3,1.6-.3s1.11.1,1.6.3c.48.2.9.48,1.24.83.34.35.61.78.81,1.26.19.49.29,1.02.29,1.6s-.1,1.12-.29,1.61c-.19.49-.46.91-.81,1.27-.34.35-.76.63-1.24.83-.48.2-1.02.3-1.6.3s-1.11-.1-1.6-.3-.9-.47-1.24-.83c-.34-.35-.61-.78-.81-1.27s-.29-1.03-.29-1.61ZM143.03,57.24c0,.47.07.91.23,1.32s.37.76.65,1.06.62.54,1.02.71c.4.17.84.26,1.34.26s.94-.09,1.34-.26c.4-.17.74-.41,1.02-.71.28-.3.49-.66.64-1.06s.23-.85.23-1.32-.07-.91-.23-1.32c-.15-.41-.37-.76-.64-1.06-.28-.3-.62-.54-1.02-.71-.4-.17-.84-.26-1.34-.26s-.94.09-1.34.26c-.4.17-.74.41-1.02.71s-.49.66-.65,1.06c-.15.41-.23.85-.23,1.32Z"/><path class="cls-2" d="M156.51,53.44h2.19c.26,0,.54.03.83.09.29.06.55.17.79.32s.44.36.59.62c.15.26.23.59.23.98,0,.34-.06.64-.19.89-.13.25-.29.46-.5.62-.21.16-.46.28-.73.36-.28.08-.56.12-.87.12h-1.64v3.61h-.71v-7.61ZM157.22,56.79h1.61c.2,0,.4-.02.59-.07.19-.05.37-.12.52-.23.15-.1.27-.24.36-.41.09-.17.14-.38.14-.63s-.05-.45-.15-.62c-.1-.17-.22-.31-.38-.42-.15-.11-.33-.19-.53-.24-.2-.05-.4-.08-.6-.08h-1.57v2.71Z"/><path class="cls-2" d="M167.33,53.44h1.06l2.77,6.38,2.77-6.38h1.01v7.61h-.71v-6.71h-.02l-2.9,6.71h-.31l-2.94-6.71h-.02v6.71h-.71v-7.61Z"/><path class="cls-2" d="M181.68,53.44h4.65v.64h-3.94v2.71h3.7v.64h-3.7v2.97h4.12v.64h-4.82v-7.61Z"/><path class="cls-2" d="M192.78,53.44h.91l4.63,6.66h.02v-6.66h.71v7.61h-.91l-4.63-6.66h-.02v6.66h-.71v-7.61Z"/><path class="cls-2" d="M207.56,54.08h-2.6v-.64h5.91v.64h-2.6v6.96h-.71v-6.96Z"/><path class="cls-2" d="M43.55,21.19v48.62h35.91V21.19h-35.91ZM48.42,68.03h-3.36v-.64c1.12-.04,2.24-.07,3.36-.11v.75ZM48.42,66.65c-1.13.04-2.25.09-3.36.13v-.65c1.11-.09,2.23-.16,3.36-.23v.75ZM48.42,65.28c-1.12.05-2.26.14-3.36.23v-.65c1.12-.13,2.23-.24,3.36-.33v.75ZM48.42,63.9c-1.14.09-2.26.21-3.36.33v-.65c1.12-.17,2.23-.31,3.36-.44v.75ZM48.42,62.52c-1.14.12-2.27.3-3.36.46v-.65c1.12-.22,2.23-.4,3.36-.56v.75ZM48.42,61.13c-1.13.16-2.28.37-3.36.56v-.63c1.12-.26,2.23-.5,3.36-.68v.75ZM48.42,59.75c-1.15.2-2.29.45-3.36.69v-.65c1.12-.3,2.22-.57,3.36-.77v.73ZM48.42,58.39c-1.15.19-2.3.5-3.36.78v-.65c1.12-.35,2.22-.66,3.36-.89v.75ZM48.42,57c-1.16.23-2.31.57-3.36.89v-.64c1.12-.38,2.22-.73,3.36-1v.75ZM48.42,55.62c-1.16.26-2.32.65-3.36,1.01v-.65c1.12-.43,2.22-.81,3.36-1.12v.75ZM48.42,54.24c-1.15.3-2.33.72-3.36,1.13v-.64c1.12-.48,2.22-.9,3.36-1.22v.73ZM48.42,52.85c-1.17.33-2.34.79-3.36,1.23v-.64c1.12-.52,2.2-.97,3.36-1.32v.73ZM48.42,51.47c-1.16.37-2.35.88-3.36,1.36v-.64c1.12-.56,2.2-1.06,3.36-1.45v.73ZM48.42,50.09c-1.18.38-2.36.94-3.36,1.47v-.63c1.12-.61,2.2-1.15,3.36-1.57v.73ZM48.42,48.72c-1.17.4-2.37.99-3.36,1.55v-.63c1.12-.64,2.2-1.22,3.36-1.68v.75ZM48.42,47.34c-1.18.44-2.38,1.07-3.36,1.68v-.63c1.12-.69,2.2-1.3,3.36-1.78v.73ZM64.64,60.75v-29.8l2.7,2.14v31.93c-4.99-.51-8.91-5.42-8.91-11.39,0-4.18,1.92-7.84,4.78-9.83v3.99c-1.28,1.49-2.07,3.56-2.07,5.84,0,3.04,1.4,5.69,3.49,7.12ZM58.69,44.53v-3.39c1.28-1.27,2.07-3.02,2.07-4.96,0-2.58-1.4-4.84-3.49-6.05v33.61l-2.73-4.67V26.5c5.01.42,8.94,4.59,8.94,9.68,0,3.55-1.92,6.66-4.78,8.35ZM77.94,68.03h-3.15v-.75c1.04.04,2.1.07,3.15.11v.64ZM77.94,66.78c-1.04-.04-2.09-.09-3.15-.13v-.75c1.06.07,2.1.15,3.15.24v.64ZM77.94,65.52c-1.03-.09-2.09-.18-3.15-.23v-.75c1.06.09,2.09.2,3.15.34v.64ZM77.94,64.24c-1.02-.13-2.08-.25-3.15-.34v-.75c1.06.13,2.09.28,3.15.45v.64ZM77.94,62.99c-1.01-.17-2.08-.34-3.15-.47v-.75c1.06.16,2.09.35,3.15.58v.65ZM77.94,61.71c-1.01-.2-2.08-.42-3.15-.58v-.75c1.06.18,2.09.43,3.15.7v.63ZM77.94,60.46c-.99-.24-2.07-.51-3.15-.71v-.73c1.07.2,2.09.49,3.15.79v.64ZM77.94,59.2c-.98-.3-2.07-.61-3.15-.81v-.75c1.07.24,2.09.56,3.15.92v.64ZM77.94,57.92c-.97-.33-2.06-.68-3.15-.92v-.75c1.07.28,2.09.63,3.15,1.03v.64ZM77.94,56.67c-.97-.37-2.06-.78-3.15-1.05v-.75c1.07.31,2.09.71,3.15,1.15v.64ZM77.94,55.41c-.96-.42-2.06-.86-3.15-1.17v-.73c1.07.33,2.09.76,3.15,1.26v.64ZM77.94,54.13c-.95-.46-2.05-.93-3.15-1.28v-.73c1.08.36,2.1.83,3.15,1.37v.64ZM77.94,52.87c-.94-.5-2.05-1.02-3.15-1.4v-.73c1.08.4,2.1.92,3.15,1.5v.64ZM77.94,51.61c-.93-.55-2.04-1.13-3.15-1.52v-.73c1.08.44,2.1,1,3.15,1.63v.63ZM77.94,50.33c-.92-.58-2.04-1.2-3.15-1.61v-.75c1.08.47,2.1,1.07,3.15,1.73v.63ZM77.94,49.08c-.91-.62-2.03-1.29-3.15-1.74v-.73c1.08.49,2.1,1.12,3.15,1.84v.63ZM77.94,47.81c-1.16-.87-2.75-1.79-4.14-2.23v22.71h-.88v-.8h-4.14v-.81c1.38.04,2.76.11,4.14.18v-1.16c-1.37-.07-2.76-.13-4.14-.18v-.79c1.38.09,2.76.2,4.14.33v-1.16c-1.36-.11-2.75-.24-4.14-.35v-.79c1.39.13,2.76.33,4.14.53v-1.16c-1.35-.2-2.75-.4-4.14-.53v-.81c1.39.2,2.76.44,4.14.7v-1.17c-1.33-.24-2.74-.51-4.14-.7v-.79c1.39.24,2.76.53,4.14.86v-1.17c-1.32-.31-2.74-.64-4.14-.88v-.79c1.39.28,2.76.63,4.14,1.05v-1.17c-1.31-.37-2.73-.79-4.14-1.05v-.79c1.39.33,2.76.75,4.14,1.21v-1.17c-1.3-.44-2.73-.9-4.14-1.23v-.79c1.39.37,2.76.86,4.14,1.41v-1.19c-1.29-.48-2.71-1.03-4.14-1.41v-.77c1.4.42,2.76.95,4.14,1.56v-1.17c-1.28-.55-2.71-1.17-4.14-1.6v-.77c1.4.46,2.76,1.06,4.14,1.74v-1.17c-1.27-.61-2.7-1.3-4.14-1.76v-.79c1.4.53,2.76,1.19,4.14,1.94v-1.19c-1.25-.66-2.7-1.41-4.14-1.94v-.77c1.4.55,2.76,1.28,4.14,2.09v-1.16c-1.23-.75-2.69-1.56-4.14-2.13v-.77c1.4.62,2.76,1.39,4.14,2.26v-1.17c-1.22-.79-2.69-1.67-4.14-2.31v-.77c1.42.66,2.76,1.49,4.14,2.46v-1.17c-1.21-.88-2.68-1.83-4.14-2.48v-.77c1.42.7,2.76,1.61,4.14,2.62v-1.16c-1.2-.92-2.68-1.96-4.14-2.66v-.77c1.42.75,2.75,1.72,4.14,2.79v-1.17c-1.19-.99-2.67-2.07-4.14-2.84v-.77c1.42.81,2.75,1.82,4.14,2.99v-1.17c-1.17-1.06-2.67-2.22-4.14-3.03v-.75c1.42.83,2.75,1.91,4.14,3.14v-1.17c-1.16-1.12-2.66-2.35-4.14-3.21v-.75c1.43.9,2.75,2.04,4.14,3.32v-1.17c-1.15-1.16-2.66-2.46-4.14-3.36v-.77c1.43.94,2.75,2.15,4.14,3.52v-1.17c-1.14-1.25-2.65-2.62-4.14-3.56v-.75c1.43.99,2.75,2.24,4.14,3.67v-1.17c-1.38-1.6-3.34-3.39-5.14-4.33-.14-.07-.47-.25-.59-.31s-.3-.15-.56-.25c-1.89-.68-7.02-2.01-11.96.28-.05.02-.19.09-.2.1,0,0,0,0,0,0h0c-1.4.87-2.99,2.8-4.08,4.51v1.17c1.03-1.43,2.02-2.68,3.07-3.67v.75c-1.11.95-2.23,2.31-3.07,3.56v1.17c1.03-1.36,2.02-2.57,3.07-3.52v.77c-1.1.9-2.22,2.2-3.07,3.36v1.17c1.03-1.27,2.02-2.42,3.07-3.32v.75c-1.1.86-2.21,2.09-3.07,3.21v1.17c1.03-1.23,2.02-2.31,3.07-3.14v.75c-1.09.81-2.2,1.98-3.07,3.03v1.17c1.03-1.17,2.02-2.18,3.07-2.99v.77c-1.09.77-2.19,1.85-3.07,2.84v1.17c1.03-1.08,2.02-2.04,3.07-2.79v.77c-1.08.7-2.19,1.74-3.07,2.66v1.16c1.02-1.01,2.02-1.91,3.07-2.62v.77c-1.08.66-2.18,1.61-3.07,2.48v1.17c1.02-.97,2.02-1.8,3.07-2.46v.77c-1.08.64-2.17,1.52-3.07,2.31v1.17c1.02-.88,2.03-1.65,3.07-2.26v.77c-1.08.57-2.16,1.39-3.07,2.13v1.16c1.02-.81,2.03-1.54,3.07-2.09v.77c-1.07.53-2.14,1.28-3.07,1.94v1.19c1.02-.75,2.03-1.41,3.07-1.94v.79c-1.07.46-2.13,1.14-3.07,1.76v1.17c1.02-.68,2.03-1.28,3.07-1.74v.77c-1.06.44-2.13,1.05-3.07,1.6v1.17c1.02-.62,2.03-1.14,3.07-1.56v.77c-1.06.37-2.12.92-3.07,1.41v1.19c1.02-.55,2.04-1.03,3.07-1.41v.79c-1.05.33-2.11.79-3.07,1.23v1.17c1.02-.46,2.04-.88,3.07-1.21v.79c-1.05.26-2.1.68-3.07,1.05v1.17c1.02-.42,2.04-.77,3.07-1.05v.79c-1.04.24-2.09.57-3.07.88v1.17c1.02-.33,2.04-.62,3.07-.86v.79c-1.04.2-2.08.46-3.07.7v1.17c1.02-.26,2.04-.51,3.07-.7v.81c-1.03.13-2.07.33-3.07.53v1.16c1.02-.2,2.04-.4,3.07-.53v.79c-1.03.11-2.07.24-3.07.35v1.16c1.02-.13,2.05-.24,3.07-.33v.79c-1.02.04-2.06.11-3.07.18v1.16c1.02-.07,2.05-.13,3.07-.18v.81h-3.07v.79h-.88v-22.71c-1.49.43-3.19,1.31-4.45,2.17v-25.04h32.88v25.1Z"/></g></svg>