<svg width="256" height="256" viewBox="0 0 256 256" fill="none" xmlns="http://www.w3.org/2000/svg">
<path fill-rule="evenodd" clip-rule="evenodd" d="M41.4306 0C19.2985 0 1.35693 18.2678 1.35693 40.8022V210.987C1.35693 233.521 19.2985 251.789 41.4306 251.789H131.51C195.415 251.789 247.996 202.429 254.483 139.11L232.647 141.417C182.592 149.184 142.055 178.929 129.919 228.979C117.593 178.14 78.6069 138.445 28.6748 125.894C78.6069 113.344 117.593 73.6489 129.919 22.8089C142.055 72.8595 182.592 102.604 232.647 110.372L254.483 112.677C247.995 49.3596 195.414 0 131.51 0H41.4306Z" fill="url(#paint0_linear_106_556)"/>
<defs>
<linearGradient id="paint0_linear_106_556" x1="1.35693" y1="0" x2="183.695" y2="240.043" gradientUnits="userSpaceOnUse">
<stop stop-color="#793EF1"/>
<stop offset="1" stop-color="#5F29CB"/>
</linearGradient>
</defs>
</svg>
