<?xml version="1.0" encoding="UTF-8"?><svg id="Layer_2" xmlns="http://www.w3.org/2000/svg" xmlns:xlink="http://www.w3.org/1999/xlink" viewBox="0 0 588 159.4"><defs><style>.cls-1{fill:#fff;}.cls-2{fill:url(#linear-gradient);fill-rule:evenodd;}</style><linearGradient id="linear-gradient" x1="0" y1="56.75" x2="116.1" y2="56.75" gradientUnits="userSpaceOnUse"><stop offset="0" stop-color="#793ef1"/><stop offset="1" stop-color="#5f29cb"/></linearGradient></defs><g id="Layer_1-2"><path class="cls-2" d="M13.8,0C6.2,0,0,6.2,0,13.8v85.9c0,7.6,6.2,13.8,13.8,13.8h45.9c29.3,0,53.4-22.2,56.4-50.8l-10,1c-23,3.5-41.6,16.9-47.1,39.5-5.7-22.9-23.5-40.8-46.5-46.5,22.9-5.6,40.8-23.5,46.5-46.4,5.6,22.6,24.2,36,47.1,39.5l10,1C113.2,22.2,89,0,59.7,0H13.8Z"/><path class="cls-1" d="M165,2.3c20.4,0,27.4,10.5,27.4,24.8s-7,24.8-27.4,24.8h-25.6V2.3h25.6ZM165,36.9c5.2,0,9.5-2.5,9.5-9.9s-4.3-9.9-9.5-9.9h-7.7l-.1,19.7,7.8.1h0Z"/><path class="cls-1" d="M247.4,51.9h-17.5l-6.2-12.2h-11.2v12.2h-17.8V2.3h29.1c13.9,0,21.8,5.8,21.8,19.4,0,6.5-2.8,11.2-6.8,14.2l8.6,16ZM212.4,17.1v9.3h10c3.5,0,5.2-1.8,5.2-4.7s-1.7-4.7-5.2-4.7h-10v.1Z"/><path class="cls-1" d="M249.4,51.9V2.3h17.8v49.6s-17.8,0-17.8,0Z"/><path class="cls-1" d="M286,51.9l-17.8-49.6h18.4l11,32.8h1.9l11-32.8h18.4l-17.9,49.6h-25Z"/><path class="cls-1" d="M329.9,51.9V2.3h45.5v14.2h-27.7v4.8h26.7v11.5h-26.7v4.8h27.7v14.3s-45.5,0-45.5,0Z"/><path class="cls-1" d="M378.3,51.9V2.3h20.4l14.2,24.6h1.6V2.3h17.4v49.6h-20l-14.7-24.6h-1.6v24.6s-17.3,0-17.3,0Z"/><path class="cls-1" d="M167.5,113.8c-16.9,0-28-10.5-28-26.5s11.1-26.5,28-26.5c12.4,0,25.3,5.5,26.6,23h-17c-1.1-5.1-4.6-7.6-9.7-7.6-5.7,0-10.4,4.2-10.4,11s4.7,11,10.4,11c5.1,0,8.5-2.4,9.7-7.7h17c-1.3,17.8-14,23.3-26.6,23.3Z"/><path class="cls-1" d="M248.8,112.2h-17.5l-6.2-12.2h-11.2v12.2h-17.8v-49.7h29.1c13.9,0,21.8,5.8,21.8,19.4,0,6.5-2.8,11.2-6.8,14.2l8.6,16.1ZM213.9,77.4v9.3h10c3.5,0,5.2-1.8,5.2-4.7s-1.7-4.7-5.2-4.7l-10,.1h0Z"/><path class="cls-1" d="M250.8,112.2v-49.7h45.5v14.2h-27.7v4.8h26.7v11.5h-26.7v4.8h27.7v14.3l-45.5.1h0Z"/><path class="cls-1" d="M338.8,112.2l-1.9-6h-20.1l-1.9,6h-18.4l17.8-49.6h25l17.9,49.6h-18.4ZM320.9,93h11.8l-4.4-13.7h-3.1l-4.3,13.7Z"/><path class="cls-1" d="M400.8,62.5v14.9h-17.5v34.7h-17.8v-34.7h-17.5v-14.9h52.8Z"/><path class="cls-1" d="M403.2,112.2v-49.7h17.8v49.6l-17.8.1h0Z"/><path class="cls-1" d="M451.2,113.8c-17.3,0-28.3-10.5-28.3-26.5s11-26.5,28.3-26.5,28.3,10.5,28.3,26.5-11,26.5-28.3,26.5ZM451.2,98.4c5.7,0,10.6-3.8,10.6-11s-4.9-11-10.6-11-10.6,3.8-10.6,11,5,11,10.6,11Z"/><path class="cls-1" d="M481.5,112.2v-49.7h20.4l14.2,24.6h1.6v-24.6h17.4v49.6h-20l-14.7-24.6h-1.6v24.6l-17.3.1h0Z"/><path class="cls-1" d="M562,113.8c-17.7-.1-25.8-5.4-25.3-18.7h16c.1,3,2.6,4.7,9.3,4.8,5.8.1,8.2-1.5,8.2-3.2,0-.9-.2-2.6-4.7-3.2l-6.5-1c-9.3-1.5-21.2-2.1-21.2-15.5,0-10,7.9-16.1,24.3-16.1,14.6,0,24.8,3.8,24.4,18.5h-15.9c-.5-2.9-3.1-4.7-8.9-4.7-5,0-6.8,1.4-6.8,3.2,0,.8.4,2.5,3.8,3l5.2.8c10,1.7,24.1,1.5,24.1,15.7,0,11.2-8.5,16.5-26,16.4Z"/><path class="cls-1" d="M147.6,159h-8.1v-21.8h8.1c2.2,0,4.1.4,5.7,1.3,1.6.9,2.9,2.1,3.7,3.8.9,1.6,1.3,3.6,1.3,5.8s-.4,4.2-1.3,5.9c-.9,1.6-2.1,2.9-3.7,3.8-1.6.8-3.5,1.2-5.7,1.2ZM144.8,154.5h2.6c1.2,0,2.3-.2,3.1-.6.9-.4,1.5-1.1,1.9-2s.7-2.2.7-3.8-.2-2.8-.7-3.8c-.4-.9-1.1-1.6-2-2s-1.9-.6-3.2-.6h-2.5l.1,12.8h0Z"/><path class="cls-1" d="M170.3,137.2v21.8h-5.3v-21.8h5.3Z"/><path class="cls-1" d="M191.5,144.3c-.1-.4-.3-.8-.5-1.2-.2-.3-.5-.6-.9-.9-.3-.2-.7-.4-1.2-.5-.4-.1-.9-.2-1.4-.2-1.1,0-2,.3-2.7.8-.8.5-1.4,1.3-1.8,2.2-.4,1-.6,2.2-.6,3.5,0,1.4.2,2.6.6,3.6s1,1.7,1.8,2.3c.8.5,1.7.8,2.8.8,1,0,1.8-.2,2.4-.5.7-.3,1.2-.8,1.5-1.4.3-.6.5-1.3.5-2.1l1,.1h-5.3v-3.8h9.4v2.9c0,2-.4,3.6-1.2,5s-2,2.5-3.4,3.2-3.1,1.1-5,1.1c-2.1,0-3.9-.5-5.5-1.4s-2.8-2.2-3.7-3.9-1.3-3.7-1.3-6c0-1.8.3-3.4.8-4.8.5-1.4,1.3-2.6,2.2-3.5,1-1,2.1-1.7,3.3-2.2,1.3-.5,2.6-.7,4.1-.7,1.3,0,2.4.2,3.5.5,1.1.4,2.1.9,2.9,1.5.8.7,1.5,1.4,2.1,2.4.5.9.9,1.9,1,3h-5.4v.2h0Z"/><path class="cls-1" d="M209.1,137.2v21.8h-5.3v-21.8h5.3Z"/><path class="cls-1" d="M215.3,141.5v-4.3h18.4v4.3h-6.6v17.5h-5.2v-17.5h-6.6Z"/><path class="cls-1" d="M241.9,159h-5.7l7.4-21.8h7l7.4,21.8h-5.7l-5.1-16.3h-.2l-5.1,16.3ZM241.1,150.4h11.9v4h-11.8l-.1-4h0Z"/><path class="cls-1" d="M263.9,159v-21.8h5.3v17.5h9.1v4.3h-14.4Z"/><path class="cls-1" d="M302.7,159h-8.1v-21.8h8.1c2.2,0,4.1.4,5.7,1.3,1.6.9,2.9,2.1,3.7,3.8.9,1.6,1.3,3.6,1.3,5.8s-.4,4.2-1.3,5.9c-.9,1.6-2.1,2.9-3.7,3.8-1.6.8-3.5,1.2-5.7,1.2ZM299.9,154.5h2.6c1.2,0,2.3-.2,3.1-.6.9-.4,1.5-1.1,1.9-2s.7-2.2.7-3.8-.2-2.8-.7-3.8c-.4-.9-1.1-1.6-2-2s-1.9-.6-3.2-.6h-2.5v12.8h.1Z"/><path class="cls-1" d="M320.1,159v-21.8h15.2v4.3h-9.9v4.5h9.2v4.3h-9.2v4.5h9.9v4.3h-15.2v-.1Z"/><path class="cls-1" d="M354,143.7c-.1-.8-.4-1.4-.9-1.8-.6-.4-1.3-.7-2.4-.7-.7,0-1.2.1-1.7.3s-.8.4-1,.7-.3.7-.4,1.1c0,.3,0,.6.2.9.1.2.4.5.6.7.3.2.6.3,1,.5.4.1.8.3,1.3.4l1.9.4c1.1.2,2,.5,2.9.9.8.4,1.5.9,2.1,1.4s1,1.2,1.3,1.9.4,1.5.4,2.4c0,1.4-.4,2.6-1,3.5-.7,1-1.7,1.7-3,2.3-1.3.5-2.8.8-4.7.8-1.8,0-3.4-.3-4.8-.8s-2.4-1.4-3.2-2.5c-.8-1.1-1.1-2.5-1.2-4.2h5c0,.7.2,1.3.6,1.8.3.5.8.8,1.4,1.1.6.2,1.3.4,2,.4s1.3-.1,1.8-.3.9-.5,1.2-.8c.3-.3.4-.7.4-1.2,0-.4-.1-.8-.4-1.1-.2-.3-.6-.6-1.2-.8-.5-.2-1.2-.4-2-.6l-2.3-.5c-1.9-.4-3.4-1.1-4.5-2.1s-1.6-2.3-1.6-3.9c0-1.3.4-2.5,1.1-3.5s1.7-1.8,3-2.4c1.3-.6,2.8-.9,4.4-.9,1.7,0,3.2.3,4.4.9s2.2,1.4,2.9,2.4,1,2.2,1.1,3.6h-4.7v-.3Z"/><path class="cls-1" d="M370.9,137.2v21.8h-5.3v-21.8h5.3Z"/><path class="cls-1" d="M392.2,144.3c-.1-.4-.3-.8-.5-1.2-.2-.3-.5-.6-.9-.9-.3-.2-.7-.4-1.2-.5-.4-.1-.9-.2-1.4-.2-1.1,0-2,.3-2.7.8-.8.5-1.4,1.3-1.8,2.2-.4,1-.6,2.2-.6,3.5,0,1.4.2,2.6.6,3.6s1,1.7,1.8,2.3c.8.5,1.7.8,2.8.8,1,0,1.8-.2,2.5-.5s1.2-.8,1.5-1.4c.3-.6.5-1.3.5-2.1l1,.1h-5.3v-3.8h9.4v2.9c0,2-.4,3.6-1.2,5-.8,1.4-2,2.5-3.4,3.2s-3.1,1.1-5,1.1c-2.1,0-3.9-.5-5.5-1.4s-2.8-2.2-3.7-3.9c-.9-1.7-1.3-3.7-1.3-6,0-1.8.3-3.4.8-4.8.5-1.4,1.3-2.6,2.2-3.5,1-1,2.1-1.7,3.3-2.2,1.3-.5,2.6-.7,4.1-.7,1.3,0,2.4.2,3.5.5,1.1.4,2.1.9,2.9,1.5.8.7,1.5,1.4,2.1,2.4.5.9.9,1.9,1,3h-5.5v.2h0Z"/><path class="cls-1" d="M423,137.2v21.8h-4.5l-8.7-12.6h-.1v12.6h-5.3v-21.8h4.5l8.6,12.6h.2v-12.6h5.3Z"/><path class="cls-1" d="M444.7,159h-5.7l7.4-21.8h7l7.4,21.8h-5.7l-5.1-16.3h-.2l-5.1,16.3ZM443.9,150.4h11.8v4h-11.8v-4Z"/><path class="cls-1" d="M480,144.3c-.1-.4-.3-.8-.5-1.2-.2-.3-.5-.6-.9-.9-.3-.2-.7-.4-1.2-.5-.4-.1-.9-.2-1.4-.2-1.1,0-2,.3-2.7.8-.8.5-1.4,1.3-1.8,2.2-.4,1-.6,2.2-.6,3.5,0,1.4.2,2.6.6,3.6s1,1.7,1.8,2.3c.8.5,1.7.8,2.8.8,1,0,1.8-.2,2.4-.5.7-.3,1.2-.8,1.5-1.4.3-.6.5-1.3.5-2.1l1,.1h-5.3v-3.8h9.4v2.9c0,2-.4,3.6-1.2,5-.8,1.4-2,2.5-3.4,3.2s-3.1,1.1-5,1.1c-2.1,0-3.9-.5-5.5-1.4s-2.8-2.2-3.7-3.9c-.9-1.7-1.3-3.7-1.3-6,0-1.8.3-3.4.8-4.8.5-1.4,1.3-2.6,2.2-3.5,1-1,2.1-1.7,3.3-2.2,1.3-.5,2.6-.7,4.1-.7,1.3,0,2.4.2,3.5.5,1.1.4,2.1.9,2.9,1.5.8.7,1.5,1.4,2.1,2.4.5.9.9,1.9,1,3h-5.4v.2Z"/><path class="cls-1" d="M492.3,159v-21.8h15.2v4.3h-9.9v4.5h9.2v4.3h-9.2v4.5h9.9v4.3h-15.2v-.1Z"/><path class="cls-1" d="M533,137.2v21.8h-4.5l-8.7-12.6h-.1v12.6h-5.3v-21.8h4.5l8.6,12.6h.2v-12.6h5.3Z"/><path class="cls-1" d="M559.7,145.1h-5.3c-.1-.5-.2-1-.4-1.5-.2-.4-.5-.8-.9-1.1s-.8-.6-1.3-.7c-.5-.2-1-.3-1.6-.3-1.1,0-2,.3-2.7.8-.8.5-1.3,1.3-1.8,2.2-.4,1-.6,2.2-.6,3.6s.2,2.7.6,3.6c.4,1,1,1.7,1.8,2.2s1.7.7,2.7.7c.6,0,1.1-.1,1.6-.2.5-.1.9-.4,1.3-.7.4-.3.7-.6.9-1.1.2-.4.4-.9.5-1.4h5.3c-.1,1-.4,1.9-.8,2.9-.5.9-1.1,1.8-1.9,2.6-.8.8-1.8,1.4-3,1.8-1.2.5-2.5.7-4,.7-2,0-3.7-.4-5.3-1.3-1.6-.9-2.8-2.1-3.7-3.8s-1.4-3.7-1.4-6.1.5-4.4,1.4-6.1c.9-1.7,2.2-2.9,3.7-3.8,1.6-.9,3.3-1.3,5.3-1.3,1.3,0,2.5.2,3.7.6,1.1.4,2.1.9,3,1.6.9.7,1.5,1.6,2.1,2.6.3,1,.7,2.2.8,3.5Z"/><path class="cls-1" d="M565.2,137.2h5.9l4.6,9.1h.2l4.6-9.1h5.9l-8,14.5v7.3h-5.2v-7.3l-8-14.5Z"/></g></svg>